# https://github.com/mikedh/trimesh
v 0.09702444 -0.27224249 0.15711676
v 0.15466967 -0.26305354 0.35446203
v 0.09702444 -0.27214086 0.26102102
v 0.09702444 -0.27218151 0.15484215
v 0.16141272 -0.26065466 0.35746455
v 0.16141272 -0.26065466 0.36201376
v 0.15466967 -0.26299256 0.36428839
v 0.15466967 -0.26297224 0.36519819
v 0.15466967 -0.25219756 0.39476818
v 0.15466967 -0.23032297 0.44699323
v 0.09702444 -0.25965852 0.26102102
v 0.09702444 -0.26955900 0.13482557
v 0.10080287 -0.27037218 0.15484215
v 0.12085760 -0.26041070 0.15675282
v 0.14071856 -0.25034755 0.15711676
v 0.16061828 -0.24026412 0.15766266
v 0.18086678 -0.25061184 0.35773748
v 0.18086678 -0.25061184 0.36183178
v 0.17544134 -0.25244153 0.36492527
v 0.16158710 -0.25073382 0.39121979
v 0.15784743 -0.22857463 0.44699323
v 0.15466967 -0.21712910 0.44699323
v 0.09702444 -0.25845906 0.25265044
v 0.25209498 -0.08470245 0.44699323
v 0.09702444 -0.26825792 0.12518121
v 0.16003698 -0.22999769 0.07968898
v 0.15585165 -0.24229708 0.15456919
v 0.09704382 -0.20846871 -0.31491065
v 0.12403535 -0.19202211 -0.33492720
v 0.16439670 -0.23780423 0.15456919
v 0.17286426 -0.23237625 0.15484215
v 0.17786340 -0.22780211 0.15484215
v 0.19102009 -0.24097565 0.35719156
v 0.19102009 -0.24097565 0.36228669
v 0.18026610 -0.24018280 0.39021897
v 0.17904538 -0.24935143 0.36847365
v 0.15933943 -0.22757849 0.44699323
v 0.09704382 -0.15404652 -0.48250401
v 0.09702444 -0.15823440 -0.47713590
v 0.26335275 -0.08470245 0.44699323
v 0.26873943 -0.06463719 0.26102102
v 0.17048094 -0.06457620 -0.48250401
v 0.09702444 -0.20730993 -0.32346314
v 0.12979019 -0.18986718 -0.32910419
v 0.14959303 -0.20972914 -0.10828491
v 0.16026950 -0.22013786 0.00872110
v 0.10419377 -0.20210557 -0.33492720
v 0.12899575 -0.18946059 -0.33492720
v 0.10243050 -0.20121107 -0.34493548
v 0.12225271 -0.19110727 -0.34493548
v 0.16988027 -0.22987571 0.12054101
v 0.17048094 -0.23036364 0.12718287
v 0.14095108 -0.18090186 -0.33492720
v 0.16094768 -0.16093823 -0.33492720
v 0.18094428 -0.14095430 -0.33492720
v 0.21929048 -0.16925302 0.05485023
v 0.22279763 -0.18281282 0.15484215
v 0.22097623 -0.21094891 0.35719156
v 0.22097623 -0.21094891 0.36228669
v 0.24019778 -0.18021065 0.39021897
v 0.20022395 -0.22021919 0.39021897
v 0.17172104 -0.21767800 0.44699323
v 0.16800074 -0.22105271 0.44699323
v 0.16536553 -0.22318730 0.44699323
v 0.09702444 -0.16305251 -0.48250401
v 0.26325586 -0.08512937 0.44699323
v 0.28478321 -0.08502772 0.39485914
v 0.28484136 -0.08470245 0.39485914
v 0.27949342 -0.06463719 0.26102102
v 0.19570921 -0.06457620 -0.35767335
v 0.18598218 -0.06457620 -0.48250401
v 0.09702444 -0.20582587 -0.33429033
v 0.13976911 -0.18982652 -0.28898007
v 0.13500248 -0.18539467 -0.33492720
v 0.12727123 -0.18832213 -0.34493548
v 0.13552564 -0.18285349 -0.34475350
v 0.09702444 -0.20375225 -0.34493548
v 0.09702444 -0.17366454 -0.47495228
v 0.12023755 -0.17012720 -0.44128805
v 0.12341531 -0.16299152 -0.46494401
v 0.14033103 -0.18029197 -0.34129614
v 0.16036639 -0.16034868 -0.34129614
v 0.18987687 -0.13983618 -0.28888905
v 0.18032423 -0.14036474 -0.34111416
v 0.22022055 -0.16028769 0.00844815
v 0.22985069 -0.16980192 0.12054101
v 0.23037386 -0.17041181 0.12718287
v 0.22694421 -0.17693760 0.14483386
v 0.22777741 -0.17777111 0.15484215
v 0.24095346 -0.19092432 0.35719156
v 0.24095346 -0.19092432 0.36228669
v 0.24515817 -0.18515073 0.36538017
v 0.25060299 -0.18077987 0.36183178
v 0.24938226 -0.17895022 0.36847365
v 0.25075799 -0.16158879 0.39121979
v 0.22727361 -0.15860035 0.44699323
v 0.22285576 -0.16506514 0.44699323
v 0.21987177 -0.16872445 0.44699323
v 0.21867043 -0.17004587 0.44699323
v 0.09702444 -0.17059477 -0.48250401
v 0.26271331 -0.08673541 0.44699323
v 0.28220612 -0.09484689 0.39485914
v 0.29080933 -0.09269196 0.37174910
v 0.29495591 -0.08470245 0.36483431
v 0.28048164 -0.06463719 0.16121106
v 0.20921467 -0.06457620 -0.35767335
v 0.29497528 -0.08470245 0.36456132
v 0.18869489 -0.06695475 -0.47677195
v 0.18584655 -0.06508444 -0.48250401
v 0.19061318 -0.06457620 -0.47449738
v 0.09702444 -0.17126565 -0.48168516
v 0.10066724 -0.17033049 -0.48050237
v 0.12163267 -0.16144648 -0.47304159
v 0.12841445 -0.15837671 -0.46494401
v 0.12959643 -0.15953550 -0.45766526
v 0.15953320 -0.12959008 -0.45766526
v 0.20985410 -0.14981797 -0.10892180
v 0.18557528 -0.13503841 -0.33492720
v 0.18966372 -0.12930547 -0.33492720
v 0.16294347 -0.12343023 -0.46494401
v 0.16904709 -0.11867312 -0.45493573
v 0.18299820 -0.13554664 -0.34466255
v 0.23008321 -0.16018605 0.07905209
v 0.23793072 -0.16447558 0.15420526
v 0.23171085 -0.17193653 0.14483386
v 0.23244715 -0.17279036 0.15484215
v 0.25060299 -0.18077987 0.35773748
v 0.26064003 -0.16140582 0.36201376
v 0.25244376 -0.17537221 0.36492527
v 0.29086745 -0.10175893 0.36255968
v 0.26081443 -0.14172682 0.39140177
v 0.23093578 -0.15199324 0.44699323
v 0.22899812 -0.15559156 0.44699323
v 0.22830057 -0.15685201 0.44699323
v 0.10241112 -0.16780962 -0.48250401
v 0.26093069 -0.09191944 0.44699323
v 0.28090790 -0.10196223 0.39158374
v 0.28972423 -0.09936005 0.36920154
v 0.29216570 -0.09561941 0.36547118
v 0.29487839 -0.08502772 0.36483431
v 0.29487839 -0.08470245 0.35482597
v 0.28036535 -0.06463719 0.15584297
v 0.19514729 -0.06457620 -0.45539063
v 0.27912527 -0.06463719 0.14537977
v 0.22037557 -0.06463719 -0.33401734
v 0.29086745 -0.10175893 0.35700959
v 0.29485902 -0.08502772 0.35482597
v 0.18032423 -0.08063654 -0.48041135
v 0.18168059 -0.07482229 -0.48250401
v 0.18199061 -0.07413109 -0.48250401
v 0.19009002 -0.07018715 -0.47013009
v 0.18642785 -0.07411075 -0.47404242
v 0.19088446 -0.06457620 -0.47376949
v 0.11318449 -0.16193439 -0.48250401
v 0.11983065 -0.15984043 -0.47968346
v 0.13165033 -0.15162730 -0.47304159
v 0.15164694 -0.13164337 -0.47304159
v 0.15837060 -0.12841097 -0.46494401
v 0.21237305 -0.14589438 -0.10528243
v 0.21196614 -0.08563761 -0.33438128
v 0.27054146 -0.10112872 0.15484215
v 0.24027528 -0.15061083 0.11781147
v 0.18850113 -0.12753680 -0.34484452
v 0.19127198 -0.12255606 -0.34484452
v 0.20964095 -0.08933759 -0.33729279
v 0.16143209 -0.12164123 -0.47304159
v 0.16829139 -0.11521709 -0.46585387
v 0.17102349 -0.11202535 -0.46312433
v 0.23953897 -0.15918989 0.14483386
v 0.24035278 -0.16079593 0.15693478
v 0.26064003 -0.16140582 0.35746455
v 0.27999720 -0.07016683 0.15975530
v 0.19353904 -0.06457620 -0.46494401
v 0.27619940 -0.07502559 0.13482557
v 0.26963076 -0.07781073 0.08487510
v 0.21958113 -0.06750365 -0.33665591
v 0.21849604 -0.06463719 -0.34438956
v 0.29212692 -0.09572106 0.35418910
v 0.27352545 -0.09502985 0.15484215
v 0.27687758 -0.08502772 0.15484215
v 0.17861910 -0.08730463 -0.47668099
v 0.17026781 -0.10051883 -0.48032039
v 0.17139164 -0.09500953 -0.48250401
v 0.19218268 -0.06457620 -0.46958423
v 0.19346154 -0.06500312 -0.46494401
v 0.19092320 -0.07183385 -0.46494401
v 0.18001421 -0.09004912 -0.47003913
v 0.11833865 -0.15823440 -0.48250401
v 0.12337655 -0.15337566 -0.48250401
v 0.12839508 -0.14839491 -0.48250401
v 0.14841105 -0.12841097 -0.48250401
v 0.12984832 -0.14983830 -0.47968346
v 0.15984322 -0.11983190 -0.47968346
v 0.21764347 -0.07404976 -0.33383536
v 0.21872856 -0.07728217 -0.31481963
v 0.22027868 -0.08059588 -0.29198253
v 0.26999891 -0.09011011 0.10962287
v 0.21144298 -0.08289312 -0.34484452
v 0.16391230 -0.11590829 -0.47577113
v 0.16988027 -0.10993141 -0.46985716
v 0.18082802 -0.09165515 -0.46494401
v 0.19204704 -0.07402944 -0.45493573
v 0.27889276 -0.07411075 0.15584297
v 0.19344215 -0.06457620 -0.46539891
v 0.26994079 -0.07982336 0.09015220
v 0.21506639 -0.07502559 -0.34484452
v 0.26001999 -0.08012830 0.00981292
v 0.21998803 -0.07004485 -0.32983208
v 0.25006044 -0.08027061 -0.07061735
v 0.17143039 -0.10281608 -0.47495228
v 0.16195527 -0.11296052 -0.48250401
v 0.16755509 -0.10236882 -0.48250401
v 0.16883394 -0.10781714 -0.47495228
v 0.15337145 -0.12338957 -0.48250401
v 0.15819621 -0.11832751 -0.48250401
v 0.16185838 -0.11312315 -0.48250401
v 0.23992650 -0.07986402 -0.14959186
f 1 2 3
f 1 3 11
f 1 11 23
f 1 23 39
f 1 39 65
f 1 65 100
f 1 100 111
f 1 111 78
f 1 78 77
f 1 77 72
f 1 72 43
f 1 43 25
f 1 25 12
f 1 12 4
f 1 4 2
f 2 4 5
f 2 5 6
f 2 6 7
f 2 7 3
f 3 7 8
f 3 8 9
f 3 9 10
f 3 10 22
f 3 22 11
f 4 12 13
f 4 13 5
f 5 14 15
f 5 15 16
f 5 16 17
f 5 17 18
f 5 18 6
f 5 13 14
f 6 18 19
f 6 19 20
f 6 20 8
f 6 8 7
f 8 20 9
f 9 20 10
f 10 21 37
f 10 37 64
f 10 64 63
f 10 63 62
f 10 62 99
f 10 99 98
f 10 98 97
f 10 97 96
f 10 96 134
f 10 134 133
f 10 133 132
f 10 132 136
f 10 136 101
f 10 101 66
f 10 66 40
f 10 40 24
f 10 24 22
f 10 20 21
f 11 22 24
f 11 24 23
f 12 25 13
f 13 26 27
f 13 27 15
f 13 15 14
f 13 25 28
f 13 28 29
f 13 29 26
f 15 27 16
f 16 27 26
f 16 26 30
f 16 30 17
f 17 30 31
f 17 31 32
f 17 32 33
f 17 33 34
f 17 34 18
f 18 34 35
f 18 35 36
f 18 36 19
f 19 36 20
f 20 36 35
f 20 35 21
f 21 35 37
f 23 24 38
f 23 38 39
f 24 40 69
f 24 69 41
f 24 41 42
f 24 42 38
f 25 43 28
f 26 29 44
f 26 44 45
f 26 45 46
f 26 46 30
f 28 43 47
f 28 47 29
f 29 48 44
f 29 47 49
f 29 49 50
f 29 50 48
f 30 46 51
f 30 51 52
f 30 52 31
f 31 52 32
f 32 52 51
f 32 51 53
f 32 53 54
f 32 54 55
f 32 55 56
f 32 56 57
f 32 57 33
f 33 58 59
f 33 59 34
f 33 57 58
f 34 59 60
f 34 60 61
f 34 61 35
f 35 61 62
f 35 62 63
f 35 63 64
f 35 64 37
f 38 42 71
f 38 71 109
f 38 109 150
f 38 150 149
f 38 149 183
f 38 183 212
f 38 212 211
f 38 211 216
f 38 216 215
f 38 215 214
f 38 214 191
f 38 191 190
f 38 190 189
f 38 189 188
f 38 188 154
f 38 154 135
f 38 135 100
f 38 100 65
f 38 65 39
f 40 66 67
f 40 67 68
f 40 68 69
f 41 70 42
f 41 69 106
f 41 106 70
f 42 70 106
f 42 106 143
f 42 143 173
f 42 173 204
f 42 204 184
f 42 184 153
f 42 153 110
f 42 110 71
f 43 72 47
f 44 73 45
f 44 48 73
f 45 73 46
f 46 73 51
f 47 72 49
f 48 74 73
f 48 50 75
f 48 75 76
f 48 76 74
f 49 72 77
f 49 77 78
f 49 78 79
f 49 79 50
f 50 79 80
f 50 80 75
f 51 73 53
f 53 73 81
f 53 81 82
f 53 82 54
f 54 82 55
f 55 83 56
f 55 82 84
f 55 84 83
f 56 83 85
f 56 85 86
f 56 86 87
f 56 87 88
f 56 88 57
f 57 88 89
f 57 89 90
f 57 90 58
f 58 90 91
f 58 91 59
f 59 91 60
f 60 91 92
f 60 92 93
f 60 93 94
f 60 94 95
f 60 95 96
f 60 96 97
f 60 97 98
f 60 98 99
f 60 99 62
f 60 62 61
f 66 101 102
f 66 102 67
f 67 102 103
f 67 103 104
f 67 104 68
f 68 104 69
f 69 105 106
f 69 104 107
f 69 107 105
f 71 108 109
f 71 110 108
f 73 74 81
f 74 76 81
f 75 80 76
f 76 80 81
f 78 111 112
f 78 112 80
f 78 80 79
f 80 112 113
f 80 113 114
f 80 114 115
f 80 115 81
f 81 115 82
f 82 115 116
f 82 116 84
f 83 117 85
f 83 84 118
f 83 118 119
f 83 119 117
f 84 116 120
f 84 120 121
f 84 121 122
f 84 122 118
f 85 123 124
f 85 124 86
f 85 117 123
f 86 124 87
f 87 125 89
f 87 89 88
f 87 124 125
f 89 125 126
f 89 126 127
f 89 127 90
f 90 127 93
f 90 93 91
f 91 93 92
f 93 127 171
f 93 171 128
f 93 128 129
f 93 129 94
f 94 129 95
f 95 129 128
f 95 128 130
f 95 130 131
f 95 131 132
f 95 132 133
f 95 133 134
f 95 134 96
f 100 135 111
f 101 136 102
f 102 137 138
f 102 138 139
f 102 139 103
f 102 136 137
f 103 139 104
f 104 140 107
f 104 139 140
f 105 107 141
f 105 141 142
f 105 142 106
f 106 142 144
f 106 144 145
f 106 145 143
f 107 140 130
f 107 130 146
f 107 146 147
f 107 147 141
f 108 148 149
f 108 149 150
f 108 150 109
f 108 110 151
f 108 151 152
f 108 152 148
f 110 153 151
f 111 135 112
f 112 135 154
f 112 154 155
f 112 155 113
f 113 156 114
f 113 155 156
f 114 156 157
f 114 157 158
f 114 158 116
f 114 116 115
f 116 158 120
f 117 159 123
f 117 119 159
f 118 122 119
f 119 160 161
f 119 161 162
f 119 162 159
f 119 122 121
f 119 121 163
f 119 163 164
f 119 164 165
f 119 165 160
f 120 158 166
f 120 166 167
f 120 167 121
f 121 167 168
f 121 168 163
f 123 159 169
f 123 169 170
f 123 170 124
f 124 126 125
f 124 170 127
f 124 127 126
f 127 170 171
f 128 171 146
f 128 146 130
f 130 140 139
f 130 139 138
f 130 138 137
f 130 137 131
f 131 137 132
f 132 137 136
f 141 147 142
f 142 147 172
f 142 172 144
f 143 145 173
f 144 174 145
f 144 172 174
f 145 174 175
f 145 175 176
f 145 176 177
f 145 177 173
f 146 178 147
f 146 171 161
f 146 161 179
f 146 179 180
f 146 180 178
f 147 178 180
f 147 180 172
f 148 152 181
f 148 181 182
f 148 182 149
f 149 182 183
f 151 153 184
f 151 184 185
f 151 185 186
f 151 186 187
f 151 187 181
f 151 181 152
f 154 188 155
f 155 188 189
f 155 189 190
f 155 190 191
f 155 191 192
f 155 192 156
f 156 192 157
f 157 166 158
f 157 192 193
f 157 193 166
f 159 162 169
f 160 194 195
f 160 195 196
f 160 196 197
f 160 197 161
f 160 165 198
f 160 198 194
f 161 197 179
f 161 171 170
f 161 170 162
f 162 170 169
f 163 168 164
f 164 168 198
f 164 198 165
f 166 193 199
f 166 199 167
f 167 199 200
f 167 200 168
f 168 200 187
f 168 187 201
f 168 201 186
f 168 186 202
f 168 202 198
f 172 180 203
f 172 203 174
f 173 177 176
f 173 176 185
f 173 185 204
f 174 205 175
f 174 203 180
f 174 180 205
f 175 205 176
f 176 206 185
f 176 205 207
f 176 207 208
f 176 208 206
f 179 197 180
f 180 197 209
f 180 209 207
f 180 207 205
f 181 187 210
f 181 210 182
f 182 193 211
f 182 211 212
f 182 212 183
f 182 210 213
f 182 213 193
f 184 204 185
f 185 206 186
f 186 201 187
f 186 206 202
f 187 200 210
f 191 214 193
f 191 193 192
f 193 214 215
f 193 215 216
f 193 216 211
f 193 213 199
f 194 208 217
f 194 217 195
f 194 198 206
f 194 206 208
f 195 217 196
f 196 217 197
f 197 217 208
f 197 208 209
f 198 202 206
f 199 213 200
f 200 213 210
f 207 209 208

