# https://github.com/mikedh/trimesh
v -0.24169764 -0.15731420 0.26109797
v -0.25028226 -0.14052993 0.26109797
v -0.22927597 -0.15731420 0.26109797
v -0.26201642 -0.15731420 0.35550123
v -0.27074969 -0.14146900 0.35741624
v -0.27045238 -0.10090952 0.26109797
v -0.27807075 -0.00503348 0.26109797
v -0.21275708 -0.15728438 0.45475835
v -0.21275708 -0.15731420 0.45475835
v -0.26197925 -0.15731420 0.36424193
v -0.27074969 -0.14146900 0.36225110
v -0.29087335 -0.10172935 0.35707495
v -0.27309096 -0.09530482 0.26109797
v -0.28816977 -0.00503348 0.26109797
v -0.26401392 -0.00503348 0.45475835
v -0.22628435 -0.15731420 0.45475835
v -0.26105019 -0.15731420 0.36699116
v -0.26082721 -0.14166279 0.39144993
v -0.29087335 -0.10172935 0.36263031
v -0.29491481 -0.08498980 0.36498138
v -0.29485908 -0.08498980 0.35502723
v -0.29213691 -0.09569238 0.35424986
v -0.27580383 -0.08498980 0.26109797
v -0.28816977 -0.00533160 0.26109797
v -0.28997216 -0.00503348 0.26854935
v -0.27439165 -0.00503348 0.45475835
v -0.22784519 -0.15475035 0.45475835
v -0.25168514 -0.15731420 0.39345974
v -0.22835618 -0.15384108 0.45475835
v -0.23205389 -0.14680539 0.45475835
v -0.28095087 -0.10192313 0.39165851
v -0.28974918 -0.09931456 0.36928537
v -0.29217404 -0.09558804 0.36556914
v -0.30014548 -0.06096116 0.36050674
v -0.30014548 -0.06096116 0.35931227
v -0.29084548 -0.09265153 0.37182605
v -0.29002792 -0.07026257 0.39004689
v -0.28030053 -0.06251140 0.26109797
v -0.28779814 -0.00874510 0.26109797
v -0.28453711 -0.03500964 0.26109797
v -0.30766165 -0.00503348 0.35502723
v -0.29812941 -0.00503348 0.39381999
v -0.27438235 -0.00521235 0.45475835
v -0.24206927 -0.12674178 0.45475835
v -0.25233549 -0.10599250 0.45475835
v -0.25994459 -0.09011750 0.45475835
v -0.26146826 -0.08607794 0.45475835
v -0.28224230 -0.09479801 0.39499551
v -0.30061930 -0.05499873 0.36208045
v -0.30600792 -0.01502056 0.36498138
v -0.30755946 -0.00503348 0.36498138
v -0.28306916 -0.04499673 0.26109797
v -0.28478795 -0.08498980 0.39497656
v -0.26406968 -0.07521140 0.45475835
v -0.26410684 -0.07500271 0.45475835
v -0.29966235 -0.00920719 0.38896614
v -0.30076796 -0.00503348 0.38623586
v -0.27307236 -0.01521435 0.45475835
v -0.26167268 -0.08543698 0.45475835
v -0.26237875 -0.08242595 0.45475835
v -0.27108416 -0.02871927 0.45475835
f 1 2 6
f 1 6 13
f 1 13 23
f 1 23 38
f 1 38 52
f 1 52 40
f 1 40 39
f 1 39 24
f 1 24 14
f 1 14 7
f 1 7 3
f 1 3 9
f 1 9 16
f 1 16 28
f 1 28 17
f 1 17 10
f 1 10 4
f 1 4 5
f 1 5 2
f 2 5 6
f 3 7 8
f 3 8 9
f 4 10 11
f 4 11 5
f 5 11 19
f 5 19 12
f 5 12 6
f 6 12 13
f 7 14 25
f 7 25 41
f 7 41 51
f 7 51 57
f 7 57 42
f 7 42 26
f 7 26 15
f 7 15 8
f 8 15 26
f 8 26 43
f 8 43 58
f 8 58 61
f 8 61 55
f 8 55 54
f 8 54 60
f 8 60 59
f 8 59 47
f 8 47 46
f 8 46 45
f 8 45 44
f 8 44 30
f 8 30 29
f 8 29 27
f 8 27 16
f 8 16 9
f 10 17 18
f 10 18 11
f 11 18 19
f 12 19 20
f 12 20 21
f 12 21 22
f 12 22 13
f 13 22 23
f 14 24 25
f 16 27 28
f 17 28 18
f 18 28 29
f 18 29 30
f 18 30 31
f 18 31 19
f 19 32 33
f 19 33 20
f 19 31 32
f 20 34 35
f 20 35 21
f 20 33 36
f 20 36 37
f 20 37 34
f 21 38 23
f 21 23 22
f 21 35 38
f 24 39 25
f 25 39 40
f 25 40 41
f 26 42 43
f 27 29 28
f 30 44 31
f 31 44 45
f 31 45 46
f 31 46 47
f 31 47 48
f 31 48 32
f 32 48 33
f 33 48 36
f 34 49 50
f 34 50 51
f 34 51 41
f 34 41 35
f 34 37 49
f 35 41 52
f 35 52 38
f 36 48 53
f 36 53 37
f 37 53 54
f 37 54 55
f 37 55 56
f 37 56 51
f 37 51 50
f 37 50 49
f 40 52 41
f 42 57 56
f 42 56 43
f 43 56 58
f 47 59 48
f 48 59 53
f 51 56 57
f 53 59 60
f 53 60 54
f 55 61 56
f 56 61 58

