# https://github.com/mikedh/trimesh
v -0.27439755 -0.00497431 0.45480368
v -0.27305192 -0.01519311 0.45480368
v -0.27305192 -0.01503091 0.45500863
v -0.27434373 -0.00497431 0.45500863
v -0.27428991 0.00497415 0.45500863
v -0.27428991 0.00497415 0.45480368
v -0.25539711 0.10197166 0.44193602
v -0.27106038 -0.02876412 0.45480368
v -0.27127567 -0.02568226 0.45578492
v -0.27036062 -0.02281667 0.46116301
v -0.27132949 -0.00405516 0.46542326
v -0.26998386 -0.00000008 0.47003126
v -0.27095270 -0.01503091 0.46264103
v -0.27132949 0.00400093 0.46524313
v -0.27079123 0.01492261 0.46205106
v -0.27025297 0.02151887 0.46067861
v -0.27278277 0.01492261 0.45500863
v -0.27283660 0.01492261 0.45480368
v -0.26260975 0.07493779 0.45480368
v -0.26094115 0.08239914 0.45480368
v -0.26077968 0.08283168 0.45480368
v -0.25889578 0.08758964 0.45500863
v -0.25550476 0.09472658 0.45480368
v -0.25442824 0.10197166 0.44560006
v -0.25066045 0.11132538 0.44254461
v -0.25103724 0.11083877 0.44193602
v 0.25524667 0.10197166 0.44193602
v 0.00436539 -0.27725941 0.44701600
v -0.00440818 -0.27715129 0.44701600
v -0.02287038 -0.27498856 0.44701600
v -0.03293577 -0.27369094 0.44701600
v -0.05338951 -0.27044687 0.44701600
v -0.08493133 -0.26444536 0.44701600
v -0.09187484 -0.26217452 0.44701600
v -0.09327430 -0.26163384 0.44701600
v -0.11308213 -0.25152317 0.44701600
v -0.13127519 -0.24222352 0.44701600
v -0.25991845 -0.09007692 0.45480368
v -0.26142558 -0.08607591 0.45480368
v -0.26164088 -0.08537303 0.45480368
v -0.26406303 -0.07515423 0.45480368
v -0.27100652 0.02606056 0.45480368
v -0.26406303 -0.07493796 0.45500863
v -0.26137176 -0.07531644 0.46572134
v -0.26024142 -0.07223457 0.47056535
v -0.26998386 -0.00016229 0.47003126
v -0.26110262 -0.00497431 0.48095512
v -0.26083350 0.00497415 0.48070669
v -0.26018760 0.01108380 0.48018503
v -0.26266357 0.02497921 0.47373259
v -0.26174852 0.03492767 0.47257748
v -0.26083350 0.04498427 0.47130436
v -0.26024142 0.05136426 0.47042251
v -0.26067200 0.07493779 0.46139899
v -0.26013377 0.08045270 0.46034944
v -0.26255593 0.07493779 0.45500863
v -0.26083350 0.08256134 0.45500863
v -0.25044516 0.10089031 0.46084628
v -0.25189844 0.10197166 0.45500863
v -0.25071427 0.11148758 0.44193602
v -0.25146782 0.10283674 0.45500243
v -0.24054123 0.13116823 0.44193602
v 0.25998333 0.09023897 0.44701600
v 0.26181340 0.08526473 0.44701600
v 0.26412788 0.07493779 0.44701600
v 0.27123287 0.03395445 0.44701600
v 0.27311677 0.02292464 0.44701600
v 0.27457008 0.01292211 0.44701600
v 0.27537745 0.00497415 0.44701600
v 0.27548510 -0.00497431 0.44701600
v 0.27440858 -0.01503091 0.44701600
v 0.27300912 -0.02508751 0.44701600
v 0.27128670 -0.03703648 0.44701600
v 0.27037168 -0.04282173 0.44701600
v 0.26509675 -0.07493796 0.44701600
v 0.26321286 -0.08510269 0.44701600
v 0.26089835 -0.09186116 0.44701600
v 0.23091748 -0.15187635 0.44701600
v 0.22924888 -0.15501226 0.44701600
v 0.22725734 -0.15858074 0.44701600
v 0.22278981 -0.16501480 0.44701600
v 0.21982940 -0.16869141 0.44701600
v 0.21864523 -0.17004310 0.44701600
v 0.17165546 -0.21767677 0.44701600
v 0.16788766 -0.22102897 0.44701600
v 0.16525021 -0.22313762 0.44701600
v 0.15927556 -0.22757116 0.44701600
v 0.15771462 -0.22854438 0.44701600
v 0.15276267 -0.23135591 0.44701600
v 0.09328534 -0.26163384 0.44701600
v 0.09156292 -0.26222858 0.44701600
v 0.08494236 -0.26444536 0.44701600
v 0.05345437 -0.27044687 0.44701600
v 0.03698372 -0.27309620 0.44701600
v 0.02503444 -0.27471823 0.44701600
v 0.00694902 -0.27698907 0.44701600
v 0.25061765 0.11127131 0.44193602
v 0.00495747 -0.27477229 0.46501336
v -0.00494644 -0.27477229 0.46501336
v -0.01495801 -0.27493450 0.45502105
v -0.01495801 -0.27342060 0.46501336
v -0.03051362 -0.27001435 0.47050324
v -0.07491976 -0.26390469 0.46501336
v -0.08493133 -0.26330993 0.45502105
v -0.09052920 -0.26022807 0.46160394
v -0.13132903 -0.24081776 0.45480368
v -0.13030633 -0.24016894 0.46095186
v -0.15124451 -0.23059896 0.45500863
v -0.15129833 -0.23059896 0.45480368
v -0.15619646 -0.22800371 0.45480368
v -0.15646559 -0.22784151 0.45480368
v -0.16383971 -0.22297540 0.45480368
v -0.16884549 -0.21881220 0.45480368
v -0.18375519 -0.20378137 0.45480368
v -0.18876098 -0.19869900 0.45480368
v -0.21831125 -0.16847514 0.45480368
v -0.22261730 -0.16333871 0.45480368
v -0.22832282 -0.15382278 0.45480368
v -0.23235974 -0.14614516 0.45480368
v -0.24204835 -0.12668078 0.45480368
v -0.25227523 -0.10597283 0.45480368
v -0.25136018 -0.10278284 0.46500716
v -0.25491267 -0.09494302 0.46500716
v -0.25927255 -0.08904964 0.45861059
v -0.26072586 -0.08239931 0.46285841
v -0.26158705 -0.08542710 0.45517009
v -0.25959551 -0.07883084 0.46952823
v -0.25760394 -0.07531644 0.47433499
v -0.25921872 -0.04498443 0.47890574
v -0.26207149 -0.04498443 0.47391269
v -0.25970316 -0.03763122 0.47964475
v -0.26002610 -0.03098089 0.48007947
v -0.25496650 -0.00497431 0.48460674
v -0.24630058 -0.07493796 0.48739517
v -0.25496650 -0.02497938 0.48411614
v -0.25496650 -0.01503091 0.48443907
v -0.25496650 0.00497415 0.48414719
v -0.25566623 0.01459821 0.48261946
v -0.25362086 0.02497921 0.48258841
v -0.25249052 0.03492767 0.48181835
v -0.25943401 0.01773413 0.47952056
v -0.25049898 0.05222935 0.48037755
v -0.24775387 0.07493779 0.47830334
v -0.25292113 0.07493779 0.47331649
v -0.25792691 0.07493779 0.46639827
v -0.25152165 0.08494032 0.47176394
v -0.25652745 0.08423744 0.46421224
v -0.25179079 0.09423997 0.46451655
v -0.25098342 0.10197166 0.45769146
v -0.24926098 0.10197166 0.46191445
v -0.22999141 0.14014348 0.46014452
v -0.23096026 0.14192772 0.45500243
v -0.23225209 0.14544211 0.44497284
v -0.23052967 0.15030821 0.44193602
v 0.25530049 0.09494285 0.45501482
v 0.25955272 0.08959015 0.44950634
v 0.25885299 0.08753558 0.45501482
v 0.26079071 0.08256134 0.45501482
v 0.25137120 0.10283674 0.45500863
v 0.25180182 0.10197166 0.45501482
v 0.26245931 0.07493779 0.45501482
v 0.27268615 0.01492261 0.45501482
v 0.27424711 0.00497415 0.45501482
v 0.27424711 -0.00497431 0.45501482
v 0.27290148 -0.01503091 0.45501482
v 0.26396641 -0.07493796 0.45501482
v 0.26073688 -0.08239931 0.46285218
v 0.26154426 -0.08542710 0.45511419
v 0.26030627 -0.09077980 0.45186001
v 0.24141347 -0.12300418 0.46501336
v 0.23150957 -0.14311737 0.46501336
v 0.22155182 -0.16198701 0.46501336
v 0.23032540 -0.15084906 0.45210221
v 0.22257450 -0.16328463 0.45502105
v 0.21929114 -0.16928615 0.44748178
v 0.16756471 -0.21751457 0.46501336
v 0.16950244 -0.21946101 0.44841954
v 0.16261275 -0.22205625 0.46501336
v 0.16126712 -0.22102897 0.47501811
v 0.15620750 -0.22794963 0.45502105
v 0.15017903 -0.23005828 0.46062893
v 0.11045571 -0.25022554 0.46128100
v 0.11163988 -0.25082028 0.45502105
v 0.09156292 -0.26076874 0.45629415
v 0.09156292 -0.26098502 0.45502105
v 0.08494236 -0.26330993 0.45502105
v 0.07493079 -0.26390469 0.46501336
v 0.02503444 -0.27050096 0.47281966
v 0.02503444 -0.27358282 0.45502105
v 0.01496904 -0.27493450 0.45502105
v 0.23059453 0.15003787 0.44193602
v 0.23220930 0.14538805 0.44489211
v 0.01496904 -0.27342060 0.46501336
v 0.00495747 -0.27309620 0.47499949
v -0.00494644 -0.27309620 0.47499949
v -0.01592687 -0.27125791 0.47594965
v -0.01980232 -0.26990619 0.47990558
v -0.07491976 -0.26206636 0.47499949
v -0.08035615 -0.26006588 0.48028442
v -0.08207857 -0.26060656 0.47499949
v -0.08536194 -0.26141757 0.46496990
v -0.08708435 -0.25860605 0.47499949
v -0.09494290 -0.25498351 0.47499949
v -0.10269379 -0.25136098 0.47499949
v -0.10549272 -0.25200978 0.46477115
v -0.12540820 -0.24195318 0.46457243
v -0.15022182 -0.23005828 0.46062270
v -0.14537752 -0.23178846 0.46437991
v -0.16136372 -0.22102897 0.47500569
v -0.16265555 -0.22205625 0.46500716
v -0.16383971 -0.22297540 0.45500863
v -0.16766132 -0.21762270 0.46500716
v -0.17761907 -0.20756611 0.46500716
v -0.21707326 -0.16696124 0.46500716
v -0.22154078 -0.16198701 0.46500716
v -0.18752298 -0.19740137 0.46500716
v -0.22261730 -0.16328463 0.45500863
v -0.22067957 -0.16079752 0.47163349
v -0.23160617 -0.14322551 0.46500716
v -0.24151009 -0.12305824 0.46500716
v -0.25044516 -0.10099860 0.47090691
v -0.24064888 -0.12127400 0.47125468
v -0.25857282 -0.08542710 0.46572134
v -0.25162932 -0.09413201 0.47453991
v -0.25491267 -0.08499455 0.47500569
v -0.25109106 -0.08499455 0.48124078
v -0.25227523 -0.07493796 0.48239589
v -0.25781927 -0.06498950 0.47645888
v -0.24134861 -0.07493796 0.49078596
v -0.24145627 -0.06498950 0.49076733
v -0.24581614 -0.03503597 0.48866826
v -0.24420138 -0.02476310 0.48884216
v -0.24495493 0.00497415 0.48730820
v -0.24075653 -0.08191270 0.49046925
v -0.24495493 0.04498427 0.48382425
v -0.24398607 0.06493527 0.48226547
v -0.24280190 0.07493779 0.48168170
v -0.24140245 0.08261541 0.48088059
v -0.24484728 0.08553507 0.47716686
v -0.25028366 0.09050930 0.47037283
v -0.24850743 0.09715963 0.46751609
v -0.24710795 0.10197166 0.46557230
v -0.23139088 0.13500704 0.46246716
v -0.22154078 0.15306567 0.46279630
v -0.21976453 0.15971600 0.45963529
v -0.22105636 0.16133803 0.45297167
v -0.22767690 0.15544465 0.44193602
v 0.25040236 0.10089031 0.46085247
v 0.26009098 0.08045270 0.46034944
v 0.23091748 0.14187364 0.45500863
v 0.27015635 0.02151887 0.46066618
v 0.27069461 0.01492261 0.46203244
v 0.27128670 0.00400093 0.46523073
v 0.26994106 -0.00000008 0.47003746
v 0.27134052 -0.00405516 0.46541083
v 0.27090994 -0.01503091 0.46261001
v 0.27031785 -0.02260039 0.46111953
v 0.26127514 -0.07531644 0.46572134
v 0.25955272 -0.07883084 0.46952823
v 0.25853002 -0.08542710 0.46572134
v 0.25045618 -0.10099860 0.47091934
v 0.25481606 -0.09494302 0.46501336
v 0.25922975 -0.08894150 0.45852363
v 0.25126356 -0.10267471 0.46501336
v 0.24055226 -0.12127400 0.47126710
v 0.23059453 -0.14138719 0.47147825
v 0.22063679 -0.16085158 0.47165215
v 0.21697664 -0.16696124 0.46501336
v 0.16632672 -0.21610881 0.47501811
v 0.16035208 -0.22032610 0.48065701
v 0.14237431 -0.23113963 0.47501811
v 0.14533472 -0.23178846 0.46437991
v 0.10270482 -0.25136098 0.47501811
v 0.09054023 -0.26022807 0.46161634
v 0.08531915 -0.26141757 0.46496990
v 0.08208960 -0.26060656 0.47499949
v 0.08031336 -0.26006588 0.48028442
v 0.07493079 -0.26206636 0.47499949
v 0.01986717 -0.26990619 0.47990558
v 0.22994861 0.15128143 0.44193602
v 0.22106738 0.16133803 0.45297167
v 0.00495747 -0.27104163 0.48218474
v -0.00494644 -0.27104163 0.48218474
v -0.01318176 -0.27039281 0.48097375
v -0.01592687 -0.26812196 0.48458812
v -0.07491976 -0.26055250 0.48117247
v -0.07491976 -0.25784910 0.48619038
v -0.08493133 -0.25152317 0.49180445
v -0.08417777 -0.25655147 0.48416582
v -0.10107902 -0.25049588 0.48103586
v -0.14090998 -0.23038268 0.48081228
v -0.14236328 -0.23113963 0.47500569
v -0.16044869 -0.22027202 0.48065701
v -0.16636951 -0.21616288 0.47500569
v -0.21093713 -0.17096224 0.47197506
v -0.17024496 -0.21021542 0.48035273
v -0.17998740 -0.19994256 0.48000494
v -0.21497406 -0.16501480 0.47512990
v -0.21895716 -0.15825634 0.47829092
v -0.22218668 -0.15490413 0.47497463
v -0.23069113 -0.14138719 0.47147825
v -0.22078723 -0.15160601 0.48122838
v -0.24856125 -0.09694353 0.47755811
v -0.25012219 -0.09023913 0.48016641
v -0.21938775 -0.13841347 0.48945075
v -0.22869959 -0.11684045 0.48902845
v -0.24441668 -0.08515676 0.48666856
v -0.23553544 -0.08515676 0.49174857
v -0.23494336 -0.07493796 0.49261799
v -0.23494336 -0.06498950 0.49241304
v -0.24134861 -0.05498696 0.49058104
v -0.24113332 -0.04498443 0.49038851
v -0.24081036 -0.03503597 0.49020219
v -0.24037975 -0.02795310 0.49007177
v -0.23160617 0.00151381 0.49009663
v -0.23494336 0.06493527 0.48504147
v -0.23494336 0.07493779 0.48427141
v -0.23004523 -0.11019012 0.49005938
v -0.21309017 -0.14495566 0.49214602
v -0.21561997 -0.13506128 0.49267387
v -0.20496249 -0.14495566 0.49553061
v -0.22498563 -0.10489148 0.49325764
v -0.23564310 0.08553507 0.48218474
v -0.23289800 0.09494285 0.48133394
v -0.23101409 0.10197166 0.48059493
v -0.23790377 0.09494285 0.47857660
v -0.24247895 0.10197166 0.47191918
v -0.22127165 0.14263059 0.47124225
v -0.23155235 0.12311214 0.47152793
v -0.24140245 0.10499945 0.47144720
v -0.24005680 0.11018995 0.47011200
v -0.21949542 0.14933500 0.46945369
v -0.22977610 0.12976247 0.46980149
v -0.21788064 0.15582313 0.46567166
v -0.21056035 0.16058108 0.47047219
v -0.21276720 0.16274379 0.46499473
v -0.20964532 0.16971853 0.45951727
v -0.21556614 0.16555531 0.45624447
v -0.21131392 0.17134055 0.45284745
v -0.21788064 0.16793430 0.44500390
v -0.21847272 0.16847497 0.44193602
v -0.22100253 0.16560937 0.44193602
v -0.22229435 0.16296007 0.44500390
v -0.22417824 0.16128395 0.44193602
v 0.24851845 0.09721370 0.46752852
v 0.25174800 0.09423997 0.46451655
v 0.24022931 0.12051689 0.46050471
v 0.25648466 0.08423744 0.46421844
v 0.25788411 0.07493779 0.46639827
v 0.26062924 0.07493779 0.46139899
v 0.21972175 0.15971600 0.45964149
v 0.23005627 0.14014348 0.46015072
v 0.26267460 0.02492514 0.47375122
v 0.26019862 0.01113787 0.48018503
v 0.26084453 0.00497415 0.48070669
v 0.26111364 -0.00497431 0.48095512
v 0.26994106 -0.00016229 0.47003746
v 0.26025245 0.05141833 0.47044113
v 0.26084453 0.04493020 0.47131678
v 0.26025245 -0.07223457 0.47057778
v 0.25486988 -0.08499455 0.47499949
v 0.25158653 -0.09413201 0.47453991
v 0.25756118 -0.07531644 0.47434118
v 0.23872219 -0.11743519 0.47790587
v 0.22069061 -0.15160601 0.48122215
v 0.21982940 -0.15501226 0.47972548
v 0.21896818 -0.15831040 0.47828472
v 0.22209008 -0.15501226 0.47504917
v 0.20917192 -0.16912395 0.47859523
v 0.17994460 -0.19999662 0.48000494
v 0.17014834 -0.21021542 0.48034030
v 0.21089435 -0.17096224 0.47196886
v 0.15410830 -0.22151558 0.48438320
v 0.14086719 -0.23038268 0.48081228
v 0.16411987 -0.21410830 0.48383048
v 0.16115946 -0.21124271 0.49110889
v 0.15696105 -0.21789305 0.48732063
v 0.15023285 -0.22010982 0.49019599
v 0.10109005 -0.25049588 0.48102963
v 0.09495393 -0.25498351 0.47501811
v 0.09156292 -0.25655147 0.47501811
v 0.08704156 -0.25860605 0.47499949
v 0.07493079 -0.26055250 0.48117247
v 0.09156292 -0.25319928 0.48448876
v 0.08413498 -0.25655147 0.48416582
v 0.08494236 -0.25152317 0.49180445
v 0.07493079 -0.25784910 0.48619038
v 0.01593790 -0.26812196 0.48458812
v 0.01324662 -0.27039281 0.48097375
v 0.22763412 0.15539058 0.44193602
v 0.22230537 0.16290599 0.44501010
v 0.21837610 0.16847497 0.44193602
v 0.21783786 0.16793430 0.44501010
v 0.21127112 0.17128649 0.45284745
v 0.21546952 0.16555531 0.45624447
v 0.00495747 -0.26833823 0.48718402
v -0.00494644 -0.26833823 0.48718402
v -0.04983702 -0.25995773 0.48996001
v -0.07491976 -0.25287485 0.49323282
v -0.07491976 -0.24763030 0.49823830
v -0.08573871 -0.24487284 0.49733159
v -0.09435081 -0.24514318 0.49336943
v -0.09063685 -0.25027961 0.49043199
v -0.09435081 -0.25179350 0.48461917
v -0.09731123 -0.24860351 0.48769948
v -0.13708837 -0.22849032 0.48748210
v -0.15415110 -0.22151558 0.48438939
v -0.15027565 -0.22010982 0.49020219
v -0.15695003 -0.21789305 0.48732063
v -0.16120225 -0.21124271 0.49110889
v -0.16416267 -0.21405423 0.48383668
v -0.16787663 -0.20767424 0.48701635
v -0.17761907 -0.19734730 0.48666236
v -0.18224807 -0.19437358 0.48399815
v -0.20921472 -0.16912395 0.47863248
v -0.21518935 -0.15522854 0.48528987
v -0.21228278 -0.16247362 0.48268777
v -0.20921472 -0.15890515 0.48935762
v -0.21804212 -0.14495566 0.48801619
v -0.21136774 -0.15220074 0.49099711
v -0.22073340 -0.13176315 0.49052513
v -0.22498563 -0.09494302 0.49405879
v -0.22498563 -0.08499455 0.49426994
v -0.23494336 -0.05498696 0.49199697
v -0.22498563 -0.07493796 0.49404636
v -0.22498563 -0.06498950 0.49363026
v -0.22498563 -0.05498696 0.49317071
v -0.18079478 -0.13949484 0.50005168
v -0.14500074 -0.18491173 0.50451064
v -0.13498917 -0.18491173 0.50500751
v -0.19495092 0.12500452 0.48371869
v -0.19495092 0.13500704 0.48306662
v -0.21497406 0.08494032 0.48537683
v -0.22498563 0.08494032 0.48465642
v -0.20496249 0.13500704 0.48196119
v -0.21007593 0.14030568 0.48009190
v -0.20550075 -0.15528260 0.49287882
v -0.18020269 -0.17025937 0.50007653
v -0.21481258 0.14479330 0.47504294
v -0.21260573 0.15501210 0.47199991
v -0.20743847 0.14695601 0.47885606
v -0.20442423 0.15447143 0.47693086
v -0.20420893 0.16436583 0.47183225
v -0.19026808 0.18026173 0.47022378
v -0.16265555 0.21254018 0.46308818
v -0.19242112 0.18237038 0.46499473
v -0.16927609 0.20929611 0.45889625
v -0.19957992 0.17961292 0.45934960
v -0.17116000 0.21113440 0.45223263
v -0.20130235 0.18128902 0.45268598
v -0.19780368 0.18788528 0.44500390
v -0.20786907 0.17793682 0.44500390
v -0.20130235 0.18556038 0.44193602
v -0.22256348 0.16371702 0.44193602
v 0.25018704 0.09050930 0.47037902
v 0.22160564 0.15306567 0.46279630
v 0.24006784 0.11018995 0.47011200
v 0.25142506 0.08494032 0.47177014
v 0.25287834 0.07493779 0.47331649
v 0.20965636 0.16971853 0.45951727
v 0.21272442 0.16274379 0.46500096
v 0.21051756 0.16058108 0.47047219
v 0.21794550 0.15582313 0.46567786
v 0.21956027 0.14933500 0.46945369
v 0.25863767 0.02492514 0.47873804
v 0.24776490 0.07493779 0.47830334
v 0.25045618 0.05228341 0.48039618
v 0.25244772 0.03492767 0.48184317
v 0.25363189 0.02492514 0.48259464
v 0.25567725 0.01465227 0.48262569
v 0.25492370 0.00497415 0.48415339
v 0.25492370 -0.00497431 0.48460674
v 0.25492370 -0.01503091 0.48444527
v 0.25492370 -0.02497938 0.48410994
v 0.24130583 -0.07493796 0.49078596
v 0.24625778 -0.07493796 0.48740137
v 0.25998333 -0.03098089 0.48007327
v 0.25966036 -0.03763122 0.47964475
v 0.25917593 -0.04498443 0.47889951
v 0.26202869 -0.04498443 0.47392508
v 0.26138279 -0.05498696 0.47274515
v 0.25777647 -0.06498950 0.47645888
v 0.25110209 -0.08499455 0.48123458
v 0.25007939 -0.09029319 0.48016641
v 0.25223243 -0.07493796 0.48238969
v 0.21805315 -0.14490160 0.48802239
v 0.21514657 -0.15528260 0.48528367
v 0.20917192 -0.15890515 0.48936382
v 0.21223998 -0.16252768 0.48268157
v 0.17763010 -0.19740137 0.48666236
v 0.16783383 -0.20772831 0.48702255
v 0.13709940 -0.22843625 0.48748210
v 0.09732226 -0.24860351 0.48769948
v 0.17090189 -0.20102391 0.49084806
v 0.16465813 -0.20464645 0.49287263
v 0.15556160 -0.20567374 0.49816376
v 0.14926399 -0.20945847 0.49965423
v 0.15410830 -0.21475711 0.49259317
v 0.14555003 -0.21475711 0.49707696
v 0.14495794 -0.22146152 0.49158710
v 0.11050954 -0.24027708 0.49035746
v 0.09156292 -0.25071216 0.48902225
v 0.09436185 -0.25179350 0.48460674
v 0.04984805 -0.25995773 0.48996001
v 0.09059405 -0.25027961 0.49043199
v 0.07493079 -0.25287485 0.49323282
v 0.09156292 -0.24903606 0.49112752
v 0.09436185 -0.24514318 0.49336943
v 0.08574975 -0.24487284 0.49733159
v 0.07493079 -0.24763030 0.49823830
v 0.22246686 0.16371702 0.44193602
v 0.16815679 0.21816322 0.44193602
v 0.16761853 0.21762253 0.44501010
v 0.17111720 0.21113440 0.45222643
v 0.03499218 -0.26109317 0.49145669
v 0.02503444 -0.26190418 0.49231368
v 0.01496904 -0.26266113 0.49307135
v 0.00495747 -0.26330993 0.49362406
v -0.00494644 -0.26330993 0.49362406
v -0.01495801 -0.26266113 0.49307135
v -0.02491575 -0.26190418 0.49231368
v -0.03492732 -0.26109317 0.49145669
v -0.01495801 -0.25747061 0.49808303
v -0.04230143 -0.25033367 0.50026906
v -0.07491976 -0.24265607 0.50162286
v -0.08299360 -0.24146657 0.50091493
v -0.08961416 -0.23973641 0.49980947
v -0.09494290 -0.23838471 0.49887794
v -0.10490064 -0.24168284 0.49179825
v -0.11049850 -0.24027708 0.49035746
v -0.13036016 -0.23022048 0.49027672
v -0.14500074 -0.22146152 0.49159330
v -0.14559282 -0.21475711 0.49708319
v -0.14930679 -0.20945847 0.49966043
v -0.15415110 -0.21470305 0.49259317
v -0.15560438 -0.20567374 0.49816376
v -0.16470091 -0.20453832 0.49286640
v -0.17094469 -0.20102391 0.49084187
v -0.18068713 -0.19069697 0.49056861
v -0.19032192 -0.18031597 0.49023947
v -0.19979523 -0.16971870 0.48984200
v -0.20254034 -0.16306837 0.49148774
v -0.18203276 -0.15490413 0.50020075
v -0.18208660 -0.14495566 0.50018829
v -0.15501231 -0.18491173 0.50337416
v -0.14500074 -0.19491425 0.50449204
v -0.13498917 -0.19491425 0.50518137
v -0.13132903 -0.19491425 0.50524968
v -0.12492378 -0.19496833 0.50535524
v 0.12493481 -0.19496833 0.50535524
v 0.13494638 -0.18496579 0.50500125
v 0.00495747 0.23108540 0.48009810
v -0.00494644 0.23108540 0.48009810
v -0.04493888 0.22313745 0.48030305
v -0.06501585 0.22156948 0.48014778
v -0.12492378 0.19496816 0.48090544
v -0.18493935 0.14495550 0.48280579
v -0.19495092 0.14495550 0.48212886
v -0.20442423 0.14419855 0.48073155
v -0.20081791 0.15084890 0.48030305
v -0.17778054 -0.17690970 0.49887794
v -0.17110616 -0.18139732 0.50044912
v -0.15560438 -0.19540086 0.50206381
v -0.19721159 0.15749922 0.47889331
v -0.19430502 0.16431175 0.47680044
v -0.17492779 0.19253512 0.47143477
v -0.18004122 0.19010207 0.47009337
v -0.16986817 0.19988832 0.46994433
v -0.15953365 0.20967458 0.46974558
v -0.15872627 0.21919051 0.45873478
v -0.16518535 0.21518949 0.45548680
v -0.16109461 0.22086661 0.45207116
v -0.16760750 0.21762253 0.44500390
v -0.16814576 0.21821728 0.44193602
v 0.24507362 0.09423997 0.47309914
v 0.24480449 0.08553507 0.47716686
v 0.24141347 0.10499945 0.47145340
v 0.22978714 0.12976247 0.46981391
v 0.23156339 0.12311214 0.47154036
v 0.20761098 0.16771802 0.46500096
v 0.16519637 0.21518949 0.45548061
v 0.16928713 0.20929611 0.45889625
v 0.20260519 0.17258412 0.46500096
v 0.20039834 0.17042141 0.47035420
v 0.20416614 0.16436583 0.47183844
v 0.20443526 0.15452549 0.47693709
v 0.21261676 0.15501210 0.47199991
v 0.21482362 0.14479330 0.47504917
v 0.22128269 0.14263059 0.47124225
v 0.24270529 0.07493779 0.48168793
v 0.24135965 0.08266948 0.48088059
v 0.24394327 0.06493527 0.48226547
v 0.24491215 0.04493020 0.48384911
v 0.24491215 0.02492514 0.48558176
v 0.24491215 0.00497415 0.48730820
v 0.24415858 -0.02476310 0.48882973
v 0.24577335 -0.03498191 0.48866826
v 0.24141347 -0.06498950 0.49075490
v 0.23495440 -0.07493796 0.49261799
v 0.24071375 -0.08202083 0.49046925
v 0.24442771 -0.08521083 0.48668098
v 0.22871062 -0.11694859 0.48904708
v 0.21934497 -0.13852161 0.48946318
v 0.21132495 -0.15225482 0.49099091
v 0.20249754 -0.16306837 0.49150014
v 0.19975244 -0.16977276 0.48984200
v 0.19027913 -0.18031597 0.49023324
v 0.18064433 -0.19075105 0.49056861
v 0.15927556 -0.19907747 0.49949276
v 0.15265501 -0.20286222 0.50118816
v 0.14258961 -0.21129678 0.50081557
v 0.13494638 -0.21816339 0.49870405
v 0.14555003 -0.20567374 0.50218183
v 0.09495393 -0.23838471 0.49887794
v 0.10491167 -0.24168284 0.49178582
v 0.09156292 -0.25006336 0.49005938
v 0.09156292 -0.23924980 0.49947414
v 0.08962519 -0.23973641 0.49980947
v 0.08295082 -0.24146657 0.50091493
v 0.07493079 -0.24265607 0.50159180
v 0.04236629 -0.25033367 0.50026286
v 0.01496904 -0.25747061 0.49807060
v 0.02503444 -0.25665960 0.49731296
v 0.16342014 0.22227237 0.44193602
v 0.16261275 0.22205609 0.44501010
v 0.16110563 0.22086661 0.45207116
v 0.00495747 -0.25817350 0.49864197
v -0.00494644 -0.25817350 0.49864197
v -0.02491575 -0.25168538 0.50115091
v -0.03492732 -0.25087434 0.50066650
v -0.01495801 -0.25249639 0.50159180
v -0.06490819 -0.24341302 0.50194579
v -0.07491976 -0.23492438 0.50420636
v -0.08573871 -0.23584352 0.50241160
v -0.09494290 -0.23341048 0.50170982
v -0.13498917 -0.21324322 0.50162911
v -0.14263241 -0.21129678 0.50081557
v -0.13498917 -0.21821745 0.49871027
v -0.14559282 -0.20567374 0.50218803
v -0.15264398 -0.20280814 0.50118816
v -0.15931836 -0.19907747 0.49948657
v -0.19258259 -0.17490919 0.49158087
v -0.16857636 -0.18804765 0.49918225
v -0.13498917 -0.20491679 0.50416291
v -0.13132903 -0.20491679 0.50437403
v -0.12492378 -0.20497085 0.50472182
v -0.08493133 -0.22492185 0.50486463
v -0.07491976 -0.22492185 0.50523102
v -0.06490819 -0.22492185 0.50531179
v -0.04488506 -0.22492185 0.50538009
v -0.03492732 -0.22492185 0.50533664
v 0.08494236 -0.21491931 0.50503850
v 0.13494638 -0.19496833 0.50518137
v 0.14495794 -0.18496579 0.50451064
v 0.23150957 0.00151381 0.49009663
v 0.19496195 0.12500452 0.48371869
v 0.18495038 0.14500958 0.48281199
v 0.12493481 0.19496816 0.48091164
v 0.06491923 0.22156948 0.48014778
v 0.04494992 0.22313745 0.48030305
v 0.05496149 0.22238050 0.48022231
v 0.01496904 0.24492675 0.47667626
v 0.00495747 0.24492675 0.47690603
v -0.00494644 0.24492675 0.47690603
v -0.01495801 0.24492675 0.47667626
v -0.07217465 0.22075847 0.48007327
v -0.08487751 0.21345933 0.48035273
v -0.07497359 0.23497827 0.47680667
v -0.13229789 0.20064527 0.48009190
v -0.13536595 0.19572511 0.48047692
v -0.14489308 0.18501970 0.48102343
v -0.14489308 0.19280545 0.48030925
v -0.15113686 0.19080494 0.48011672
v -0.18009505 0.17015107 0.48004222
v -0.19430502 0.15447143 0.48070669
v -0.19053721 0.16052702 0.48018503
v -0.16190198 -0.19237307 0.50081557
v -0.18682325 0.16717735 0.47875670
v -0.16319379 0.20302425 0.47168940
v -0.15291311 0.21194543 0.47140372
v -0.14726141 0.21859576 0.46846628
v -0.15587351 0.21556796 0.46577102
v -0.15210572 0.22108288 0.46180266
v -0.13886461 0.22924711 0.45884657
v -0.14177120 0.23092321 0.45218295
v -0.16254789 0.22205609 0.44500390
v -0.14505456 0.23189642 0.44453192
v -0.15156746 0.22930117 0.44193602
v -0.15501231 0.22740880 0.44193602
v -0.16087930 0.22400253 0.44193602
v -0.16518535 0.22081253 0.44193602
v 0.23791482 0.09494285 0.47858280
v 0.15879112 0.21919051 0.45874101
v 0.16266657 0.21254018 0.46308818
v 0.18010607 0.19010207 0.47009957
v 0.19415458 0.17426021 0.47160867
v 0.19431604 0.16431175 0.47680667
v 0.19716881 0.15755329 0.47889951
v 0.20077512 0.15084890 0.48030925
v 0.20744950 0.14695601 0.47886226
v 0.21008696 0.14030568 0.48009810
v 0.23495440 0.07493779 0.48427141
v 0.23565413 0.08553507 0.48218474
v 0.23107895 0.10197166 0.48053282
v 0.23091748 0.10197166 0.48063838
v 0.23285520 0.09494285 0.48133394
v 0.24033697 -0.02789903 0.49006557
v 0.23495440 0.06493527 0.48504147
v 0.24071375 -0.03498191 0.49019599
v 0.24109052 -0.04498443 0.49038851
v 0.24130583 -0.05498696 0.49057481
v 0.23495440 -0.06498950 0.49241304
v 0.22494283 -0.08499455 0.49425751
v 0.22494283 -0.09494302 0.49405879
v 0.23549266 -0.08521083 0.49174234
v 0.22494283 -0.10489148 0.49327630
v 0.20497352 -0.14490160 0.49553061
v 0.21557717 -0.13506128 0.49267387
v 0.21299355 -0.14490160 0.49214602
v 0.22209008 -0.12495061 0.49145046
v 0.23005627 -0.11024418 0.49008420
v 0.22069061 -0.13187128 0.49053755
v 0.20551178 -0.15533668 0.49288505
v 0.17773776 -0.17690970 0.49889657
v 0.16858740 -0.18810172 0.49920088
v 0.16185918 -0.19242714 0.50081557
v 0.15556160 -0.19545494 0.50206381
v 0.13494638 -0.21318915 0.50157320
v 0.10286630 -0.23140998 0.50087768
v 0.14495794 -0.19496833 0.50447959
v 0.13494638 -0.20497085 0.50411320
v 0.09495393 -0.23341048 0.50162911
v 0.08574975 -0.23578946 0.50214458
v 0.09156292 -0.22897692 0.50318164
v 0.09495393 -0.22492185 0.50380266
v 0.08494236 -0.22492185 0.50432438
v 0.07493079 -0.23492438 0.50297672
v -0.00494644 -0.24492691 0.50408834
v 0.00495747 -0.25319928 0.50182164
v 0.01496904 -0.25249639 0.50159180
v 0.02503444 -0.25168538 0.50115091
v 0.03499218 -0.25087434 0.50066650
v 0.15496951 0.22735474 0.44193602
v 0.15426978 0.22703032 0.44450086
v 0.14511941 0.23184235 0.44450086
v 0.14183606 0.23092321 0.45217675
v 0.15523864 0.22259676 0.45524463
v -0.00494644 -0.25319928 0.50182164
v -0.02491575 -0.24492691 0.50344247
v -0.06490819 -0.23492438 0.50456035
v -0.01495801 -0.24492691 0.50384617
v -0.05489663 -0.23492438 0.50475907
v -0.04488506 -0.23492438 0.50487709
v -0.03492732 -0.23492438 0.50490808
v -0.00494644 -0.23492438 0.50483978
v 0.08871016 -0.22108305 0.50451064
v 0.12493481 -0.20497085 0.50464106
v 0.15491569 -0.18496579 0.50337416
v 0.18204381 -0.14490160 0.50018829
v 0.18069816 -0.13944076 0.50004548
v 0.22494283 -0.05498696 0.49317071
v 0.22494283 -0.06498950 0.49363026
v 0.22494283 -0.07493796 0.49404016
v 0.23495440 -0.05498696 0.49199697
v 0.22494283 0.08494032 0.48465022
v 0.21493126 0.08494032 0.48537683
v 0.19496195 0.13500704 0.48307282
v 0.19496195 0.14500958 0.48212886
v 0.15120171 0.19080494 0.48012295
v 0.14495794 0.19280545 0.48030925
v 0.14495794 0.18496563 0.48102343
v 0.13537697 0.19572511 0.48048314
v 0.13236274 0.20059121 0.48009810
v 0.07207803 0.22075847 0.48007327
v 0.08494236 0.21345933 0.48035273
v 0.07493079 0.23497827 0.47680667
v 0.02492678 0.24492675 0.47630364
v 0.00495747 0.25492927 0.47399962
v -0.00494644 0.25492927 0.47399962
v -0.02496958 0.24492675 0.47630364
v -0.08487751 0.23497827 0.47597447
v -0.03498114 0.24492675 0.47578818
v -0.04493888 0.24492675 0.47526032
v -0.05495045 0.24492675 0.47472000
v -0.06501585 0.24492675 0.47416729
v -0.13897227 0.19956392 0.47972548
v -0.14489308 0.19777969 0.47924107
v -0.14489308 0.20497069 0.47707990
v -0.15463552 0.19448155 0.47823501
v -0.15786506 0.18831784 0.47944602
v -0.16906080 0.17928852 0.47973791
v -0.15571204 0.20578171 0.47341585
v -0.14430100 0.21513543 0.47239736
v -0.14058703 0.22021779 0.47021756
v -0.12707680 0.22854422 0.46843523
v -0.09214397 0.25109047 0.46170330
v -0.11216710 0.24108793 0.46174055
v -0.13213640 0.23108540 0.46177781
v -0.09887217 0.24925217 0.45890248
v -0.10194023 0.25098234 0.45223886
v -0.12190954 0.24097981 0.45221400
v -0.16340910 0.22227237 0.44193602
v -0.14887618 0.23070693 0.44193602
v -0.10516977 0.25200963 0.44468716
v -0.12917601 0.24070945 0.44193602
v 0.15583073 0.21556796 0.46577722
v 0.15959851 0.20967458 0.46975181
v 0.15217058 0.22108288 0.46180886
v 0.16987921 0.19988832 0.46994433
v 0.16320483 0.20302425 0.47169560
v 0.17493881 0.19253512 0.47144720
v 0.18403535 0.18415461 0.47137266
v 0.18678045 0.16723141 0.47876289
v 0.19054826 0.16052702 0.48018503
v 0.20443526 0.14419855 0.48073775
v 0.19431604 0.15452549 0.48071292
v 0.20491970 0.13500704 0.48196119
v 0.18198998 -0.15501226 0.50020075
v 0.18010607 -0.17025937 0.50007653
v 0.17106338 -0.18139732 0.50044292
v 0.15157850 0.22924711 0.44193602
v 0.14877956 0.23070693 0.44193602
v 0.10717235 0.25173926 0.44193602
v 0.09140144 0.25968724 0.44193602
v 0.10512698 0.25195554 0.44463748
v 0.10200509 0.25098234 0.45223886
v 0.13882183 0.22924711 0.45884657
v 0.18015991 0.17015107 0.48004842
v 0.16901800 0.17928852 0.47974411
v 0.15782227 0.18831784 0.47945222
v 0.15470038 0.19448155 0.47824124
v 0.14495794 0.20497069 0.47708613
v 0.14495794 0.19777969 0.47924730
v 0.13898329 0.19956392 0.47973171
v 0.08494236 0.23497827 0.47597447
v 0.06491923 0.24492675 0.47416729
v 0.05496149 0.24492675 0.47472623
v 0.04494992 0.24492675 0.47526032
v 0.03493835 0.24492675 0.47578818
v 0.02492678 0.25422639 0.47306809
v 0.00495747 0.26071453 0.47062746
v -0.02496958 0.25422639 0.47306186
v -0.00494644 0.26071453 0.47062746
v -0.07567332 0.24589996 0.47286314
v -0.08487751 0.24373725 0.47254020
v -0.09494290 0.23497827 0.47439086
v -0.13536595 0.20432188 0.47871321
v -0.13493535 0.21491915 0.47476968
v -0.11491220 0.23151794 0.47107458
v -0.13493535 0.22156948 0.47116774
v -0.10409325 0.23508641 0.47218001
v -0.12040242 0.23016626 0.47016168
v -0.10689219 0.23849268 0.46839797
v -0.08487751 0.24871148 0.46872088
v -0.08487751 0.25249621 0.46372163
v -0.08487751 0.25747046 0.45475399
v -0.09531967 0.25271249 0.45534399
v -0.08821470 0.25903842 0.44791651
v -0.09139041 0.25974131 0.44193602
v 0.14727245 0.21859576 0.46846628
v 0.15292414 0.21194543 0.47140995
v 0.09882937 0.24925217 0.45890248
v 0.11217813 0.24108793 0.46174055
v 0.15572307 0.20578171 0.47341585
v 0.08951754 0.26055232 0.44193602
v 0.08811808 0.25903842 0.44789165
v 0.09635340 0.25244215 0.45484716
v 0.13537697 0.20437594 0.47871941
v 0.14436586 0.21513543 0.47240978
v 0.13494638 0.21497323 0.47477591
v 0.11492324 0.22497575 0.47460821
v 0.09490011 0.23497827 0.47439706
v 0.08494236 0.24373725 0.47254643
v 0.07568435 0.24589996 0.47286314
v 0.03493835 0.25341538 0.47258988
v 0.01184716 0.26022792 0.47022378
v 0.00495747 0.26498586 0.46499473
v -0.03498114 0.25341538 0.47258988
v -0.01183612 0.26022792 0.47022378
v -0.00494644 0.26498586 0.46499473
v -0.04493888 0.25260437 0.47201854
v -0.07954877 0.24990097 0.46993190
v -0.09494290 0.24135828 0.47098142
v -0.10021781 0.24011472 0.47009957
v -0.07497359 0.25865996 0.45778462
v -0.08148649 0.26049826 0.45125762
v -0.08956034 0.26055232 0.44193602
v 0.14059807 0.22021779 0.47022998
v 0.09215500 0.25109047 0.46170330
v 0.10695705 0.23849268 0.46840417
v 0.08488854 0.26206622 0.44193602
v 0.08488854 0.26136333 0.44474307
v 0.08149752 0.26049826 0.45125762
v 0.08488854 0.25747046 0.45475399
v 0.09522306 0.25271249 0.45534399
v 0.13494638 0.22162355 0.47118017
v 0.10415811 0.23508641 0.47218621
v 0.09490011 0.24141234 0.47098765
v 0.07955980 0.24990097 0.46993190
v 0.04494992 0.25260437 0.47201854
v 0.01852153 0.25974131 0.46975181
v 0.00495747 0.26920316 0.45896456
v 0.02492678 0.26287723 0.46423087
v -0.01851050 0.25974131 0.46975181
v -0.00494644 0.26920316 0.45896456
v -0.02496958 0.26287723 0.46423087
v -0.03498114 0.25844368 0.46834826
v -0.04493888 0.25763267 0.46727389
v -0.04493888 0.26136333 0.46228084
v -0.05495045 0.26055232 0.46102017
v -0.06076362 0.26006570 0.46022525
v -0.07497359 0.26114705 0.45278534
v -0.08487751 0.26136333 0.44475546
v -0.07497359 0.26363418 0.44500390
v -0.08487751 0.26206622 0.44193602
v 0.12046728 0.23016626 0.47016788
v 0.08494236 0.24871148 0.46872088
v 0.08494236 0.25249621 0.46372163
v 0.10022885 0.24011472 0.47010580
v 0.07799885 0.26368824 0.44193602
v 0.07493079 0.26363418 0.44500390
v 0.07493079 0.26114705 0.45278534
v 0.07493079 0.25865996 0.45778462
v 0.11492324 0.23151794 0.47108701
v 0.06072083 0.26006570 0.46022525
v 0.05496149 0.26055232 0.46102017
v 0.04494992 0.26136333 0.46228084
v 0.04494992 0.25763267 0.46727389
v 0.03493835 0.25844368 0.46834826
v 0.03493835 0.26212028 0.46334901
v 0.00495747 0.27169028 0.45396531
v -0.03498114 0.26212028 0.46334901
v -0.00494644 0.27169028 0.45396531
v -0.01495801 0.27087927 0.45220780
v -0.02217064 0.27028450 0.45086017
v -0.02529253 0.27136585 0.44560629
v -0.03498114 0.27066299 0.44253221
v -0.03498114 0.27082518 0.44193602
v -0.07190552 0.26476961 0.44193602
v -0.07497359 0.26422891 0.44193602
v 0.07493079 0.26422891 0.44193602
v 0.03692990 0.27050078 0.44193602
v 0.03493835 0.27066299 0.44253221
v 0.01496904 0.27315009 0.44500390
v 0.02212785 0.27028450 0.45086017
v 0.01496904 0.27087927 0.45220780
v 0.00495747 0.27444774 0.44500390
v -0.00494644 0.27444774 0.44500390
v -0.01495801 0.27315009 0.44500390
v -0.01495801 0.27379891 0.44193602
v 0.02858693 0.27179840 0.44193602
v 0.01798328 0.27342045 0.44193602
v 0.00797171 0.27471808 0.44193602
v 0.00495747 0.27504247 0.44193602
v -0.00494644 0.27509654 0.44193602
f 1 2 3
f 1 3 4
f 1 4 5
f 1 5 6
f 1 6 7
f 1 7 2
f 2 8 3
f 2 7 8
f 3 8 9
f 3 9 10
f 3 10 4
f 4 11 12
f 4 12 5
f 4 10 13
f 4 13 11
f 5 12 14
f 5 14 15
f 5 15 16
f 5 16 17
f 5 17 18
f 5 18 6
f 6 18 7
f 7 19 20
f 7 20 21
f 7 21 22
f 7 22 23
f 7 23 24
f 7 24 25
f 7 25 26
f 7 26 60
f 7 60 62
f 7 62 154
f 7 154 247
f 7 247 344
f 7 344 454
f 7 454 342
f 7 342 341
f 7 341 453
f 7 453 574
f 7 574 691
f 7 691 802
f 7 802 690
f 7 690 689
f 7 689 688
f 7 688 803
f 7 803 805
f 7 805 859
f 7 859 887
f 7 887 915
f 7 915 940
f 7 940 939
f 7 939 938
f 7 938 950
f 7 950 955
f 7 955 954
f 7 954 953
f 7 953 952
f 7 952 951
f 7 951 942
f 7 942 941
f 7 941 920
f 7 920 891
f 7 891 865
f 7 865 824
f 7 824 823
f 7 823 822
f 7 822 821
f 7 821 743
f 7 743 624
f 7 624 512
f 7 512 392
f 7 392 511
f 7 511 390
f 7 390 280
f 7 280 191
f 7 191 97
f 7 97 27
f 7 27 28
f 7 28 29
f 7 29 30
f 7 30 31
f 7 31 32
f 7 32 33
f 7 33 34
f 7 34 35
f 7 35 36
f 7 36 37
f 7 37 38
f 7 38 39
f 7 39 40
f 7 40 41
f 7 41 8
f 7 18 42
f 7 42 19
f 8 41 43
f 8 43 44
f 8 44 10
f 8 10 9
f 10 44 45
f 10 45 13
f 11 46 12
f 11 13 45
f 11 45 46
f 12 46 47
f 12 47 48
f 12 48 49
f 12 49 50
f 12 50 51
f 12 51 52
f 12 52 53
f 12 53 54
f 12 54 16
f 12 16 14
f 14 16 15
f 16 42 18
f 16 18 17
f 16 54 55
f 16 55 56
f 16 56 19
f 16 19 42
f 19 56 55
f 19 55 20
f 20 55 57
f 20 57 21
f 21 57 22
f 22 57 55
f 22 55 58
f 22 58 23
f 23 58 59
f 23 59 24
f 24 59 25
f 25 60 26
f 25 59 61
f 25 61 62
f 25 62 60
f 27 63 64
f 27 64 65
f 27 65 66
f 27 66 67
f 27 67 68
f 27 68 69
f 27 69 70
f 27 70 71
f 27 71 72
f 27 72 73
f 27 73 74
f 27 74 75
f 27 75 76
f 27 76 77
f 27 77 78
f 27 78 79
f 27 79 80
f 27 80 81
f 27 81 82
f 27 82 83
f 27 83 84
f 27 84 85
f 27 85 86
f 27 86 87
f 27 87 88
f 27 88 89
f 27 89 90
f 27 90 91
f 27 91 92
f 27 92 93
f 27 93 94
f 27 94 95
f 27 95 96
f 27 96 28
f 27 97 63
f 28 96 98
f 28 98 99
f 28 99 29
f 29 99 100
f 29 100 30
f 30 100 31
f 31 100 101
f 31 101 102
f 31 102 32
f 32 102 103
f 32 103 33
f 33 103 104
f 33 104 34
f 34 104 105
f 34 105 35
f 35 106 36
f 35 105 107
f 35 107 106
f 36 106 37
f 37 106 108
f 37 108 109
f 37 109 110
f 37 110 111
f 37 111 112
f 37 112 113
f 37 113 114
f 37 114 115
f 37 115 116
f 37 116 117
f 37 117 118
f 37 118 119
f 37 119 120
f 37 120 121
f 37 121 38
f 38 121 122
f 38 122 123
f 38 123 124
f 38 124 125
f 38 125 126
f 38 126 39
f 39 126 40
f 40 126 41
f 41 126 125
f 41 125 43
f 43 125 44
f 44 125 127
f 44 127 45
f 45 127 128
f 45 128 129
f 45 129 130
f 45 130 46
f 46 130 129
f 46 129 131
f 46 131 132
f 46 132 47
f 47 133 48
f 47 132 134
f 47 134 135
f 47 135 136
f 47 136 133
f 48 137 138
f 48 138 139
f 48 139 140
f 48 140 49
f 48 133 137
f 49 141 52
f 49 52 51
f 49 51 50
f 49 140 142
f 49 142 143
f 49 143 141
f 52 141 144
f 52 144 53
f 53 144 145
f 53 145 54
f 54 145 55
f 55 145 146
f 55 146 147
f 55 147 148
f 55 148 58
f 58 149 59
f 58 148 150
f 58 150 151
f 58 151 152
f 58 152 149
f 59 149 61
f 61 152 153
f 61 153 62
f 61 149 152
f 62 153 154
f 63 155 156
f 63 156 157
f 63 157 158
f 63 158 64
f 63 97 159
f 63 159 160
f 63 160 155
f 64 158 65
f 65 158 161
f 65 161 66
f 66 161 67
f 67 162 163
f 67 163 68
f 67 161 162
f 68 163 69
f 69 163 70
f 70 164 71
f 70 163 164
f 71 164 165
f 71 165 72
f 72 165 73
f 73 166 74
f 73 165 166
f 74 166 75
f 75 166 76
f 76 166 167
f 76 167 168
f 76 168 77
f 77 168 169
f 77 169 170
f 77 170 171
f 77 171 78
f 78 172 79
f 78 171 173
f 78 173 172
f 79 172 80
f 80 172 174
f 80 174 81
f 81 174 175
f 81 175 82
f 82 175 83
f 83 175 84
f 84 176 177
f 84 177 85
f 84 175 176
f 85 178 86
f 85 177 178
f 86 178 87
f 87 178 179
f 87 179 88
f 88 179 180
f 88 180 89
f 89 180 181
f 89 181 182
f 89 182 183
f 89 183 90
f 90 183 184
f 90 184 185
f 90 185 186
f 90 186 91
f 91 186 92
f 92 186 187
f 92 187 93
f 93 187 94
f 94 187 188
f 94 188 189
f 94 189 95
f 95 189 190
f 95 190 96
f 96 190 98
f 97 191 192
f 97 192 159
f 98 190 189
f 98 189 193
f 98 193 194
f 98 194 195
f 98 195 99
f 99 195 101
f 99 101 100
f 101 195 196
f 101 196 102
f 102 196 197
f 102 197 198
f 102 198 103
f 103 198 199
f 103 199 200
f 103 200 104
f 104 200 201
f 104 201 105
f 105 201 200
f 105 200 202
f 105 202 203
f 105 203 204
f 105 204 205
f 105 205 206
f 105 206 107
f 106 107 207
f 106 207 108
f 107 208 207
f 107 206 208
f 108 207 110
f 108 110 109
f 110 207 209
f 110 209 111
f 111 209 210
f 111 210 211
f 111 211 112
f 112 211 113
f 113 211 210
f 113 210 209
f 113 209 212
f 113 212 114
f 114 212 213
f 114 213 115
f 115 213 116
f 116 214 215
f 116 215 117
f 116 213 216
f 116 216 214
f 117 215 217
f 117 217 118
f 118 217 215
f 118 215 218
f 118 218 219
f 118 219 119
f 119 219 120
f 120 219 121
f 121 219 220
f 121 220 122
f 122 221 123
f 122 220 222
f 122 222 221
f 123 221 223
f 123 223 125
f 123 125 124
f 125 223 127
f 127 223 221
f 127 221 224
f 127 224 225
f 127 225 128
f 128 225 226
f 128 226 227
f 128 227 228
f 128 228 129
f 129 228 227
f 129 227 131
f 131 227 132
f 132 227 134
f 133 136 229
f 133 229 230
f 133 230 231
f 133 231 232
f 133 232 233
f 133 233 137
f 134 229 135
f 134 227 226
f 134 226 234
f 134 234 229
f 135 229 136
f 137 233 235
f 137 235 236
f 137 236 139
f 137 139 138
f 139 236 237
f 139 237 140
f 140 237 142
f 141 143 144
f 142 237 143
f 143 237 238
f 143 238 239
f 143 239 146
f 143 146 144
f 144 146 145
f 146 239 240
f 146 240 147
f 147 240 148
f 148 240 241
f 148 241 150
f 150 241 242
f 150 242 243
f 150 243 151
f 151 243 244
f 151 244 245
f 151 245 152
f 152 245 246
f 152 246 153
f 153 246 154
f 154 246 247
f 155 248 157
f 155 157 156
f 155 160 248
f 157 249 158
f 157 248 249
f 158 249 161
f 159 192 250
f 159 250 248
f 159 248 160
f 161 249 251
f 161 251 162
f 162 251 163
f 163 251 252
f 163 252 253
f 163 253 254
f 163 254 255
f 163 255 164
f 164 255 256
f 164 256 257
f 164 257 165
f 165 257 166
f 166 258 167
f 166 257 258
f 167 258 259
f 167 259 260
f 167 260 261
f 167 261 262
f 167 262 263
f 167 263 169
f 167 169 168
f 169 263 262
f 169 262 261
f 169 261 264
f 169 264 170
f 170 265 266
f 170 266 171
f 170 264 265
f 171 266 267
f 171 267 172
f 171 172 173
f 172 267 268
f 172 268 175
f 172 175 174
f 175 268 269
f 175 269 176
f 176 269 179
f 176 179 178
f 176 178 177
f 179 270 181
f 179 181 180
f 179 269 270
f 181 270 271
f 181 271 272
f 181 272 182
f 182 273 274
f 182 274 184
f 182 184 183
f 182 272 271
f 182 271 273
f 184 274 185
f 185 274 186
f 186 274 275
f 186 275 276
f 186 276 187
f 187 276 277
f 187 277 278
f 187 278 188
f 188 279 194
f 188 194 193
f 188 193 189
f 188 278 279
f 191 280 192
f 192 280 281
f 192 281 250
f 194 279 282
f 194 282 283
f 194 283 195
f 195 283 197
f 195 197 196
f 197 283 284
f 197 284 285
f 197 285 286
f 197 286 199
f 197 199 198
f 199 286 287
f 199 287 288
f 199 288 289
f 199 289 290
f 199 290 202
f 199 202 200
f 202 290 203
f 203 290 204
f 204 290 291
f 204 291 292
f 204 292 206
f 204 206 205
f 206 292 208
f 207 208 292
f 207 292 209
f 209 292 293
f 209 293 294
f 209 294 212
f 212 294 213
f 213 294 216
f 214 216 294
f 214 294 295
f 214 295 218
f 214 218 215
f 218 295 296
f 218 296 297
f 218 297 298
f 218 298 299
f 218 299 300
f 218 300 301
f 218 301 219
f 219 301 222
f 219 222 220
f 221 222 302
f 221 302 224
f 222 301 302
f 224 302 303
f 224 303 304
f 224 304 225
f 225 304 226
f 226 304 305
f 226 305 306
f 226 306 307
f 226 307 234
f 229 234 308
f 229 308 309
f 229 309 230
f 230 310 311
f 230 311 231
f 230 309 310
f 231 311 312
f 231 312 313
f 231 313 232
f 232 314 233
f 232 313 314
f 233 314 315
f 233 315 316
f 233 316 317
f 233 317 235
f 234 307 318
f 234 318 319
f 234 319 320
f 234 320 321
f 234 321 322
f 234 322 308
f 235 317 236
f 236 317 237
f 237 317 238
f 238 323 324
f 238 324 325
f 238 325 326
f 238 326 239
f 238 317 323
f 239 327 240
f 239 326 328
f 239 328 329
f 239 329 327
f 240 327 330
f 240 330 331
f 240 331 241
f 241 331 242
f 242 331 243
f 243 331 244
f 244 332 245
f 244 331 333
f 244 333 332
f 245 332 334
f 245 334 335
f 245 335 336
f 245 336 337
f 245 337 338
f 245 338 246
f 246 338 339
f 246 339 340
f 246 340 341
f 246 341 342
f 246 342 343
f 246 343 344
f 246 344 247
f 248 345 346
f 248 346 249
f 248 250 347
f 248 347 345
f 249 346 348
f 249 348 349
f 249 349 350
f 249 350 251
f 250 281 351
f 250 351 352
f 250 352 347
f 251 253 252
f 251 350 253
f 253 350 254
f 254 353 354
f 254 354 355
f 254 355 356
f 254 356 357
f 254 357 255
f 254 350 358
f 254 358 359
f 254 359 353
f 255 357 360
f 255 360 256
f 256 360 257
f 257 360 258
f 258 360 259
f 259 361 362
f 259 362 261
f 259 261 260
f 259 360 363
f 259 363 361
f 261 362 364
f 261 364 365
f 261 365 265
f 261 265 264
f 265 365 366
f 265 366 367
f 265 367 266
f 266 367 368
f 266 368 267
f 267 368 367
f 267 367 369
f 267 369 370
f 267 370 371
f 267 371 372
f 267 372 268
f 268 372 269
f 269 372 270
f 270 373 374
f 270 374 271
f 270 372 371
f 270 371 375
f 270 375 376
f 270 376 377
f 270 377 378
f 270 378 373
f 271 374 273
f 273 374 379
f 273 379 380
f 273 380 274
f 274 276 275
f 274 380 381
f 274 381 382
f 274 382 276
f 276 382 277
f 277 383 279
f 277 279 278
f 277 382 379
f 277 379 384
f 277 384 385
f 277 385 386
f 277 386 387
f 277 387 383
f 279 388 389
f 279 389 282
f 279 383 388
f 280 390 281
f 281 391 392
f 281 392 393
f 281 393 394
f 281 394 395
f 281 395 351
f 281 390 391
f 282 389 388
f 282 388 396
f 282 396 397
f 282 397 283
f 283 397 285
f 283 285 284
f 285 397 398
f 285 398 286
f 286 398 287
f 287 399 288
f 287 398 399
f 288 399 400
f 288 400 401
f 288 401 402
f 288 402 403
f 288 403 289
f 289 403 404
f 289 404 290
f 290 404 405
f 290 405 291
f 291 406 407
f 291 407 293
f 291 293 292
f 291 405 406
f 293 407 408
f 293 408 409
f 293 409 410
f 293 410 411
f 293 411 296
f 293 296 294
f 294 296 295
f 296 411 412
f 296 412 297
f 297 412 413
f 297 413 414
f 297 414 415
f 297 415 298
f 298 415 299
f 299 416 302
f 299 302 301
f 299 301 300
f 299 415 417
f 299 417 418
f 299 418 416
f 302 419 304
f 302 304 303
f 302 416 419
f 304 419 305
f 305 419 420
f 305 420 319
f 305 319 421
f 305 421 306
f 306 421 318
f 306 318 307
f 308 322 422
f 308 422 309
f 309 422 423
f 309 423 310
f 310 424 314
f 310 314 313
f 310 313 312
f 310 312 311
f 310 423 425
f 310 425 315
f 310 315 424
f 314 424 315
f 315 425 426
f 315 426 427
f 315 427 428
f 315 428 429
f 315 429 430
f 315 430 431
f 315 431 432
f 315 432 433
f 315 433 434
f 315 434 316
f 316 434 317
f 317 434 435
f 317 435 436
f 317 436 323
f 318 421 319
f 319 321 320
f 319 420 437
f 319 437 438
f 319 438 321
f 321 422 322
f 321 438 422
f 323 436 324
f 324 436 325
f 325 436 326
f 326 436 439
f 326 439 328
f 327 329 330
f 328 439 440
f 328 440 332
f 328 332 333
f 328 333 329
f 329 333 331
f 329 331 330
f 332 440 335
f 332 335 334
f 335 440 441
f 335 441 442
f 335 442 443
f 335 443 444
f 335 444 445
f 335 445 446
f 335 446 336
f 336 446 445
f 336 445 447
f 336 447 448
f 336 448 337
f 337 448 449
f 337 449 338
f 338 449 450
f 338 450 339
f 339 450 451
f 339 451 452
f 339 452 340
f 340 452 341
f 341 452 453
f 342 454 343
f 343 454 344
f 345 455 346
f 345 347 352
f 345 352 456
f 345 456 457
f 345 457 455
f 346 455 348
f 348 458 349
f 348 455 458
f 349 459 358
f 349 358 350
f 349 458 459
f 351 395 460
f 351 460 461
f 351 461 462
f 351 462 463
f 351 463 464
f 351 464 456
f 351 456 352
f 353 359 354
f 354 359 465
f 354 465 466
f 354 466 467
f 354 467 468
f 354 468 355
f 355 468 469
f 355 469 470
f 355 470 471
f 355 471 472
f 355 472 356
f 356 472 473
f 356 473 474
f 356 474 475
f 356 475 476
f 356 476 477
f 356 477 357
f 357 477 478
f 357 478 479
f 357 479 480
f 357 480 481
f 357 481 360
f 358 459 465
f 358 465 359
f 360 481 479
f 360 479 482
f 360 482 363
f 361 363 483
f 361 483 484
f 361 484 362
f 362 484 364
f 363 485 483
f 363 482 485
f 364 484 365
f 365 484 486
f 365 486 487
f 365 487 366
f 366 487 367
f 367 487 488
f 367 488 489
f 367 489 369
f 369 489 490
f 369 490 370
f 370 490 491
f 370 491 375
f 370 375 371
f 373 492 374
f 373 378 492
f 374 492 493
f 374 493 379
f 375 491 376
f 376 491 494
f 376 494 495
f 376 495 496
f 376 496 497
f 376 497 498
f 376 498 378
f 376 378 377
f 378 498 497
f 378 497 499
f 378 499 500
f 378 500 501
f 378 501 493
f 378 493 492
f 379 493 502
f 379 502 503
f 379 503 384
f 379 382 381
f 379 381 380
f 383 387 504
f 383 504 388
f 384 503 502
f 384 502 385
f 385 502 505
f 385 505 386
f 386 506 387
f 386 505 507
f 386 507 508
f 386 508 509
f 386 509 510
f 386 510 506
f 387 506 504
f 388 504 396
f 390 511 391
f 391 511 392
f 392 512 513
f 392 513 393
f 393 513 394
f 394 513 514
f 394 514 395
f 395 514 460
f 396 504 515
f 396 515 516
f 396 516 517
f 396 517 518
f 396 518 519
f 396 519 397
f 397 519 520
f 397 520 521
f 397 521 522
f 397 522 398
f 398 522 399
f 399 522 521
f 399 521 523
f 399 523 400
f 400 524 525
f 400 525 526
f 400 526 401
f 400 523 524
f 401 526 527
f 401 527 528
f 401 528 529
f 401 529 402
f 402 529 403
f 403 529 530
f 403 530 405
f 403 405 404
f 405 530 531
f 405 531 406
f 406 531 408
f 406 408 407
f 408 531 532
f 408 532 533
f 408 533 534
f 408 534 535
f 408 535 410
f 408 410 409
f 410 535 534
f 410 534 536
f 410 536 537
f 410 537 538
f 410 538 412
f 410 412 411
f 412 538 539
f 412 539 413
f 413 539 417
f 413 417 415
f 413 415 414
f 416 418 420
f 416 420 419
f 417 539 540
f 417 540 541
f 417 541 418
f 418 541 542
f 418 542 420
f 420 542 437
f 422 438 543
f 422 543 423
f 423 543 544
f 423 544 425
f 425 544 426
f 426 544 428
f 426 428 427
f 428 544 429
f 429 544 545
f 429 545 546
f 429 546 547
f 429 547 430
f 430 547 548
f 430 548 549
f 430 549 550
f 430 550 551
f 430 551 552
f 430 552 553
f 430 553 554
f 430 554 555
f 430 555 556
f 430 556 557
f 430 557 431
f 431 557 432
f 432 557 558
f 432 558 434
f 432 434 433
f 434 558 435
f 435 558 559
f 435 559 436
f 436 559 560
f 436 560 441
f 436 441 440
f 436 440 439
f 437 542 561
f 437 561 438
f 438 561 562
f 438 562 563
f 438 563 546
f 438 546 545
f 438 545 543
f 441 560 442
f 442 560 564
f 442 564 565
f 442 565 443
f 443 565 566
f 443 566 567
f 443 567 444
f 444 567 445
f 445 567 568
f 445 568 569
f 445 569 570
f 445 570 447
f 447 570 571
f 447 571 448
f 448 571 449
f 449 571 572
f 449 572 573
f 449 573 450
f 450 573 451
f 451 453 452
f 451 573 574
f 451 574 453
f 455 575 576
f 455 576 458
f 455 457 577
f 455 577 575
f 456 464 457
f 457 464 578
f 457 578 579
f 457 579 577
f 458 576 466
f 458 466 459
f 459 466 465
f 460 580 461
f 460 514 581
f 460 581 582
f 460 582 583
f 460 583 580
f 461 580 462
f 462 580 583
f 462 583 584
f 462 584 585
f 462 585 586
f 462 586 587
f 462 587 464
f 462 464 463
f 464 587 588
f 464 588 589
f 464 589 579
f 464 579 578
f 466 590 467
f 466 576 591
f 466 591 590
f 467 590 468
f 468 590 469
f 469 471 470
f 469 590 592
f 469 592 471
f 471 592 593
f 471 593 594
f 471 594 595
f 471 595 472
f 472 596 597
f 472 597 598
f 472 598 475
f 472 475 473
f 472 595 596
f 473 475 474
f 475 598 599
f 475 599 600
f 475 600 476
f 476 485 477
f 476 600 483
f 476 483 485
f 477 485 478
f 478 485 479
f 479 481 480
f 479 485 482
f 483 600 601
f 483 601 602
f 483 602 603
f 483 603 484
f 484 603 486
f 486 603 604
f 486 604 487
f 487 604 488
f 488 605 606
f 488 606 489
f 488 604 605
f 489 606 607
f 489 607 608
f 489 608 490
f 490 608 491
f 491 608 494
f 493 501 502
f 494 608 495
f 495 608 496
f 496 608 609
f 496 609 610
f 496 610 497
f 497 611 612
f 497 612 499
f 497 610 613
f 497 613 611
f 499 612 614
f 499 614 615
f 499 615 500
f 500 615 501
f 501 615 505
f 501 505 616
f 501 616 502
f 502 616 505
f 504 506 515
f 505 615 507
f 506 510 516
f 506 516 515
f 507 615 508
f 508 615 509
f 509 615 614
f 509 614 617
f 509 617 618
f 509 618 619
f 509 619 510
f 510 619 620
f 510 620 621
f 510 621 622
f 510 622 623
f 510 623 516
f 512 624 625
f 512 625 513
f 513 625 626
f 513 626 514
f 514 626 581
f 516 623 622
f 516 622 517
f 517 622 627
f 517 627 518
f 518 627 628
f 518 628 519
f 519 628 520
f 520 628 523
f 520 523 521
f 523 628 629
f 523 629 630
f 523 630 524
f 524 630 525
f 525 630 629
f 525 629 631
f 525 631 632
f 525 632 633
f 525 633 526
f 526 633 634
f 526 634 635
f 526 635 636
f 526 636 637
f 526 637 527
f 527 637 528
f 528 637 638
f 528 638 533
f 528 533 529
f 529 533 532
f 529 532 530
f 530 532 531
f 533 638 534
f 534 638 637
f 534 637 639
f 534 639 640
f 534 640 641
f 534 641 536
f 536 641 540
f 536 540 539
f 536 539 537
f 537 539 538
f 540 641 541
f 541 641 642
f 541 642 542
f 542 642 641
f 542 641 643
f 542 643 561
f 543 545 544
f 546 563 639
f 546 639 644
f 546 644 547
f 547 644 645
f 547 645 646
f 547 646 647
f 547 647 648
f 547 648 548
f 548 648 549
f 549 648 649
f 549 649 650
f 549 650 550
f 550 650 651
f 550 651 652
f 550 652 653
f 550 653 551
f 551 654 655
f 551 655 656
f 551 656 657
f 551 657 658
f 551 658 659
f 551 659 660
f 551 660 552
f 551 653 654
f 552 660 661
f 552 661 659
f 552 659 662
f 552 662 663
f 552 663 664
f 552 664 553
f 553 664 665
f 553 665 555
f 553 555 554
f 555 666 667
f 555 667 556
f 555 665 668
f 555 668 666
f 556 667 666
f 556 666 669
f 556 669 670
f 556 670 671
f 556 671 557
f 557 671 672
f 557 672 673
f 557 673 558
f 558 673 674
f 558 674 675
f 558 675 560
f 558 560 559
f 560 675 676
f 560 676 564
f 561 643 677
f 561 677 562
f 562 677 563
f 563 640 639
f 563 677 640
f 564 676 678
f 564 678 679
f 564 679 565
f 565 679 566
f 566 679 568
f 566 568 567
f 568 679 569
f 569 680 681
f 569 681 682
f 569 682 570
f 569 679 680
f 570 682 683
f 570 683 684
f 570 684 685
f 570 685 572
f 570 572 571
f 572 686 573
f 572 685 687
f 572 687 688
f 572 688 689
f 572 689 690
f 572 690 686
f 573 686 691
f 573 691 574
f 575 577 576
f 576 692 591
f 576 577 579
f 576 579 692
f 579 589 692
f 581 626 693
f 581 693 582
f 582 693 694
f 582 694 583
f 583 694 584
f 584 694 695
f 584 695 696
f 584 696 585
f 585 696 586
f 586 696 697
f 586 697 698
f 586 698 699
f 586 699 700
f 586 700 587
f 587 700 701
f 587 701 588
f 588 701 692
f 588 692 589
f 590 702 592
f 590 591 702
f 591 703 702
f 591 692 704
f 591 704 705
f 591 705 706
f 591 706 703
f 592 702 593
f 593 702 594
f 594 702 595
f 595 655 707
f 595 707 596
f 595 702 708
f 595 708 655
f 596 707 709
f 596 709 597
f 597 709 710
f 597 710 711
f 597 711 598
f 598 711 712
f 598 712 599
f 599 713 714
f 599 714 715
f 599 715 600
f 599 712 713
f 600 715 714
f 600 714 716
f 600 716 717
f 600 717 718
f 600 718 719
f 600 719 720
f 600 720 721
f 600 721 601
f 601 721 602
f 602 721 722
f 602 722 603
f 603 722 719
f 603 719 604
f 604 723 605
f 604 719 723
f 605 723 724
f 605 724 725
f 605 725 609
f 605 609 606
f 606 609 607
f 607 609 608
f 609 725 726
f 609 726 610
f 610 726 727
f 610 727 613
f 611 728 729
f 611 729 618
f 611 618 617
f 611 617 614
f 611 614 612
f 611 613 728
f 613 727 730
f 613 730 731
f 613 731 728
f 618 729 619
f 619 729 728
f 619 728 732
f 619 732 733
f 619 733 620
f 620 733 734
f 620 734 735
f 620 735 736
f 620 736 737
f 620 737 738
f 620 738 739
f 620 739 740
f 620 740 741
f 620 741 742
f 620 742 621
f 621 742 627
f 621 627 622
f 624 743 625
f 625 743 744
f 625 744 626
f 626 744 745
f 626 745 746
f 626 746 747
f 626 747 693
f 627 742 741
f 627 741 740
f 627 740 739
f 627 739 748
f 627 748 628
f 628 748 631
f 628 631 629
f 631 748 749
f 631 749 633
f 631 633 632
f 633 750 648
f 633 648 647
f 633 647 644
f 633 644 634
f 633 749 751
f 633 751 750
f 634 644 636
f 634 636 635
f 636 644 639
f 636 639 637
f 640 677 641
f 641 677 643
f 644 647 645
f 645 647 646
f 648 750 752
f 648 752 753
f 648 753 649
f 649 753 650
f 650 753 754
f 650 754 755
f 650 755 651
f 651 755 652
f 652 755 736
f 652 736 756
f 652 756 653
f 653 756 736
f 653 736 757
f 653 757 731
f 653 731 730
f 653 730 654
f 654 758 759
f 654 759 760
f 654 760 655
f 654 730 758
f 655 760 761
f 655 761 762
f 655 762 763
f 655 763 712
f 655 712 764
f 655 764 707
f 655 708 765
f 655 765 766
f 655 766 767
f 655 767 656
f 656 767 657
f 657 767 768
f 657 768 769
f 657 769 770
f 657 770 771
f 657 771 658
f 658 771 772
f 658 772 773
f 658 773 774
f 658 774 775
f 658 775 659
f 659 774 776
f 659 776 662
f 659 661 660
f 659 775 774
f 662 777 778
f 662 778 663
f 662 776 777
f 663 778 779
f 663 779 664
f 664 779 665
f 665 779 780
f 665 780 668
f 666 668 669
f 668 781 669
f 668 780 782
f 668 782 783
f 668 783 784
f 668 784 785
f 668 785 781
f 669 786 672
f 669 672 670
f 669 781 786
f 670 672 671
f 672 786 673
f 673 786 787
f 673 787 788
f 673 788 789
f 673 789 790
f 673 790 791
f 673 791 674
f 674 678 676
f 674 676 675
f 674 791 789
f 674 789 788
f 674 788 792
f 674 792 678
f 678 792 679
f 679 792 680
f 680 792 788
f 680 788 793
f 680 793 794
f 680 794 681
f 681 794 795
f 681 795 796
f 681 796 797
f 681 797 798
f 681 798 683
f 681 683 682
f 683 798 799
f 683 799 684
f 684 799 800
f 684 800 801
f 684 801 685
f 685 801 687
f 686 802 691
f 686 690 802
f 687 803 688
f 687 801 804
f 687 804 805
f 687 805 803
f 692 701 704
f 693 806 807
f 693 807 694
f 693 747 746
f 693 746 808
f 693 808 806
f 694 807 809
f 694 809 695
f 695 809 810
f 695 810 811
f 695 811 812
f 695 812 696
f 696 812 811
f 696 811 697
f 697 811 810
f 697 810 698
f 698 810 813
f 698 813 814
f 698 814 699
f 699 768 815
f 699 815 701
f 699 701 700
f 699 814 816
f 699 816 768
f 701 815 702
f 701 702 703
f 701 703 706
f 701 706 705
f 701 705 704
f 702 765 708
f 702 815 817
f 702 817 765
f 707 764 712
f 707 712 709
f 709 712 710
f 710 712 711
f 712 763 713
f 713 763 759
f 713 759 818
f 713 818 714
f 714 818 819
f 714 819 717
f 714 717 716
f 717 719 718
f 717 819 723
f 717 723 719
f 719 722 720
f 720 722 721
f 723 819 724
f 724 819 820
f 724 820 725
f 725 820 726
f 726 820 727
f 727 820 819
f 727 819 730
f 728 731 732
f 730 819 758
f 731 757 735
f 731 735 734
f 731 734 733
f 731 733 732
f 735 757 736
f 736 755 738
f 736 738 737
f 738 751 748
f 738 748 739
f 738 755 754
f 738 754 753
f 738 753 752
f 738 752 750
f 738 750 751
f 743 821 744
f 744 821 745
f 745 821 822
f 745 822 823
f 745 823 824
f 745 824 825
f 745 825 826
f 745 826 746
f 746 827 808
f 746 826 827
f 748 751 749
f 758 819 818
f 758 818 759
f 759 763 762
f 759 762 760
f 760 762 761
f 765 817 768
f 765 768 767
f 765 767 766
f 768 817 815
f 768 816 828
f 768 828 769
f 769 829 830
f 769 830 831
f 769 831 832
f 769 832 833
f 769 833 834
f 769 834 770
f 769 828 829
f 770 834 773
f 770 773 772
f 770 772 771
f 773 834 835
f 773 835 776
f 773 776 774
f 776 835 836
f 776 836 837
f 776 837 838
f 776 838 839
f 776 839 777
f 777 839 778
f 778 839 838
f 778 838 837
f 778 837 836
f 778 836 840
f 778 840 841
f 778 841 843
f 778 843 779
f 779 842 785
f 779 785 784
f 779 784 783
f 779 783 782
f 779 782 780
f 779 843 842
f 781 785 844
f 781 844 845
f 781 845 846
f 781 846 788
f 781 788 847
f 781 847 786
f 785 842 844
f 786 847 788
f 786 788 787
f 788 846 848
f 788 848 793
f 789 791 790
f 793 849 850
f 793 850 794
f 793 848 845
f 793 845 851
f 793 851 849
f 794 850 849
f 794 849 852
f 794 852 853
f 794 853 795
f 795 853 796
f 796 799 797
f 796 853 854
f 796 854 855
f 796 855 856
f 796 856 857
f 796 857 799
f 797 799 798
f 799 857 800
f 800 804 801
f 800 857 858
f 800 858 859
f 800 859 804
f 804 859 805
f 806 808 860
f 806 860 807
f 807 860 861
f 807 861 810
f 807 810 809
f 808 827 862
f 808 862 863
f 808 863 860
f 810 861 864
f 810 864 813
f 813 828 814
f 813 864 828
f 814 828 816
f 824 865 866
f 824 866 826
f 824 826 825
f 826 866 867
f 826 867 862
f 826 862 827
f 828 864 832
f 828 832 831
f 828 831 829
f 829 831 830
f 832 868 834
f 832 834 833
f 832 864 861
f 832 861 869
f 832 869 870
f 832 870 871
f 832 871 872
f 832 872 835
f 832 835 868
f 834 868 835
f 835 872 873
f 835 873 874
f 835 874 836
f 836 874 840
f 840 874 875
f 840 875 841
f 841 875 876
f 841 876 877
f 841 877 880
f 841 880 843
f 842 878 844
f 842 843 878
f 843 879 878
f 843 880 879
f 844 878 881
f 844 881 882
f 844 882 845
f 845 882 883
f 845 883 851
f 845 848 846
f 849 851 883
f 849 883 884
f 849 884 852
f 852 884 853
f 853 884 854
f 854 882 855
f 854 884 882
f 855 882 885
f 855 885 886
f 855 886 856
f 856 886 857
f 857 886 858
f 858 886 887
f 858 887 859
f 860 888 861
f 860 863 889
f 860 889 890
f 860 890 888
f 861 888 869
f 862 867 889
f 862 889 863
f 865 891 892
f 865 892 893
f 865 893 866
f 866 893 867
f 867 893 894
f 867 894 895
f 867 895 889
f 869 888 896
f 869 896 897
f 869 897 873
f 869 873 870
f 870 873 871
f 871 873 872
f 873 897 898
f 873 898 899
f 873 899 874
f 874 899 900
f 874 900 875
f 875 900 876
f 876 901 877
f 876 900 899
f 876 899 901
f 877 902 905
f 877 905 880
f 877 901 903
f 877 903 902
f 878 879 881
f 879 880 904
f 879 904 882
f 879 882 881
f 880 905 906
f 880 906 904
f 882 904 907
f 882 907 908
f 882 908 909
f 882 909 910
f 882 910 911
f 882 911 885
f 882 884 883
f 885 911 912
f 885 912 886
f 886 913 887
f 886 912 914
f 886 914 913
f 887 913 915
f 888 890 916
f 888 916 896
f 889 917 890
f 889 895 894
f 889 894 918
f 889 918 917
f 890 917 919
f 890 919 916
f 891 920 892
f 892 920 921
f 892 921 893
f 893 922 923
f 893 923 918
f 893 918 894
f 893 921 922
f 896 916 924
f 896 924 897
f 897 924 898
f 898 924 919
f 898 919 899
f 899 919 917
f 899 917 918
f 899 918 923
f 899 923 925
f 899 925 926
f 899 926 927
f 899 927 928
f 899 928 929
f 899 929 901
f 901 930 903
f 901 929 930
f 902 931 933
f 902 933 905
f 902 903 930
f 902 930 927
f 902 927 926
f 902 926 931
f 904 906 932
f 904 932 907
f 905 933 911
f 905 911 910
f 905 910 909
f 905 909 932
f 905 932 906
f 907 932 909
f 907 909 908
f 911 933 912
f 912 933 934
f 912 934 935
f 912 935 914
f 913 914 915
f 914 935 936
f 914 936 937
f 914 937 938
f 914 938 939
f 914 939 940
f 914 940 915
f 916 919 924
f 920 941 921
f 921 941 942
f 921 942 943
f 921 943 944
f 921 944 945
f 921 945 922
f 922 925 923
f 922 945 946
f 922 946 931
f 922 931 925
f 925 931 926
f 927 930 929
f 927 929 928
f 931 946 944
f 931 944 947
f 931 947 948
f 931 948 933
f 933 948 949
f 933 949 934
f 934 949 935
f 935 949 936
f 936 949 938
f 936 938 937
f 938 949 950
f 942 951 943
f 943 951 944
f 944 952 953
f 944 953 947
f 944 946 945
f 944 951 952
f 947 953 954
f 947 954 955
f 947 955 948
f 948 955 950
f 948 950 949

