# https://github.com/mikedh/trimesh
v 0.09702483 -0.20847490 -0.31490320
v 0.09700248 -0.25966012 0.26100582
v 0.09700248 -0.27214062 0.26100582
v 0.09700248 -0.27224168 0.15717977
v 0.09700248 -0.27219117 0.15491155
v 0.09700248 -0.26826680 0.12520514
v 0.09700248 -0.20618428 -0.33187830
v 0.09700248 -0.20584743 -0.33421969
v 0.09700248 -0.20379262 -0.34490228
v 0.09700248 -0.17369455 -0.47492266
v 0.09700248 -0.17130288 -0.48158100
v 0.09700248 -0.16719323 -0.48648328
v 0.09700248 -0.14851460 -0.48648328
v -0.13133314 -0.24296893 0.26100582
v -0.13133314 -0.11823126 -0.48648328
v 0.09525894 -0.27305013 0.26100582
v 0.09499070 -0.27316803 0.15491155
v 0.09072129 -0.27033845 0.11715661
v 0.09675659 -0.26835102 0.12491247
v 0.09443188 -0.26808152 0.11422987
v 0.09499070 -0.26518455 0.09491339
v 0.08911188 -0.20955284 -0.33663425
v 0.08752482 -0.21874900 -0.27495325
v 0.08497657 -0.21325825 -0.32492727
v 0.08258480 -0.21130449 -0.34490228
v 0.07152009 -0.19094157 -0.46489859
v 0.08967070 -0.17958952 -0.46855700
v 0.07031302 -0.19018364 -0.47031304
v 0.08285303 -0.18167803 -0.47492266
v 0.08079657 -0.18043166 -0.48055664
v 0.09499070 -0.17180815 -0.48223951
v 0.09499070 -0.16827118 -0.48648328
v -0.13133314 -0.25512943 0.26100582
v -0.13133314 -0.14127219 -0.48648328
v 0.09105659 -0.27439755 0.26100582
v 0.08497657 -0.27643555 0.15491155
v 0.08964835 -0.26991737 0.11049828
v 0.08059539 -0.24027409 -0.14222562
v 0.08070716 -0.23035368 -0.21495509
v 0.08546834 -0.21177609 -0.33392704
v 0.08034950 -0.22016379 -0.29126978
v 0.07936598 -0.21972589 -0.29792812
v 0.07498479 -0.21468990 -0.34490228
v 0.07498479 -0.21666050 -0.33495137
v 0.06499301 -0.19356903 -0.46489859
v 0.06434478 -0.19107631 -0.47411782
v 0.06058948 -0.19025101 -0.48033711
v 0.06725067 -0.18878569 -0.47697139
v 0.07418008 -0.18661296 -0.47411782
v 0.07498479 -0.18189698 -0.48238584
v 0.07498479 -0.17846106 -0.48648328
v -0.12096137 -0.26048541 0.26100582
v -0.13133314 -0.25401780 0.15549690
v -0.12024607 -0.26011488 0.15893582
v -0.12657197 -0.14602186 -0.48648328
v -0.13133314 -0.14405125 -0.48384920
v 0.08497657 -0.27593026 0.26100582
v 0.06202007 -0.28020832 0.26100582
v 0.06235537 -0.28035992 0.16142353
v 0.06235537 -0.28035992 0.15688708
v 0.07498479 -0.27811980 0.15491155
v 0.07867303 -0.26976579 0.09162080
v 0.07909775 -0.25984541 0.01106232
v 0.07952245 -0.24990815 -0.06942299
v 0.07932127 -0.23983617 -0.14888395
v 0.07060361 -0.22023118 -0.32192737
v 0.08001421 -0.22999999 -0.22007687
v 0.06894949 -0.21982694 -0.32858571
v 0.06535067 -0.21950693 -0.33568305
v 0.02129295 -0.20032300 -0.47075206
v 0.05969536 -0.21994483 -0.33956099
v 0.06459066 -0.18487817 -0.48480040
v 0.01498941 -0.20087881 -0.47214225
v 0.00054939 -0.20010404 -0.48004445
v 0.05497888 -0.19078998 -0.48121515
v 0.05497888 -0.18668035 -0.48648328
v 0.06383066 -0.18376654 -0.48648328
v 0.07118478 -0.18036430 -0.48648328
v -0.10115664 -0.27057427 0.26100582
v -0.09948017 -0.26973212 0.15176529
v -0.10421899 -0.26776150 0.15505788
v -0.13133314 -0.20071039 -0.23727146
v -0.10037428 -0.27017003 0.15849680
v -0.12599079 -0.14659451 -0.48648328
v -0.12315196 -0.15318003 -0.48289803
v -0.13133314 -0.14683032 -0.48114198
v 0.00148822 -0.29029715 0.26100582
v 0.00088469 -0.29009503 0.15893582
v 0.01498941 -0.28761914 0.15491155
v 0.03499532 -0.28445271 0.15491155
v 0.01498941 -0.28640646 0.14488745
v 0.04498710 -0.27798510 0.11488838
v 0.07498479 -0.27444810 0.12491247
v 0.07498479 -0.25240088 -0.05508197
v 0.06535067 -0.22082067 -0.32514679
v 0.00499764 -0.20439894 -0.46489859
v 0.03499532 -0.22442502 -0.33495137
v 0.01498941 -0.22759147 -0.33495137
v 0.05303418 -0.22046697 -0.34256089
v 0.06606595 -0.18278965 -0.48648328
v 0.00432705 -0.20136724 -0.47521535
v -0.00036708 -0.20010404 -0.48004445
v 0.00457293 -0.19434381 -0.48648328
v 0.03499532 -0.19004890 -0.48648328
v 0.03499532 -0.19240689 -0.48341021
v 0.04498710 -0.19159843 -0.48238584
v 0.04648476 -0.18824673 -0.48648328
v 0.05290006 -0.18708457 -0.48648328
v -0.09532250 -0.27338701 0.26100582
v -0.09015897 -0.27005213 0.11927849
v -0.09089662 -0.27043951 0.12491247
v -0.09355663 -0.27178693 0.14488745
v -0.09568016 -0.27207327 0.15505788
v -0.11499313 -0.19575860 -0.33495137
v -0.10330252 -0.20170410 -0.33495137
v -0.08251426 -0.23128003 -0.19498008
v -0.09047191 -0.26023278 0.04808557
v -0.13133314 -0.19080682 -0.30919605
v -0.13066256 -0.19043629 -0.31490320
v -0.13005903 -0.19006574 -0.32024449
v -0.12918726 -0.18961099 -0.32690284
v -0.11675902 -0.15536961 -0.48648328
v -0.11979902 -0.15983294 -0.47960544
v -0.12981315 -0.14984517 -0.47960544
v -0.13133314 -0.14880091 -0.47880059
v 0.00032586 -0.29029715 0.26100582
v 0.00452822 -0.28918552 0.15535054
v -0.00074708 -0.29009503 0.15893582
v 0.00030351 -0.24002144 -0.25029546
v 0.00139881 -0.28017464 0.07845049
v 0.01096588 -0.28014097 0.08869407
v 0.01007176 -0.24000460 -0.24005187
v 0.01507883 -0.26068753 -0.06488655
v 0.01429647 -0.22900626 -0.32434195
v 0.04543417 -0.22109015 -0.34548765
v 0.00448352 -0.22915785 -0.33443919
v 0.00081763 -0.23008420 -0.33078077
v -0.00068002 -0.23008420 -0.33078077
v -0.00441297 -0.22905679 -0.33443919
v -0.00499414 -0.22698513 -0.34460962
v -0.04507302 -0.22092173 -0.34526813
v -0.06498952 -0.19361956 -0.46489859
v -0.00244590 -0.20108092 -0.47492266
v 0.01047411 -0.23006736 -0.32053718
v 0.00747882 -0.22966313 -0.32719553
v -0.06060834 -0.19026786 -0.48033711
v -0.04330714 -0.18849936 -0.48648328
v -0.03499183 -0.18981309 -0.48648328
v -0.00743062 -0.19387221 -0.48648328
v -0.00450238 -0.19425960 -0.48648328
v 0.00090704 -0.19434381 -0.48648328
v 0.04498710 -0.18849936 -0.48648328
v -0.08497308 -0.27599764 0.15491155
v -0.08497308 -0.27609867 0.26100582
v -0.08001073 -0.23998776 -0.14003056
v -0.08050248 -0.25021133 -0.06195981
v -0.12310725 -0.19161528 -0.33495137
v -0.12140843 -0.19072261 -0.34490228
v -0.10158134 -0.20082828 -0.34490228
v -0.08347543 -0.21175925 -0.33495137
v -0.08065896 -0.22033222 -0.28248960
v -0.07976484 -0.21987747 -0.28914791
v -0.13133314 -0.19013311 -0.31387883
v -0.13133314 -0.18893728 -0.32148838
v -0.13133314 -0.18762353 -0.32953691
v -0.13133314 -0.18932466 -0.31907380
v -0.13133314 -0.18673086 -0.33495137
v -0.12811431 -0.18905517 -0.33495137
v -0.11523901 -0.15656544 -0.48648328
v -0.11637901 -0.15616122 -0.48604426
v -0.11313783 -0.16193829 -0.48245901
v -0.10064252 -0.17035969 -0.48041028
v -0.12160960 -0.16146669 -0.47294712
v -0.12570021 -0.15575698 -0.47631285
v -0.13133314 -0.15013149 -0.47631285
v -0.00235649 -0.29024664 0.26100582
v 0.00499764 -0.27805245 0.06491432
v 0.00857411 -0.26979947 0.00147726
v 0.00805999 -0.27971989 0.08196257
v -0.04498361 -0.28354320 0.26100582
v -0.04894009 -0.28292000 0.26100582
v -0.05531069 -0.28190947 0.26100582
v -0.06380482 -0.28054518 0.26100582
v -0.06179305 -0.28027570 0.15761876
v -0.02500005 -0.28576645 0.15491155
v -0.00501650 -0.28770337 0.14488745
v -0.00117178 -0.28017464 0.07845049
v -0.00025531 -0.24002144 -0.25029546
v 0.00448352 -0.23040421 -0.32434195
v -0.00499414 -0.22984840 -0.32734185
v -0.01503063 -0.22732198 -0.33495137
v -0.05247186 -0.22038275 -0.34212190
v -0.04847068 -0.21967536 -0.34878021
v -0.07151659 -0.19092472 -0.46489859
v -0.07033189 -0.19020048 -0.47031304
v -0.06436364 -0.19107631 -0.47411782
v -0.05913305 -0.21984379 -0.33882931
v -0.06498952 -0.21741842 -0.34490228
v -0.06836482 -0.21969220 -0.32778084
v -0.07498130 -0.21408355 -0.34490228
v -0.06726953 -0.18878569 -0.47697139
v -0.08079308 -0.18041483 -0.48055664
v -0.07498130 -0.18189698 -0.48238584
v -0.06458717 -0.18486132 -0.48480040
v -0.06384952 -0.18374969 -0.48648328
v -0.05564598 -0.18636033 -0.48648328
v -0.05499775 -0.18691614 -0.48604426
v -0.05099656 -0.18725300 -0.48648328
v -0.04498361 -0.18822987 -0.48648328
v -0.07887072 -0.24979025 -0.06861814
v -0.08041307 -0.27008581 0.09901083
v -0.07498130 -0.27783349 0.15491155
v -0.07498130 -0.21600363 -0.33495137
v -0.07033189 -0.22013012 -0.32112253
v -0.12641549 -0.18790987 -0.34490228
v -0.12035784 -0.17027546 -0.44199684
v -0.08175425 -0.21088342 -0.34490228
v -0.13133314 -0.18553503 -0.34065852
v -0.12337549 -0.16301623 -0.46489859
v -0.10596253 -0.16257831 -0.48648328
v -0.09498721 -0.17180815 -0.48223951
v -0.07419895 -0.18661296 -0.47411782
v -0.12838255 -0.15838446 -0.46489859
v -0.13133314 -0.15225369 -0.47221541
v -0.13133314 -0.15184946 -0.47309345
v -0.07498130 -0.27662081 0.14488745
v -0.07811072 -0.26969844 0.09235249
v -0.01503063 -0.26530245 -0.02508290
v -0.00499414 -0.26931104 -0.00532741
v -0.00521767 -0.25944117 -0.08559322
v -0.07511542 -0.25940749 0.00447716
v -0.06170364 -0.22026485 -0.33217096
v -0.06501187 -0.21928798 -0.33524406
v -0.06501187 -0.22065224 -0.32463461
v -0.09498721 -0.16827118 -0.48648328
v -0.07498130 -0.17846106 -0.48648328
v -0.06608482 -0.18280651 -0.48648328
v -0.05499775 -0.18651192 -0.48648328
v -0.07851307 -0.25974435 0.01179401
v -0.06498952 -0.22307760 -0.30495229
v -0.13133314 -0.18454131 -0.34490228
v -0.12954491 -0.15956345 -0.45765489
v -0.13133314 -0.15543698 -0.46489859
v -0.07498130 -0.25580314 -0.02508290
v -0.13133314 -0.15799707 -0.45648420
v -0.13133314 -0.15668334 -0.46102065
f 1 2 3
f 1 3 4
f 1 4 5
f 1 5 6
f 1 6 7
f 1 7 8
f 1 8 9
f 1 9 10
f 1 10 11
f 1 11 12
f 1 12 13
f 1 13 2
f 2 14 33
f 2 33 52
f 2 52 79
f 2 79 109
f 2 109 154
f 2 154 183
f 2 183 182
f 2 182 181
f 2 181 180
f 2 180 176
f 2 176 126
f 2 126 87
f 2 87 58
f 2 58 57
f 2 57 35
f 2 35 16
f 2 16 3
f 2 13 15
f 2 15 14
f 3 16 4
f 4 17 5
f 4 16 17
f 5 17 18
f 5 18 19
f 5 19 6
f 6 19 20
f 6 20 21
f 6 21 7
f 7 22 8
f 7 21 23
f 7 23 24
f 7 24 22
f 8 22 9
f 9 22 25
f 9 25 26
f 9 26 27
f 9 27 10
f 10 27 28
f 10 28 29
f 10 29 11
f 11 30 31
f 11 31 32
f 11 32 12
f 11 29 30
f 12 32 51
f 12 51 78
f 12 78 100
f 12 100 77
f 12 77 76
f 12 76 108
f 12 108 107
f 12 107 152
f 12 152 104
f 12 104 103
f 12 103 151
f 12 151 150
f 12 150 149
f 12 149 148
f 12 148 147
f 12 147 209
f 12 209 208
f 12 208 238
f 12 238 206
f 12 206 205
f 12 205 237
f 12 237 236
f 12 236 235
f 12 235 220
f 12 220 169
f 12 169 122
f 12 122 84
f 12 84 55
f 12 55 34
f 12 34 15
f 12 15 13
f 14 15 34
f 14 34 56
f 14 56 86
f 14 86 125
f 14 125 175
f 14 175 225
f 14 225 224
f 14 224 243
f 14 243 246
f 14 246 245
f 14 245 241
f 14 241 218
f 14 218 167
f 14 167 165
f 14 165 164
f 14 164 166
f 14 166 163
f 14 163 118
f 14 118 82
f 14 82 53
f 14 53 33
f 16 35 36
f 16 36 17
f 17 36 18
f 18 21 20
f 18 20 19
f 18 36 37
f 18 37 38
f 18 38 21
f 21 38 39
f 21 39 24
f 21 24 23
f 22 24 40
f 22 40 25
f 24 39 41
f 24 41 42
f 24 42 40
f 25 43 26
f 25 40 44
f 25 44 43
f 26 45 28
f 26 28 27
f 26 43 45
f 28 46 47
f 28 47 48
f 28 48 49
f 28 49 29
f 28 45 46
f 29 49 30
f 30 47 50
f 30 50 31
f 30 49 48
f 30 48 47
f 31 50 32
f 32 50 51
f 33 53 54
f 33 54 52
f 34 55 56
f 35 57 36
f 36 57 58
f 36 58 59
f 36 59 60
f 36 60 61
f 36 61 62
f 36 62 63
f 36 63 64
f 36 64 37
f 37 64 65
f 37 65 38
f 38 65 66
f 38 66 44
f 38 44 67
f 38 67 39
f 39 67 41
f 40 42 44
f 41 67 42
f 42 67 44
f 43 44 68
f 43 68 69
f 43 69 45
f 44 66 68
f 45 70 47
f 45 47 46
f 45 69 71
f 45 71 70
f 47 72 50
f 47 70 73
f 47 73 74
f 47 74 75
f 47 75 76
f 47 76 77
f 47 77 72
f 50 72 78
f 50 78 51
f 52 54 79
f 53 80 81
f 53 81 54
f 53 82 80
f 54 83 79
f 54 81 83
f 55 84 85
f 55 85 56
f 56 85 86
f 58 87 59
f 59 87 60
f 60 87 88
f 60 88 89
f 60 89 90
f 60 90 91
f 60 91 61
f 61 91 92
f 61 92 93
f 61 93 63
f 61 63 62
f 63 94 64
f 63 93 94
f 64 94 68
f 64 68 66
f 64 66 65
f 68 94 95
f 68 95 71
f 68 71 69
f 70 71 96
f 70 96 73
f 71 97 98
f 71 98 99
f 71 99 96
f 71 95 97
f 72 77 100
f 72 100 78
f 73 96 101
f 73 101 74
f 74 102 151
f 74 151 103
f 74 103 104
f 74 104 105
f 74 105 106
f 74 106 75
f 74 101 96
f 74 96 102
f 75 106 107
f 75 107 108
f 75 108 76
f 79 83 109
f 80 110 111
f 80 111 112
f 80 112 113
f 80 113 83
f 80 83 81
f 80 82 114
f 80 114 115
f 80 115 116
f 80 116 117
f 80 117 110
f 82 118 119
f 82 119 120
f 82 120 121
f 82 121 114
f 83 113 109
f 84 122 85
f 85 123 86
f 85 122 123
f 86 123 124
f 86 124 125
f 87 126 128
f 87 128 88
f 88 127 89
f 88 128 188
f 88 188 129
f 88 129 130
f 88 130 127
f 89 91 90
f 89 127 91
f 91 131 132
f 91 132 133
f 91 133 92
f 91 127 131
f 92 133 94
f 92 94 93
f 94 133 134
f 94 134 95
f 95 134 97
f 96 135 98
f 96 98 136
f 96 136 137
f 96 137 138
f 96 138 139
f 96 139 140
f 96 140 141
f 96 141 142
f 96 142 143
f 96 143 102
f 96 99 135
f 97 134 98
f 98 134 144
f 98 144 145
f 98 145 136
f 98 135 99
f 102 146 147
f 102 147 148
f 102 148 149
f 102 149 150
f 102 150 151
f 102 143 142
f 102 142 146
f 104 152 105
f 105 152 106
f 106 152 107
f 109 113 153
f 109 153 154
f 110 153 111
f 110 117 116
f 110 116 155
f 110 155 156
f 110 156 153
f 111 153 112
f 112 153 113
f 114 157 158
f 114 158 159
f 114 159 115
f 114 121 157
f 115 159 217
f 115 217 160
f 115 160 161
f 115 161 116
f 116 161 162
f 116 162 155
f 118 163 119
f 119 163 120
f 120 164 165
f 120 165 121
f 120 163 166
f 120 166 164
f 121 165 167
f 121 167 168
f 121 168 157
f 122 169 170
f 122 170 123
f 123 125 124
f 123 170 171
f 123 171 172
f 123 172 173
f 123 173 174
f 123 174 125
f 125 174 175
f 126 176 128
f 127 130 177
f 127 177 178
f 127 178 179
f 127 179 131
f 128 176 180
f 128 180 181
f 128 181 182
f 128 182 183
f 128 183 184
f 128 184 185
f 128 185 186
f 128 186 187
f 128 187 188
f 129 188 138
f 129 138 137
f 129 137 189
f 129 189 177
f 129 177 130
f 131 179 178
f 131 178 132
f 132 145 144
f 132 144 134
f 132 134 133
f 132 178 177
f 132 177 145
f 136 145 189
f 136 189 137
f 138 188 190
f 138 190 139
f 139 191 192
f 139 192 141
f 139 141 140
f 139 190 191
f 141 193 142
f 141 192 193
f 142 194 195
f 142 195 196
f 142 196 146
f 142 193 192
f 142 192 197
f 142 197 198
f 142 198 199
f 142 199 200
f 142 200 194
f 145 177 189
f 146 201 202
f 146 202 203
f 146 203 204
f 146 204 205
f 146 205 206
f 146 206 207
f 146 207 208
f 146 208 209
f 146 209 147
f 146 196 195
f 146 195 201
f 153 156 210
f 153 210 211
f 153 211 212
f 153 212 184
f 153 184 183
f 153 183 154
f 155 162 213
f 155 213 214
f 155 214 156
f 156 214 210
f 157 168 158
f 158 215 216
f 158 216 194
f 158 194 159
f 158 168 215
f 159 194 217
f 160 217 213
f 160 213 162
f 160 162 161
f 167 218 168
f 168 218 219
f 168 219 216
f 168 216 215
f 169 220 171
f 169 171 170
f 171 220 172
f 172 220 221
f 172 221 202
f 172 202 222
f 172 222 195
f 172 195 173
f 173 195 219
f 173 219 223
f 173 223 224
f 173 224 225
f 173 225 174
f 174 225 175
f 184 212 226
f 184 226 227
f 184 227 228
f 184 228 229
f 184 229 186
f 184 186 185
f 186 229 187
f 187 229 230
f 187 230 190
f 187 190 188
f 190 230 231
f 190 231 232
f 190 232 191
f 191 232 197
f 191 197 192
f 194 200 217
f 194 216 219
f 194 219 195
f 195 222 201
f 197 233 198
f 197 232 199
f 197 199 233
f 198 233 199
f 199 234 210
f 199 210 214
f 199 214 213
f 199 213 200
f 199 232 234
f 200 213 217
f 201 222 202
f 202 221 203
f 203 221 235
f 203 235 236
f 203 236 237
f 203 237 204
f 204 237 205
f 206 238 207
f 207 238 208
f 210 239 211
f 210 234 240
f 210 240 239
f 211 227 212
f 211 239 227
f 212 227 226
f 218 241 219
f 219 241 242
f 219 242 223
f 220 235 221
f 223 242 243
f 223 243 224
f 227 239 244
f 227 244 231
f 227 231 228
f 228 231 230
f 228 230 229
f 231 244 240
f 231 240 232
f 232 240 234
f 239 240 244
f 241 245 242
f 242 245 246
f 242 246 243

