# https://github.com/mikedh/trimesh
v -0.15883224 0.22732899 0.26107898
v -0.15883224 0.21113697 0.44193158
v -0.15883224 0.23973499 0.26107898
v 0.09638916 0.25879720 0.26107898
v -0.15883224 0.22526132 0.44193158
v 0.09638916 0.24446514 0.44193158
v -0.15883224 0.26148799 0.35626736
v -0.15493420 0.24206702 0.26107898
v 0.09638916 0.27123153 0.26107898
v -0.15505914 0.22744228 0.44193158
v -0.15883224 0.25136679 0.39266446
v 0.09638916 0.25705999 0.44193158
v -0.15883224 0.26148799 0.36343703
v -0.14146599 0.27075002 0.35734722
v -0.13506922 0.25217876 0.26107898
v 0.09491491 0.27217567 0.26107898
v 0.09638916 0.29195541 0.35456789
v -0.15158589 0.22935888 0.44193158
v -0.15883224 0.25977910 0.36850005
v -0.14893723 0.23074678 0.44193158
v -0.14166589 0.26082709 0.39146069
v 0.09638916 0.28195697 0.39422232
v 0.09144166 0.25973189 0.44193158
v -0.14146599 0.27075002 0.36223322
v -0.10171102 0.29086965 0.35699317
v -0.11522921 0.26226220 0.26107898
v 0.08839320 0.27419615 0.26107898
v 0.09638916 0.29200262 0.36442837
v 0.09566453 0.29209703 0.35421383
v 0.08496992 0.29475009 0.35499275
v 0.08496992 0.29492003 0.36499488
v -0.12922215 0.24074522 0.44193158
v -0.10191092 0.28095618 0.39167312
v -0.10171102 0.29086965 0.36260498
v 0.09638916 0.29164386 0.36637568
v 0.09476498 0.28224966 0.39500126
v 0.09044216 0.26023230 0.44193158
v -0.09566407 0.29209703 0.35421383
v -0.09226578 0.27321422 0.26107898
v -0.09536422 0.27226064 0.26107898
v -0.10001188 0.26993805 0.26107898
v -0.08496946 0.29492003 0.36499488
v -0.08496946 0.29475951 0.35499275
v 0.08496992 0.27522525 0.26107898
v 0.09638916 0.29200262 0.36518961
v 0.06093203 0.30015057 0.35929453
v 0.06093203 0.30015057 0.36049834
v 0.07025234 0.29002938 0.39007986
v 0.09264106 0.29085079 0.37184590
v 0.09558956 0.29217258 0.36557907
v -0.10943213 0.25074369 0.44193158
v -0.09144120 0.25975078 0.44193158
v -0.08956714 0.26056275 0.44193158
v -0.09476452 0.28224966 0.39500126
v -0.09931223 0.28973669 0.36926126
v -0.09556412 0.29217258 0.36557907
v 0.08496992 0.28478938 0.39498356
v 0.09131672 0.28055963 0.40063077
v 0.08494493 0.26208282 0.44193158
v 0.08954261 0.26057220 0.44193158
v -0.08496946 0.27534798 0.26107898
v -0.07027686 0.29003882 0.39007986
v -0.06093157 0.30014113 0.36048064
v -0.06093157 0.30014113 0.35929453
v -0.09264059 0.29084134 0.37184590
v 0.05326089 0.28045580 0.26107898
v 0.04518996 0.28174925 0.26107898
v 0.03499510 0.28335431 0.26107898
v 0.00081232 0.29016155 0.26854959
v 0.00498522 0.30757150 0.35499275
v 0.00498522 0.30755264 0.36499488
v 0.01500517 0.30599481 0.36499488
v 0.05498502 0.30061319 0.36209160
v 0.00253645 0.30035827 0.39071715
v 0.02864829 0.27183577 0.44193158
v 0.03499510 0.27083498 0.44193158
v 0.03699409 0.27051398 0.44193158
v 0.07497495 0.26428264 0.44193158
v 0.07804841 0.26371616 0.44193158
v -0.08494447 0.26208282 0.44193158
v -0.09131626 0.28055963 0.40063077
v -0.08496946 0.28478938 0.39498356
v -0.05485963 0.28083345 0.26107898
v -0.00503473 0.30755264 0.36499488
v -0.05500955 0.30061319 0.36209160
v -0.07499948 0.26428264 0.44193158
v -0.07195102 0.26480192 0.44193158
v -0.03701862 0.27051398 0.44193158
v -0.03499464 0.27083498 0.44193158
v -0.00253599 0.30035827 0.39071715
v -0.00503473 0.30758095 0.35499275
v -0.04106658 0.28301442 0.26107898
v -0.05218598 0.28125831 0.26107898
v -0.03499464 0.28395855 0.26107898
v 0.02500013 0.28478938 0.26107898
v -0.00081186 0.28737634 0.26107898
v -0.00480985 0.28741410 0.26107898
v -0.00113670 0.29016155 0.26854959
v -0.00488481 0.30759040 0.35499275
v 0.00868335 0.28692314 0.26107898
v 0.00468537 0.28730080 0.26107898
v 0.00498522 0.27509308 0.44193158
v 0.00805867 0.27475318 0.44193158
v 0.01805363 0.27347860 0.44193158
v -0.02522456 0.27234560 0.44193158
v -0.01502970 0.27383736 0.44193158
v -0.00503473 0.27509308 0.44193158
v -0.03109660 0.28452504 0.26107898
f 1 2 5
f 1 5 11
f 1 11 19
f 1 19 13
f 1 13 7
f 1 7 3
f 1 3 8
f 1 8 15
f 1 15 26
f 1 26 41
f 1 41 40
f 1 40 39
f 1 39 61
f 1 61 83
f 1 83 93
f 1 93 92
f 1 92 94
f 1 94 108
f 1 108 97
f 1 97 96
f 1 96 101
f 1 101 100
f 1 100 95
f 1 95 68
f 1 68 67
f 1 67 66
f 1 66 44
f 1 44 27
f 1 27 16
f 1 16 9
f 1 9 4
f 1 4 2
f 2 4 6
f 2 6 12
f 2 12 23
f 2 23 37
f 2 37 60
f 2 60 59
f 2 59 79
f 2 79 78
f 2 78 77
f 2 77 76
f 2 76 75
f 2 75 104
f 2 104 103
f 2 103 102
f 2 102 107
f 2 107 106
f 2 106 105
f 2 105 89
f 2 89 88
f 2 88 87
f 2 87 86
f 2 86 80
f 2 80 53
f 2 53 52
f 2 52 51
f 2 51 32
f 2 32 20
f 2 20 18
f 2 18 10
f 2 10 5
f 3 7 8
f 4 9 17
f 4 17 28
f 4 28 45
f 4 45 35
f 4 35 22
f 4 22 12
f 4 12 6
f 5 10 11
f 7 13 24
f 7 24 14
f 7 14 8
f 8 14 15
f 9 16 17
f 10 18 11
f 11 18 20
f 11 20 21
f 11 21 19
f 12 22 23
f 13 19 21
f 13 21 24
f 14 24 34
f 14 34 25
f 14 25 26
f 14 26 15
f 16 27 17
f 17 27 29
f 17 29 30
f 17 30 31
f 17 31 28
f 20 32 33
f 20 33 21
f 21 33 34
f 21 34 24
f 22 35 36
f 22 36 37
f 22 37 23
f 25 38 39
f 25 39 40
f 25 40 41
f 25 41 26
f 25 34 42
f 25 42 43
f 25 43 38
f 27 44 29
f 28 31 45
f 29 44 30
f 30 44 46
f 30 46 31
f 31 46 47
f 31 47 48
f 31 48 49
f 31 49 50
f 31 50 45
f 32 51 33
f 33 51 52
f 33 52 53
f 33 53 54
f 33 54 55
f 33 55 34
f 34 55 56
f 34 56 42
f 35 45 50
f 35 50 36
f 36 50 49
f 36 49 57
f 36 57 58
f 36 58 59
f 36 59 60
f 36 60 37
f 38 43 61
f 38 61 39
f 42 62 63
f 42 63 64
f 42 64 43
f 42 56 65
f 42 65 62
f 43 64 61
f 44 66 46
f 46 66 67
f 46 67 68
f 46 68 69
f 46 69 70
f 46 70 47
f 47 70 71
f 47 71 72
f 47 72 73
f 47 73 48
f 48 73 72
f 48 72 71
f 48 71 74
f 48 74 75
f 48 75 76
f 48 76 77
f 48 77 78
f 48 78 79
f 48 79 57
f 48 57 49
f 53 80 54
f 54 81 82
f 54 82 65
f 54 65 56
f 54 56 55
f 54 80 81
f 57 79 58
f 58 79 59
f 61 64 83
f 62 84 85
f 62 85 63
f 62 65 82
f 62 82 86
f 62 86 87
f 62 87 88
f 62 88 89
f 62 89 90
f 62 90 84
f 63 85 84
f 63 84 91
f 63 91 64
f 64 92 93
f 64 93 83
f 64 91 94
f 64 94 92
f 68 95 69
f 69 96 97
f 69 97 98
f 69 98 99
f 69 99 70
f 69 95 100
f 69 100 101
f 69 101 96
f 70 99 71
f 71 99 84
f 71 84 90
f 71 90 74
f 74 90 107
f 74 107 102
f 74 102 103
f 74 103 104
f 74 104 75
f 80 86 82
f 80 82 81
f 84 99 91
f 89 105 90
f 90 105 106
f 90 106 107
f 91 108 94
f 91 99 98
f 91 98 108
f 97 108 98

