# https://github.com/mikedh/trimesh
v -0.23870574 0.10199133 0.45475835
v -0.15885723 0.21112177 0.44192225
v -0.15885723 0.22523594 0.44192225
v -0.25197500 0.10199133 0.45475835
v -0.26400617 -0.00502589 0.45475835
v -0.15885723 0.22729698 0.26107901
v -0.16098380 0.22398368 0.44192225
v -0.15885723 0.25132498 0.39268237
v -0.16156644 0.25075102 0.39133617
v -0.17445697 0.24185465 0.39418024
v -0.25206238 0.10183480 0.45475835
v -0.16347452 0.22228788 0.44192225
v -0.16525152 0.22085297 0.44192225
v -0.16822290 0.21821800 0.44192225
v -0.18546855 0.20123403 0.44192225
v -0.20135960 0.18555452 0.44192225
v -0.21138072 0.17561460 0.44192225
v -0.21850328 0.16849229 0.44192225
v -0.22103770 0.16562249 0.44192225
v -0.22259621 0.16371799 0.44192225
v -0.22428583 0.16131780 0.44192225
v -0.22775243 0.15544777 0.44192225
v -0.24185191 0.17444059 0.39418024
v -0.25075150 0.16155261 0.39133617
v -0.27439141 -0.00502589 0.45475835
v -0.27806196 -0.00502589 0.26109797
v -0.15885723 0.23971535 0.26107901
v -0.25713122 0.10199133 0.26107901
v -0.18023950 0.24021104 0.39031231
v -0.15885723 0.25977784 0.36848903
v -0.15885723 0.26149970 0.36342663
v -0.16137707 0.26066485 0.36208045
v -0.17541829 0.25244680 0.36513308
v -0.17901599 0.24936830 0.36856487
v -0.25554356 0.09481685 0.45475835
v -0.27088112 0.12181900 0.39156371
v -0.28088766 0.10199133 0.39171541
v -0.19024606 0.23021895 0.39031231
v -0.21024460 0.21023475 0.39031231
v -0.24020600 0.18023235 0.39031231
v -0.24938232 0.17898008 0.36856487
v -0.25245565 0.17540589 0.36513308
v -0.26067063 0.16134389 0.36208045
v -0.28080028 0.12163638 0.36244071
v -0.29067573 0.10199133 0.36283886
v -0.27439141 -0.00497371 0.45475835
v -0.30036184 -0.00249526 0.39071050
v -0.29813331 -0.00502589 0.39381999
v -0.28817046 -0.00502589 0.26109797
v -0.16209078 0.23796739 0.26107901
v -0.18085125 0.25059450 0.35775751
v -0.16137707 0.26066485 0.35758686
v -0.15885723 0.26147360 0.35627860
v -0.26923519 0.10199133 0.26107901
v -0.18085125 0.25059450 0.36189085
v -0.18522093 0.24516797 0.36543643
v -0.19098890 0.24096763 0.36234590
v -0.25893733 0.08772063 0.45475835
v -0.28093135 0.10199133 0.39160162
v -0.28094593 0.10191306 0.39165851
v -0.22099400 0.21096525 0.36234590
v -0.24097797 0.19098103 0.36234590
v -0.25060582 0.18083240 0.36189085
v -0.26067063 0.16134389 0.35758686
v -0.28080028 0.12163638 0.35722664
v -0.29086509 0.10173044 0.36263031
v -0.28974354 0.09933025 0.36928537
v -0.30036184 0.00253993 0.39071050
v -0.27431858 0.00501839 0.45475835
v -0.30755726 -0.00502589 0.36498138
v -0.30076969 -0.00502589 0.38623586
v -0.28997660 -0.00502589 0.26854935
v -0.29032618 -0.00246917 0.26703253
v -0.29032618 0.00222686 0.26703253
v -0.28806850 0.00522710 0.26109797
v -0.16455236 0.23661076 0.26107901
v -0.17233039 0.23196691 0.26107901
v -0.17732638 0.22729698 0.26107901
v -0.19098890 0.24096763 0.35732144
v -0.28489321 0.03110743 0.26109797
v -0.28436884 0.03502078 0.26109797
v -0.28349492 0.04109953 0.26109797
v -0.28288317 0.04501288 0.26109797
v -0.28053808 0.05980536 0.26109797
v -0.28024679 0.06163160 0.26109797
v -0.27561492 0.08500737 0.26109797
v -0.27401271 0.09108612 0.26109797
v -0.27268726 0.09526037 0.26109797
v -0.27102676 0.09862585 0.26109797
v -0.27016741 0.10034773 0.26109797
v -0.26256418 0.11524457 0.26107901
v -0.26088911 0.08271153 0.45475835
v -0.28224227 0.09479076 0.39499551
v -0.22099400 0.21096525 0.35732144
v -0.24097797 0.19098103 0.35732144
v -0.25060582 0.18083240 0.35777646
v -0.24221605 0.15518688 0.26107901
v -0.29086509 0.10173044 0.35707495
v -0.29491434 0.08500737 0.36498138
v -0.29217601 0.09559952 0.36556914
v -0.30755726 0.00501839 0.36498138
v -0.27287659 0.01501049 0.45475835
v -0.29002029 0.07024097 0.39004689
v -0.30765921 -0.00502589 0.35502723
v -0.30765921 -0.00497371 0.35502723
v -0.30764464 0.00501839 0.35502723
v -0.22430038 0.18036279 0.26107901
v -0.30014336 0.06097937 0.35931227
v -0.29482692 0.08500737 0.35502723
v -0.29213229 0.09570388 0.35424986
v -0.26094738 0.11842743 0.26107901
v -0.26263699 0.07501528 0.45475835
v -0.28477669 0.08500737 0.39497656
v -0.29085052 0.09267755 0.37182605
v -0.22731546 0.17731038 0.26107901
v -0.23204927 0.17232737 0.26107901
v -0.23688504 0.16460502 0.26107901
v -0.23962338 0.15977855 0.26107901
v -0.30014336 0.06097937 0.36050674
v -0.30062401 0.05500498 0.36208045
v -0.27121612 0.02500259 0.45475835
f 1 2 3
f 1 3 4
f 1 4 11
f 1 11 35
f 1 35 58
f 1 58 92
f 1 92 112
f 1 112 121
f 1 121 102
f 1 102 69
f 1 69 46
f 1 46 25
f 1 25 5
f 1 5 2
f 2 6 27
f 2 27 53
f 2 53 31
f 2 31 30
f 2 30 8
f 2 8 3
f 2 5 6
f 3 7 4
f 3 8 9
f 3 9 10
f 3 10 7
f 4 7 12
f 4 12 13
f 4 13 14
f 4 14 15
f 4 15 16
f 4 16 17
f 4 17 18
f 4 18 19
f 4 19 20
f 4 20 21
f 4 21 22
f 4 22 23
f 4 23 24
f 4 24 11
f 5 25 48
f 5 48 71
f 5 71 70
f 5 70 104
f 5 104 72
f 5 72 49
f 5 49 26
f 5 26 6
f 6 26 28
f 6 28 54
f 6 54 91
f 6 91 111
f 6 111 97
f 6 97 118
f 6 118 117
f 6 117 116
f 6 116 115
f 6 115 107
f 6 107 78
f 6 78 77
f 6 77 76
f 6 76 50
f 6 50 27
f 7 10 29
f 7 29 12
f 8 30 9
f 9 30 31
f 9 31 32
f 9 32 33
f 9 33 34
f 9 34 29
f 9 29 10
f 11 24 36
f 11 36 37
f 11 37 35
f 12 29 13
f 13 29 14
f 14 29 15
f 15 29 16
f 16 29 17
f 17 29 38
f 17 38 39
f 17 39 18
f 18 39 40
f 18 40 19
f 19 40 20
f 20 40 21
f 21 40 23
f 21 23 22
f 23 40 24
f 24 40 41
f 24 41 42
f 24 42 43
f 24 43 44
f 24 44 45
f 24 45 36
f 25 46 68
f 25 68 47
f 25 47 48
f 26 49 54
f 26 54 28
f 27 50 51
f 27 51 52
f 27 52 53
f 29 34 55
f 29 55 56
f 29 56 57
f 29 57 38
f 31 53 52
f 31 52 32
f 32 52 51
f 32 51 55
f 32 55 33
f 33 55 34
f 35 37 58
f 36 45 59
f 36 59 37
f 37 59 60
f 37 60 58
f 38 57 39
f 39 57 61
f 39 61 62
f 39 62 40
f 40 63 41
f 40 62 63
f 41 63 42
f 42 63 43
f 43 63 96
f 43 96 64
f 43 64 65
f 43 65 44
f 44 65 98
f 44 98 66
f 44 66 45
f 45 66 67
f 45 67 59
f 46 69 68
f 47 68 101
f 47 101 70
f 47 70 71
f 47 71 48
f 49 72 73
f 49 73 74
f 49 74 75
f 49 75 54
f 50 76 51
f 51 76 77
f 51 77 78
f 51 78 79
f 51 79 57
f 51 57 55
f 54 75 80
f 54 80 81
f 54 81 82
f 54 82 83
f 54 83 84
f 54 84 85
f 54 85 86
f 54 86 87
f 54 87 88
f 54 88 89
f 54 89 90
f 54 90 91
f 55 57 56
f 57 79 94
f 57 94 61
f 58 60 92
f 59 67 60
f 60 67 93
f 60 93 92
f 61 94 95
f 61 95 62
f 62 95 96
f 62 96 63
f 64 96 97
f 64 97 90
f 64 90 65
f 65 90 98
f 66 98 99
f 66 99 100
f 66 100 67
f 67 100 93
f 68 69 102
f 68 102 103
f 68 103 101
f 70 101 105
f 70 105 104
f 72 104 73
f 73 104 105
f 73 105 74
f 74 105 106
f 74 106 82
f 74 82 81
f 74 81 80
f 74 80 75
f 78 107 79
f 79 107 94
f 82 106 108
f 82 108 83
f 83 108 84
f 84 108 85
f 85 108 109
f 85 109 86
f 86 109 110
f 86 110 87
f 87 110 98
f 87 98 88
f 88 98 89
f 89 98 90
f 90 97 111
f 90 111 91
f 92 93 113
f 92 113 112
f 93 100 114
f 93 114 113
f 94 107 95
f 95 107 115
f 95 115 116
f 95 116 96
f 96 116 117
f 96 117 118
f 96 118 97
f 98 110 109
f 98 109 99
f 99 114 100
f 99 109 108
f 99 108 119
f 99 119 103
f 99 103 114
f 101 106 105
f 101 103 120
f 101 120 119
f 101 119 106
f 102 121 103
f 103 119 120
f 103 121 112
f 103 112 113
f 103 113 114
f 106 119 108

