# https://github.com/mikedh/trimesh
v -0.18165363 0.08485626 -0.47022209
v -0.16848671 0.08485626 -0.47022209
v -0.18315589 0.08485626 -0.46601370
v -0.17960349 0.08966509 -0.46940994
v -0.17944442 0.08933472 -0.47022209
v -0.10143266 0.15977873 -0.49067342
v -0.09510547 0.15977873 -0.49318370
v -0.09510547 0.15977873 -0.47413516
v -0.26482612 0.08485626 0.26107898
v -0.18329729 0.08485626 -0.46557072
v -0.18091133 0.09175749 -0.46276513
v -0.16952947 0.10954286 -0.46926227
v -0.16933505 0.10913906 -0.47022209
v -0.10691151 0.15977873 -0.48794165
v -0.10093780 0.16049455 -0.49030426
v -0.09510547 0.16198125 -0.49148557
v -0.09510547 0.16007240 -0.49296221
v -0.09510547 0.25813973 0.24882296
v -0.09510547 0.25993845 0.26107898
v -0.27564242 0.08485626 0.26107898
v -0.20818187 0.08485626 -0.34574217
v -0.20059985 0.10124669 -0.34293658
v -0.17085500 0.11163525 -0.46254361
v -0.16779745 0.11499410 -0.46549687
v -0.16569427 0.11528777 -0.47022209
v -0.16155863 0.12171180 -0.47022209
v -0.10943885 0.15977873 -0.48631737
v -0.11263780 0.16154075 -0.48210898
v -0.09510547 0.16890085 -0.48425007
v -0.09510547 0.16768946 -0.48565289
v -0.09510547 0.16242175 -0.49104258
v -0.09510547 0.27236432 0.26107898
v -0.27562475 0.08500309 0.26107898
v -0.27505919 0.08485626 0.15490928
v -0.21024969 0.08485626 -0.33496279
v -0.20881812 0.08770118 -0.33496279
v -0.19054350 0.12110610 -0.34264123
v -0.18792780 0.12466685 -0.34559453
v -0.16880484 0.11809599 -0.45493898
v -0.16261904 0.12286812 -0.46498007
v -0.15790017 0.12787886 -0.46498007
v -0.15171437 0.13169657 -0.47022209
v -0.11967193 0.15977873 -0.47775292
v -0.11896498 0.15977873 -0.47863889
v -0.11366287 0.15977873 -0.48321643
v -0.09994807 0.16994704 -0.47982019
v -0.09510547 0.17251664 -0.47790056
v -0.09510547 0.27190548 0.15579525
v -0.09551197 0.27175865 0.15586907
v -0.09540593 0.27225423 0.26107898
v -0.27401644 0.09109674 0.26107898
v -0.27504152 0.08500309 0.15490928
v -0.27095890 0.08485626 0.12242341
v -0.21841495 0.08485626 -0.27493775
v -0.21238822 0.08588409 -0.31547126
v -0.19489124 0.11501246 -0.33496279
v -0.25013927 0.09030750 -0.02117887
v -0.22815317 0.11638904 -0.08511696
v -0.19116209 0.12231749 -0.33496279
v -0.18859939 0.12730987 -0.33496279
v -0.18253732 0.13340352 -0.34493002
v -0.17958581 0.13955224 -0.33739921
v -0.15924338 0.12925544 -0.45493898
v -0.14789684 0.13788198 -0.46498007
v -0.12219927 0.15977873 -0.47310153
v -0.13170773 0.15170281 -0.47022209
v -0.12126257 0.16108188 -0.47228938
v -0.12287087 0.16247682 -0.46498007
v -0.09510547 0.17341602 -0.47575945
v -0.09510547 0.27172193 0.15394947
v -0.10007179 0.27001497 0.15978214
v -0.10007179 0.26992321 0.26107898
v -0.10007179 0.27001497 0.16007748
v -0.27267325 0.09526318 0.26107898
v -0.27200162 0.09412520 0.15490928
v -0.27071145 0.09146382 0.13490093
v -0.27023426 0.09054610 0.12796077
v -0.26979244 0.08927965 0.12131594
v -0.27000451 0.08485626 0.11489259
v -0.23752023 0.08485626 -0.13421491
v -0.21958141 0.14918827 -0.02509195
v -0.26818413 0.09647456 0.13490093
v -0.26954499 0.09913594 0.15490928
v -0.26199833 0.11394791 0.15490928
v -0.23925225 0.15856734 0.15490928
v -0.18974820 0.12954910 -0.31820303
v -0.18962447 0.13951552 -0.27789104
v -0.18299684 0.13573453 -0.33444595
v -0.19017236 0.14023134 -0.27124619
v -0.18015137 0.14013956 -0.33075440
v -0.17488460 0.14485663 -0.33407679
v -0.15942010 0.15977873 -0.33732539
v -0.14959352 0.16959831 -0.33747303
v -0.12925108 0.15920974 -0.45493898
v -0.12787253 0.15786988 -0.46498007
v -0.12582238 0.15977873 -0.46498007
v -0.12863250 0.15977873 -0.45493898
v -0.13959020 0.17956471 -0.33747303
v -0.13347510 0.18264826 -0.34493002
v -0.12762511 0.18877861 -0.33496279
v -0.12479731 0.18811785 -0.34588984
v -0.11993703 0.18997164 -0.34980291
v -0.10007179 0.20002982 -0.35002440
v -0.09510547 0.20337032 -0.34485620
v -0.09510547 0.27051055 0.14494202
v -0.13771679 0.24881570 0.14494202
v -0.15885454 0.23939991 0.15498310
v -0.15496632 0.24204294 0.26107898
v -0.09510547 0.26814282 0.12737012
v -0.09510547 0.26201248 0.08218524
v -0.16002101 0.22998413 0.08993754
v -0.15620349 0.23804170 0.13497478
v -0.11525350 0.26225108 0.26107898
v -0.27101192 0.09864037 0.26107898
v -0.23877506 0.08485626 -0.12491214
v -0.24824817 0.08485626 -0.05381240
v -0.24939696 0.08485626 -0.04510028
v -0.25971842 0.08485626 0.03493308
v -0.22988519 0.15981543 0.09067586
v -0.27016357 0.10034733 0.26107898
v -0.24220377 0.15519014 0.26107898
v -0.23569983 0.16500972 0.15498310
v -0.19020770 0.13039340 -0.31155819
v -0.21010831 0.15016104 -0.09087582
v -0.22002326 0.16007240 0.01964995
v -0.23022099 0.17029577 0.13829717
v -0.21000226 0.16001734 -0.04015357
v -0.18151224 0.14149779 -0.31488061
v -0.19923897 0.15977873 -0.10460848
v -0.15067162 0.17066287 -0.32499552
v -0.14017344 0.18015206 -0.33075440
v -0.14024413 0.19019189 -0.27132002
v -0.13955486 0.18965961 -0.27796486
v -0.13577268 0.18310711 -0.33444595
v -0.12264112 0.19132987 -0.33496279
v -0.12131558 0.19065075 -0.34315807
v -0.12976362 0.18986152 -0.31901518
v -0.10113221 0.20056210 -0.34493002
v -0.09510547 0.20537095 -0.33488894
v -0.16500500 0.23591259 0.15498310
v -0.16456315 0.23661005 0.26107898
v -0.09510547 0.25560680 0.03500691
v -0.14365515 0.21185003 -0.10505147
v -0.16010937 0.22007278 0.01935463
v -0.17028944 0.23024109 0.13829717
v -0.14954050 0.20972092 -0.09840663
v -0.22014697 0.15977873 0.01935463
v -0.23962340 0.15977873 0.26107898
v -0.23688397 0.16460592 0.26107898
v -0.23202370 0.17233311 0.26107898
v -0.23144047 0.17172742 0.15498310
v -0.23071586 0.17086476 0.14494202
v -0.22668624 0.17671980 0.15498310
v -0.22583792 0.17585714 0.14494202
v -0.22018231 0.17020400 0.07878898
v -0.20044078 0.17047931 -0.03505920
v -0.15995032 0.19991970 -0.09973560
v -0.16003868 0.21001460 -0.04015357
v -0.15031815 0.21021649 -0.09161413
v -0.17170334 0.23148918 0.15498310
v -0.17232192 0.23196641 0.26107898
v -0.16484593 0.21482344 0.01603220
v -0.17672266 0.22669870 0.15498310
v -0.22730482 0.17734385 0.26107898
v -0.22170226 0.18171218 0.15498310
v -0.20084728 0.20085578 0.14494202
v -0.17732358 0.22730440 0.26107898
f 1 2 9
f 1 9 20
f 1 20 34
f 1 34 53
f 1 53 79
f 1 79 118
f 1 118 117
f 1 117 116
f 1 116 115
f 1 115 80
f 1 80 54
f 1 54 35
f 1 35 21
f 1 21 10
f 1 10 3
f 1 3 4
f 1 4 5
f 1 5 6
f 1 6 7
f 1 7 2
f 2 7 8
f 2 8 9
f 3 10 11
f 3 11 4
f 4 11 12
f 4 12 5
f 5 12 13
f 5 13 6
f 6 14 15
f 6 15 16
f 6 16 17
f 6 17 7
f 6 13 14
f 7 17 16
f 7 16 31
f 7 31 30
f 7 30 29
f 7 29 47
f 7 47 69
f 7 69 104
f 7 104 139
f 7 139 142
f 7 142 110
f 7 110 109
f 7 109 105
f 7 105 70
f 7 70 48
f 7 48 32
f 7 32 19
f 7 19 18
f 7 18 8
f 8 18 9
f 9 18 19
f 9 19 32
f 9 32 50
f 9 50 72
f 9 72 113
f 9 113 108
f 9 108 141
f 9 141 161
f 9 161 167
f 9 167 164
f 9 164 150
f 9 150 149
f 9 149 148
f 9 148 121
f 9 121 120
f 9 120 114
f 9 114 74
f 9 74 51
f 9 51 33
f 9 33 20
f 10 21 11
f 11 21 22
f 11 22 23
f 11 23 12
f 12 23 24
f 12 24 25
f 12 25 13
f 13 25 14
f 14 25 26
f 14 26 27
f 14 27 28
f 14 28 29
f 14 29 30
f 14 30 15
f 15 30 31
f 15 31 16
f 20 33 52
f 20 52 34
f 21 35 22
f 22 35 36
f 22 36 37
f 22 37 23
f 23 38 39
f 23 39 24
f 23 37 38
f 24 40 26
f 24 26 25
f 24 39 40
f 26 40 41
f 26 41 42
f 26 42 43
f 26 43 44
f 26 44 45
f 26 45 27
f 27 45 28
f 28 45 44
f 28 44 46
f 28 46 29
f 29 46 47
f 32 48 49
f 32 49 50
f 33 51 52
f 34 52 53
f 35 54 55
f 35 55 36
f 36 56 37
f 36 55 57
f 36 57 58
f 36 58 56
f 37 56 59
f 37 59 60
f 37 60 38
f 38 60 39
f 39 60 61
f 39 61 62
f 39 62 40
f 40 63 41
f 40 62 63
f 41 63 64
f 41 64 66
f 41 66 42
f 42 65 43
f 42 66 65
f 43 65 67
f 43 67 46
f 43 46 44
f 46 67 68
f 46 68 69
f 46 69 47
f 48 70 49
f 49 70 71
f 49 71 50
f 50 71 73
f 50 73 72
f 51 74 52
f 52 74 75
f 52 75 76
f 52 76 77
f 52 77 78
f 52 78 53
f 53 78 79
f 54 80 57
f 54 57 55
f 56 58 81
f 56 81 59
f 57 77 82
f 57 82 83
f 57 83 84
f 57 84 85
f 57 85 58
f 57 80 77
f 58 85 81
f 59 81 86
f 59 86 60
f 60 86 87
f 60 87 88
f 60 88 61
f 61 88 62
f 62 88 87
f 62 87 89
f 62 89 90
f 62 90 91
f 62 91 92
f 62 92 93
f 62 93 63
f 63 94 64
f 63 93 94
f 64 94 95
f 64 95 66
f 65 66 67
f 66 95 67
f 67 95 96
f 67 96 68
f 68 96 97
f 68 97 98
f 68 98 99
f 68 99 100
f 68 100 101
f 68 101 102
f 68 102 103
f 68 103 69
f 69 103 104
f 70 105 71
f 71 106 107
f 71 107 108
f 71 108 73
f 71 105 109
f 71 109 110
f 71 110 111
f 71 111 112
f 71 112 106
f 72 73 113
f 73 108 113
f 74 114 83
f 74 83 75
f 75 83 76
f 76 82 77
f 76 83 82
f 77 80 115
f 77 115 116
f 77 116 117
f 77 117 78
f 78 117 118
f 78 118 79
f 81 85 119
f 81 119 86
f 83 114 120
f 83 120 84
f 84 120 85
f 85 120 121
f 85 121 122
f 85 122 119
f 86 123 89
f 86 89 87
f 86 119 124
f 86 124 123
f 89 123 124
f 89 124 125
f 89 125 126
f 89 126 127
f 89 127 90
f 90 127 128
f 90 128 91
f 91 128 129
f 91 129 130
f 91 130 93
f 91 93 92
f 93 130 131
f 93 131 98
f 93 98 94
f 94 97 96
f 94 96 95
f 94 98 97
f 98 131 132
f 98 132 133
f 98 133 134
f 98 134 99
f 99 134 100
f 100 135 136
f 100 136 101
f 100 134 133
f 100 133 137
f 100 137 135
f 101 136 102
f 102 136 138
f 102 138 103
f 103 138 104
f 104 138 139
f 106 112 107
f 107 112 111
f 107 111 140
f 107 140 141
f 107 141 108
f 110 142 143
f 110 143 111
f 111 144 145
f 111 145 140
f 111 143 137
f 111 137 146
f 111 146 144
f 119 125 147
f 119 147 124
f 119 122 125
f 121 148 122
f 122 148 149
f 122 149 150
f 122 150 151
f 122 151 152
f 122 152 126
f 122 126 125
f 124 147 125
f 126 152 153
f 126 153 154
f 126 154 155
f 126 155 127
f 127 155 129
f 127 129 128
f 129 155 156
f 129 156 130
f 130 156 157
f 130 157 131
f 131 157 158
f 131 158 144
f 131 144 132
f 132 159 146
f 132 146 133
f 132 144 159
f 133 146 137
f 135 139 136
f 135 137 143
f 135 143 139
f 136 139 138
f 139 143 142
f 140 160 161
f 140 161 141
f 140 145 160
f 144 158 162
f 144 162 145
f 144 146 159
f 145 162 163
f 145 163 160
f 150 164 151
f 151 164 153
f 151 153 152
f 153 164 165
f 153 165 154
f 154 165 155
f 155 165 166
f 155 166 162
f 155 162 156
f 156 162 157
f 157 162 158
f 160 163 167
f 160 167 161
f 162 166 163
f 163 165 164
f 163 164 167
f 163 166 165

