# https://github.com/mikedh/trimesh
v -0.17610237 -0.09687641 -0.47028443
v -0.16289321 -0.09687641 -0.47028443
v -0.17786849 -0.09687641 -0.46498677
v -0.18083656 -0.09162864 -0.46498677
v -0.17980632 -0.09025888 -0.47028443
v -0.16848594 0.08485626 -0.47028443
v -0.26483801 0.08485626 0.26107898
v -0.17954877 -0.09687641 -0.34493035
v -0.18007615 -0.09687641 -0.45496416
v -0.18195266 -0.09381670 -0.45496416
v -0.19093047 -0.07181168 -0.46498677
v -0.19001061 -0.07024623 -0.47028443
v -0.18002710 -0.09002763 -0.46999806
v -0.18010068 -0.08968964 -0.47028443
v -0.18163377 0.08485626 -0.47028443
v -0.27563101 0.08485626 0.26107898
v -0.26009154 -0.09687641 0.26107898
v -0.20217727 -0.09687641 -0.34686327
v -0.19204657 -0.07399972 -0.45496416
v -0.21063997 -0.08123985 -0.34493035
v -0.19345702 -0.06499848 -0.46498677
v -0.19010873 -0.07001498 -0.47028443
v -0.21339954 -0.07499591 -0.34493035
v -0.18203852 0.08410911 -0.47028443
v -0.18299517 0.08485626 -0.46649015
v -0.27507910 0.08485626 0.15498260
v -0.28025484 0.06160600 0.26107898
v -0.27234405 -0.09687641 0.26107898
v -0.20255747 -0.09687641 -0.34493035
v -0.20388207 -0.09687641 -0.33805770
v -0.21151076 -0.08294760 -0.33497933
v -0.21531284 -0.07499591 -0.33497933
v -0.20006773 -0.04037847 -0.46019024
v -0.19424197 -0.05498325 -0.47028443
v -0.19199751 -0.06450038 -0.47028443
v -0.21844037 -0.06499848 -0.33497933
v -0.18959361 0.06946875 -0.47028443
v -0.18971626 0.06975338 -0.46964011
v -0.19095500 0.07187027 -0.46298224
v -0.18327725 0.08485626 -0.46563107
v -0.27098265 0.08485626 0.12248074
v -0.25030425 0.08072920 -0.05255680
v -0.24988724 0.07939503 -0.05928626
v -0.27017319 0.08078258 0.10852069
v -0.26976845 0.07855894 0.10179123
v -0.27684522 0.07498334 0.15498260
v -0.28192285 0.05107490 0.26107898
v -0.28046334 0.05297833 0.16178364
v -0.27309221 -0.09529318 0.26107898
v -0.27119115 -0.09687641 0.15705872
v -0.20440947 -0.09687641 -0.33497933
v -0.20670298 -0.09687641 -0.31815568
v -0.20849364 -0.09687641 -0.30498314
v -0.22016969 -0.08031483 -0.28114367
v -0.22025555 -0.07061981 -0.31199893
v -0.21983854 -0.06898321 -0.31865680
v -0.22999378 -0.07997683 -0.20991161
v -0.24025939 -0.08054608 -0.13209328
v -0.20463023 -0.01499353 -0.45496416
v -0.20270465 -0.01499353 -0.46498677
v -0.20049700 -0.03498840 -0.46169361
v -0.20019038 -0.02105959 -0.47028443
v -0.19506371 -0.05032253 -0.47028443
v -0.22008385 -0.05050042 -0.34042019
v -0.22052537 -0.04498582 -0.34278262
v -0.22790878 -0.00501389 -0.33497933
v -0.21964231 -0.05768719 -0.33497933
v -0.19181353 0.06416762 -0.47028443
v -0.19256169 0.06583980 -0.46577424
v -0.21511661 0.07498334 -0.33497933
v -0.21255328 0.07597953 -0.34593260
v -0.21000220 0.07998206 -0.34994164
v -0.21068902 0.08133402 -0.34328377
v -0.20819928 0.08485626 -0.34578943
v -0.27002600 0.08485626 0.11496378
v -0.24940892 0.08485626 -0.04503985
v -0.24018581 0.08037342 -0.13137738
v -0.22023103 0.07051830 -0.31178415
v -0.25983399 0.07896809 0.02125248
v -0.21981402 0.06881055 -0.31844205
v -0.22208300 0.06498592 -0.30498314
v -0.26638335 0.02499619 0.00492997
v -0.28013217 0.01083613 0.09885605
v -0.28018123 0.04114863 0.13844530
v -0.27439225 0.07498334 0.13493741
v -0.28633815 0.01499876 0.15498260
v -0.28350499 0.04107747 0.26107898
v -0.27581498 -0.08499333 0.26107898
v -0.27518946 -0.08499333 0.15498260
v -0.27170628 -0.09547107 0.15591326
v -0.27147326 -0.09305176 0.14496000
v -0.27082321 -0.09171759 0.13493741
v -0.27033263 -0.09068583 0.12734886
v -0.27027130 -0.09687641 0.15011448
v -0.21916398 -0.09687641 -0.22644889
v -0.26824760 -0.09687641 0.13493741
v -0.26006702 -0.09013437 0.04945895
v -0.23983014 -0.07924749 -0.13875115
v -0.24992403 -0.07956769 -0.05950103
v -0.22084425 -0.06538983 -0.31522048
v -0.26990336 -0.08958291 0.12069099
v -0.20404151 -0.00501389 -0.46498677
v -0.20241031 -0.00501389 -0.47028443
v -0.20134327 -0.01293000 -0.47028443
v -0.20106117 -0.01499353 -0.47028443
v -0.20112251 -0.02458181 -0.46520153
v -0.22043952 -0.05268847 -0.33497933
v -0.22481805 -0.02499096 -0.33497933
v -0.22638793 -0.01499353 -0.33497933
v -0.22967489 -0.00778898 -0.31729659
v -0.23015322 -0.00113588 -0.32130563
v -0.23015322 0.00106996 -0.32130563
v -0.22787197 0.00498354 -0.33497933
v -0.19408253 0.05498849 -0.47028443
v -0.19549297 0.05498849 -0.46498677
v -0.21832998 0.06498592 -0.33497933
v -0.21137585 0.08268599 -0.33497933
v -0.22008385 0.08012438 -0.28049934
v -0.21027203 0.08485626 -0.33497933
v -0.24825603 0.08485626 -0.05377383
v -0.23927821 0.08485626 -0.12121160
v -0.23786777 0.08485626 -0.13173532
v -0.23745076 0.08485626 -0.13481370
v -0.24011222 0.08485626 -0.11498328
v -0.21959326 0.05742558 -0.33497933
v -0.22035366 0.06215746 -0.32273746
v -0.22079520 0.06528834 -0.31507730
v -0.22524731 0.04499106 -0.30498314
v -0.26796553 0.01499876 0.00492997
v -0.27932271 0.00493017 0.08475281
v -0.28789577 0.00498354 0.15498260
v -0.25693950 0.01499876 -0.08505866
v -0.26026323 0.01167222 -0.06222145
v -0.26037362 0.00240413 -0.07310313
v -0.28437579 0.03499363 0.26107898
v -0.28029162 -0.06249022 0.26107898
v -0.27691880 -0.07499591 0.15498260
v -0.26979297 -0.07873160 0.10157646
v -0.26933917 -0.09687641 0.14309865
v -0.27447811 -0.07499591 0.13493741
v -0.25242606 -0.07499591 -0.04503985
v -0.20394340 0.00498354 -0.46498677
v -0.20232445 0.00498354 -0.47028443
v -0.23106082 -0.01586519 -0.29581958
v -0.26646921 -0.02499096 0.00492997
v -0.26805139 -0.01499353 0.00492997
v -0.25702533 -0.01499353 -0.08505866
v -0.23007964 -0.01052849 -0.31063873
v -0.23526764 -0.00501389 -0.27498692
v -0.25988305 -0.00921210 -0.06909409
v -0.26037362 -0.00257679 -0.07310313
v -0.24008769 -0.00069116 -0.24076690
v -0.22918430 0.00462776 -0.32474196
v -0.25002214 0.00019829 -0.16022815
v -0.23005511 0.01033804 -0.31042397
v -0.22630209 0.01499876 -0.33497933
v -0.22005932 0.05032776 -0.34027699
v -0.22047631 0.04499106 -0.34256786
v -0.19999415 0.03999234 -0.45997545
v -0.20447078 0.01499876 -0.45496416
v -0.20011678 0.02037105 -0.47028443
v -0.21206269 0.08402017 -0.32495672
v -0.21132679 0.08485626 -0.32724762
v -0.21880831 0.08485626 -0.27219492
v -0.21716483 0.08485626 -0.28429359
v -0.22039047 0.05242687 -0.33497933
v -0.22156788 0.04499106 -0.33497933
v -0.22473219 0.02499619 -0.33497933
v -0.28023028 0.00155026 0.08797437
v -0.28794485 -0.00501389 0.15498260
v -0.28817788 -0.00533409 0.26107898
v -0.28806749 0.00519701 0.26107898
v -0.28490317 0.03106225 0.26107898
v -0.23155141 0.00498354 -0.30498314
v -0.28090486 -0.05864779 0.26107898
v -0.28050011 -0.05315099 0.16192684
v -0.28167754 -0.04498582 0.15498260
v -0.27728674 -0.06499848 0.14496000
v -0.28046334 -0.01460217 0.10572869
v -0.20252068 0.01499876 -0.46498677
v -0.20088947 0.01499876 -0.47028443
v -0.23742624 -0.01499353 -0.24499071
v -0.27022225 -0.01143573 0.01810253
v -0.28015670 -0.01100879 0.09864128
v -0.27975196 -0.00832265 0.09198341
v -0.26947409 -0.00528072 0.00442884
v -0.28182471 -0.00501389 0.10494119
v -0.28023028 -0.00166955 0.08797437
v -0.25002214 -0.00022864 -0.16022815
v -0.20053379 0.03332146 -0.46183679
v -0.28642401 -0.01499353 0.15498260
v -0.28306347 -0.04498582 0.26107898
v -0.28453523 -0.03498840 0.26107898
v -0.28779766 -0.00871401 0.26107898
v -0.28146905 -0.05508999 0.26107898
f 1 2 8
f 1 8 17
f 1 17 28
f 1 28 50
f 1 50 94
f 1 94 139
f 1 139 96
f 1 96 95
f 1 95 53
f 1 53 52
f 1 52 51
f 1 51 30
f 1 30 29
f 1 29 18
f 1 18 9
f 1 9 3
f 1 3 4
f 1 4 5
f 1 5 14
f 1 14 12
f 1 12 22
f 1 22 35
f 1 35 34
f 1 34 63
f 1 63 62
f 1 62 105
f 1 105 104
f 1 104 103
f 1 103 143
f 1 143 181
f 1 181 161
f 1 161 114
f 1 114 68
f 1 68 37
f 1 37 24
f 1 24 15
f 1 15 6
f 1 6 2
f 2 6 7
f 2 7 8
f 3 9 10
f 3 10 4
f 4 10 19
f 4 19 11
f 4 11 12
f 4 12 13
f 4 13 5
f 5 13 14
f 6 15 25
f 6 25 40
f 6 40 74
f 6 74 119
f 6 119 163
f 6 163 165
f 6 165 164
f 6 164 123
f 6 123 122
f 6 122 121
f 6 121 124
f 6 124 120
f 6 120 76
f 6 76 75
f 6 75 41
f 6 41 26
f 6 26 16
f 6 16 7
f 7 16 27
f 7 27 47
f 7 47 87
f 7 87 135
f 7 135 173
f 7 173 172
f 7 172 171
f 7 171 194
f 7 194 193
f 7 193 192
f 7 192 195
f 7 195 175
f 7 175 136
f 7 136 88
f 7 88 49
f 7 49 28
f 7 28 17
f 7 17 8
f 9 18 10
f 10 18 20
f 10 20 19
f 11 21 22
f 11 22 12
f 11 19 23
f 11 23 21
f 12 14 13
f 15 24 25
f 16 26 27
f 18 29 20
f 19 20 23
f 20 29 30
f 20 30 31
f 20 31 32
f 20 32 23
f 21 33 34
f 21 34 35
f 21 35 22
f 21 23 32
f 21 32 36
f 21 36 33
f 24 37 38
f 24 38 25
f 25 38 39
f 25 39 40
f 26 41 42
f 26 42 43
f 26 43 44
f 26 44 45
f 26 45 46
f 26 46 27
f 27 46 48
f 27 48 47
f 28 49 50
f 30 51 31
f 31 51 52
f 31 52 53
f 31 53 54
f 31 54 32
f 32 55 56
f 32 56 36
f 32 54 57
f 32 57 58
f 32 58 55
f 33 59 60
f 33 60 61
f 33 61 62
f 33 62 63
f 33 63 34
f 33 36 64
f 33 64 65
f 33 65 66
f 33 66 59
f 36 56 67
f 36 67 64
f 37 68 38
f 38 68 69
f 38 69 39
f 39 69 70
f 39 70 71
f 39 71 72
f 39 72 73
f 39 73 40
f 40 73 74
f 41 75 42
f 42 75 76
f 42 76 77
f 42 77 78
f 42 78 43
f 43 79 44
f 43 78 80
f 43 80 81
f 43 81 79
f 44 79 45
f 45 82 83
f 45 83 84
f 45 84 85
f 45 85 46
f 45 79 81
f 45 81 82
f 46 85 84
f 46 84 86
f 46 86 48
f 47 48 87
f 48 86 87
f 49 88 89
f 49 89 90
f 49 90 50
f 50 90 91
f 50 91 92
f 50 92 93
f 50 93 94
f 53 95 54
f 54 58 57
f 54 95 96
f 54 96 97
f 54 97 58
f 55 58 98
f 55 98 99
f 55 99 56
f 56 100 67
f 56 99 100
f 58 97 93
f 58 93 101
f 58 101 98
f 59 102 60
f 59 66 102
f 60 102 103
f 60 103 104
f 60 104 105
f 60 105 62
f 60 62 106
f 60 106 61
f 61 106 62
f 64 67 107
f 64 107 108
f 64 108 109
f 64 109 66
f 64 66 65
f 66 109 110
f 66 110 111
f 66 111 112
f 66 112 113
f 66 113 102
f 67 100 107
f 68 114 115
f 68 115 69
f 69 115 116
f 69 116 70
f 70 117 73
f 70 73 72
f 70 72 71
f 70 116 80
f 70 80 78
f 70 78 77
f 70 77 118
f 70 118 117
f 73 117 119
f 73 119 74
f 76 120 77
f 77 121 122
f 77 122 123
f 77 123 118
f 77 120 124
f 77 124 121
f 80 116 125
f 80 125 126
f 80 126 127
f 80 127 81
f 81 127 126
f 81 126 128
f 81 128 129
f 81 129 82
f 82 129 83
f 83 130 131
f 83 131 86
f 83 86 84
f 83 129 132
f 83 132 133
f 83 133 134
f 83 134 130
f 86 131 87
f 87 131 135
f 88 136 89
f 89 101 93
f 89 93 92
f 89 92 91
f 89 91 90
f 89 136 137
f 89 137 138
f 89 138 99
f 89 99 101
f 93 97 96
f 93 96 139
f 93 139 94
f 98 101 99
f 99 138 140
f 99 140 141
f 99 141 100
f 100 141 107
f 102 142 143
f 102 143 103
f 102 113 142
f 107 144 108
f 107 141 140
f 107 140 145
f 107 145 146
f 107 146 147
f 107 147 144
f 108 144 148
f 108 148 109
f 109 148 110
f 110 149 111
f 110 148 150
f 110 150 151
f 110 151 149
f 111 149 151
f 111 151 152
f 111 152 189
f 111 189 154
f 111 154 112
f 112 153 113
f 112 154 134
f 112 134 153
f 113 153 155
f 113 155 156
f 113 156 157
f 113 157 158
f 113 158 159
f 113 159 160
f 113 160 142
f 114 161 159
f 114 159 115
f 115 159 116
f 116 157 125
f 116 159 157
f 117 162 163
f 117 163 119
f 117 118 162
f 118 123 164
f 118 164 165
f 118 165 163
f 118 163 162
f 125 157 166
f 125 166 126
f 126 166 167
f 126 167 168
f 126 168 128
f 128 168 132
f 128 132 129
f 130 169 131
f 130 134 169
f 131 169 170
f 131 170 171
f 131 171 172
f 131 172 173
f 131 173 135
f 132 168 155
f 132 155 133
f 133 155 134
f 134 155 174
f 134 174 153
f 134 154 169
f 136 175 176
f 136 176 137
f 137 176 177
f 137 177 178
f 137 178 140
f 137 140 138
f 140 178 179
f 140 179 145
f 142 160 159
f 142 159 180
f 142 180 143
f 143 180 181
f 144 182 148
f 144 147 182
f 145 179 146
f 146 179 147
f 147 179 183
f 147 183 148
f 147 148 182
f 148 183 150
f 150 183 184
f 150 184 185
f 150 185 186
f 150 186 151
f 151 186 187
f 151 187 188
f 151 188 189
f 151 189 152
f 153 174 155
f 154 189 188
f 154 188 169
f 155 168 156
f 156 168 157
f 157 168 167
f 157 167 166
f 157 159 158
f 159 161 190
f 159 190 180
f 161 181 180
f 161 180 190
f 169 188 170
f 170 188 187
f 170 187 185
f 170 185 184
f 170 184 191
f 170 191 192
f 170 192 193
f 170 193 194
f 170 194 171
f 175 195 176
f 176 191 177
f 176 195 192
f 176 192 191
f 177 191 178
f 178 191 179
f 179 191 184
f 179 184 183
f 185 187 186

