# https://github.com/mikedh/trimesh
v 0.25403184 0.10195827 0.44699323
v 0.25077733 0.16153432 0.39132452
v 0.23000845 0.15127441 0.44189769
v 0.22772528 0.15538818 0.44189769
v 0.22258815 0.16368915 0.44189769
v 0.22100595 0.16547668 0.44189769
v 0.24169470 0.10195827 0.44699323
v 0.26004019 0.09027813 0.44699323
v 0.27074507 0.14145526 0.36224356
v 0.26068109 0.16133843 0.36204338
v 0.25747663 0.16547668 0.36520991
v 0.24666160 0.16547668 0.39474580
v 0.27088526 0.12179247 0.39154291
v 0.29086304 0.10171340 0.36260754
v 0.20543431 0.16547668 0.44189769
v 0.20542429 0.16540322 0.44189769
v 0.25211918 -0.08467907 0.44699323
v 0.26191279 0.08530734 0.44699323
v 0.28223103 0.09478368 0.39496419
v 0.28093925 0.10188481 0.39165208
v 0.28087914 0.10195827 0.39170668
v 0.25753671 0.16547668 0.35452747
v 0.26068109 0.16133843 0.35754842
v 0.28973144 0.09928923 0.36926812
v 0.29216483 0.09556726 0.36555567
v 0.29490864 0.08498902 0.36495513
v 0.29086304 0.10171340 0.35702065
v 0.20537423 0.16547668 0.44187951
v 0.26512727 -0.08467907 0.26107901
v 0.26336482 -0.08467907 0.44699323
v 0.28477457 0.08498902 0.39496419
v 0.26423603 0.07499846 0.44699323
v 0.29083300 0.09262886 0.37181589
v 0.23638733 0.16547668 0.26109722
v 0.27074507 0.14145526 0.35736641
v 0.27016425 0.10031767 0.26109722
v 0.24223545 0.15514331 0.26109722
v 0.23957175 0.15986922 0.26109722
v 0.23690805 0.16457067 0.26109722
v 0.29481852 0.08498902 0.35496423
v 0.29002187 0.07022356 0.39003244
v 0.30013591 0.06094312 0.36047834
v 0.30013591 0.06094312 0.35929543
v 0.29211476 0.09566520 0.35419992
v 0.27267775 0.09522444 0.26109722
v 0.22278842 0.16547668 0.26109722
v 0.27807525 -0.00470563 0.26107901
v 0.27584216 -0.08467907 0.26107901
v 0.29003188 -0.07023194 0.39005065
v 0.26519737 -0.07498235 0.44699323
v 0.28485468 -0.08467907 0.39494598
v 0.27111557 0.03491379 0.44699323
v 0.28816929 -0.00470563 0.26107901
v 0.28024828 0.06162874 0.26109722
v 0.27561185 0.08498902 0.26109722
v 0.30599406 0.01503062 0.36495513
v 0.30060658 0.05499286 0.36206159
v 0.27313840 0.02301328 0.44699323
v 0.30035621 0.00254242 0.39068758
v 0.30754620 0.00504006 0.36495513
v 0.30763635 0.00504006 0.35496423
v 0.28287193 0.04500230 0.26109722
v 0.28028834 -0.06249415 0.26107901
v 0.29491866 -0.08467907 0.35498244
v 0.27043465 -0.04283136 0.44699323
v 0.29496872 -0.08467907 0.36497334
v 0.30014592 -0.06095149 0.36051473
v 0.30061659 -0.05497675 0.36209798
v 0.30600408 -0.01499002 0.36497334
v 0.30755621 -0.00499947 0.36497334
v 0.30035621 -0.00250183 0.39068758
v 0.28436399 0.03501174 0.26109722
v 0.28767860 0.00863960 0.26109722
v 0.28805915 0.00523596 0.26109722
v 0.28814927 -0.00188966 0.26109722
v 0.29033229 0.00222410 0.26704806
v 0.28816929 -0.00531779 0.26107901
v 0.27461043 0.01302272 0.44699323
v 0.27543157 0.00504006 0.44699323
v 0.27548164 -0.00470563 0.44699323
v 0.30755621 -0.00470563 0.36497334
v 0.30756626 -0.00470563 0.36470035
v 0.30766639 -0.00499947 0.35498244
v 0.28146997 -0.05507469 0.26107901
v 0.30014592 -0.06095149 0.35929543
v 0.29496872 -0.08467907 0.36466396
v 0.27311838 -0.02510302 0.44699323
v 0.27548164 -0.00499947 0.44699323
v 0.27447024 -0.01499002 0.44699323
v 0.29033229 -0.00245285 0.26704806
v 0.28503492 -0.03107776 0.26107901
v 0.28368306 -0.04106832 0.26107901
v 0.28453425 -0.03499563 0.26107901
f 1 2 3
f 1 3 4
f 1 4 5
f 1 5 6
f 1 6 15
f 1 15 7
f 1 7 17
f 1 17 30
f 1 30 50
f 1 50 65
f 1 65 87
f 1 87 89
f 1 89 88
f 1 88 80
f 1 80 79
f 1 79 78
f 1 78 58
f 1 58 52
f 1 52 32
f 1 32 18
f 1 18 8
f 1 8 2
f 2 9 10
f 2 10 11
f 2 11 12
f 2 12 4
f 2 4 3
f 2 8 13
f 2 13 14
f 2 14 9
f 4 12 5
f 5 12 6
f 6 12 11
f 6 11 22
f 6 22 34
f 6 34 46
f 6 46 28
f 6 28 15
f 7 15 16
f 7 16 17
f 8 18 19
f 8 19 20
f 8 20 21
f 8 21 13
f 9 14 10
f 10 22 11
f 10 14 27
f 10 27 23
f 10 23 22
f 13 21 20
f 13 20 14
f 14 24 25
f 14 25 26
f 14 26 27
f 14 20 24
f 15 28 16
f 16 28 17
f 17 29 48
f 17 48 64
f 17 64 86
f 17 86 66
f 17 66 51
f 17 51 30
f 17 28 29
f 18 31 19
f 18 32 31
f 19 31 33
f 19 33 25
f 19 25 24
f 19 24 20
f 22 23 34
f 23 35 36
f 23 36 37
f 23 37 38
f 23 38 39
f 23 39 34
f 23 27 35
f 25 33 26
f 26 40 27
f 26 33 41
f 26 41 42
f 26 42 43
f 26 43 40
f 27 44 45
f 27 45 36
f 27 36 35
f 27 40 44
f 28 46 29
f 29 47 53
f 29 53 77
f 29 77 91
f 29 91 93
f 29 93 92
f 29 92 84
f 29 84 63
f 29 63 48
f 29 46 47
f 30 49 50
f 30 51 49
f 31 32 41
f 31 41 33
f 32 52 41
f 34 39 53
f 34 53 47
f 34 47 46
f 36 45 53
f 36 53 37
f 37 53 38
f 38 53 39
f 40 43 54
f 40 54 55
f 40 55 44
f 41 56 57
f 41 57 42
f 41 52 58
f 41 58 59
f 41 59 56
f 42 57 56
f 42 56 60
f 42 60 61
f 42 61 43
f 43 62 54
f 43 61 62
f 44 55 45
f 45 55 53
f 48 63 64
f 49 65 50
f 49 51 66
f 49 66 67
f 49 67 68
f 49 68 69
f 49 69 70
f 49 70 71
f 49 71 65
f 53 55 54
f 53 54 62
f 53 62 72
f 53 72 73
f 53 73 74
f 53 74 75
f 53 75 76
f 53 76 90
f 53 90 77
f 56 59 60
f 58 78 59
f 59 78 79
f 59 79 80
f 59 80 88
f 59 88 71
f 59 71 70
f 59 70 81
f 59 81 60
f 60 81 82
f 60 82 83
f 60 83 61
f 61 83 76
f 61 76 72
f 61 72 62
f 63 84 85
f 63 85 64
f 64 85 86
f 65 71 87
f 66 86 85
f 66 85 67
f 67 85 83
f 67 83 70
f 67 70 69
f 67 69 68
f 70 83 82
f 70 82 81
f 71 88 89
f 71 89 87
f 72 76 73
f 73 76 74
f 74 76 75
f 76 83 90
f 77 90 91
f 83 85 92
f 83 92 90
f 84 92 85
f 90 92 93
f 90 93 91

