# https://github.com/mikedh/trimesh
v 0.09701730 0.17893323 -0.43075168
v 0.09701730 0.16614494 -0.43075168
v 0.12015887 0.17005450 -0.43075168
v 0.09701730 0.17845824 -0.43500623
v -0.10683392 0.15975076 -0.48799020
v -0.10936133 0.15975076 -0.48637763
v -0.11358684 0.15975076 -0.48326772
v -0.11891809 0.15975076 -0.47868201
v -0.11958943 0.15975076 -0.47776055
v -0.12211684 0.15975076 -0.47311005
v -0.12326207 0.15975076 -0.47028089
v -0.13167360 0.15163931 -0.47028089
v -0.15165591 0.13161644 -0.47028089
v -0.16144963 0.12164155 -0.47028089
v -0.16563563 0.11521086 -0.47028089
v -0.16926879 0.10907246 -0.47028089
v -0.18952754 0.06942867 -0.47028089
v -0.19177851 0.06409410 -0.47028089
v -0.19406897 0.05495959 -0.47028089
v -0.20003207 0.02057727 -0.47028089
v -0.20173018 0.00873894 -0.47028089
v -0.20224355 0.00493898 -0.47028089
v -0.20240152 -0.00503591 -0.47028089
v 0.19001800 0.05484997 -0.43075168
v -0.20101935 -0.01497427 -0.47028089
v -0.20015055 -0.02100305 -0.47028089
v -0.19414796 -0.05494691 -0.47028089
v -0.19193648 -0.06441027 -0.47028089
v -0.19000143 -0.06996405 -0.47028089
v -0.17973383 -0.09020615 -0.47028089
v -0.17602171 -0.09681953 -0.47028089
v 0.12466082 0.16654685 -0.43075168
v 0.12422642 0.16351420 -0.45500478
v 0.12284425 0.16241804 -0.46499687
v 0.09701730 0.17389101 -0.46768928
v 0.09701730 0.17535251 -0.45871222
v 0.09701730 0.17728904 -0.44496951
v -0.10754476 0.15869117 -0.48879647
v -0.10134470 0.15975076 -0.49071139
v -0.11587730 0.15573159 -0.48580173
v -0.11927351 0.15942192 -0.47901314
v -0.12531559 0.15529311 -0.47568005
v -0.13119970 0.15116432 -0.47234696
v -0.15118203 0.13114145 -0.47235417
v -0.16105472 0.12116656 -0.47235417
v -0.16334517 0.11553970 -0.47540650
v -0.17112485 0.10213023 -0.47500336
v -0.16832101 0.10713594 -0.47500336
v -0.18857975 0.06734599 -0.47500336
v -0.18996194 0.06003838 -0.48008579
v -0.19094920 0.06234028 -0.47500336
v -0.18119499 0.08236314 -0.47500336
v -0.19276577 0.05495959 -0.47500336
v -0.20129578 0.00493898 -0.47349879
v -0.20129578 -0.00503591 -0.47362837
v 0.20103592 0.05484997 -0.43075168
v -0.00447391 -0.19419348 -0.48655760
v 0.00085734 -0.19433963 -0.48655760
v -0.20054546 -0.01497427 -0.47166306
v -0.19296323 -0.05494691 -0.47500336
v -0.19000143 -0.06020839 -0.48020098
v -0.19083074 -0.06408143 -0.47411790
v -0.18861926 -0.06689486 -0.47686067
v -0.18636827 -0.07401978 -0.47411790
v -0.17467901 -0.09681953 -0.47434825
v -0.13127869 -0.14121330 -0.48655760
v -0.12590794 -0.14654785 -0.48655760
v -0.11674610 -0.15531698 -0.48655760
v -0.11516647 -0.15652272 -0.48655760
v -0.10592563 -0.16247845 -0.48655760
v -0.09494720 -0.16821492 -0.48655760
v -0.07492540 -0.17840904 -0.48655760
v -0.06603998 -0.18272051 -0.48655760
v -0.06378901 -0.18370706 -0.48655760
v -0.05557493 -0.18626472 -0.48655760
v -0.05490359 -0.18641087 -0.48655760
v -0.05095452 -0.18717816 -0.48655760
v -0.04325382 -0.18842047 -0.48655760
v -0.03496077 -0.18973583 -0.48655760
v -0.00739623 -0.19379157 -0.48655760
v 0.12864938 0.16333148 -0.43075168
v 0.13090035 0.16088346 -0.43500623
v 0.13030800 0.16029882 -0.44203237
v 0.12924175 0.15916616 -0.45500478
v 0.12785956 0.15785077 -0.46499687
v 0.12122513 0.16102961 -0.47233257
v 0.09990013 0.16990834 -0.47982663
v 0.09701730 0.17206410 -0.47695425
v 0.09701730 0.17242947 -0.47533453
v -0.07859804 0.15975076 -0.49938607
v -0.07934836 0.15975076 -0.49911970
v -0.09502619 0.15975076 -0.49316621
v -0.11252059 0.15200469 -0.49161124
v -0.10450397 0.15518349 -0.49291426
v -0.11919452 0.14919126 -0.48944438
v -0.12274869 0.15273544 -0.48278537
v -0.12942262 0.14941049 -0.47901314
v -0.15528907 0.12529537 -0.47568005
v -0.15943559 0.11926659 -0.47901314
v -0.17001911 0.10004757 -0.48009300
v -0.18004976 0.08020739 -0.48020098
v -0.19039634 0.05495959 -0.48079127
v -0.19908430 0.00493898 -0.47850204
v -0.18143193 0.07490937 -0.48194310
v -0.18451221 0.06398449 -0.48457071
v -0.18060263 0.06131721 -0.49053860
v -0.18648675 0.05495959 -0.48579451
v -0.19912378 -0.00503591 -0.47862440
v 0.19349319 -0.00503591 -0.48674479
v 0.20056203 0.05484997 -0.43466067
v 0.20012763 0.06018453 -0.43075168
v 0.00452998 -0.19430310 -0.48655760
v 0.09697781 -0.17055336 -0.48251903
v 0.10238804 -0.16770339 -0.48251903
v 0.11316901 -0.16185728 -0.48251903
v 0.11830281 -0.15820348 -0.48251903
v 0.12335762 -0.15330738 -0.48251903
v 0.13836411 -0.13832676 -0.48251903
v 0.14835526 -0.12831534 -0.48251903
v 0.15329161 -0.12330963 -0.48251903
v 0.15814897 -0.11826738 -0.48251903
v 0.16182160 -0.11307897 -0.48251903
v 0.17133889 -0.09491955 -0.48251903
v 0.18152750 -0.07493323 -0.48251903
v 0.18192239 -0.07405632 -0.48251903
v 0.18583198 -0.06499488 -0.48251903
v 0.18595046 -0.06451988 -0.48251903
v -0.01229308 -0.19032043 -0.49031544
v -0.00502678 -0.19086853 -0.49081215
v 0.00496438 -0.19086853 -0.49081215
v -0.19047531 -0.05494691 -0.48094967
v -0.18660523 -0.05494691 -0.48594570
v -0.18076059 -0.06170645 -0.49069700
v -0.18467018 -0.06422758 -0.48472908
v -0.18166888 -0.07493323 -0.48231745
v -0.18020773 -0.08056010 -0.48050332
v -0.17854911 -0.08724656 -0.47671670
v -0.17357327 -0.09681953 -0.47683910
v -0.17112485 -0.09681953 -0.48158318
v -0.17017707 -0.09681953 -0.48271340
v -0.16682036 -0.09681953 -0.48670879
v -0.13127869 -0.13876525 -0.48885405
v -0.12958059 -0.13960561 -0.48968914
v -0.11954994 -0.14954397 -0.48968914
v -0.11291549 -0.15239394 -0.49186319
v -0.10829508 -0.15904385 -0.48920682
v -0.08839174 -0.16916490 -0.48928601
v -0.06852790 -0.17924941 -0.48934358
v -0.06185396 -0.18089363 -0.49077618
v -0.05490359 -0.18180707 -0.49162564
v -0.04495192 -0.18772623 -0.48721272
v -0.03496077 -0.18849355 -0.48834294
v -0.02496961 -0.18929738 -0.48927161
v 0.13121629 0.16121230 -0.43075168
v 0.14337943 0.14911819 -0.43075168
v 0.16032097 0.13030109 -0.44206834
v 0.15917572 0.12920493 -0.45500478
v 0.15783304 0.12785304 -0.46499687
v 0.15123808 0.13121453 -0.47233257
v 0.13121629 0.15120086 -0.47233257
v 0.12533216 0.15532964 -0.47566566
v 0.11929008 0.15942192 -0.47899875
v 0.11261614 0.16150460 -0.48213029
v 0.09701730 0.17067564 -0.48087049
v -0.05506156 0.15975076 -0.50280553
v -0.06497373 0.15975076 -0.50173289
v -0.07291137 0.15975076 -0.50065309
v -0.07891396 0.15923923 -0.49959484
v -0.09873832 0.14915472 -0.49953723
v -0.10493837 0.14721820 -0.49836382
v -0.11046707 0.14042214 -0.50021392
v -0.11481105 0.14484322 -0.49494433
v -0.12251174 0.14254132 -0.49161845
v -0.12922516 0.13917983 -0.48944438
v -0.13273984 0.14276057 -0.48278537
v -0.14940494 0.12938762 -0.47901314
v -0.15272216 0.12273770 -0.48278537
v -0.15576296 0.11594162 -0.48585930
v -0.16164707 0.11261666 -0.48225266
v -0.17128281 0.09496877 -0.48181352
v -0.18739504 0.04491162 -0.48701835
v -0.19118614 0.04491162 -0.48202950
v -0.19201545 0.03493673 -0.48308054
v -0.19466133 0.00493898 -0.48500264
v -0.16887388 0.08784385 -0.48898363
v -0.17894402 0.06796714 -0.48904842
v -0.18147142 0.05495959 -0.49130169
v -0.16054133 0.10107063 -0.49043784
v -0.17219110 0.07490937 -0.49174803
v -0.17535037 0.06475179 -0.49329579
v -0.16954522 0.05923454 -0.49976760
v -0.17432360 0.05543458 -0.49690244
v -0.19474031 -0.00503591 -0.48500264
v -0.19209443 -0.03492405 -0.48319572
v -0.19130462 -0.04493548 -0.48215908
v 0.19337471 0.00493898 -0.48674479
v 0.19021545 -0.02889527 -0.48674479
v 0.19013648 -0.01124739 -0.49017146
v 0.19061036 -0.00503591 -0.49056742
v 0.19053139 0.00493898 -0.49053141
v 0.19550721 0.05484997 -0.46488169
v 0.19546773 0.05499613 -0.46499687
v 0.20008814 0.06029414 -0.43090284
v 0.20008814 0.06033069 -0.43075168
v 0.01223067 -0.19032043 -0.49030825
v 0.02490720 -0.18929738 -0.48932201
v 0.03493785 -0.18999159 -0.48655760
v 0.09492429 -0.16821492 -0.48655760
v 0.10831165 -0.15908039 -0.48921400
v 0.04492901 -0.18842047 -0.48655760
v 0.05290614 -0.18703201 -0.48655760
v 0.05495966 -0.18659356 -0.48655760
v 0.06376609 -0.18370706 -0.48655760
v 0.06597757 -0.18272051 -0.48655760
v 0.07115086 -0.18030903 -0.48655760
v 0.07494197 -0.17840904 -0.48655760
v 0.11312952 -0.16185728 -0.48254782
v 0.11636776 -0.15608427 -0.48611847
v 0.11960600 -0.14958051 -0.48969632
v 0.12316017 -0.15312469 -0.48303014
v 0.15309416 -0.12312694 -0.48303014
v 0.15605596 -0.11633086 -0.48607528
v 0.15897828 -0.10810979 -0.48912764
v 0.14957948 -0.11958275 -0.48969632
v 0.16908790 -0.08823309 -0.48919243
v 0.17745994 -0.07493323 -0.48731351
v 0.17915805 -0.06831984 -0.48925722
v 0.18437083 -0.06451988 -0.48498824
v 0.18460777 -0.06451988 -0.48467150
v 0.18508166 -0.06451988 -0.48401639
v 0.18595046 -0.05494691 -0.48674479
v 0.18721415 -0.04833352 -0.48674479
v 0.18780652 -0.04493548 -0.48674479
v 0.18938614 -0.03492405 -0.48674479
v -0.00554016 -0.18414551 -0.49656409
v -0.04495192 -0.18272051 -0.49243191
v -0.00265734 -0.18027249 -0.50021392
v 0.00547775 -0.18414551 -0.49656409
v 0.00251595 -0.18027249 -0.50021392
v -0.18747401 -0.04493548 -0.48715511
v -0.18162939 -0.05494691 -0.49145287
v -0.16994013 -0.05998917 -0.49999076
v -0.17456055 -0.06415451 -0.49467799
v -0.17076944 -0.08154662 -0.49063939
v -0.17914148 -0.06835638 -0.48924279
v -0.17744337 -0.07493323 -0.48730630
v -0.16907133 -0.08819655 -0.48918521
v -0.16543819 -0.09681953 -0.48817736
v -0.16188401 -0.09681953 -0.49152485
v -0.13127869 -0.13617104 -0.49079776
v -0.12290666 -0.14289403 -0.49186319
v -0.11512697 -0.14512286 -0.49519631
v -0.10493837 -0.15542659 -0.49350455
v -0.10493837 -0.14797282 -0.49886775
v -0.09984406 -0.14990935 -0.49996197
v -0.10162114 -0.16076115 -0.49067539
v -0.08175730 -0.17088220 -0.49072579
v -0.06434188 -0.17464560 -0.49475718
v -0.06007688 -0.17004183 -0.50005555
v -0.05490359 -0.17552254 -0.49662170
v 0.16122925 0.13121453 -0.43075168
v 0.16087383 0.13088569 -0.43500623
v 0.16336174 0.12894917 -0.43075168
v 0.16375665 0.12423576 -0.45500478
v 0.16257194 0.12284731 -0.46499687
v 0.16111077 0.12120310 -0.47233975
v 0.14535397 0.13534334 -0.47566566
v 0.15530564 0.12533191 -0.47566566
v 0.12943920 0.14944702 -0.47899875
v 0.12276527 0.15277198 -0.48278537
v 0.11593337 0.15573159 -0.48578733
v 0.11328749 0.15668157 -0.48674479
v 0.10756133 0.15869117 -0.48880368
v 0.10578424 0.16132191 -0.48673758
v 0.09701730 0.16698530 -0.48531941
v 0.07861461 0.15975076 -0.49938607
v 0.07707448 0.15975076 -0.49981800
v 0.07284896 0.15975076 -0.50065309
v 0.06925531 0.15975076 -0.50115699
v 0.06491132 0.15975076 -0.50173289
v 0.06060683 0.15975076 -0.50226563
v 0.05507813 0.15975076 -0.50280553
v 0.05014179 0.15975076 -0.50321591
v 0.04015063 0.15975076 -0.50356865
v 0.02016831 0.15975076 -0.50369823
v 0.01013766 0.15975076 -0.50369823
v -0.02500910 0.15975076 -0.50351822
v -0.03500026 0.15975076 -0.50345343
v -0.04499141 0.15975076 -0.50338149
v -0.05490359 0.15492773 -0.50397176
v -0.06497373 0.15492773 -0.50299275
v -0.07535980 0.15554887 -0.50145215
v -0.09522364 0.14550093 -0.50143057
v -0.09210388 0.15079895 -0.50042272
v -0.11421869 0.13424718 -0.50076824
v -0.13424049 0.11422433 -0.50076824
v -0.14040105 0.11042438 -0.50021392
v -0.13712332 0.11707430 -0.49828464
v -0.11710151 0.13709715 -0.49828464
v -0.10493837 0.14221248 -0.50076103
v -0.10493837 0.13497797 -0.50244558
v -0.14482401 0.11480894 -0.49494433
v -0.14249407 0.12248193 -0.49161845
v -0.14920749 0.11915696 -0.48944438
v -0.15876424 0.10772055 -0.48891166
v -0.15209031 0.11250705 -0.49161845
v -0.18814535 0.03493673 -0.48806939
v -0.19008040 0.01085814 -0.49011388
v -0.19055429 0.00493898 -0.49052420
v -0.17057198 0.05251154 -0.50035793
v -0.17610069 0.04491162 -0.49714002
v -0.18237971 0.04491162 -0.49213678
v -0.15521008 0.10457829 -0.49301502
v -0.14932597 0.09898796 -0.49961644
v -0.16204198 0.09496877 -0.49167603
v -0.16531971 0.08466504 -0.49318781
v -0.15943559 0.07914779 -0.49968123
v -0.15086611 0.09230150 -0.50044429
v -0.16089675 0.07246132 -0.50045872
v -0.16287129 0.06493448 -0.50096983
v -0.16567513 0.05543458 -0.50143057
v -0.19059379 -0.00503591 -0.49056020
v -0.19011989 -0.01128392 -0.49017146
v -0.18826383 -0.03492405 -0.48819175
v 0.19313776 0.00694857 -0.48674479
v 0.19045240 0.05499613 -0.48078409
v 0.19282185 0.05499613 -0.47499615
v 0.18824092 -0.03492405 -0.48819175
v 0.18164596 -0.05494691 -0.49146006
v 0.18247527 -0.04493548 -0.49222314
v 0.18330458 -0.03492405 -0.49292144
v 0.18010582 -0.00138211 -0.50011313
v 0.18010582 0.00110248 -0.50011313
v 0.19009699 0.01085814 -0.49012107
v 0.19100527 0.06237682 -0.47499615
v 0.19254541 0.06584793 -0.46579596
v 0.19483587 0.06497102 -0.45500478
v 0.19171610 0.07341132 -0.45500478
v 0.19550721 0.07132864 -0.43075168
v 0.03493785 -0.18348783 -0.49313021
v 0.04492901 -0.18272051 -0.49243191
v 0.03493785 -0.18849355 -0.48847973
v 0.04492901 -0.18772623 -0.48748627
v 0.08173438 -0.17088220 -0.49072579
v 0.10163771 -0.16076115 -0.49067539
v 0.10495494 -0.15542659 -0.49350455
v 0.11293207 -0.15239394 -0.49186319
v 0.06850498 -0.17924941 -0.48934358
v 0.05495966 -0.18180707 -0.49162564
v 0.06183105 -0.18089363 -0.49077618
v 0.12296272 -0.14289403 -0.49186319
v 0.11518304 -0.14515939 -0.49519631
v 0.15234382 -0.11289629 -0.49185601
v 0.15538462 -0.10482137 -0.49338219
v 0.16071586 -0.10142333 -0.49059620
v 0.14290555 -0.12287118 -0.49186319
v 0.14515652 -0.11516164 -0.49518910
v 0.17078601 -0.08158316 -0.49065378
v 0.18077716 -0.06170645 -0.49069700
v 0.18338355 -0.06338720 -0.48674479
v 0.18749060 -0.04493548 -0.48715511
v -0.00921280 -0.17968786 -0.49985400
v -0.05490359 -0.17055336 -0.50035071
v -0.04495192 -0.17132065 -0.50072509
v -0.04495192 -0.16492650 -0.50267595
v -0.00554016 -0.17581484 -0.50132257
v -0.00502678 -0.16492650 -0.50416613
v 0.00496438 -0.16492650 -0.50417334
v 0.00922938 -0.17968786 -0.49985400
v 0.00547775 -0.17581484 -0.50132257
v 0.04492901 -0.16492650 -0.50267595
v 0.04492901 -0.17132065 -0.50072509
v 0.05495966 -0.17055336 -0.50035071
v -0.18245870 -0.04493548 -0.49221596
v -0.17538986 -0.05494691 -0.49645612
v -0.17045350 -0.05494691 -0.50028592
v -0.16496429 -0.05494691 -0.50184810
v -0.15493365 -0.06495834 -0.50317991
v -0.15588142 -0.07584669 -0.50156736
v -0.14581129 -0.09572339 -0.50154573
v -0.15983050 -0.07979280 -0.49991879
v -0.16101523 -0.09681953 -0.49218714
v -0.13127869 -0.13339415 -0.49256149
v -0.11733846 -0.13737679 -0.49852940
v -0.11070401 -0.14066520 -0.50031471
v -0.10493837 -0.14296710 -0.50089782
v -0.09589498 -0.14592668 -0.50158173
v -0.07998022 -0.15999386 -0.50001240
v -0.05490359 -0.16492650 -0.50196326
v -0.07492540 -0.15491506 -0.50202805
v -0.06493424 -0.15491506 -0.50324470
v 0.16667897 0.12525883 -0.43075168
v 0.16995670 0.11996081 -0.43991587
v 0.16873249 0.11806083 -0.45500478
v 0.16774522 0.11495510 -0.46557280
v 0.16336174 0.11561278 -0.47539932
v 0.15945217 0.11930313 -0.47900596
v 0.14942151 0.12946069 -0.47899875
v 0.13279592 0.14276057 -0.48278537
v 0.12473980 0.14659706 -0.48674479
v 0.11921110 0.14919126 -0.48945159
v 0.11538050 0.15514696 -0.48673758
v 0.11253716 0.15200469 -0.49161845
v 0.10452054 0.15518349 -0.49292144
v 0.10084790 0.16040844 -0.49036583
v 0.09733322 0.16556031 -0.48673758
v 0.09701730 0.16599876 -0.48641363
v 0.09701730 0.16570646 -0.48673758
v 0.09697781 0.16139498 -0.49115771
v 0.09697781 0.16051805 -0.49185601
v 0.09006692 0.15975076 -0.49505952
v 0.09697781 0.15185854 -0.49824142
v 0.09875489 0.14915472 -0.49953723
v 0.07889105 0.15923923 -0.49959484
v 0.09697781 0.14962971 -0.49977481
v 0.09208096 0.15079895 -0.50042272
v 0.09520072 0.14550093 -0.50143057
v 0.06491132 0.15492773 -0.50299275
v 0.05495966 0.15492773 -0.50397176
v 0.04488952 0.15492773 -0.50428855
v -0.04499141 0.15492773 -0.50428855
v -0.07496489 0.14491630 -0.50398618
v -0.08495605 0.14491630 -0.50294954
v -0.09494720 0.13497797 -0.50389260
v -0.11492952 0.12492999 -0.50248158
v -0.12496017 0.11495510 -0.50248158
v -0.13495132 0.10498020 -0.50246722
v -0.14233610 0.10498020 -0.50076824
v -0.14735143 0.10498020 -0.49843580
v -0.10493837 0.12492999 -0.50400776
v -0.18316953 0.03493673 -0.49283504
v -0.18008925 0.00110248 -0.50010598
v -0.17112485 0.04491162 -0.50064588
v -0.16496429 0.04491162 -0.50251037
v -0.14561383 0.09533415 -0.50145936
v -0.15564448 0.07545745 -0.50149536
v -0.15493365 0.06493448 -0.50305748
v -0.15493365 0.05495959 -0.50400776
v -0.18008925 -0.00134557 -0.50010598
v -0.18328799 -0.03492405 -0.49291426
v 0.18922819 0.03493673 -0.48674479
v 0.19001800 0.06011146 -0.48007858
v 0.18741161 0.04494816 -0.48702553
v 0.18650332 0.05499613 -0.48578733
v 0.16995670 -0.05995263 -0.49999797
v 0.17548540 -0.05494691 -0.49645612
v 0.17047009 -0.05494691 -0.50028592
v 0.17118092 -0.04493548 -0.50066745
v 0.16498087 -0.04493548 -0.50255358
v 0.16498087 -0.03492405 -0.50294232
v 0.16498087 -0.01493773 -0.50371259
v 0.17560388 -0.00481669 -0.50120741
v 0.16498087 -0.00503591 -0.50405818
v 0.16498087 0.00493898 -0.50402939
v 0.16498087 0.01495041 -0.50366944
v 0.16498087 0.04494816 -0.50251037
v 0.17114143 0.04494816 -0.50064588
v 0.17058855 0.05251154 -0.50036514
v 0.17611726 0.04494816 -0.49714002
v 0.18239629 0.04494816 -0.49214396
v 0.18318610 0.03493673 -0.49284226
v 0.18895175 0.02492530 -0.48895484
v 0.18970208 0.06975751 -0.46966177
v 0.19092628 0.07184017 -0.46299559
v 0.19195305 0.07564013 -0.44453037
v 0.19341421 0.07498245 -0.43500623
v 0.17082550 0.11163013 -0.46262842
v 0.17153633 0.11305512 -0.45500478
v 0.19384861 0.07498245 -0.43075168
v 0.05495966 -0.17552254 -0.49662170
v 0.09697781 -0.16200346 -0.49161124
v 0.07494197 -0.17259949 -0.49210078
v 0.06431896 -0.17464560 -0.49475718
v 0.09990013 -0.14987281 -0.49996197
v 0.10495494 -0.14797282 -0.49886775
v 0.06009346 -0.17004183 -0.50005555
v 0.11072059 -0.14066520 -0.50031471
v 0.11739452 -0.13734025 -0.49852940
v 0.13737684 -0.11735393 -0.49852940
v 0.14069407 -0.11074053 -0.50031471
v 0.14784189 -0.10493098 -0.49877417
v 0.15984707 -0.07979280 -0.49991879
v 0.16237448 -0.09491955 -0.49191359
v 0.14969794 -0.09955989 -0.49983960
v 0.17449814 -0.06451988 -0.49459159
v -0.05490359 -0.15491506 -0.50407255
v -0.01497845 -0.16492650 -0.50382060
v -0.04495192 -0.15491506 -0.50418055
v 0.01495553 -0.16492650 -0.50382060
v 0.04492901 -0.15491506 -0.50418055
v 0.05495966 -0.15491506 -0.50407255
v 0.02490720 -0.16492650 -0.50344622
v 0.05495966 -0.16492650 -0.50196326
v -0.17116435 -0.04493548 -0.50066030
v -0.16496429 -0.04493548 -0.50255358
v -0.15493365 -0.05494691 -0.50402939
v -0.14490300 -0.07493323 -0.50407255
v -0.14490300 -0.08494467 -0.50313669
v -0.14691703 -0.09681953 -0.50104904
v -0.15023425 -0.09681953 -0.50009876
v -0.15098457 -0.09287342 -0.50048751
v -0.13495132 -0.09491955 -0.50397897
v -0.13495132 -0.09681953 -0.50372702
v -0.14450809 -0.09681953 -0.50167531
v -0.14545587 -0.09681953 -0.50145936
v -0.15315656 -0.09681953 -0.49812627
v -0.13127869 -0.12900957 -0.49519631
v -0.12736911 -0.12736535 -0.49852940
v -0.13127869 -0.12042312 -0.50015634
v -0.12069517 -0.13069032 -0.50031471
v -0.11437665 -0.13441721 -0.50091946
v -0.10493837 -0.13496527 -0.50269037
v -0.08495605 -0.14494017 -0.50320148
v -0.07492540 -0.14494017 -0.50409412
v 0.16928536 0.12229925 -0.43075168
v 0.17039110 0.12058196 -0.43325689
v 0.17248411 0.11597816 -0.43595648
v 0.18065870 0.10128986 -0.43075168
v 0.16948281 0.10951092 -0.46928021
v 0.16837707 0.10720903 -0.47499615
v 0.17003569 0.10012064 -0.48008579
v 0.15577953 0.11594162 -0.48584491
v 0.15277822 0.12277424 -0.48278537
v 0.16166365 0.11265320 -0.48225266
v 0.14476161 0.12661073 -0.48673758
v 0.13923290 0.12920493 -0.48945159
v 0.12252832 0.14250478 -0.49161845
v 0.11482763 0.14480668 -0.49495155
v 0.11048365 0.14042214 -0.50022113
v 0.10495494 0.14721820 -0.49837101
v 0.09697781 0.15975076 -0.49243191
v 0.10495494 0.14221248 -0.50076103
v 0.09697781 0.14491630 -0.50130820
v 0.09697781 0.13497797 -0.50359744
v 0.09488480 0.13497797 -0.50389260
v 0.08489364 0.14491630 -0.50294954
v 0.10495494 0.13494143 -0.50245279
v 0.07494197 0.14491630 -0.50399339
v -0.15493365 0.04491162 -0.50426692
v 0.08489364 0.13497797 -0.50418776
v 0.15491073 0.04494816 -0.50426692
v -0.08495605 0.13497797 -0.50418776
v -0.12496017 0.10498020 -0.50400776
v -0.13495132 0.09496877 -0.50390697
v -0.16496429 0.01495041 -0.50366223
v -0.16496429 0.00493898 -0.50402939
v -0.16496429 -0.00503591 -0.50405097
v -0.14490300 0.08492080 -0.50301433
v -0.14490300 0.07490937 -0.50402218
v -0.17562680 -0.00485322 -0.50120741
v 0.18816194 0.03493673 -0.48807657
v 0.18863583 0.06738253 -0.47499615
v 0.18061921 0.06131721 -0.49054581
v 0.18314661 0.06307104 -0.48673758
v 0.18456827 0.06405757 -0.48456350
v 0.18140902 0.07498245 -0.48193592
v 0.18010582 0.08020739 -0.48018658
v 0.18148801 0.05492305 -0.49130890
v 0.14582786 -0.09572339 -0.50154573
v 0.15589800 -0.07584669 -0.50156736
v 0.15495022 -0.06495834 -0.50318706
v 0.16498087 -0.05494691 -0.50184810
v 0.15491073 -0.05494691 -0.50403655
v 0.15491073 -0.04493548 -0.50421655
v 0.15491073 0.05492305 -0.50401497
v 0.16573119 0.05547112 -0.50143057
v 0.17434017 0.05547112 -0.49690965
v 0.16956179 0.05919801 -0.49976760
v 0.18121156 0.08239967 -0.47499615
v 0.17110193 0.10220331 -0.47499615
v 0.19009699 0.08020739 -0.44088772
v 0.19072883 0.08148623 -0.43075168
v 0.08003628 -0.15999386 -0.50001240
v 0.10495494 -0.14296710 -0.50089061
v 0.09591155 -0.14592668 -0.50158173
v 0.07494197 -0.15491506 -0.50202805
v 0.10495494 -0.13492873 -0.50269037
v 0.11439323 -0.13438067 -0.50092661
v 0.13441503 -0.11439434 -0.50092661
v 0.13496791 -0.10493098 -0.50266874
v 0.14282656 -0.10493098 -0.50087625
v 0.15100114 -0.09287342 -0.50048751
v -0.10493837 -0.12495384 -0.50407255
v -0.15493365 -0.04493548 -0.50420934
v 0.07494197 -0.14494017 -0.50409412
v 0.10495494 -0.12495384 -0.50407255
v 0.06495082 -0.15491506 -0.50324470
v -0.16496429 -0.03492405 -0.50294232
v -0.16496429 -0.01497427 -0.50370538
v -0.12492068 -0.10493098 -0.50407255
v -0.13127869 -0.11750008 -0.50091946
v -0.13127869 -0.11969236 -0.50041550
v -0.13309526 -0.09681953 -0.50399339
v -0.13127869 -0.10493098 -0.50317991
v -0.13127869 -0.10862133 -0.50268316
v -0.13127869 -0.11457703 -0.50150973
v -0.13127869 -0.12623268 -0.49684486
v -0.13068633 -0.12067889 -0.50031471
v -0.11492952 -0.12495384 -0.50270474
v -0.09494720 -0.13496527 -0.50397897
v 0.17054906 0.12080119 -0.43075168
v 0.17133889 0.09500531 -0.48180634
v 0.15664832 0.11356664 -0.48673758
v 0.15522666 0.11543009 -0.48673758
v 0.15416041 0.11678199 -0.48673758
v 0.14918457 0.11919352 -0.48945159
v 0.14661768 0.12474730 -0.48673758
v 0.16158466 0.10585712 -0.48673758
v 0.15878083 0.10772055 -0.48891884
v 0.14251064 0.12251847 -0.49161845
v 0.13251948 0.13252991 -0.49161845
v 0.11711809 0.13709715 -0.49828464
v 0.13713990 0.11711084 -0.49828464
v 0.13046595 0.12043580 -0.50022113
v 0.13425706 0.11426087 -0.50076824
v 0.11427476 0.13421065 -0.50076824
v 0.09697781 0.13494143 -0.50360465
v 0.09697781 0.13293183 -0.50391418
v 0.10495494 0.12492999 -0.50400776
v 0.11498559 0.12492999 -0.50248158
v -0.13495132 0.08492080 -0.50414455
v 0.11498559 0.11495510 -0.50400776
v 0.12497674 0.10494366 -0.50400776
v 0.13496791 0.08492080 -0.50414455
v 0.14495906 0.07490937 -0.50402218
v 0.17896059 0.06796714 -0.48905563
v 0.17536694 0.06475179 -0.49329579
v 0.17058855 0.08119392 -0.49049541
v 0.13496791 -0.09491955 -0.50397897
v 0.14495906 -0.08490813 -0.50314391
v 0.14495906 -0.07493323 -0.50407255
v 0.12497674 -0.10493098 -0.50407255
v 0.15491073 0.06493448 -0.50305748
v 0.16292734 0.06493448 -0.50097704
v 0.16095281 0.07246132 -0.50045872
v 0.15088268 0.09230150 -0.50044429
v 0.15945217 0.07914779 -0.49968842
v 0.08493313 -0.14494017 -0.50320148
v 0.09697781 -0.13496527 -0.50371981
v 0.11498559 -0.12495384 -0.50270474
v 0.12497674 -0.11494242 -0.50270474
v 0.09492429 -0.13496527 -0.50397897
v -0.12492068 -0.11494242 -0.50270474
v 0.16715287 0.09500531 -0.48673758
v 0.15210688 0.11254358 -0.49161845
v 0.14484058 0.11480894 -0.49495155
v 0.15522666 0.10457829 -0.49301502
v 0.16889045 0.08780731 -0.48899084
v 0.16051841 0.10103409 -0.49044502
v 0.14045712 0.11042438 -0.50022113
v 0.13496791 0.10494366 -0.50246722
v 0.12497674 0.11495510 -0.50248158
v 0.13496791 0.09493224 -0.50390697
v 0.14495906 0.08492080 -0.50301433
v 0.16205855 0.09493224 -0.49167603
v 0.15566105 0.07545745 -0.50149536
v 0.14559092 0.09533415 -0.50146657
v 0.14235267 0.10494366 -0.50077546
v 0.14934254 0.09898796 -0.49962363
v 0.14736800 0.10494366 -0.49843580
f 1 2 24
f 1 24 56
f 1 56 111
f 1 111 204
f 1 204 339
f 1 339 469
f 1 469 572
f 1 572 518
f 1 518 601
f 1 601 515
f 1 515 392
f 1 392 263
f 1 263 261
f 1 261 155
f 1 155 154
f 1 154 81
f 1 81 32
f 1 32 3
f 1 3 4
f 1 4 5
f 1 5 6
f 1 6 7
f 1 7 8
f 1 8 9
f 1 9 10
f 1 10 11
f 1 11 12
f 1 12 13
f 1 13 14
f 1 14 15
f 1 15 16
f 1 16 17
f 1 17 18
f 1 18 19
f 1 19 20
f 1 20 21
f 1 21 22
f 1 22 23
f 1 23 2
f 2 23 25
f 2 25 26
f 2 26 27
f 2 27 28
f 2 28 29
f 2 29 30
f 2 30 31
f 2 31 24
f 3 32 33
f 3 33 34
f 3 34 35
f 3 35 36
f 3 36 37
f 3 37 4
f 4 37 5
f 5 38 6
f 5 37 39
f 5 39 38
f 6 38 40
f 6 40 7
f 7 40 41
f 7 41 8
f 8 41 9
f 9 41 10
f 10 41 42
f 10 42 43
f 10 43 12
f 10 12 11
f 12 43 44
f 12 44 13
f 13 44 45
f 13 45 14
f 14 45 15
f 15 45 46
f 15 46 16
f 16 47 17
f 16 46 48
f 16 48 47
f 17 49 50
f 17 50 51
f 17 51 18
f 17 47 52
f 17 52 49
f 18 51 19
f 19 51 53
f 19 53 20
f 20 54 21
f 20 53 54
f 21 54 22
f 22 54 23
f 23 54 55
f 23 55 25
f 24 31 57
f 24 57 58
f 24 58 56
f 25 55 59
f 25 59 26
f 26 59 60
f 26 60 27
f 27 60 28
f 28 60 61
f 28 61 62
f 28 62 29
f 29 62 61
f 29 61 63
f 29 63 64
f 29 64 30
f 30 65 31
f 30 64 65
f 31 65 66
f 31 66 67
f 31 67 68
f 31 68 69
f 31 69 70
f 31 70 71
f 31 71 72
f 31 72 73
f 31 73 74
f 31 74 75
f 31 75 76
f 31 76 77
f 31 77 78
f 31 78 79
f 31 79 80
f 31 80 57
f 32 81 33
f 33 81 82
f 33 82 83
f 33 83 84
f 33 84 34
f 34 84 85
f 34 85 86
f 34 86 87
f 34 87 88
f 34 88 89
f 34 89 35
f 35 89 90
f 35 90 36
f 36 90 91
f 36 91 92
f 36 92 39
f 36 39 37
f 38 93 40
f 38 39 94
f 38 94 93
f 39 92 94
f 40 93 95
f 40 95 96
f 40 96 41
f 41 96 97
f 41 97 42
f 42 97 98
f 42 98 43
f 43 98 44
f 44 98 45
f 45 98 99
f 45 99 46
f 46 99 100
f 46 100 48
f 47 48 100
f 47 100 52
f 49 52 101
f 49 101 50
f 50 102 103
f 50 103 54
f 50 54 53
f 50 53 51
f 50 101 104
f 50 104 105
f 50 105 106
f 50 106 107
f 50 107 102
f 52 100 101
f 54 103 108
f 54 108 55
f 55 108 61
f 55 61 60
f 55 60 59
f 56 109 110
f 56 110 111
f 56 58 112
f 56 112 113
f 56 113 114
f 56 114 115
f 56 115 116
f 56 116 117
f 56 117 118
f 56 118 119
f 56 119 120
f 56 120 121
f 56 121 122
f 56 122 123
f 56 123 124
f 56 124 125
f 56 125 126
f 56 126 127
f 56 127 109
f 57 80 128
f 57 128 129
f 57 129 58
f 58 129 130
f 58 130 112
f 61 108 131
f 61 131 132
f 61 132 133
f 61 133 134
f 61 134 135
f 61 135 136
f 61 136 63
f 63 136 64
f 64 136 137
f 64 137 65
f 65 138 66
f 65 137 138
f 66 138 139
f 66 139 140
f 66 140 141
f 66 141 142
f 66 142 143
f 66 143 67
f 67 143 144
f 67 144 68
f 68 144 145
f 68 145 146
f 68 146 69
f 69 146 70
f 70 146 71
f 71 146 147
f 71 147 148
f 71 148 72
f 72 148 73
f 73 148 74
f 74 148 149
f 74 149 75
f 75 149 150
f 75 150 76
f 76 150 77
f 77 150 151
f 77 151 78
f 78 151 79
f 79 151 152
f 79 152 80
f 80 152 153
f 80 153 128
f 81 154 82
f 82 154 155
f 82 155 156
f 82 156 83
f 83 156 84
f 84 156 157
f 84 157 158
f 84 158 85
f 85 159 160
f 85 160 86
f 85 158 159
f 86 160 161
f 86 161 162
f 86 162 87
f 87 163 164
f 87 164 88
f 87 162 163
f 88 164 165
f 88 165 166
f 88 166 167
f 88 167 89
f 89 167 90
f 90 168 169
f 90 169 91
f 90 167 168
f 91 169 92
f 92 169 94
f 93 94 170
f 93 170 171
f 93 171 172
f 93 172 95
f 94 169 170
f 95 173 174
f 95 174 96
f 95 172 173
f 96 174 175
f 96 175 97
f 97 175 177
f 97 177 176
f 97 176 98
f 98 176 99
f 99 176 177
f 99 177 178
f 99 178 179
f 99 179 100
f 100 180 104
f 100 104 101
f 100 179 180
f 102 107 181
f 102 181 182
f 102 182 103
f 103 183 184
f 103 184 108
f 103 182 183
f 104 180 185
f 104 185 186
f 104 186 105
f 105 186 106
f 106 187 107
f 106 186 188
f 106 188 189
f 106 189 190
f 106 190 191
f 106 191 192
f 106 192 187
f 107 187 181
f 108 184 193
f 108 193 194
f 108 194 195
f 108 195 131
f 109 196 110
f 109 127 197
f 109 197 198
f 109 198 199
f 109 199 200
f 109 200 196
f 110 196 201
f 110 201 202
f 110 202 203
f 110 203 111
f 111 203 204
f 112 130 205
f 112 205 206
f 112 206 207
f 112 207 113
f 113 208 209
f 113 209 114
f 113 207 210
f 113 210 211
f 113 211 212
f 113 212 213
f 113 213 214
f 113 214 215
f 113 215 216
f 113 216 208
f 114 209 217
f 114 217 115
f 115 217 209
f 115 209 116
f 116 209 218
f 116 218 219
f 116 219 220
f 116 220 117
f 117 220 118
f 118 220 119
f 119 220 221
f 119 221 120
f 120 221 121
f 121 222 223
f 121 223 122
f 121 221 224
f 121 224 222
f 122 223 123
f 123 223 225
f 123 225 124
f 124 226 227
f 124 227 228
f 124 228 229
f 124 229 125
f 124 225 226
f 125 229 230
f 125 230 126
f 126 230 231
f 126 231 127
f 127 231 232
f 127 232 233
f 127 233 234
f 127 234 197
f 128 235 129
f 128 153 236
f 128 236 235
f 129 235 237
f 129 237 239
f 129 239 130
f 130 238 205
f 130 239 238
f 131 240 132
f 131 195 240
f 132 240 241
f 132 241 133
f 133 241 242
f 133 242 243
f 133 243 244
f 133 244 245
f 133 245 134
f 134 245 135
f 135 245 246
f 135 246 141
f 135 141 140
f 135 140 139
f 135 139 136
f 136 139 138
f 136 138 137
f 141 247 248
f 141 248 142
f 141 246 245
f 141 245 247
f 142 248 249
f 142 249 250
f 142 250 143
f 143 251 144
f 143 250 251
f 144 251 252
f 144 252 145
f 145 253 146
f 145 252 254
f 145 254 255
f 145 255 253
f 146 253 256
f 146 256 147
f 147 256 257
f 147 257 148
f 148 257 149
f 149 257 258
f 149 258 259
f 149 259 150
f 150 259 260
f 150 260 236
f 150 236 153
f 150 153 152
f 150 152 151
f 155 261 262
f 155 262 156
f 156 262 261
f 156 261 263
f 156 263 264
f 156 264 157
f 157 264 265
f 157 265 158
f 158 265 266
f 158 266 159
f 159 267 161
f 159 161 160
f 159 266 268
f 159 268 398
f 159 398 267
f 161 267 269
f 161 269 162
f 162 269 270
f 162 270 271
f 162 271 163
f 163 271 272
f 163 272 273
f 163 273 274
f 163 274 164
f 164 275 276
f 164 276 277
f 164 277 278
f 164 278 279
f 164 279 280
f 164 280 281
f 164 281 282
f 164 282 283
f 164 283 284
f 164 284 285
f 164 285 286
f 164 286 287
f 164 287 288
f 164 288 289
f 164 289 165
f 164 274 275
f 165 289 290
f 165 290 291
f 165 291 166
f 166 291 292
f 166 292 167
f 167 292 293
f 167 293 294
f 167 294 168
f 168 294 169
f 169 294 171
f 169 171 170
f 171 295 296
f 171 296 297
f 171 297 298
f 171 298 299
f 171 299 172
f 171 294 300
f 171 300 301
f 171 301 295
f 172 299 298
f 172 298 302
f 172 302 173
f 173 302 303
f 173 303 304
f 173 304 174
f 174 304 177
f 174 177 175
f 177 304 178
f 178 305 179
f 178 304 306
f 178 306 305
f 179 305 180
f 180 305 185
f 181 187 307
f 181 307 183
f 181 183 182
f 183 307 308
f 183 308 184
f 184 308 309
f 184 309 193
f 185 305 188
f 185 188 186
f 187 192 310
f 187 310 311
f 187 311 312
f 187 312 307
f 188 305 313
f 188 313 314
f 188 314 315
f 188 315 189
f 189 315 190
f 190 315 316
f 190 316 191
f 191 310 192
f 191 316 317
f 191 317 314
f 191 314 318
f 191 318 319
f 191 319 320
f 191 320 321
f 191 321 310
f 193 309 322
f 193 322 323
f 193 323 194
f 194 323 324
f 194 324 240
f 194 240 195
f 196 200 325
f 196 325 326
f 196 326 327
f 196 327 202
f 196 202 201
f 197 234 198
f 198 234 328
f 198 328 329
f 198 329 330
f 198 330 331
f 198 331 332
f 198 332 199
f 199 332 333
f 199 333 200
f 200 334 325
f 200 333 334
f 202 327 335
f 202 335 336
f 202 336 337
f 202 337 203
f 203 337 338
f 203 338 339
f 203 339 204
f 205 238 340
f 205 340 341
f 205 341 206
f 206 341 342
f 206 342 207
f 207 342 343
f 207 343 210
f 208 216 209
f 209 344 345
f 209 345 346
f 209 346 347
f 209 347 219
f 209 219 218
f 209 216 348
f 209 348 344
f 210 343 211
f 211 343 349
f 211 349 212
f 212 349 350
f 212 350 213
f 213 350 348
f 213 348 214
f 214 348 215
f 215 348 216
f 219 351 224
f 219 224 220
f 219 347 352
f 219 352 351
f 220 224 221
f 222 224 353
f 222 353 223
f 223 353 354
f 223 354 355
f 223 355 225
f 224 356 357
f 224 357 353
f 224 351 356
f 225 358 227
f 225 227 226
f 225 355 358
f 227 359 360
f 227 360 228
f 227 358 359
f 228 360 231
f 228 231 229
f 229 231 230
f 231 361 232
f 231 360 359
f 231 359 329
f 231 329 361
f 232 361 233
f 233 361 234
f 234 361 328
f 235 236 362
f 235 362 237
f 236 260 362
f 237 362 363
f 237 363 364
f 237 364 365
f 237 365 366
f 237 366 367
f 237 367 368
f 237 368 239
f 238 239 369
f 238 369 341
f 238 341 340
f 239 368 370
f 239 370 371
f 239 371 372
f 239 372 373
f 239 373 369
f 240 324 241
f 241 374 375
f 241 375 242
f 241 324 323
f 241 323 374
f 242 375 376
f 242 376 377
f 242 377 378
f 242 378 379
f 242 379 380
f 242 380 381
f 242 381 249
f 242 249 243
f 243 249 244
f 244 249 247
f 244 247 245
f 247 249 248
f 249 381 382
f 249 382 383
f 249 383 250
f 250 383 251
f 251 383 252
f 252 384 385
f 252 385 254
f 252 383 384
f 253 255 256
f 254 385 255
f 255 385 386
f 255 386 387
f 255 387 388
f 255 388 257
f 255 257 256
f 257 388 258
f 258 388 259
f 259 389 363
f 259 363 362
f 259 362 260
f 259 388 387
f 259 387 390
f 259 390 391
f 259 391 389
f 263 392 264
f 264 392 393
f 264 393 394
f 264 394 265
f 265 394 395
f 265 395 266
f 266 395 396
f 266 396 397
f 266 397 268
f 267 398 269
f 268 397 398
f 269 399 270
f 269 398 523
f 269 523 399
f 270 400 401
f 270 401 271
f 270 399 400
f 271 402 272
f 271 401 402
f 272 402 403
f 272 403 273
f 273 403 404
f 273 404 405
f 273 405 406
f 273 406 275
f 273 275 274
f 275 406 407
f 275 407 276
f 276 407 408
f 276 408 409
f 276 409 410
f 276 410 411
f 276 411 412
f 276 412 413
f 276 413 414
f 276 414 277
f 277 414 415
f 277 415 416
f 277 416 278
f 278 416 279
f 279 416 417
f 279 417 418
f 279 418 280
f 280 418 281
f 281 419 282
f 281 418 419
f 282 419 283
f 283 419 284
f 284 420 285
f 284 419 420
f 285 420 421
f 285 421 286
f 286 421 287
f 287 421 288
f 288 421 289
f 289 421 290
f 290 421 422
f 290 422 291
f 291 422 423
f 291 423 292
f 292 423 293
f 293 423 424
f 293 424 301
f 293 301 300
f 293 300 294
f 295 301 425
f 295 425 426
f 295 426 296
f 296 427 297
f 296 426 427
f 297 428 314
f 297 314 429
f 297 429 306
f 297 306 302
f 297 302 298
f 297 427 428
f 301 430 425
f 301 424 430
f 302 304 303
f 302 306 304
f 305 306 313
f 306 429 313
f 307 312 308
f 308 312 309
f 309 312 431
f 309 431 432
f 309 432 322
f 310 433 432
f 310 432 311
f 310 321 434
f 310 434 433
f 311 432 312
f 312 432 431
f 313 429 314
f 314 428 318
f 314 317 316
f 314 316 315
f 318 428 435
f 318 435 436
f 318 436 319
f 319 436 320
f 320 436 437
f 320 437 321
f 321 437 438
f 321 438 434
f 322 432 439
f 322 439 323
f 323 439 440
f 323 440 374
f 325 334 441
f 325 441 326
f 326 442 327
f 326 441 443
f 326 443 444
f 326 444 442
f 327 442 335
f 328 361 329
f 329 359 445
f 329 445 446
f 329 446 330
f 330 446 332
f 330 332 331
f 332 446 447
f 332 447 448
f 332 448 449
f 332 449 450
f 332 450 451
f 332 451 452
f 332 452 453
f 332 453 333
f 333 453 454
f 333 454 455
f 333 455 456
f 333 456 457
f 333 457 458
f 333 458 459
f 333 459 460
f 333 460 461
f 333 461 334
f 334 462 441
f 334 461 460
f 334 460 462
f 335 442 463
f 335 463 336
f 336 463 464
f 336 464 337
f 337 464 338
f 338 465 466
f 338 466 339
f 338 464 467
f 338 467 468
f 338 468 465
f 339 466 469
f 341 369 470
f 341 470 349
f 341 349 342
f 342 349 343
f 344 471 345
f 344 348 350
f 344 350 472
f 344 472 473
f 344 473 471
f 345 474 346
f 345 471 474
f 346 474 347
f 347 474 475
f 347 475 352
f 349 470 476
f 349 476 350
f 350 476 473
f 350 473 472
f 351 357 356
f 351 352 357
f 352 475 477
f 352 477 478
f 352 478 479
f 352 479 357
f 353 357 480
f 353 480 481
f 353 481 354
f 354 482 483
f 354 483 355
f 354 481 484
f 354 484 482
f 355 483 358
f 357 479 480
f 358 483 485
f 358 485 359
f 359 485 445
f 363 389 365
f 363 365 364
f 365 389 486
f 365 486 487
f 365 487 366
f 366 487 367
f 367 487 486
f 367 486 488
f 367 488 368
f 368 489 370
f 368 488 490
f 368 490 491
f 368 491 489
f 369 373 476
f 369 476 470
f 370 489 492
f 370 492 371
f 371 491 493
f 371 493 373
f 371 373 372
f 371 492 491
f 373 493 476
f 374 440 439
f 374 439 375
f 375 439 376
f 376 439 494
f 376 494 495
f 376 495 377
f 377 495 496
f 377 496 378
f 378 496 497
f 378 497 498
f 378 498 379
f 379 498 380
f 380 499 500
f 380 500 501
f 380 501 381
f 380 498 502
f 380 502 503
f 380 503 504
f 380 504 505
f 380 505 499
f 381 501 500
f 381 500 506
f 381 506 382
f 382 506 383
f 383 506 507
f 383 507 508
f 383 508 384
f 384 508 385
f 385 508 509
f 385 509 510
f 385 510 511
f 385 511 512
f 385 512 386
f 386 512 387
f 387 512 513
f 387 513 390
f 389 391 486
f 390 513 391
f 391 513 514
f 391 514 486
f 392 515 393
f 393 468 394
f 393 515 516
f 393 516 517
f 393 517 518
f 393 518 468
f 394 468 467
f 394 467 395
f 395 467 519
f 395 519 396
f 396 519 520
f 396 520 521
f 396 521 397
f 397 522 523
f 397 523 398
f 397 521 524
f 397 524 522
f 399 523 525
f 399 525 400
f 400 525 526
f 400 526 401
f 401 526 527
f 401 527 528
f 401 528 403
f 401 403 402
f 403 528 529
f 403 529 530
f 403 530 404
f 404 413 412
f 404 412 531
f 404 531 410
f 404 410 405
f 404 530 413
f 405 410 409
f 405 409 408
f 405 408 406
f 406 408 407
f 410 531 411
f 411 531 412
f 413 530 529
f 413 529 415
f 413 415 414
f 415 529 416
f 416 529 532
f 416 532 533
f 416 533 417
f 417 534 535
f 417 535 536
f 417 536 418
f 417 533 537
f 417 537 534
f 418 538 419
f 418 536 538
f 419 538 420
f 420 539 421
f 420 538 540
f 420 540 541
f 420 541 539
f 421 542 422
f 421 539 542
f 422 542 424
f 422 424 423
f 424 542 430
f 425 430 426
f 426 430 543
f 426 543 427
f 427 543 544
f 427 544 435
f 427 435 428
f 430 542 543
f 432 433 434
f 432 434 545
f 432 545 546
f 432 546 547
f 432 547 439
f 434 438 545
f 435 544 548
f 435 548 436
f 436 548 437
f 437 548 549
f 437 549 438
f 438 539 546
f 438 546 545
f 438 549 539
f 439 547 550
f 439 550 495
f 439 495 494
f 441 462 551
f 441 551 443
f 442 552 463
f 442 444 553
f 442 553 554
f 442 554 555
f 442 555 556
f 442 556 557
f 442 557 552
f 443 558 444
f 443 551 558
f 444 558 553
f 445 447 446
f 445 485 483
f 445 483 482
f 445 482 559
f 445 559 560
f 445 560 561
f 445 561 562
f 445 562 447
f 447 562 449
f 447 449 448
f 449 562 563
f 449 563 450
f 450 563 451
f 451 453 452
f 451 563 453
f 453 563 564
f 453 564 541
f 453 541 454
f 454 541 565
f 454 565 455
f 455 565 456
f 456 566 458
f 456 458 457
f 456 565 566
f 458 567 558
f 458 558 460
f 458 460 459
f 458 566 568
f 458 568 567
f 460 558 551
f 460 551 462
f 463 552 569
f 463 569 570
f 463 570 519
f 463 519 467
f 463 467 464
f 465 571 572
f 465 572 466
f 465 468 571
f 466 572 469
f 468 518 571
f 471 473 573
f 471 573 474
f 473 476 573
f 474 574 477
f 474 477 475
f 474 573 575
f 474 575 574
f 476 493 576
f 476 576 575
f 476 575 573
f 477 574 577
f 477 577 578
f 477 578 579
f 477 579 480
f 477 480 478
f 478 480 479
f 480 579 580
f 480 580 581
f 480 581 484
f 480 484 481
f 482 484 582
f 482 582 559
f 484 581 559
f 484 559 582
f 486 514 488
f 488 514 583
f 488 583 584
f 488 584 539
f 488 539 490
f 489 491 492
f 490 585 491
f 490 539 541
f 490 541 564
f 490 564 586
f 490 586 585
f 491 585 587
f 491 587 493
f 493 587 576
f 495 588 496
f 495 550 588
f 496 588 589
f 496 589 547
f 496 547 584
f 496 584 497
f 497 502 498
f 497 584 590
f 497 590 502
f 499 505 591
f 499 591 500
f 500 591 592
f 500 592 509
f 500 509 506
f 502 593 594
f 502 594 503
f 502 590 593
f 503 594 595
f 503 595 504
f 504 595 505
f 505 595 596
f 505 596 591
f 506 509 597
f 506 597 507
f 507 597 508
f 508 597 509
f 509 592 598
f 509 598 510
f 510 598 592
f 510 592 511
f 511 599 512
f 511 592 591
f 511 591 596
f 511 596 599
f 512 599 583
f 512 583 600
f 512 600 513
f 513 600 514
f 514 600 583
f 515 601 516
f 516 601 517
f 517 601 518
f 518 572 571
f 519 570 520
f 520 570 521
f 521 570 569
f 521 569 557
f 521 557 602
f 521 602 524
f 522 524 603
f 522 603 604
f 522 604 605
f 522 605 523
f 523 605 606
f 523 606 607
f 523 607 525
f 524 608 609
f 524 609 603
f 524 602 608
f 525 607 526
f 526 607 606
f 526 606 610
f 526 610 611
f 526 611 527
f 527 611 528
f 528 612 529
f 528 611 613
f 528 613 612
f 529 537 532
f 529 612 613
f 529 613 614
f 529 614 615
f 529 615 616
f 529 616 537
f 532 537 533
f 534 617 535
f 534 537 617
f 535 540 538
f 535 538 536
f 535 617 618
f 535 618 619
f 535 619 540
f 537 616 620
f 537 620 619
f 537 619 617
f 539 584 547
f 539 547 546
f 539 549 621
f 539 621 542
f 540 619 622
f 540 622 623
f 540 623 624
f 540 624 541
f 541 624 625
f 541 625 565
f 542 621 543
f 543 621 544
f 544 621 549
f 544 549 548
f 547 589 550
f 550 589 588
f 552 557 569
f 553 626 554
f 553 558 567
f 553 567 568
f 553 568 627
f 553 627 628
f 553 628 626
f 554 626 555
f 555 626 556
f 556 626 602
f 556 602 557
f 559 581 580
f 559 580 629
f 559 629 630
f 559 630 560
f 560 630 561
f 561 630 631
f 561 631 563
f 561 563 562
f 563 631 564
f 564 631 632
f 564 632 586
f 565 625 633
f 565 633 566
f 566 633 634
f 566 634 568
f 568 634 635
f 568 635 636
f 568 636 637
f 568 637 627
f 574 575 577
f 575 576 638
f 575 638 639
f 575 639 577
f 576 587 638
f 577 586 640
f 577 640 578
f 577 639 586
f 578 640 579
f 579 641 580
f 579 640 641
f 580 641 632
f 580 632 629
f 583 599 643
f 583 643 590
f 583 590 584
f 585 586 642
f 585 642 638
f 585 638 587
f 586 632 640
f 586 639 642
f 590 643 595
f 590 595 594
f 590 594 593
f 595 643 596
f 596 643 599
f 602 644 609
f 602 609 608
f 602 626 644
f 603 609 604
f 604 609 645
f 604 645 605
f 605 645 606
f 606 645 646
f 606 646 610
f 609 647 645
f 609 644 648
f 609 648 649
f 609 649 647
f 610 646 611
f 611 646 613
f 613 646 650
f 613 650 614
f 614 650 615
f 615 651 652
f 615 652 620
f 615 620 616
f 615 650 651
f 617 619 618
f 619 620 622
f 620 652 622
f 622 652 623
f 623 652 651
f 623 651 653
f 623 653 624
f 624 653 625
f 625 653 654
f 625 654 633
f 626 628 649
f 626 649 648
f 626 648 644
f 627 637 655
f 627 655 628
f 628 655 649
f 629 632 631
f 629 631 630
f 632 641 640
f 633 656 634
f 633 654 656
f 634 656 636
f 634 636 635
f 636 657 658
f 636 658 659
f 636 659 637
f 636 656 657
f 637 659 655
f 638 642 639
f 645 660 650
f 645 650 646
f 645 647 660
f 647 649 659
f 647 659 660
f 649 655 659
f 650 660 659
f 650 659 658
f 650 658 651
f 651 658 657
f 651 657 653
f 653 657 654
f 654 657 656

