# Blender 4.0.0
# www.blender.org
o CoffeeMachine046_Button003
v -0.107898 -0.111747 0.073414
v -0.105423 -0.114131 0.071984
v -0.103531 -0.115956 0.069347
v -0.102511 -0.116942 0.065906
v -0.102518 -0.116941 0.062183
v -0.103551 -0.115951 0.058747
v -0.105452 -0.114125 0.056119
v -0.107933 -0.111740 0.054700
v -0.109274 -0.110449 0.054519
v -0.108494 -0.112162 0.073415
v -0.107120 -0.115313 0.071986
v -0.106071 -0.117724 0.069351
v -0.105507 -0.119028 0.065911
v -0.105514 -0.119027 0.062188
v -0.106091 -0.117720 0.058751
v -0.107149 -0.115307 0.056121
v -0.108529 -0.112155 0.054701
v -0.109204 -0.112318 0.073416
v -0.109140 -0.115756 0.071990
v -0.109095 -0.118386 0.069357
v -0.109074 -0.119809 0.065917
v -0.109081 -0.119808 0.062194
v -0.109114 -0.118382 0.058756
v -0.109169 -0.115749 0.056125
v -0.109238 -0.112310 0.054702
v -0.109919 -0.112190 0.073417
v -0.111176 -0.115391 0.071994
v -0.112141 -0.117841 0.069362
v -0.112667 -0.119166 0.065924
v -0.112674 -0.119164 0.062201
v -0.112161 -0.117837 0.058762
v -0.111205 -0.115385 0.056129
v -0.109953 -0.112182 0.054703
v -0.109239 -0.110457 0.073600
v -0.110530 -0.111798 0.073418
v -0.112917 -0.114275 0.071997
v -0.114747 -0.116171 0.069368
v -0.115741 -0.117196 0.065930
v -0.115748 -0.117195 0.062208
v -0.114767 -0.116167 0.058767
v -0.112947 -0.114269 0.056132
v -0.110564 -0.111791 0.054704
v -0.110945 -0.111202 0.073419
v -0.114099 -0.112578 0.072000
v -0.116516 -0.113631 0.069372
v -0.117828 -0.114200 0.065935
v -0.117835 -0.114198 0.062213
v -0.116535 -0.113627 0.058771
v -0.114128 -0.112572 0.056135
v -0.110979 -0.111195 0.054705
v -0.111100 -0.110492 0.073420
v -0.114541 -0.110558 0.072002
v -0.117178 -0.110607 0.069374
v -0.118609 -0.110633 0.065938
v -0.118615 -0.110632 0.062216
v -0.117198 -0.110603 0.058774
v -0.114571 -0.110552 0.056137
v -0.111135 -0.110485 0.054706
v -0.110972 -0.109778 0.073420
v -0.114177 -0.108522 0.072002
v -0.116633 -0.107561 0.069375
v -0.117965 -0.107040 0.065938
v -0.117972 -0.107038 0.062216
v -0.116652 -0.107557 0.058774
v -0.114206 -0.108516 0.056137
v -0.111007 -0.109770 0.054706
v -0.110581 -0.109166 0.073420
v -0.113061 -0.106781 0.072001
v -0.114963 -0.104955 0.069373
v -0.115995 -0.103966 0.065936
v -0.116002 -0.103964 0.062213
v -0.114982 -0.104951 0.058772
v -0.113090 -0.106775 0.056136
v -0.110615 -0.109159 0.054706
v -0.111327 -0.107460 0.072879
v -0.113099 -0.104920 0.070815
v -0.114287 -0.103221 0.067723
v -0.114708 -0.102624 0.064073
v -0.114300 -0.103218 0.060421
v -0.113124 -0.104914 0.057323
v -0.111359 -0.107453 0.055250
vn 0.0253 -0.8442 0.5354
vn 0.3444 -0.7749 0.5300
vn 0.0208 -0.5808 0.8138
vn 0.2335 -0.5275 0.8168
vn 0.3457 -0.4946 0.7974
vn 0.1412 -0.2869 0.9475
vn 0.1790 -0.2550 0.9502
vn 0.0080 -0.3283 0.9445
vn -0.0208 -0.0147 0.9997
vn 0.2235 -0.5389 -0.8122
vn 0.3388 -0.4884 -0.8041
vn 0.3296 -0.7767 -0.5367
vn 0.4837 -0.6959 -0.5308
vn 0.4832 -0.6927 0.5355
vn 0.3901 -0.9013 -0.1881
vn 0.5610 -0.8062 -0.1880
vn 0.3965 -0.8990 0.1859
vn 0.5624 -0.8073 0.1788
vn 0.1137 -0.2966 -0.9482
vn 0.1889 -0.2735 -0.9431
vn -0.3590 -0.9152 -0.1832
vn 0.0154 -0.9822 -0.1874
vn -0.3553 -0.9158 0.1874
vn 0.0223 -0.9822 0.1866
vn 0.0071 -0.8441 -0.5361
vn -0.0000 -0.5839 -0.8118
vn -0.0088 -0.3182 -0.9480
vn -0.2996 -0.7892 0.5361
vn -0.0245 -0.0139 -0.9996
vn -0.2053 -0.5467 0.8118
vn -0.1266 -0.2920 0.9480
vn -0.3117 -0.7824 -0.5391
vn -0.6792 -0.7100 -0.1860
vn -0.6786 -0.7101 0.1880
vn -0.2237 -0.5400 -0.8114
vn -0.5786 -0.6142 0.5366
vn -0.4000 -0.4297 0.8096
vn -0.2096 -0.2200 0.9527
vn -0.1301 -0.2913 -0.9477
vn -0.8999 -0.3929 -0.1891
vn -0.8986 -0.3962 0.1885
vn -0.4136 -0.4139 -0.8110
vn -0.5859 -0.6087 -0.5350
vn -0.5299 -0.2431 0.8125
vn -0.2847 -0.1399 0.9483
vn -0.7695 -0.3457 0.5371
vn -0.2320 -0.2200 -0.9475
vn -0.9826 -0.0157 -0.1852
vn -0.9818 -0.0220 0.1888
vn -0.5407 -0.2247 -0.8107
vn -0.7781 -0.3354 -0.5311
vn -0.5898 -0.0130 0.8075
vn -0.3163 -0.0196 0.9484
vn -0.2988 -0.1151 -0.9474
vn -0.8401 -0.0207 0.5420
vn -0.8453 -0.0079 -0.5342
vn -0.9138 0.3614 -0.1852
vn -0.9154 0.3555 0.1888
vn -0.5857 -0.0012 -0.8105
vn -0.5353 0.2084 0.8186
vn -0.2995 0.1036 0.9485
vn -0.3203 0.0074 -0.9473
vn -0.7897 0.3048 0.5325
vn -0.7883 0.3137 -0.5293
vn -0.7699 0.6113 -0.1832
vn -0.7699 0.6090 0.1910
vn -0.6594 0.5243 0.5388
vn -0.5372 0.2119 -0.8164
vn -0.4463 0.3728 0.8135
vn -0.1402 0.2447 0.9594
vn -0.2934 0.1288 -0.9473
vn -0.6501 0.7599 0.0015
vn -0.4911 0.5285 0.6924
vn -0.6571 0.5252 -0.5408
vn -0.3551 0.2172 0.9092
vn -0.0980 0.2526 -0.9626
vn -0.4519 0.3772 -0.8084
vn -0.6071 0.7018 0.3727
vn -0.4937 0.5291 -0.6902
vn -0.6085 0.7021 -0.3699
vn -0.3584 0.2179 -0.9078
vt 0.936816 0.278355
vt 0.939927 0.276664
vt 0.939246 0.280703
vt 0.941325 0.279574
vt 0.943672 0.279338
vt 0.942750 0.283380
vt 0.943574 0.283297
vt 0.942020 0.283776
vt 0.943405 0.285441
vt 0.983248 0.273263
vt 0.981036 0.273263
vt 0.982653 0.270216
vt 0.979343 0.270216
vt 0.943439 0.276311
vt 0.982331 0.266235
vt 0.978427 0.266235
vt 0.982332 0.261927
vt 0.978427 0.261927
vt 0.982653 0.257946
vt 0.979343 0.257946
vt 0.949970 0.297388
vt 0.949134 0.297315
vt 0.950965 0.293759
vt 0.948583 0.293553
vt 0.990462 0.266235
vt 0.986558 0.266235
vt 0.990462 0.261927
vt 0.986558 0.261927
vt 0.986236 0.270216
vt 0.985641 0.273263
vt 0.986236 0.257946
vt 0.950717 0.297773
vt 0.953092 0.294857
vt 0.989546 0.257946
vt 0.949394 0.299423
vt 0.937752 0.282555
vt 0.941496 0.284426
vt 0.989546 0.270216
vt 0.934579 0.281125
vt 0.977879 0.298477
vt 0.977241 0.294572
vt 0.981838 0.298477
vt 0.981200 0.294572
vt 0.969243 0.297181
vt 0.968575 0.295488
vt 0.973042 0.295488
vt 0.972042 0.292955
vt 0.993450 0.261927
vt 0.992079 0.257946
vt 0.937069 0.284846
vt 0.941256 0.285231
vt 0.951261 0.298413
vt 0.954640 0.296680
vt 0.933558 0.284554
vt 0.977879 0.302703
vt 0.981838 0.302703
vt 0.969604 0.299393
vt 0.973583 0.298798
vt 0.937302 0.287228
vt 0.941338 0.286068
vt 0.984858 0.302381
vt 0.984858 0.298798
vt 0.951519 0.299210
vt 0.955374 0.298950
vt 0.933907 0.288120
vt 0.977241 0.306607
vt 0.981200 0.306607
vt 0.969604 0.301786
vt 0.973583 0.302381
vt 0.938416 0.289339
vt 0.941729 0.286809
vt 0.951451 0.300043
vt 0.955181 0.301322
vt 0.984317 0.305691
vt 0.973042 0.305691
vt 0.935573 0.291278
vt 0.972112 0.269921
vt 0.968549 0.269474
vt 0.972112 0.265696
vt 0.968549 0.265250
vt 0.969243 0.303998
vt 0.940240 0.290856
vt 0.942369 0.287342
vt 0.951068 0.300785
vt 0.954091 0.303434
vt 0.972710 0.261491
vt 0.969690 0.261112
vt 0.972042 0.308224
vt 0.976062 0.309595
vt 0.938303 0.293550
vt 0.976273 0.270066
vt 0.976273 0.265841
vt 0.976238 0.261614
vt 0.968575 0.305691
vt 0.942497 0.291550
vt 0.943162 0.287585
vt 0.950429 0.301323
vt 0.952270 0.304966
vt 0.976173 0.258028
vt 0.973816 0.257946
vt 0.978427 0.267944
vt 0.977729 0.259667
vt 0.976238 0.273645
vt 0.972710 0.273522
vt 0.943672 0.289648
vt 0.949630 0.301574
vt 0.949995 0.305683
vt 0.978246 0.263639
vt 0.953579 0.307941
vt 0.950175 0.309014
vt 0.943609 0.293217
vt 0.948583 0.307499
vt 0.978246 0.271927
vt 0.949006 0.303698
vt 0.977729 0.274980
s 1
f 20/1/1 12/2/2 19/3/3
f 19/3/3 12/2/2 11/4/4
f 11/4/4 2/5/5 10/6/6
f 10/6/6 2/5/5 1/7/7
f 19/3/3 11/4/4 18/8/8
f 18/8/8 11/4/4 10/6/6
f 1/7/7 34/9/9 10/6/6
f 16/10/10 7/11/11 15/12/12
f 15/12/12 7/11/11 6/13/13
f 11/4/4 12/2/2 2/5/5
f 2/5/5 12/2/2 3/14/14
f 15/12/12 6/13/13 14/15/15
f 14/15/15 6/13/13 5/16/16
f 13/17/17 4/18/18 12/19/2
f 12/19/2 4/18/18 3/20/14
f 5/16/16 4/18/18 14/15/15
f 14/15/15 4/18/18 13/17/17
f 17/21/19 8/22/20 16/23/10
f 16/23/10 8/22/20 7/24/11
f 30/25/21 22/26/22 29/27/23
f 29/27/23 22/26/22 21/28/24
f 23/29/25 15/12/12 22/26/22
f 22/26/22 15/12/12 14/15/15
f 24/30/26 16/10/10 23/29/25
f 23/29/25 16/10/10 15/12/12
f 14/15/15 13/17/17 22/26/22
f 22/26/22 13/17/17 21/28/24
f 21/28/24 13/17/17 20/31/1
f 20/31/1 13/17/17 12/19/2
f 25/32/27 17/21/19 24/33/26
f 24/33/26 17/21/19 16/23/10
f 29/27/23 21/28/24 28/34/28
f 28/34/28 21/28/24 20/31/1
f 9/35/29 8/22/20 17/21/19
f 10/6/6 34/9/9 18/8/8
f 19/3/3 18/8/8 27/36/30
f 27/36/30 18/8/8 26/37/31
f 31/38/32 23/29/25 30/25/21
f 30/25/21 23/29/25 22/26/22
f 28/39/28 20/1/1 27/36/30
f 27/36/30 20/1/1 19/3/3
f 39/40/33 30/41/21 38/42/34
f 38/42/34 30/41/21 29/43/23
f 32/44/35 24/45/26 31/46/32
f 31/46/32 24/45/26 23/47/25
f 38/48/34 29/27/23 37/49/36
f 37/49/36 29/27/23 28/34/28
f 9/35/29 17/21/19 25/32/27
f 18/8/8 34/9/9 26/37/31
f 27/36/30 26/37/31 36/50/37
f 36/50/37 26/37/31 35/51/38
f 33/52/39 25/32/27 32/53/35
f 32/53/35 25/32/27 24/33/26
f 37/54/36 28/39/28 36/50/37
f 36/50/37 28/39/28 27/36/30
f 47/55/40 39/40/33 46/56/41
f 46/56/41 39/40/33 38/42/34
f 41/57/42 32/44/35 40/58/43
f 40/58/43 32/44/35 31/46/32
f 26/37/31 34/9/9 35/51/38
f 9/35/29 25/32/27 33/52/39
f 44/59/44 36/50/37 43/60/45
f 43/60/45 36/50/37 35/51/38
f 31/46/32 30/41/21 40/58/43
f 40/58/43 30/41/21 39/40/33
f 46/56/41 38/42/34 45/61/46
f 45/61/46 38/42/34 37/62/36
f 42/63/47 33/52/39 41/64/42
f 41/64/42 33/52/39 32/53/35
f 45/65/46 37/54/36 44/59/44
f 44/59/44 37/54/36 36/50/37
f 55/66/48 47/55/40 54/67/49
f 54/67/49 47/55/40 46/56/41
f 49/68/50 41/57/42 48/69/51
f 48/69/51 41/57/42 40/58/43
f 35/51/38 34/9/9 43/60/45
f 52/70/52 44/59/44 51/71/53
f 51/71/53 44/59/44 43/60/45
f 40/58/43 39/40/33 48/69/51
f 48/69/51 39/40/33 47/55/40
f 9/35/29 33/52/39 42/63/47
f 50/72/54 42/63/47 49/73/50
f 49/73/50 42/63/47 41/64/42
f 54/67/49 46/56/41 53/74/55
f 53/74/55 46/56/41 45/61/46
f 56/75/56 48/69/51 55/66/48
f 55/66/48 48/69/51 47/55/40
f 53/76/55 45/65/46 52/70/52
f 52/70/52 45/65/46 44/59/44
f 63/77/57 55/78/48 62/79/58
f 62/79/58 55/78/48 54/80/49
f 57/81/59 49/68/50 56/75/56
f 56/75/56 49/68/50 48/69/51
f 60/82/60 52/70/52 59/83/61
f 59/83/61 52/70/52 51/71/53
f 9/35/29 42/63/47 50/72/54
f 58/84/62 50/72/54 57/85/59
f 57/85/59 50/72/54 49/73/50
f 62/79/58 54/80/49 61/86/63
f 61/86/63 54/80/49 53/87/55
f 43/60/45 34/9/9 51/71/53
f 64/88/64 56/75/56 63/89/57
f 63/89/57 56/75/56 55/66/48
f 53/76/55 52/70/52 61/90/63
f 61/90/63 52/70/52 60/82/60
f 71/91/65 63/77/57 70/92/66
f 70/92/66 63/77/57 62/79/58
f 70/92/66 62/79/58 69/93/67
f 69/93/67 62/79/58 61/86/63
f 65/94/68 57/81/59 64/88/64
f 64/88/64 57/81/59 56/75/56
f 9/35/29 50/72/54 58/84/62
f 68/95/69 60/82/60 67/96/70
f 67/96/70 60/82/60 59/83/61
f 66/97/71 58/84/62 65/98/68
f 65/98/68 58/84/62 57/85/59
f 51/71/53 34/9/9 59/83/61
f 69/93/67 61/86/63 68/99/69
f 68/99/69 61/86/63 60/100/60
f 70/92/66 78/101/72 71/91/65
f 68/99/69 76/102/73 69/93/67
f 72/103/74 64/104/64 71/91/65
f 71/91/65 64/104/64 63/77/57
f 66/97/71 9/35/29 58/84/62
f 67/96/70 75/105/75 68/95/69
f 74/106/76 66/97/71 73/107/77
f 73/107/77 66/97/71 65/98/68
f 69/93/67 77/108/78 70/92/66
f 65/98/68 64/109/64 73/107/77
f 73/107/77 64/109/64 72/110/74
f 34/9/9 67/96/70 59/83/61
f 75/105/75 76/111/73 68/95/69
f 80/112/79 73/107/77 72/110/74
f 71/91/65 79/113/80 72/103/74
f 77/108/78 78/101/72 70/92/66
f 73/107/77 81/114/81 74/106/76
f 76/102/73 77/108/78 69/93/67
f 74/106/76 9/35/29 66/97/71
f 71/91/65 78/101/72 79/113/80
f 67/96/70 34/9/9 75/105/75
f 80/112/79 81/114/81 73/107/77
f 79/113/80 80/115/79 72/103/74
f 9/35/29 74/106/76 81/114/81
o CoffeeMachine046_Lid002_Collider1
v -0.142567 -0.106744 -0.171030
v -0.142567 -0.106744 -0.167146
v -0.142567 -0.039327 -0.171030
v -0.142567 -0.039327 -0.167146
v 0.146360 -0.106744 -0.171030
v 0.146360 -0.106744 -0.167146
v 0.146360 -0.039327 -0.171030
v 0.146360 -0.039327 -0.167146
vn -1.0000 -0.0000 -0.0000
vn -0.0000 1.0000 -0.0000
vn 1.0000 -0.0000 -0.0000
vn -0.0000 -1.0000 -0.0000
vn -0.0000 -0.0000 -1.0000
vn -0.0000 -0.0000 1.0000
vt 0.375000 0.000000
vt 0.625000 0.000000
vt 0.625000 0.250000
vt 0.375000 0.250000
vt 0.625000 0.500000
vt 0.375000 0.500000
vt 0.625000 0.750000
vt 0.375000 0.750000
vt 0.625000 1.000000
vt 0.375000 1.000000
vt 0.125000 0.500000
vt 0.125000 0.750000
vt 0.875000 0.500000
vt 0.875000 0.750000
s 0
f 82/116/82 83/117/82 85/118/82 84/119/82
f 84/119/83 85/118/83 89/120/83 88/121/83
f 88/121/84 89/120/84 87/122/84 86/123/84
f 86/123/85 87/122/85 83/124/85 82/125/85
f 84/126/86 88/121/86 86/123/86 82/127/86
f 89/120/87 85/128/87 83/129/87 87/122/87
o CoffeeMachine046_Lid002_Collider2
v -0.070335 -0.161347 -0.171030
v -0.070335 -0.161347 -0.167146
v -0.070335 -0.093930 -0.171030
v -0.070335 -0.093930 -0.167146
v 0.074129 -0.161347 -0.171030
v 0.074129 -0.161347 -0.167146
v 0.074129 -0.093930 -0.171030
v 0.074129 -0.093930 -0.167146
vn -1.0000 -0.0000 -0.0000
vn -0.0000 1.0000 -0.0000
vn 1.0000 -0.0000 -0.0000
vn -0.0000 -1.0000 -0.0000
vn -0.0000 -0.0000 -1.0000
vn -0.0000 -0.0000 1.0000
vt 0.375000 0.000000
vt 0.625000 0.000000
vt 0.625000 0.250000
vt 0.375000 0.250000
vt 0.625000 0.500000
vt 0.375000 0.500000
vt 0.625000 0.750000
vt 0.375000 0.750000
vt 0.625000 1.000000
vt 0.375000 1.000000
vt 0.125000 0.500000
vt 0.125000 0.750000
vt 0.875000 0.500000
vt 0.875000 0.750000
s 0
f 90/130/88 91/131/88 93/132/88 92/133/88
f 92/133/89 93/132/89 97/134/89 96/135/89
f 96/135/90 97/134/90 95/136/90 94/137/90
f 94/137/91 95/136/91 91/138/91 90/139/91
f 92/140/92 96/135/92 94/137/92 90/141/92
f 97/134/93 93/142/93 91/143/93 95/136/93
o CoffeeMachine046_Lid001_Collider2
v -0.075880 -0.079228 0.164154
v -0.075880 -0.079228 0.168039
v -0.075880 0.005237 0.164154
v -0.075880 0.005237 0.168039
v 0.079674 -0.079228 0.164154
v 0.079674 -0.079228 0.168039
v 0.079674 0.005237 0.164154
v 0.079674 0.005237 0.168039
vn -1.0000 -0.0000 -0.0000
vn -0.0000 1.0000 -0.0000
vn 1.0000 -0.0000 -0.0000
vn -0.0000 -1.0000 -0.0000
vn -0.0000 -0.0000 -1.0000
vn -0.0000 -0.0000 1.0000
vt 0.375000 0.000000
vt 0.625000 0.000000
vt 0.625000 0.250000
vt 0.375000 0.250000
vt 0.625000 0.500000
vt 0.375000 0.500000
vt 0.625000 0.750000
vt 0.375000 0.750000
vt 0.625000 1.000000
vt 0.375000 1.000000
vt 0.125000 0.500000
vt 0.125000 0.750000
vt 0.875000 0.500000
vt 0.875000 0.750000
s 0
f 98/144/94 99/145/94 101/146/94 100/147/94
f 100/147/95 101/146/95 105/148/95 104/149/95
f 104/149/96 105/148/96 103/150/96 102/151/96
f 102/151/97 103/150/97 99/152/97 98/153/97
f 100/154/98 104/149/98 102/151/98 98/155/98
f 105/148/99 101/156/99 99/157/99 103/150/99
o CoffeeMachine046_Lid001_Collider3
v -0.060629 -0.094128 0.164154
v -0.060629 -0.094128 0.168039
v -0.060629 -0.071948 0.164154
v -0.060629 -0.071948 0.168039
v 0.064423 -0.094128 0.164154
v 0.064423 -0.094128 0.168039
v 0.064423 -0.071948 0.164154
v 0.064423 -0.071948 0.168039
vn -1.0000 -0.0000 -0.0000
vn -0.0000 1.0000 -0.0000
vn 1.0000 -0.0000 -0.0000
vn -0.0000 -1.0000 -0.0000
vn -0.0000 -0.0000 -1.0000
vn -0.0000 -0.0000 1.0000
vt 0.375000 0.000000
vt 0.625000 0.000000
vt 0.625000 0.250000
vt 0.375000 0.250000
vt 0.625000 0.500000
vt 0.375000 0.500000
vt 0.625000 0.750000
vt 0.375000 0.750000
vt 0.625000 1.000000
vt 0.375000 1.000000
vt 0.125000 0.500000
vt 0.125000 0.750000
vt 0.875000 0.500000
vt 0.875000 0.750000
s 0
f 106/158/100 107/159/100 109/160/100 108/161/100
f 108/161/101 109/160/101 113/162/101 112/163/101
f 112/163/102 113/162/102 111/164/102 110/165/102
f 110/165/103 111/164/103 107/166/103 106/167/103
f 108/168/104 112/163/104 110/165/104 106/169/104
f 113/162/105 109/170/105 107/171/105 111/164/105
o CoffeeMachine046_Lid001_Collider4
v -0.038582 0.003631 0.164154
v -0.038582 0.003631 0.168039
v -0.038582 0.033811 0.164154
v -0.038582 0.033811 0.168039
v 0.042376 0.003631 0.164154
v 0.042376 0.003631 0.168039
v 0.042376 0.033811 0.164154
v 0.042376 0.033811 0.168039
vn -1.0000 -0.0000 -0.0000
vn -0.0000 1.0000 -0.0000
vn 1.0000 -0.0000 -0.0000
vn -0.0000 -1.0000 -0.0000
vn -0.0000 -0.0000 -1.0000
vn -0.0000 -0.0000 1.0000
vt 0.375000 0.000000
vt 0.625000 0.000000
vt 0.625000 0.250000
vt 0.375000 0.250000
vt 0.625000 0.500000
vt 0.375000 0.500000
vt 0.625000 0.750000
vt 0.375000 0.750000
vt 0.625000 1.000000
vt 0.375000 1.000000
vt 0.125000 0.500000
vt 0.125000 0.750000
vt 0.875000 0.500000
vt 0.875000 0.750000
s 0
f 114/172/106 115/173/106 117/174/106 116/175/106
f 116/175/107 117/174/107 121/176/107 120/177/107
f 120/177/108 121/176/108 119/178/108 118/179/108
f 118/179/109 119/178/109 115/180/109 114/181/109
f 116/182/110 120/177/110 118/179/110 114/183/110
f 121/176/111 117/184/111 115/185/111 119/178/111
o CoffeeMachine046_Body001_Collider22
v -0.162055 -0.095854 -0.231447
v -0.162055 -0.095854 -0.171894
v -0.162055 0.089378 -0.231447
v -0.162055 0.089378 -0.171894
v 0.165849 -0.095854 -0.231447
v 0.165849 -0.095854 -0.171894
v 0.165849 0.089378 -0.231447
v 0.165849 0.089378 -0.171894
vn -1.0000 -0.0000 -0.0000
vn -0.0000 1.0000 -0.0000
vn 1.0000 -0.0000 -0.0000
vn -0.0000 -1.0000 -0.0000
vn -0.0000 -0.0000 -1.0000
vn -0.0000 -0.0000 1.0000
vt 0.375000 0.000000
vt 0.625000 0.000000
vt 0.625000 0.250000
vt 0.375000 0.250000
vt 0.625000 0.500000
vt 0.375000 0.500000
vt 0.625000 0.750000
vt 0.375000 0.750000
vt 0.625000 1.000000
vt 0.375000 1.000000
vt 0.125000 0.500000
vt 0.125000 0.750000
vt 0.875000 0.500000
vt 0.875000 0.750000
s 0
f 122/186/112 123/187/112 125/188/112 124/189/112
f 124/189/113 125/188/113 129/190/113 128/191/113
f 128/191/114 129/190/114 127/192/114 126/193/114
f 126/193/115 127/192/115 123/194/115 122/195/115
f 124/196/116 128/191/116 126/193/116 122/197/116
f 129/190/117 125/198/117 123/199/117 127/192/117
o CoffeeMachine046_Body001_Collider23
v -0.103895 -0.168335 -0.231447
v -0.103895 -0.168335 -0.171894
v -0.103895 -0.031353 -0.231447
v -0.103895 -0.031353 -0.171894
v 0.107689 -0.168335 -0.231447
v 0.107689 -0.168335 -0.171894
v 0.107689 -0.031353 -0.231447
v 0.107689 -0.031353 -0.171894
vn -1.0000 -0.0000 -0.0000
vn -0.0000 1.0000 -0.0000
vn 1.0000 -0.0000 -0.0000
vn -0.0000 -1.0000 -0.0000
vn -0.0000 -0.0000 -1.0000
vn -0.0000 -0.0000 1.0000
vt 0.375000 0.000000
vt 0.625000 0.000000
vt 0.625000 0.250000
vt 0.375000 0.250000
vt 0.625000 0.500000
vt 0.375000 0.500000
vt 0.625000 0.750000
vt 0.375000 0.750000
vt 0.625000 1.000000
vt 0.375000 1.000000
vt 0.125000 0.500000
vt 0.125000 0.750000
vt 0.875000 0.500000
vt 0.875000 0.750000
s 0
f 130/200/118 131/201/118 133/202/118 132/203/118
f 132/203/119 133/202/119 137/204/119 136/205/119
f 136/205/120 137/204/120 135/206/120 134/207/120
f 134/207/121 135/206/121 131/208/121 130/209/121
f 132/210/122 136/205/122 134/207/122 130/211/122
f 137/204/123 133/212/123 131/213/123 135/206/123
o CoffeeMachine046_Body001_Collider3
v -0.126697 0.086630 -0.231447
v -0.126697 0.086630 0.160050
v -0.126697 0.151757 -0.231447
v -0.126697 0.151757 0.160050
v 0.130491 0.086630 -0.231447
v 0.130491 0.086630 0.160050
v 0.130491 0.151757 -0.231447
v 0.130491 0.151757 0.160050
vn -1.0000 -0.0000 -0.0000
vn -0.0000 1.0000 -0.0000
vn 1.0000 -0.0000 -0.0000
vn -0.0000 -1.0000 -0.0000
vn -0.0000 -0.0000 -1.0000
vn -0.0000 -0.0000 1.0000
vt 0.375000 0.000000
vt 0.625000 0.000000
vt 0.625000 0.250000
vt 0.375000 0.250000
vt 0.625000 0.500000
vt 0.375000 0.500000
vt 0.625000 0.750000
vt 0.375000 0.750000
vt 0.625000 1.000000
vt 0.375000 1.000000
vt 0.125000 0.500000
vt 0.125000 0.750000
vt 0.875000 0.500000
vt 0.875000 0.750000
s 0
f 138/214/124 139/215/124 141/216/124 140/217/124
f 140/217/125 141/216/125 145/218/125 144/219/125
f 144/219/126 145/218/126 143/220/126 142/221/126
f 142/221/127 143/220/127 139/222/127 138/223/127
f 140/224/128 144/219/128 142/221/128 138/225/128
f 145/218/129 141/226/129 139/227/129 143/220/129
o CoffeeMachine046_Body001_Collider4
v -0.071402 0.131174 -0.231447
v -0.071402 0.131174 0.160050
v -0.071402 0.196301 -0.231447
v -0.071402 0.196301 0.160050
v 0.075196 0.131174 -0.231447
v 0.075196 0.131174 0.160050
v 0.075196 0.196301 -0.231447
v 0.075196 0.196301 0.160050
vn -1.0000 -0.0000 -0.0000
vn -0.0000 1.0000 -0.0000
vn 1.0000 -0.0000 -0.0000
vn -0.0000 -1.0000 -0.0000
vn -0.0000 -0.0000 -1.0000
vn -0.0000 -0.0000 1.0000
vt 0.375000 0.000000
vt 0.625000 0.000000
vt 0.625000 0.250000
vt 0.375000 0.250000
vt 0.625000 0.500000
vt 0.375000 0.500000
vt 0.625000 0.750000
vt 0.375000 0.750000
vt 0.625000 1.000000
vt 0.375000 1.000000
vt 0.125000 0.500000
vt 0.125000 0.750000
vt 0.875000 0.500000
vt 0.875000 0.750000
s 0
f 146/228/130 147/229/130 149/230/130 148/231/130
f 148/231/131 149/230/131 153/232/131 152/233/131
f 152/233/132 153/232/132 151/234/132 150/235/132
f 150/235/133 151/234/133 147/236/133 146/237/133
f 148/238/134 152/233/134 150/235/134 146/239/134
f 153/232/135 149/240/135 147/241/135 151/234/135
o CoffeeMachine046_Body001_Collider5
v -0.078835 0.010386 -0.189800
v -0.078835 0.010386 0.014673
v -0.078835 0.089568 -0.189800
v -0.078835 0.089568 0.014673
v 0.082629 0.010386 -0.189800
v 0.082629 0.010386 0.014673
v 0.082629 0.089568 -0.189800
v 0.082629 0.089568 0.014673
vn -1.0000 -0.0000 -0.0000
vn -0.0000 1.0000 -0.0000
vn 1.0000 -0.0000 -0.0000
vn -0.0000 -1.0000 -0.0000
vn -0.0000 -0.0000 -1.0000
vn -0.0000 -0.0000 1.0000
vt 0.375000 0.000000
vt 0.625000 0.000000
vt 0.625000 0.250000
vt 0.375000 0.250000
vt 0.625000 0.500000
vt 0.375000 0.500000
vt 0.625000 0.750000
vt 0.375000 0.750000
vt 0.625000 1.000000
vt 0.375000 1.000000
vt 0.125000 0.500000
vt 0.125000 0.750000
vt 0.875000 0.500000
vt 0.875000 0.750000
s 0
f 154/242/136 155/243/136 157/244/136 156/245/136
f 156/245/137 157/244/137 161/246/137 160/247/137
f 160/247/138 161/246/138 159/248/138 158/249/138
f 158/249/139 159/248/139 155/250/139 154/251/139
f 156/252/140 160/247/140 158/249/140 154/253/140
f 161/246/141 157/254/141 155/255/141 159/248/141
o CoffeeMachine046_Body001_Collider6
v -0.136606 -0.095854 0.018234
v -0.136606 -0.095854 0.162889
v -0.136606 0.089378 0.018234
v -0.136606 0.089378 0.162889
v 0.140400 -0.095854 0.018234
v 0.140400 -0.095854 0.162889
v 0.140400 0.089378 0.018234
v 0.140400 0.089378 0.162889
vn -1.0000 -0.0000 -0.0000
vn -0.0000 1.0000 -0.0000
vn 1.0000 -0.0000 -0.0000
vn -0.0000 -1.0000 -0.0000
vn -0.0000 -0.0000 -1.0000
vn -0.0000 -0.0000 1.0000
vt 0.375000 0.000000
vt 0.625000 0.000000
vt 0.625000 0.250000
vt 0.375000 0.250000
vt 0.625000 0.500000
vt 0.375000 0.500000
vt 0.625000 0.750000
vt 0.375000 0.750000
vt 0.625000 1.000000
vt 0.375000 1.000000
vt 0.125000 0.500000
vt 0.125000 0.750000
vt 0.875000 0.500000
vt 0.875000 0.750000
s 0
f 162/256/142 163/257/142 165/258/142 164/259/142
f 164/259/143 165/258/143 169/260/143 168/261/143
f 168/261/144 169/260/144 167/262/144 166/263/144
f 166/263/145 167/262/145 163/264/145 162/265/145
f 164/266/146 168/261/146 166/263/146 162/267/146
f 169/260/147 165/268/147 163/269/147 167/262/147
o CoffeeMachine046_Body001_Collider7
v -0.080913 -0.144265 0.018234
v -0.080913 -0.144265 0.162889
v -0.080913 -0.031353 0.018234
v -0.080913 -0.031353 0.162889
v 0.084707 -0.144265 0.018234
v 0.084707 -0.144265 0.162889
v 0.084707 -0.031353 0.018234
v 0.084707 -0.031353 0.162889
vn -1.0000 -0.0000 -0.0000
vn -0.0000 1.0000 -0.0000
vn 1.0000 -0.0000 -0.0000
vn -0.0000 -1.0000 -0.0000
vn -0.0000 -0.0000 -1.0000
vn -0.0000 -0.0000 1.0000
vt 0.375000 0.000000
vt 0.625000 0.000000
vt 0.625000 0.250000
vt 0.375000 0.250000
vt 0.625000 0.500000
vt 0.375000 0.500000
vt 0.625000 0.750000
vt 0.375000 0.750000
vt 0.625000 1.000000
vt 0.375000 1.000000
vt 0.125000 0.500000
vt 0.125000 0.750000
vt 0.875000 0.500000
vt 0.875000 0.750000
s 0
f 170/270/148 171/271/148 173/272/148 172/273/148
f 172/273/149 173/272/149 177/274/149 176/275/149
f 176/275/150 177/274/150 175/276/150 174/277/150
f 174/277/151 175/276/151 171/278/151 170/279/151
f 172/280/152 176/275/152 174/277/152 170/281/152
f 177/274/153 173/282/153 171/283/153 175/276/153
o CoffeeMachine046_Body001_Collider8
v 0.104074 -0.071090 0.194866
v 0.104074 -0.071090 0.203912
v 0.104074 -0.008217 0.194866
v 0.104074 -0.008217 0.203912
v 0.113120 -0.071090 0.194866
v 0.113120 -0.071090 0.203912
v 0.113120 -0.008217 0.194866
v 0.113120 -0.008217 0.203912
vn -1.0000 -0.0000 -0.0000
vn -0.0000 1.0000 -0.0000
vn 1.0000 -0.0000 -0.0000
vn -0.0000 -1.0000 -0.0000
vn -0.0000 -0.0000 -1.0000
vn -0.0000 -0.0000 1.0000
vt 0.375000 0.000000
vt 0.625000 0.000000
vt 0.625000 0.250000
vt 0.375000 0.250000
vt 0.625000 0.500000
vt 0.375000 0.500000
vt 0.625000 0.750000
vt 0.375000 0.750000
vt 0.625000 1.000000
vt 0.375000 1.000000
vt 0.125000 0.500000
vt 0.125000 0.750000
vt 0.875000 0.500000
vt 0.875000 0.750000
s 0
f 178/284/154 179/285/154 181/286/154 180/287/154
f 180/287/155 181/286/155 185/288/155 184/289/155
f 184/289/156 185/288/156 183/290/156 182/291/156
f 182/291/157 183/290/157 179/292/157 178/293/157
f 180/294/158 184/289/158 182/291/158 178/295/158
f 185/288/159 181/296/159 179/297/159 183/290/159
o CoffeeMachine046_Body001_Collider13
v 0.028810 0.069573 0.167952
v 0.028810 0.060526 0.167952
v 0.028810 0.069573 0.200062
v 0.028810 0.060526 0.200062
v 0.037856 0.069573 0.167952
v 0.037856 0.060526 0.167952
v 0.037856 0.069573 0.200062
v 0.037856 0.060526 0.200062
vn -1.0000 -0.0000 -0.0000
vn -0.0000 -0.0000 1.0000
vn 1.0000 -0.0000 -0.0000
vn -0.0000 -0.0000 -1.0000
vn -0.0000 1.0000 -0.0000
vn -0.0000 -1.0000 -0.0000
vt 0.375000 0.000000
vt 0.625000 0.000000
vt 0.625000 0.250000
vt 0.375000 0.250000
vt 0.625000 0.500000
vt 0.375000 0.500000
vt 0.625000 0.750000
vt 0.375000 0.750000
vt 0.625000 1.000000
vt 0.375000 1.000000
vt 0.125000 0.500000
vt 0.125000 0.750000
vt 0.875000 0.500000
vt 0.875000 0.750000
s 0
f 186/298/160 187/299/160 189/300/160 188/301/160
f 188/301/161 189/300/161 193/302/161 192/303/161
f 192/303/162 193/302/162 191/304/162 190/305/162
f 190/305/163 191/304/163 187/306/163 186/307/163
f 188/308/164 192/303/164 190/305/164 186/309/164
f 193/302/165 189/310/165 187/311/165 191/304/165
o CoffeeMachine046_Body001_Collider14
v 0.028810 -0.142356 0.167952
v 0.028810 -0.151403 0.167952
v 0.028810 -0.142356 0.200062
v 0.028810 -0.151403 0.200062
v 0.037856 -0.142356 0.167952
v 0.037856 -0.151403 0.167952
v 0.037856 -0.142356 0.200062
v 0.037856 -0.151403 0.200062
vn -1.0000 -0.0000 -0.0000
vn -0.0000 -0.0000 1.0000
vn 1.0000 -0.0000 -0.0000
vn -0.0000 -0.0000 -1.0000
vn -0.0000 1.0000 -0.0000
vn -0.0000 -1.0000 -0.0000
vt 0.375000 0.000000
vt 0.625000 0.000000
vt 0.625000 0.250000
vt 0.375000 0.250000
vt 0.625000 0.500000
vt 0.375000 0.500000
vt 0.625000 0.750000
vt 0.375000 0.750000
vt 0.625000 1.000000
vt 0.375000 1.000000
vt 0.125000 0.500000
vt 0.125000 0.750000
vt 0.875000 0.500000
vt 0.875000 0.750000
s 0
f 194/312/166 195/313/166 197/314/166 196/315/166
f 196/315/167 197/314/167 201/316/167 200/317/167
f 200/317/168 201/316/168 199/318/168 198/319/168
f 198/319/169 199/318/169 195/320/169 194/321/169
f 196/322/170 200/317/170 198/319/170 194/323/170
f 201/316/171 197/324/171 195/325/171 199/318/171
o CoffeeMachine046_Body001_Collider15
v -0.096626 -0.010662 0.194866
v -0.096626 -0.010662 0.203912
v -0.096626 -0.073535 0.194866
v -0.096626 -0.073535 0.203912
v -0.105672 -0.010662 0.194866
v -0.105672 -0.010662 0.203912
v -0.105672 -0.073535 0.194866
v -0.105672 -0.073535 0.203912
vn 1.0000 -0.0000 -0.0000
vn -0.0000 -1.0000 -0.0000
vn -1.0000 -0.0000 -0.0000
vn -0.0000 1.0000 -0.0000
vn -0.0000 -0.0000 -1.0000
vn -0.0000 -0.0000 1.0000
vt 0.375000 0.000000
vt 0.625000 0.000000
vt 0.625000 0.250000
vt 0.375000 0.250000
vt 0.625000 0.500000
vt 0.375000 0.500000
vt 0.625000 0.750000
vt 0.375000 0.750000
vt 0.625000 1.000000
vt 0.375000 1.000000
vt 0.125000 0.500000
vt 0.125000 0.750000
vt 0.875000 0.500000
vt 0.875000 0.750000
s 0
f 202/326/172 203/327/172 205/328/172 204/329/172
f 204/329/173 205/328/173 209/330/173 208/331/173
f 208/331/174 209/330/174 207/332/174 206/333/174
f 206/333/175 207/332/175 203/334/175 202/335/175
f 204/336/176 208/331/176 206/333/176 202/337/176
f 209/330/177 205/338/177 203/339/177 207/332/177
o CoffeeMachine046_Body001_Collider20
v -0.021361 -0.151325 0.167952
v -0.021361 -0.142278 0.167952
v -0.021361 -0.151325 0.200062
v -0.021361 -0.142278 0.200062
v -0.030408 -0.151325 0.167952
v -0.030408 -0.142278 0.167952
v -0.030408 -0.151325 0.200062
v -0.030408 -0.142278 0.200062
vn 1.0000 -0.0000 -0.0000
vn -0.0000 -0.0000 1.0000
vn -1.0000 -0.0000 -0.0000
vn -0.0000 -0.0000 -1.0000
vn -0.0000 -1.0000 -0.0000
vn -0.0000 1.0000 -0.0000
vt 0.375000 0.000000
vt 0.625000 0.000000
vt 0.625000 0.250000
vt 0.375000 0.250000
vt 0.625000 0.500000
vt 0.375000 0.500000
vt 0.625000 0.750000
vt 0.375000 0.750000
vt 0.625000 1.000000
vt 0.375000 1.000000
vt 0.125000 0.500000
vt 0.125000 0.750000
vt 0.875000 0.500000
vt 0.875000 0.750000
s 0
f 210/340/178 211/341/178 213/342/178 212/343/178
f 212/343/179 213/342/179 217/344/179 216/345/179
f 216/345/180 217/344/180 215/346/180 214/347/180
f 214/347/181 215/346/181 211/348/181 210/349/181
f 212/350/182 216/345/182 214/347/182 210/351/182
f 217/344/183 213/352/183 211/353/183 215/346/183
o CoffeeMachine046_Body001_Collider21
v -0.021361 0.060604 0.167952
v -0.021361 0.069651 0.167952
v -0.021361 0.060604 0.200062
v -0.021361 0.069651 0.200062
v -0.030408 0.060604 0.167952
v -0.030408 0.069651 0.167952
v -0.030408 0.060604 0.200062
v -0.030408 0.069651 0.200062
vn 1.0000 -0.0000 -0.0000
vn -0.0000 -0.0000 1.0000
vn -1.0000 -0.0000 -0.0000
vn -0.0000 -0.0000 -1.0000
vn -0.0000 -1.0000 -0.0000
vn -0.0000 1.0000 -0.0000
vt 0.375000 0.000000
vt 0.625000 0.000000
vt 0.625000 0.250000
vt 0.375000 0.250000
vt 0.625000 0.500000
vt 0.375000 0.500000
vt 0.625000 0.750000
vt 0.375000 0.750000
vt 0.625000 1.000000
vt 0.375000 1.000000
vt 0.125000 0.500000
vt 0.125000 0.750000
vt 0.875000 0.500000
vt 0.875000 0.750000
s 0
f 218/354/184 219/355/184 221/356/184 220/357/184
f 220/357/185 221/356/185 225/358/185 224/359/185
f 224/359/186 225/358/186 223/360/186 222/361/186
f 222/361/187 223/360/187 219/362/187 218/363/187
f 220/364/188 224/359/188 222/361/188 218/365/188
f 225/358/189 221/366/189 219/367/189 223/360/189
