# Blender 4.0.0
# www.blender.org
o CoffeeMachine046_Button002
v -0.10877800 -0.11338800 0.15060600
v -0.10630300 -0.11577200 0.14917600
v -0.10441100 -0.11759600 0.14653900
v -0.10339100 -0.11858200 0.14309800
v -0.10339800 -0.11858100 0.13937500
v -0.10443000 -0.11759200 0.13593800
v -0.10633200 -0.11576600 0.13331000
v -0.10881200 -0.11338000 0.13189100
v -0.11015400 -0.11209000 0.13171100
v -0.10937400 -0.11380300 0.15060600
v -0.10800000 -0.11695300 0.14917800
v -0.10695100 -0.11936400 0.14654300
v -0.10638700 -0.12066900 0.14310200
v -0.10639400 -0.12066700 0.13938000
v -0.10697000 -0.11936000 0.13594200
v -0.10802900 -0.11694700 0.13331300
v -0.10940800 -0.11379500 0.13189200
v -0.11008300 -0.11395800 0.15060800
v -0.11002000 -0.11739600 0.14918200
v -0.10997400 -0.12002600 0.14654800
v -0.10995300 -0.12144900 0.14310900
v -0.10996000 -0.12144800 0.13938600
v -0.10999400 -0.12002200 0.13594800
v -0.11004900 -0.11739000 0.13331700
v -0.11011800 -0.11395100 0.13189400
v -0.11079800 -0.11383000 0.15060900
v -0.11205600 -0.11703100 0.14918600
v -0.11302100 -0.11948100 0.14655400
v -0.11354700 -0.12080600 0.14311600
v -0.11355400 -0.12080500 0.13939300
v -0.11304100 -0.11947700 0.13595400
v -0.11208500 -0.11702500 0.13332100
v -0.11083300 -0.11382300 0.13189500
v -0.11011900 -0.11209700 0.15079200
v -0.11141000 -0.11343800 0.15061000
v -0.11379700 -0.11591600 0.14918900
v -0.11562700 -0.11781100 0.14656000
v -0.11662100 -0.11883600 0.14312200
v -0.11662800 -0.11883500 0.13940000
v -0.11564700 -0.11780700 0.13595900
v -0.11382600 -0.11590900 0.13332400
v -0.11144400 -0.11343100 0.13189600
v -0.11182500 -0.11284200 0.15061100
v -0.11497900 -0.11421800 0.14919200
v -0.11739600 -0.11527100 0.14656400
v -0.11870700 -0.11584000 0.14312700
v -0.11871400 -0.11583900 0.13940500
v -0.11741500 -0.11526700 0.13596300
v -0.11500800 -0.11421200 0.13332700
v -0.11185900 -0.11283500 0.13189700
v -0.11198000 -0.11213300 0.15061200
v -0.11542100 -0.11219800 0.14919400
v -0.11805800 -0.11224800 0.14656600
v -0.11948800 -0.11227400 0.14313000
v -0.11949500 -0.11227200 0.13940700
v -0.11807700 -0.11224400 0.13596600
v -0.11545000 -0.11219200 0.13332900
v -0.11201400 -0.11212500 0.13189800
v -0.11185200 -0.11141800 0.15061200
v -0.11505700 -0.11016200 0.14919400
v -0.11751200 -0.10920100 0.14656700
v -0.11884500 -0.10868000 0.14313000
v -0.11885200 -0.10867800 0.13940800
v -0.11753200 -0.10919700 0.13596600
v -0.11508600 -0.11015600 0.13332900
v -0.11188600 -0.11141100 0.13189800
v -0.11146000 -0.11080600 0.15061100
v -0.11394100 -0.10842100 0.14919200
v -0.11584200 -0.10659500 0.14656400
v -0.11687500 -0.10560600 0.14312800
v -0.11688200 -0.10560400 0.13940500
v -0.11586200 -0.10659100 0.13596400
v -0.11397000 -0.10841500 0.13332700
v -0.11149500 -0.11079900 0.13189700
v -0.11220600 -0.10910100 0.15007100
v -0.11397900 -0.10656000 0.14800700
v -0.11516600 -0.10486100 0.14491500
v -0.11558800 -0.10426400 0.14126500
v -0.11518000 -0.10485900 0.13761300
v -0.11400400 -0.10655500 0.13451500
v -0.11223900 -0.10909400 0.13244200
vn 0.0253 -0.8442 0.5354
vn 0.3444 -0.7749 0.5300
vn 0.0207 -0.5808 0.8138
vn 0.2335 -0.5276 0.8168
vn 0.3457 -0.4946 0.7974
vn 0.1412 -0.2869 0.9475
vn 0.1790 -0.2550 0.9502
vn 0.0080 -0.3283 0.9446
vn -0.0208 -0.0147 0.9997
vn 0.2235 -0.5389 -0.8122
vn 0.3388 -0.4884 -0.8041
vn 0.3296 -0.7767 -0.5367
vn 0.4837 -0.6959 -0.5308
vn 0.4832 -0.6927 0.5355
vn 0.3901 -0.9014 -0.1881
vn 0.5610 -0.8061 -0.1884
vn 0.3965 -0.8990 0.1859
vn 0.5624 -0.8073 0.1788
vn 0.1137 -0.2966 -0.9482
vn 0.1889 -0.2735 -0.9431
vn -0.3590 -0.9152 -0.1832
vn 0.0154 -0.9822 -0.1874
vn -0.3552 -0.9158 0.1873
vn 0.0223 -0.9822 0.1866
vn 0.0071 -0.8441 -0.5361
vn -0.0000 -0.5839 -0.8118
vn -0.0088 -0.3182 -0.9480
vn -0.2996 -0.7892 0.5361
vn -0.0245 -0.0139 -0.9996
vn -0.2053 -0.5467 0.8118
vn -0.1267 -0.2920 0.9480
vn -0.3117 -0.7824 -0.5391
vn -0.6792 -0.7100 -0.1860
vn -0.6786 -0.7101 0.1880
vn -0.2237 -0.5400 -0.8114
vn -0.5786 -0.6142 0.5366
vn -0.4000 -0.4297 0.8096
vn -0.2096 -0.2200 0.9527
vn -0.1301 -0.2913 -0.9477
vn -0.8999 -0.3929 -0.1891
vn -0.8986 -0.3962 0.1885
vn -0.4136 -0.4139 -0.8110
vn -0.5859 -0.6087 -0.5350
vn -0.5299 -0.2431 0.8124
vn -0.2848 -0.1399 0.9483
vn -0.7695 -0.3456 0.5371
vn -0.2320 -0.2199 -0.9475
vn -0.9826 -0.0156 -0.1852
vn -0.9818 -0.0221 0.1888
vn -0.5407 -0.2247 -0.8107
vn -0.7781 -0.3354 -0.5311
vn -0.5898 -0.0130 0.8074
vn -0.3163 -0.0196 0.9484
vn -0.2988 -0.1151 -0.9474
vn -0.8401 -0.0207 0.5420
vn -0.8453 -0.0079 -0.5343
vn -0.9138 0.3614 -0.1852
vn -0.9154 0.3555 0.1889
vn -0.5857 -0.0012 -0.8105
vn -0.5354 0.2084 0.8185
vn -0.2995 0.1036 0.9485
vn -0.3203 0.0074 -0.9473
vn -0.7897 0.3048 0.5325
vn -0.7883 0.3137 -0.5293
vn -0.7699 0.6113 -0.1832
vn -0.7699 0.6090 0.1910
vn -0.6594 0.5243 0.5388
vn -0.5373 0.2119 -0.8164
vn -0.4463 0.3728 0.8135
vn -0.1402 0.2447 0.9594
vn -0.2934 0.1288 -0.9473
vn -0.6499 0.7600 0.0015
vn -0.4911 0.5285 0.6924
vn -0.6571 0.5252 -0.5408
vn -0.3551 0.2172 0.9093
vn -0.0980 0.2526 -0.9626
vn -0.4519 0.3772 -0.8084
vn -0.6071 0.7018 0.3727
vn -0.4937 0.5291 -0.6902
vn -0.6085 0.7021 -0.3699
vn -0.3585 0.2179 -0.9078
vt 0.955662 0.236579
vt 0.952148 0.236576
vt 0.954499 0.233531
vt 0.952151 0.233529
vt 0.991530 0.268303
vt 0.993912 0.268096
vt 0.992524 0.271931
vt 0.993361 0.271858
vt 0.989403 0.269401
vt 0.991777 0.272317
vt 0.993101 0.273966
vt 0.952134 0.251893
vt 0.949786 0.251891
vt 0.952137 0.248846
vt 0.948623 0.248843
vt 0.949804 0.233527
vt 0.948635 0.236572
vt 0.952140 0.244865
vt 0.947995 0.244861
vt 0.952145 0.240557
vt 0.948000 0.240553
vt 0.959497 0.273504
vt 0.958661 0.273432
vt 0.960492 0.269876
vt 0.958109 0.269670
vt 0.959799 0.244873
vt 0.956285 0.244869
vt 0.959803 0.240564
vt 0.956289 0.240561
vt 0.955650 0.248850
vt 0.954481 0.251895
vt 0.960244 0.273890
vt 0.962619 0.270974
vt 0.958641 0.236582
vt 0.958921 0.275539
vt 0.987854 0.271224
vt 0.991233 0.272957
vt 0.958629 0.248853
vt 0.985369 0.270085
vt 0.987686 0.267357
vt 0.935961 0.244866
vt 0.932972 0.244867
vt 0.935959 0.240557
vt 0.932971 0.240558
vt 0.964167 0.272797
vt 0.966653 0.271658
vt 0.964336 0.268930
vt 0.936873 0.236576
vt 0.934340 0.236577
vt 0.987121 0.273494
vt 0.990976 0.273754
vt 0.960788 0.274530
vt 0.984271 0.273482
vt 0.939865 0.244865
vt 0.939863 0.240556
vt 0.964901 0.275067
vt 0.967750 0.275055
vt 0.987314 0.275865
vt 0.991044 0.274587
vt 0.934345 0.248848
vt 0.936878 0.248847
vt 0.940183 0.236575
vt 0.961045 0.275327
vt 0.984559 0.277032
vt 0.944091 0.244863
vt 0.944089 0.240554
vt 0.964708 0.277439
vt 0.967462 0.278605
vt 0.988403 0.277978
vt 0.991426 0.275328
vt 0.940188 0.248845
vt 0.960978 0.276160
vt 0.943766 0.236573
vt 0.943771 0.248844
vt 0.943170 0.233527
vt 0.940777 0.233527
vt 0.947995 0.244861
vt 0.947994 0.240552
vt 0.943178 0.251891
vt 0.940784 0.251892
vt 0.990224 0.279509
vt 0.992066 0.275866
vt 0.960595 0.276901
vt 0.963618 0.279551
vt 0.947076 0.236572
vt 0.947081 0.248842
vt 0.959803 0.236646
vt 0.962335 0.233527
vt 0.962750 0.237411
vt 0.964304 0.234038
vt 0.965177 0.246374
vt 0.961069 0.245693
vt 0.965722 0.242184
vt 0.961614 0.241504
vt 0.966232 0.237988
vt 0.961797 0.281082
vt 0.963106 0.284058
vt 0.965831 0.281766
vt 0.992499 0.280226
vt 0.992864 0.276118
vt 0.959956 0.277439
vt 0.966631 0.234423
vt 0.967586 0.244548
vt 0.967962 0.236250
vt 0.964680 0.249918
vt 0.961197 0.249342
vt 0.993488 0.278241
vt 0.959157 0.277691
vt 0.959522 0.281799
vt 0.967962 0.240255
vt 0.959701 0.285131
vt 0.993912 0.282042
vt 0.958109 0.283615
vt 0.966892 0.248474
vt 0.958533 0.279814
vt 0.965986 0.251435
s 1
f 20/1/1 12/2/2 19/3/3
f 19/3/3 12/2/2 11/4/4
f 11/5/4 2/6/5 10/7/6
f 10/7/6 2/6/5 1/8/7
f 19/9/3 11/5/4 18/10/8
f 18/10/8 11/5/4 10/7/6
f 1/8/7 34/11/9 10/7/6
f 16/12/10 7/13/11 15/14/12
f 15/14/12 7/13/11 6/15/13
f 11/4/4 12/2/2 2/16/5
f 2/16/5 12/2/2 3/17/14
f 15/14/12 6/15/13 14/18/15
f 14/18/15 6/15/13 5/19/16
f 13/20/17 4/21/18 12/2/2
f 12/2/2 4/21/18 3/17/14
f 5/19/16 4/21/18 14/18/15
f 14/18/15 4/21/18 13/20/17
f 17/22/19 8/23/20 16/24/10
f 16/24/10 8/23/20 7/25/11
f 30/26/21 22/27/22 29/28/23
f 29/28/23 22/27/22 21/29/24
f 23/30/25 15/14/12 22/27/22
f 22/27/22 15/14/12 14/18/15
f 24/31/26 16/12/10 23/30/25
f 23/30/25 16/12/10 15/14/12
f 14/18/15 13/20/17 22/27/22
f 22/27/22 13/20/17 21/29/24
f 21/29/24 13/20/17 20/1/1
f 20/1/1 13/20/17 12/2/2
f 25/32/27 17/22/19 24/33/26
f 24/33/26 17/22/19 16/24/10
f 29/28/23 21/29/24 28/34/28
f 28/34/28 21/29/24 20/1/1
f 9/35/29 8/23/20 17/22/19
f 10/7/6 34/11/9 18/10/8
f 19/9/3 18/10/8 27/36/30
f 27/36/30 18/10/8 26/37/31
f 31/38/32 23/30/25 30/26/21
f 30/26/21 23/30/25 22/27/22
f 28/39/28 20/40/1 27/36/30
f 27/36/30 20/40/1 19/9/3
f 39/41/33 30/42/21 38/43/34
f 38/43/34 30/42/21 29/44/23
f 32/45/35 24/33/26 31/46/32
f 31/46/32 24/33/26 23/47/25
f 38/43/34 29/44/23 37/48/36
f 37/48/36 29/44/23 28/49/28
f 9/35/29 17/22/19 25/32/27
f 18/10/8 34/11/9 26/37/31
f 27/36/30 26/37/31 36/50/37
f 36/50/37 26/37/31 35/51/38
f 33/52/39 25/32/27 32/45/35
f 32/45/35 25/32/27 24/33/26
f 37/53/36 28/39/28 36/50/37
f 36/50/37 28/39/28 27/36/30
f 47/54/40 39/41/33 46/55/41
f 46/55/41 39/41/33 38/43/34
f 41/56/42 32/45/35 40/57/43
f 40/57/43 32/45/35 31/46/32
f 26/37/31 34/11/9 35/51/38
f 9/35/29 25/32/27 33/52/39
f 44/58/44 36/50/37 43/59/45
f 43/59/45 36/50/37 35/51/38
f 31/60/32 30/42/21 40/61/43
f 40/61/43 30/42/21 39/41/33
f 46/55/41 38/43/34 45/62/46
f 45/62/46 38/43/34 37/48/36
f 42/63/47 33/52/39 41/56/42
f 41/56/42 33/52/39 32/45/35
f 45/64/46 37/53/36 44/58/44
f 44/58/44 37/53/36 36/50/37
f 55/65/48 47/54/40 54/66/49
f 54/66/49 47/54/40 46/55/41
f 49/67/50 41/56/42 48/68/51
f 48/68/51 41/56/42 40/57/43
f 35/51/38 34/11/9 43/59/45
f 52/69/52 44/58/44 51/70/53
f 51/70/53 44/58/44 43/59/45
f 40/61/43 39/41/33 48/71/51
f 48/71/51 39/41/33 47/54/40
f 9/35/29 33/52/39 42/63/47
f 50/72/54 42/63/47 49/67/50
f 49/67/50 42/63/47 41/56/42
f 54/66/49 46/55/41 53/73/55
f 53/73/55 46/55/41 45/62/46
f 56/74/56 48/71/51 55/65/48
f 55/65/48 48/71/51 47/54/40
f 53/73/55 45/62/46 52/75/52
f 52/75/52 45/62/46 44/76/44
f 63/77/57 55/65/48 62/78/58
f 62/78/58 55/65/48 54/66/49
f 57/79/59 49/80/50 56/74/56
f 56/74/56 49/80/50 48/71/51
f 60/81/60 52/69/52 59/82/61
f 59/82/61 52/69/52 51/70/53
f 9/35/29 42/63/47 50/72/54
f 58/83/62 50/72/54 57/84/59
f 57/84/59 50/72/54 49/67/50
f 62/78/58 54/66/49 61/85/63
f 61/85/63 54/66/49 53/73/55
f 43/59/45 34/11/9 51/70/53
f 64/86/64 56/74/56 63/77/57
f 63/77/57 56/74/56 55/65/48
f 53/87/55 52/88/52 61/89/63
f 61/89/63 52/88/52 60/90/60
f 71/91/65 63/92/57 70/93/66
f 70/93/66 63/92/57 62/94/58
f 70/93/66 62/94/58 69/95/67
f 69/95/67 62/94/58 61/89/63
f 65/96/68 57/84/59 64/97/64
f 64/97/64 57/84/59 56/98/56
f 9/35/29 50/72/54 58/83/62
f 68/99/69 60/81/60 67/100/70
f 67/100/70 60/81/60 59/82/61
f 66/101/71 58/83/62 65/96/68
f 65/96/68 58/83/62 57/84/59
f 51/70/53 34/11/9 59/82/61
f 69/95/67 61/89/63 68/102/69
f 68/102/69 61/89/63 60/90/60
f 70/93/66 78/103/72 71/91/65
f 68/102/69 76/104/73 69/95/67
f 72/105/74 64/106/64 71/91/65
f 71/91/65 64/106/64 63/92/57
f 66/101/71 9/35/29 58/83/62
f 67/100/70 75/107/75 68/99/69
f 74/108/76 66/101/71 73/109/77
f 73/109/77 66/101/71 65/96/68
f 69/95/67 77/110/78 70/93/66
f 65/96/68 64/97/64 73/109/77
f 73/109/77 64/97/64 72/111/74
f 34/11/9 67/100/70 59/82/61
f 75/107/75 76/112/73 68/99/69
f 80/113/79 73/109/77 72/111/74
f 71/91/65 79/114/80 72/105/74
f 77/110/78 78/103/72 70/93/66
f 73/109/77 81/115/81 74/108/76
f 76/104/73 77/110/78 69/95/67
f 74/108/76 9/35/29 66/101/71
f 71/91/65 78/103/72 79/114/80
f 67/100/70 34/11/9 75/107/75
f 80/113/79 81/115/81 73/109/77
f 79/114/80 80/116/79 72/105/74
f 9/35/29 74/108/76 81/115/81
