# Blender 4.0.0
# www.blender.org
o CoffeeMachine046_Button001
v -0.10876800 -0.11345500 0.07284200
v -0.10629300 -0.11583900 0.07141200
v -0.10440100 -0.11766300 0.06877600
v -0.10338100 -0.11864900 0.06533400
v -0.10338800 -0.11864800 0.06161200
v -0.10442100 -0.11765900 0.05817500
v -0.10632200 -0.11583300 0.05554700
v -0.10880300 -0.11344700 0.05412800
v -0.11014400 -0.11215700 0.05394800
v -0.10936400 -0.11387000 0.07284300
v -0.10799000 -0.11702000 0.07141500
v -0.10694100 -0.11943100 0.06878000
v -0.10637700 -0.12073600 0.06533900
v -0.10638400 -0.12073400 0.06161600
v -0.10696100 -0.11942700 0.05817900
v -0.10801900 -0.11701400 0.05555000
v -0.10939900 -0.11386200 0.05412900
v -0.11007400 -0.11402500 0.07284400
v -0.11001000 -0.11746300 0.07141800
v -0.10996500 -0.12009300 0.06878500
v -0.10994400 -0.12151600 0.06534500
v -0.10995100 -0.12151500 0.06162300
v -0.10998400 -0.12008900 0.05818400
v -0.11004000 -0.11745700 0.05555300
v -0.11010800 -0.11401800 0.05413000
v -0.11078900 -0.11389700 0.07284600
v -0.11204600 -0.11709800 0.07142200
v -0.11301100 -0.11954800 0.06879100
v -0.11353700 -0.12087300 0.06535200
v -0.11354400 -0.12087200 0.06163000
v -0.11303100 -0.11954400 0.05819000
v -0.11207500 -0.11709200 0.05555700
v -0.11082300 -0.11389000 0.05413100
v -0.11010900 -0.11216400 0.07302800
v -0.11140000 -0.11350500 0.07284700
v -0.11378700 -0.11598300 0.07142600
v -0.11561700 -0.11787800 0.06879600
v -0.11661100 -0.11890300 0.06535800
v -0.11661800 -0.11890200 0.06163600
v -0.11563700 -0.11787400 0.05819500
v -0.11381700 -0.11597600 0.05556100
v -0.11143400 -0.11349800 0.05413300
v -0.11181500 -0.11290900 0.07284800
v -0.11496900 -0.11428500 0.07142900
v -0.11738600 -0.11533800 0.06880000
v -0.11869800 -0.11590700 0.06536300
v -0.11870500 -0.11590600 0.06164100
v -0.11740500 -0.11533400 0.05820000
v -0.11499800 -0.11427900 0.05556300
v -0.11184900 -0.11290200 0.05413400
v -0.11197000 -0.11220000 0.07284800
v -0.11541100 -0.11226500 0.07143000
v -0.11804800 -0.11231500 0.06880300
v -0.11947900 -0.11234100 0.06536600
v -0.11948500 -0.11233900 0.06164400
v -0.11806800 -0.11231100 0.05820200
v -0.11544100 -0.11225900 0.05556500
v -0.11200500 -0.11219200 0.05413400
v -0.11184200 -0.11148500 0.07284800
v -0.11504700 -0.11022900 0.07143000
v -0.11750300 -0.10926800 0.06880300
v -0.11883500 -0.10874700 0.06536600
v -0.11884200 -0.10874500 0.06164400
v -0.11752200 -0.10926400 0.05820200
v -0.11507600 -0.11022300 0.05556500
v -0.11187700 -0.11147800 0.05413400
v -0.11145100 -0.11087300 0.07284800
v -0.11393100 -0.10848800 0.07142900
v -0.11583300 -0.10666200 0.06880100
v -0.11686500 -0.10567300 0.06536400
v -0.11687200 -0.10567100 0.06164200
v -0.11585200 -0.10665800 0.05820000
v -0.11396000 -0.10848200 0.05556400
v -0.11148500 -0.11086600 0.05413400
v -0.11219700 -0.10916800 0.07230700
v -0.11396900 -0.10662700 0.07024300
v -0.11515700 -0.10492800 0.06715100
v -0.11557800 -0.10433100 0.06350100
v -0.11517000 -0.10492600 0.05984900
v -0.11399400 -0.10662200 0.05675100
v -0.11222900 -0.10916100 0.05467900
vn 0.0253 -0.8442 0.5354
vn 0.3444 -0.7749 0.5300
vn 0.0208 -0.5808 0.8138
vn 0.2335 -0.5275 0.8168
vn 0.3457 -0.4946 0.7974
vn 0.1412 -0.2869 0.9475
vn 0.1790 -0.2550 0.9502
vn 0.0080 -0.3283 0.9445
vn -0.0208 -0.0147 0.9997
vn 0.2235 -0.5389 -0.8122
vn 0.3388 -0.4884 -0.8041
vn 0.3296 -0.7767 -0.5367
vn 0.4837 -0.6959 -0.5308
vn 0.4831 -0.6926 0.5357
vn 0.3901 -0.9013 -0.1881
vn 0.5610 -0.8062 -0.1880
vn 0.3965 -0.8990 0.1859
vn 0.5624 -0.8073 0.1788
vn 0.1137 -0.2966 -0.9482
vn 0.1889 -0.2735 -0.9431
vn -0.3590 -0.9152 -0.1832
vn 0.0154 -0.9822 -0.1874
vn -0.3553 -0.9158 0.1874
vn 0.0223 -0.9822 0.1866
vn 0.0071 -0.8441 -0.5361
vn -0.0000 -0.5839 -0.8118
vn -0.0088 -0.3182 -0.9480
vn -0.2996 -0.7892 0.5361
vn -0.0245 -0.0139 -0.9996
vn -0.2053 -0.5467 0.8118
vn -0.1266 -0.2920 0.9480
vn -0.3117 -0.7824 -0.5391
vn -0.6792 -0.7100 -0.1860
vn -0.6786 -0.7101 0.1880
vn -0.2237 -0.5400 -0.8114
vn -0.5786 -0.6142 0.5366
vn -0.4000 -0.4297 0.8096
vn -0.2096 -0.2200 0.9527
vn -0.1301 -0.2913 -0.9477
vn -0.8999 -0.3929 -0.1891
vn -0.8986 -0.3962 0.1885
vn -0.4136 -0.4139 -0.8110
vn -0.5859 -0.6087 -0.5350
vn -0.5299 -0.2431 0.8125
vn -0.2847 -0.1399 0.9483
vn -0.7695 -0.3457 0.5371
vn -0.2320 -0.2200 -0.9475
vn -0.9826 -0.0157 -0.1852
vn -0.9818 -0.0220 0.1888
vn -0.5407 -0.2247 -0.8107
vn -0.7781 -0.3354 -0.5311
vn -0.5898 -0.0130 0.8075
vn -0.3163 -0.0196 0.9484
vn -0.2988 -0.1151 -0.9474
vn -0.8401 -0.0207 0.5420
vn -0.8453 -0.0079 -0.5342
vn -0.9138 0.3614 -0.1852
vn -0.9154 0.3555 0.1888
vn -0.5857 -0.0012 -0.8105
vn -0.5352 0.2084 0.8186
vn -0.2995 0.1036 0.9485
vn -0.3203 0.0074 -0.9473
vn -0.7897 0.3048 0.5325
vn -0.7883 0.3137 -0.5293
vn -0.7699 0.6113 -0.1832
vn -0.7699 0.6090 0.1910
vn -0.6594 0.5243 0.5388
vn -0.5372 0.2119 -0.8164
vn -0.4463 0.3728 0.8135
vn -0.1402 0.2447 0.9594
vn -0.2934 0.1288 -0.9473
vn -0.6501 0.7599 0.0015
vn -0.4911 0.5285 0.6924
vn -0.6571 0.5252 -0.5408
vn -0.3551 0.2172 0.9092
vn -0.0980 0.2526 -0.9626
vn -0.4519 0.3772 -0.8084
vn -0.6071 0.7018 0.3727
vn -0.4937 0.5291 -0.6902
vn -0.6085 0.7021 -0.3699
vn -0.3584 0.2179 -0.9078
vt 0.936816 0.278355
vt 0.939927 0.276664
vt 0.939246 0.280703
vt 0.941325 0.279574
vt 0.943672 0.279338
vt 0.942750 0.283380
vt 0.943574 0.283297
vt 0.942020 0.283776
vt 0.943405 0.285441
vt 0.983248 0.273263
vt 0.981036 0.273263
vt 0.982653 0.270216
vt 0.979343 0.270216
vt 0.943439 0.276311
vt 0.982331 0.266235
vt 0.978427 0.266235
vt 0.982332 0.261927
vt 0.978427 0.261927
vt 0.982653 0.257946
vt 0.979343 0.257946
vt 0.949970 0.297388
vt 0.949134 0.297315
vt 0.950965 0.293759
vt 0.948583 0.293553
vt 0.990462 0.266235
vt 0.986558 0.266235
vt 0.990462 0.261927
vt 0.986558 0.261927
vt 0.986236 0.270216
vt 0.985641 0.273263
vt 0.986236 0.257946
vt 0.950717 0.297773
vt 0.953092 0.294857
vt 0.989546 0.257946
vt 0.949394 0.299423
vt 0.937752 0.282555
vt 0.941496 0.284426
vt 0.989546 0.270216
vt 0.934579 0.281125
vt 0.977879 0.298477
vt 0.977241 0.294572
vt 0.981838 0.298477
vt 0.981200 0.294572
vt 0.969243 0.297181
vt 0.968575 0.295488
vt 0.973042 0.295488
vt 0.972042 0.292955
vt 0.993450 0.261927
vt 0.992079 0.257946
vt 0.937069 0.284846
vt 0.941256 0.285231
vt 0.951261 0.298413
vt 0.954640 0.296680
vt 0.933558 0.284554
vt 0.977879 0.302703
vt 0.981838 0.302703
vt 0.969604 0.299393
vt 0.973583 0.298798
vt 0.937302 0.287228
vt 0.941338 0.286068
vt 0.984858 0.302381
vt 0.984858 0.298798
vt 0.951519 0.299210
vt 0.955374 0.298950
vt 0.933907 0.288120
vt 0.977241 0.306607
vt 0.981200 0.306607
vt 0.969604 0.301786
vt 0.973583 0.302381
vt 0.938416 0.289339
vt 0.941729 0.286809
vt 0.951451 0.300043
vt 0.955181 0.301322
vt 0.984317 0.305691
vt 0.973042 0.305691
vt 0.935573 0.291278
vt 0.972112 0.269921
vt 0.968549 0.269474
vt 0.972112 0.265696
vt 0.968549 0.265250
vt 0.969243 0.303998
vt 0.940240 0.290856
vt 0.942369 0.287342
vt 0.951068 0.300785
vt 0.954091 0.303434
vt 0.972710 0.261491
vt 0.969690 0.261112
vt 0.972042 0.308224
vt 0.976062 0.309595
vt 0.938303 0.293550
vt 0.976273 0.270066
vt 0.976273 0.265841
vt 0.976238 0.261614
vt 0.968575 0.305691
vt 0.942497 0.291550
vt 0.943162 0.287585
vt 0.950429 0.301323
vt 0.952270 0.304966
vt 0.976173 0.258028
vt 0.973816 0.257946
vt 0.978427 0.267944
vt 0.977729 0.259667
vt 0.976238 0.273645
vt 0.972710 0.273522
vt 0.943672 0.289648
vt 0.949630 0.301574
vt 0.949995 0.305683
vt 0.978246 0.263639
vt 0.953579 0.307941
vt 0.950175 0.309014
vt 0.943609 0.293217
vt 0.948583 0.307499
vt 0.978246 0.271927
vt 0.949006 0.303698
vt 0.977729 0.274980
s 1
f 20/1/1 12/2/2 19/3/3
f 19/3/3 12/2/2 11/4/4
f 11/4/4 2/5/5 10/6/6
f 10/6/6 2/5/5 1/7/7
f 19/3/3 11/4/4 18/8/8
f 18/8/8 11/4/4 10/6/6
f 1/7/7 34/9/9 10/6/6
f 16/10/10 7/11/11 15/12/12
f 15/12/12 7/11/11 6/13/13
f 11/4/4 12/2/2 2/5/5
f 2/5/5 12/2/2 3/14/14
f 15/12/12 6/13/13 14/15/15
f 14/15/15 6/13/13 5/16/16
f 13/17/17 4/18/18 12/19/2
f 12/19/2 4/18/18 3/20/14
f 5/16/16 4/18/18 14/15/15
f 14/15/15 4/18/18 13/17/17
f 17/21/19 8/22/20 16/23/10
f 16/23/10 8/22/20 7/24/11
f 30/25/21 22/26/22 29/27/23
f 29/27/23 22/26/22 21/28/24
f 23/29/25 15/12/12 22/26/22
f 22/26/22 15/12/12 14/15/15
f 24/30/26 16/10/10 23/29/25
f 23/29/25 16/10/10 15/12/12
f 14/15/15 13/17/17 22/26/22
f 22/26/22 13/17/17 21/28/24
f 21/28/24 13/17/17 20/31/1
f 20/31/1 13/17/17 12/19/2
f 25/32/27 17/21/19 24/33/26
f 24/33/26 17/21/19 16/23/10
f 29/27/23 21/28/24 28/34/28
f 28/34/28 21/28/24 20/31/1
f 9/35/29 8/22/20 17/21/19
f 10/6/6 34/9/9 18/8/8
f 19/3/3 18/8/8 27/36/30
f 27/36/30 18/8/8 26/37/31
f 31/38/32 23/29/25 30/25/21
f 30/25/21 23/29/25 22/26/22
f 28/39/28 20/1/1 27/36/30
f 27/36/30 20/1/1 19/3/3
f 39/40/33 30/41/21 38/42/34
f 38/42/34 30/41/21 29/43/23
f 32/44/35 24/45/26 31/46/32
f 31/46/32 24/45/26 23/47/25
f 38/48/34 29/27/23 37/49/36
f 37/49/36 29/27/23 28/34/28
f 9/35/29 17/21/19 25/32/27
f 18/8/8 34/9/9 26/37/31
f 27/36/30 26/37/31 36/50/37
f 36/50/37 26/37/31 35/51/38
f 33/52/39 25/32/27 32/53/35
f 32/53/35 25/32/27 24/33/26
f 37/54/36 28/39/28 36/50/37
f 36/50/37 28/39/28 27/36/30
f 47/55/40 39/40/33 46/56/41
f 46/56/41 39/40/33 38/42/34
f 41/57/42 32/44/35 40/58/43
f 40/58/43 32/44/35 31/46/32
f 26/37/31 34/9/9 35/51/38
f 9/35/29 25/32/27 33/52/39
f 44/59/44 36/50/37 43/60/45
f 43/60/45 36/50/37 35/51/38
f 31/46/32 30/41/21 40/58/43
f 40/58/43 30/41/21 39/40/33
f 46/56/41 38/42/34 45/61/46
f 45/61/46 38/42/34 37/62/36
f 42/63/47 33/52/39 41/64/42
f 41/64/42 33/52/39 32/53/35
f 45/65/46 37/54/36 44/59/44
f 44/59/44 37/54/36 36/50/37
f 55/66/48 47/55/40 54/67/49
f 54/67/49 47/55/40 46/56/41
f 49/68/50 41/57/42 48/69/51
f 48/69/51 41/57/42 40/58/43
f 35/51/38 34/9/9 43/60/45
f 52/70/52 44/59/44 51/71/53
f 51/71/53 44/59/44 43/60/45
f 40/58/43 39/40/33 48/69/51
f 48/69/51 39/40/33 47/55/40
f 9/35/29 33/52/39 42/63/47
f 50/72/54 42/63/47 49/73/50
f 49/73/50 42/63/47 41/64/42
f 54/67/49 46/56/41 53/74/55
f 53/74/55 46/56/41 45/61/46
f 56/75/56 48/69/51 55/66/48
f 55/66/48 48/69/51 47/55/40
f 53/76/55 45/65/46 52/70/52
f 52/70/52 45/65/46 44/59/44
f 63/77/57 55/78/48 62/79/58
f 62/79/58 55/78/48 54/80/49
f 57/81/59 49/68/50 56/75/56
f 56/75/56 49/68/50 48/69/51
f 60/82/60 52/70/52 59/83/61
f 59/83/61 52/70/52 51/71/53
f 9/35/29 42/63/47 50/72/54
f 58/84/62 50/72/54 57/85/59
f 57/85/59 50/72/54 49/73/50
f 62/79/58 54/80/49 61/86/63
f 61/86/63 54/80/49 53/87/55
f 43/60/45 34/9/9 51/71/53
f 64/88/64 56/75/56 63/89/57
f 63/89/57 56/75/56 55/66/48
f 53/76/55 52/70/52 61/90/63
f 61/90/63 52/70/52 60/82/60
f 71/91/65 63/77/57 70/92/66
f 70/92/66 63/77/57 62/79/58
f 70/92/66 62/79/58 69/93/67
f 69/93/67 62/79/58 61/86/63
f 65/94/68 57/81/59 64/88/64
f 64/88/64 57/81/59 56/75/56
f 9/35/29 50/72/54 58/84/62
f 68/95/69 60/82/60 67/96/70
f 67/96/70 60/82/60 59/83/61
f 66/97/71 58/84/62 65/98/68
f 65/98/68 58/84/62 57/85/59
f 51/71/53 34/9/9 59/83/61
f 69/93/67 61/86/63 68/99/69
f 68/99/69 61/86/63 60/100/60
f 70/92/66 78/101/72 71/91/65
f 68/99/69 76/102/73 69/93/67
f 72/103/74 64/104/64 71/91/65
f 71/91/65 64/104/64 63/77/57
f 66/97/71 9/35/29 58/84/62
f 67/96/70 75/105/75 68/95/69
f 74/106/76 66/97/71 73/107/77
f 73/107/77 66/97/71 65/98/68
f 69/93/67 77/108/78 70/92/66
f 65/98/68 64/109/64 73/107/77
f 73/107/77 64/109/64 72/110/74
f 34/9/9 67/96/70 59/83/61
f 75/105/75 76/111/73 68/95/69
f 80/112/79 73/107/77 72/110/74
f 71/91/65 79/113/80 72/103/74
f 77/108/78 78/101/72 70/92/66
f 73/107/77 81/114/81 74/106/76
f 76/102/73 77/108/78 69/93/67
f 74/106/76 9/35/29 66/97/71
f 71/91/65 78/101/72 79/113/80
f 67/96/70 34/9/9 75/105/75
f 80/112/79 81/114/81 73/107/77
f 79/113/80 80/115/79 72/103/74
f 9/35/29 74/106/76 81/114/81
