# Blender 4.0.0
# www.blender.org
o CoffeeMachine046_Lid003
v -0.02217100 0.09020700 0.15936200
v -0.02239200 0.08815400 0.15851400
v -0.02249800 0.08729500 0.15646600
v -0.02432500 0.09057800 0.15936200
v -0.02600800 0.08878900 0.15852700
v -0.02672000 0.08803600 0.15648500
v 0.02577700 0.09331900 0.15927500
v 0.02783200 0.09313000 0.15842500
v 0.02869000 0.09304100 0.15637600
v 0.02542300 0.09152400 0.15927000
v 0.02717500 0.08980800 0.15843000
v 0.02791100 0.08908500 0.15638600
v -0.02475400 0.09234100 0.15936700
v -0.02680300 0.09207800 0.15852500
v -0.02766300 0.09195900 0.15648000
v -0.02777900 0.10056700 0.15649800
v -0.02691200 0.10057300 0.15854100
v -0.02485800 0.10058900 0.15938200
v 0.12491800 0.09081900 0.15619800
v 0.12480000 0.09167300 0.15824600
v 0.12461000 0.09371800 0.15909400
v 0.13543000 0.09570200 0.15907400
v 0.13686700 0.09389900 0.15823900
v 0.13751200 0.09314900 0.15620400
v -0.05565900 0.18931400 0.15948300
v -0.05645900 0.19120700 0.15863800
v -0.05680200 0.19199400 0.15658800
v -0.04354000 0.19707700 0.15656000
v -0.04326600 0.19626500 0.15861000
v -0.04262600 0.19431200 0.15945600
v -0.08148000 0.17815000 0.15662700
v -0.08097200 0.17745200 0.15867200
v -0.07979300 0.17576800 0.15951600
v -0.09059200 0.16726900 0.15953200
v -0.09194200 0.16882000 0.15869200
v -0.09252900 0.16946100 0.15665000
v -0.06816100 0.18312900 0.15949900
v -0.06917100 0.18491900 0.15865400
v -0.06960100 0.18566400 0.15660600
v 0.07915400 0.18123400 0.15633300
v 0.07867400 0.18052200 0.15838000
v 0.07754800 0.17880400 0.15922700
v 0.06564300 0.18570800 0.15925400
v 0.06659500 0.18752900 0.15840500
v 0.06699600 0.18828600 0.15635500
v -0.10270700 0.15968400 0.15667000
v -0.10204900 0.15910500 0.15870900
v -0.10054800 0.15769900 0.15954700
v -0.10952700 0.14717500 0.15955900
v -0.11116500 0.14841600 0.15872500
v -0.11188500 0.14892800 0.15669200
v 0.05286600 0.19142500 0.15928500
v 0.05363700 0.19332900 0.15843600
v 0.05396300 0.19412100 0.15638600
v 0.02672700 0.20183800 0.15643300
v 0.02656200 0.20099900 0.15848200
v 0.02616300 0.19898400 0.15933000
v 0.01235800 0.20071200 0.15935600
v 0.01255000 0.20275800 0.15850800
v 0.01262600 0.20361200 0.15645800
v -0.11991400 0.13728000 0.15671100
v -0.11915100 0.13681800 0.15873900
v -0.11742700 0.13569800 0.15956900
v -0.12409800 0.12358600 0.15957700
v -0.12591200 0.12455300 0.15875000
v -0.12672200 0.12495200 0.15672700
v 0.04051600 0.19869100 0.15640800
v 0.04026600 0.19787400 0.15845700
v 0.03967400 0.19590700 0.15930600
v -0.00163000 0.20402500 0.15648700
v -0.00161100 0.20316600 0.15853500
v -0.00157400 0.20111200 0.15938200
v -0.01554400 0.20016900 0.15940700
v -0.01576500 0.20221200 0.15856000
v -0.01586000 0.20306500 0.15651100
v -0.13238100 0.11261200 0.15673600
v -0.13154100 0.11227700 0.15875700
v -0.12965100 0.11146800 0.15958200
v -0.13370100 0.10017300 0.15958200
v -0.13563500 0.10087400 0.15875400
v -0.13648900 0.10116600 0.15673100
v -0.12333700 0.08894600 0.15954800
v -0.12359000 0.08690000 0.15870100
v -0.12374000 0.08604500 0.15665200
v -0.13440100 0.09054900 0.15956800
v -0.13578500 0.08867300 0.15873800
v -0.13641300 0.08789000 0.15670600
v 0.12981500 0.11654400 0.15910700
v 0.13170000 0.11735800 0.15827400
v 0.13253300 0.11769800 0.15624900
v 0.13427900 0.10548700 0.15909100
v 0.13622500 0.10614300 0.15825700
v 0.13707700 0.10641900 0.15623000
v -0.09695900 0.08885400 0.15950600
v -0.09696200 0.08680200 0.15866000
v -0.09696700 0.08594200 0.15661300
v -0.07074100 0.08925300 0.15945100
v -0.07065600 0.08720200 0.15860300
v -0.07058200 0.08634600 0.15655600
v 0.09816800 0.08968800 0.15625600
v 0.09816100 0.09054800 0.15830200
v 0.09813700 0.09260000 0.15914900
v 0.07178800 0.08908000 0.15629700
v 0.07187300 0.08993700 0.15834300
v 0.07197100 0.09198700 0.15919000
v 0.12379500 0.12843500 0.15912300
v 0.12560300 0.12940800 0.15829000
v 0.12640500 0.12981200 0.15626500
v -0.02988200 0.20075100 0.15653600
v -0.02969900 0.19991400 0.15858500
v -0.02926900 0.19790400 0.15943100
v 0.11666100 0.14026700 0.15914100
v 0.11837500 0.14140100 0.15830400
v 0.11912900 0.14186900 0.15627200
v 0.10107400 0.16359700 0.15629900
v 0.10044400 0.16299500 0.15833900
v 0.09899700 0.16153900 0.15918100
v 0.08867200 0.17072100 0.15920400
v 0.08996900 0.17231600 0.15835800
v 0.09052800 0.17297500 0.15631300
v 0.11065900 0.15320100 0.15628500
v 0.10996500 0.15266300 0.15832000
v 0.10837700 0.15136100 0.15916000
v -0.02504400 0.10982600 0.15939000
v -0.02709900 0.10964000 0.15855100
v -0.02796900 0.10956000 0.15651200
v -0.06010800 0.10937000 0.15945400
v -0.05806400 0.10909900 0.15861900
v -0.05717300 0.10898600 0.15659000
v -0.06003800 0.09986700 0.15944600
v -0.05798800 0.09994000 0.15861200
v -0.05709400 0.09997400 0.15658700
v -0.05659000 0.09137900 0.15655100
v -0.05747800 0.09159200 0.15858900
v -0.05954700 0.09209000 0.15943100
v 0.05752000 0.11118800 0.15638200
v 0.05841800 0.11131400 0.15840600
v 0.06046600 0.11161300 0.15923300
v 0.06074200 0.10217100 0.15922500
v 0.05868800 0.10217600 0.15839800
v 0.05778700 0.10218000 0.15637600
v 0.06059000 0.09429500 0.15921100
v 0.05851100 0.09379000 0.15837600
v 0.05761300 0.09357100 0.15633700
v 0.03298000 0.11876000 0.15928600
v 0.03320500 0.11671000 0.15844300
v 0.03330200 0.11584700 0.15640200
v 0.02904400 0.11493900 0.15640500
v 0.02829100 0.11565900 0.15845000
v 0.02650000 0.11737300 0.15929800
v -0.05147100 0.11421900 0.15655500
v -0.05156500 0.11508400 0.15859700
v -0.05176200 0.11713600 0.15944200
v -0.04225300 0.11740200 0.15942400
v -0.04223400 0.11535000 0.15858000
v -0.04222900 0.11448500 0.15653700
v -0.03286800 0.11748900 0.15940700
v -0.03306100 0.11543600 0.15856400
v -0.03314900 0.11457100 0.15652300
v 0.02832300 0.11064100 0.15640800
v 0.02745800 0.11071400 0.15845100
v 0.02540300 0.11088600 0.15929700
v -0.06062700 0.09012200 0.15943200
v -0.05935100 0.08819300 0.15859600
v -0.05877400 0.08738800 0.15656100
v -0.02639800 0.11635800 0.15939500
v -0.02812500 0.11457600 0.15855400
v -0.02885600 0.11382700 0.15651100
v 0.13966500 0.09797700 0.15618300
v 0.13874000 0.09807600 0.15822800
v 0.13658700 0.09830800 0.15907300
v 0.00076400 0.08785000 0.15644700
v 0.00075700 0.08871500 0.15849000
v 0.00073400 0.09076600 0.15933500
v 0.01416000 0.09096700 0.15930600
v 0.01417500 0.08891500 0.15846100
v 0.01417800 0.08805200 0.15641600
v 0.02345700 0.09108800 0.15927800
v 0.02368600 0.08904000 0.15843000
v 0.02379100 0.08818400 0.15638200
v 0.06172400 0.09250200 0.15920800
v 0.06050700 0.09050300 0.15837600
v 0.05994900 0.08966700 0.15634300
v 0.05186500 0.11911800 0.15925200
v 0.05170500 0.11706400 0.15840900
v 0.05162200 0.11619900 0.15636900
v 0.04234900 0.11902700 0.15926900
v 0.04236900 0.11697500 0.15842500
v 0.04237500 0.11610900 0.15638200
v -0.01276900 0.09045000 0.15935600
v -0.01274700 0.08839800 0.15851000
v -0.01274000 0.08753500 0.15646500
v -0.13875100 0.09263100 0.15669300
v -0.13781500 0.09268700 0.15873500
v -0.13564900 0.09280700 0.15957100
v -0.05614900 0.11330100 0.15657300
v -0.05688100 0.11403300 0.15861200
v -0.05856700 0.11578100 0.15945300
v 0.05866200 0.11803300 0.15923900
v 0.05704100 0.11622100 0.15840300
v 0.05633100 0.11546100 0.15636700
v 0.02847800 0.10164700 0.15639600
v 0.02761800 0.10163500 0.15844100
v 0.02556700 0.10160700 0.15928900
v -0.08200700 0.17818500 0.13074800
v 0.05414700 0.19424000 0.13050400
v -0.10369200 0.15968100 0.13078000
v 0.02671400 0.20199000 0.13055700
v -0.12135000 0.13730300 0.13080400
v -0.00170400 0.20423900 0.13061000
v -0.13407500 0.11271400 0.13081800
v 0.13408300 0.11786200 0.13032700
v 0.12042300 0.14194500 0.13036100
v -0.03001400 0.20090100 0.13066100
v 0.10191900 0.16362900 0.13040400
v -0.05712900 0.19210300 0.13070700
v 0.07954000 0.18128700 0.13045200
v 0.00070400 0.08740000 0.13056000
v -0.06955300 0.08613700 0.13068900
v -0.05563600 0.09115300 0.13066500
v 0.07062800 0.08882800 0.13043200
v 0.05652900 0.09330600 0.13046000
v -0.05114900 0.11377800 0.13066600
v -0.05580500 0.10894000 0.13067300
v -0.02852700 0.10946400 0.13062300
v -0.03336600 0.11412000 0.13063300
v 0.03339400 0.11540100 0.13051100
v 0.02873800 0.11056300 0.13051800
v 0.05601600 0.11108700 0.13046800
v 0.05117800 0.11574300 0.13047900
v -0.02286600 0.08703300 0.13060400
v -0.02801400 0.09168300 0.13061500
v 0.02890800 0.09277600 0.13051100
v 0.02402400 0.08793300 0.13051800
v -0.13992900 0.09247900 0.13082100
v -0.12490200 0.08578900 0.13079100
v 0.12595000 0.09060500 0.13033100
v 0.14071000 0.09786700 0.13030700
v 0.09116300 0.17300700 0.13042700
v -0.04378700 0.19716800 0.13068500
v 0.11170400 0.15324100 0.13038200
v -0.01594100 0.20326500 0.13063600
v 0.12796100 0.12994700 0.13034300
v -0.12842100 0.12502400 0.13081300
v 0.01256000 0.20381200 0.13058400
v -0.11307000 0.14892500 0.13079400
v 0.04062000 0.19878800 0.13053000
v -0.09330400 0.16946600 0.13076500
v 0.06716100 0.18838700 0.13047700
v -0.06991000 0.18575500 0.13072800
v -0.05743900 0.08709200 0.13066700
v 0.05848600 0.08931800 0.13045500
v -0.05516000 0.11297800 0.13067300
v -0.02932700 0.11347400 0.13062600
v 0.02938300 0.11460200 0.13051800
v 0.05521600 0.11509800 0.13047100
v -0.02717600 0.08767300 0.13061200
v 0.02823400 0.08873700 0.13051000
v -0.02827100 0.10057300 0.13061900
v -0.01278500 0.08715100 0.13058500
v 0.02882300 0.10167000 0.13051400
v 0.01409900 0.08766800 0.13053600
v 0.05627300 0.10219700 0.13046400
v -0.05572100 0.10004600 0.13066900
v 0.04228500 0.11563600 0.13049500
v -0.04225900 0.11401300 0.13065000
v -0.13794200 0.08761200 0.13081500
v 0.13891100 0.09292700 0.13030800
v -0.13804500 0.10129500 0.13082100
v -0.09703100 0.08563400 0.13073900
v 0.13848900 0.10660400 0.13031400
v 0.09810500 0.08938100 0.13038200
vn -0.9972 -0.0643 0.0390
vn -0.6906 -0.0391 0.7222
vn -0.9986 -0.0209 0.0490
vn -0.6027 -0.0115 0.7979
vn 0.0017 -0.0013 1.0000
vn 0.0016 -0.0013 1.0000
vn 0.0023 -0.0095 1.0000
vn 0.0569 -0.7759 0.6283
vn 0.0022 -0.0010 1.0000
vn 0.2807 -0.7650 0.5796
vn 0.0739 -0.9957 0.0559
vn 0.3238 -0.9445 0.0547
vn -0.3890 0.9190 0.0641
vn -0.2722 0.6518 0.7079
vn -0.2971 0.9528 0.0625
vn -0.2249 0.7284 0.6472
vn -0.1435 0.3175 0.9373
vn 0.0012 0.0017 1.0000
vn -0.3761 0.5646 0.7348
vn -0.3639 0.4265 0.8280
vn -0.0442 0.0623 0.9971
vn -0.0348 0.0417 0.9985
vn -0.5623 0.8254 0.0505
vn -0.6426 0.7648 0.0474
vn 0.3630 0.5743 0.7337
vn 0.3321 0.6544 0.6793
vn 0.0039 0.0028 1.0000
vn 0.0035 0.0023 1.0000
vn 0.5304 0.8464 0.0477
vn 0.4438 0.8940 0.0624
vn -0.0152 0.0162 0.9998
vn -0.4343 0.4120 0.8010
vn -0.0024 0.0030 1.0000
vn -0.5473 0.4362 0.7142
vn -0.7145 0.6975 0.0547
vn -0.7803 0.6222 0.0627
vn 0.1192 0.6972 0.7069
vn 0.0508 0.7052 0.7072
vn 0.0024 0.0032 1.0000
vn 0.0021 0.0026 1.0000
vn 0.1764 0.9807 0.0841
vn 0.0792 0.9956 0.0504
vn -0.5868 0.3771 0.7165
vn -0.6209 0.3141 0.7182
vn -0.0102 0.0068 0.9999
vn -0.0083 0.0044 1.0000
vn -0.8379 0.5409 0.0726
vn -0.8878 0.4512 0.0910
vn -0.0051 0.6732 0.7394
vn -0.0997 0.7313 0.6748
vn 0.0018 0.0014 1.0000
vn 0.0016 0.0014 1.0000
vn -0.0020 0.9994 0.0334
vn -0.0884 0.9956 0.0325
vn -0.6767 0.2806 0.6807
vn -0.5354 0.1747 0.8263
vn -0.0089 0.0037 1.0000
vn -0.0032 0.0009 1.0000
vn -0.9127 0.4001 0.0830
vn -0.9438 0.3113 0.1115
vn -0.2870 -0.9562 0.0567
vn -0.2406 -0.7911 0.5623
vn -0.9972 -0.0121 0.0736
vn -0.6692 0.0607 0.7406
vn 0.0017 -0.0005 1.0000
vn 0.0015 -0.0006 1.0000
vn 0.6263 0.2335 0.7438
vn 0.6719 0.0391 0.7396
vn 0.9347 0.3463 0.0797
vn 0.9973 0.0262 0.0682
vn 0.3337 0.1293 0.9338
vn 0.0027 -0.0006 1.0000
vn 0.4210 0.4283 0.7996
vn 0.3775 0.4687 0.7987
vn 0.0040 0.0020 1.0000
vn 0.0039 0.0023 1.0000
vn 0.6875 0.7244 0.0510
vn 0.6129 0.7889 0.0441
vn 0.7041 0.0200 0.7098
vn 0.6859 -0.0760 0.7237
vn 0.9964 0.0259 0.0802
vn 0.9886 -0.1357 0.0649
vn 0.0023 -0.0013 1.0000
vn 0.0022 -0.0013 1.0000
vn 0.0008 -0.0007 1.0000
vn -0.5692 -0.0621 0.8199
vn -0.0003 -0.0013 1.0000
vn -0.5967 -0.0046 0.8025
vn -0.9956 -0.0565 0.0744
vn -0.9963 -0.0124 0.0855
vn 0.1026 -0.9915 0.0801
vn 0.0524 -0.6148 0.7869
vn 0.7198 -0.6883 0.0896
vn 0.3108 -0.2971 0.9029
vn 0.0023 -0.0038 1.0000
vn 0.0022 -0.0009 1.0000
vn 0.0019 -0.0013 1.0000
vn 0.0675 -0.6611 0.7472
vn 0.0019 -0.0020 1.0000
vn 0.0162 -0.7914 0.6111
vn 0.1019 -0.9909 0.0877
vn 0.0214 -0.9981 0.0570
vn 0.0141 -0.6571 0.7537
vn 0.0110 -0.6269 0.7790
vn 0.0025 -0.0375 0.9993
vn 0.0024 -0.0160 0.9999
vn 0.0197 -0.9956 0.0917
vn 0.0163 -0.9969 0.0770
vn -0.9926 -0.1202 0.0159
vn -0.9996 -0.0239 0.0173
vn -0.4148 0.9099 0.0086
vn -0.3251 0.9457 0.0069
vn -0.5870 0.8095 0.0145
vn -0.6636 0.7477 0.0218
vn -0.4775 0.8762 0.0647
vn -0.5037 0.8638 0.0099
vn 0.4702 0.8825 0.0073
vn 0.5556 0.8314 0.0116
vn -0.7338 0.6787 0.0298
vn -0.7975 0.6021 0.0392
vn 0.3796 0.9251 0.0066
vn 0.3537 0.9333 0.0622
vn 0.1755 0.9845 0.0059
vn 0.0491 0.9988 0.0077
vn -0.8520 0.5211 0.0509
vn -0.8991 0.4336 0.0603
vn 0.2885 0.9575 0.0053
vn 0.2606 0.9635 0.0610
vn -0.0352 0.9993 0.0082
vn -0.1166 0.9931 0.0075
vn -0.9241 0.3773 0.0608
vn -0.9610 0.2711 0.0541
vn 0.0064 -0.9960 0.0894
vn -0.0364 -0.9983 0.0460
vn 0.0061 -0.9999 0.0107
vn -0.0711 -0.9974 0.0138
vn 0.0318 -0.9980 0.0540
vn 0.0486 -0.9988 0.0110
vn 0.0326 -0.9954 0.0896
vn 0.0323 -0.9994 0.0106
vn 0.1094 -0.9939 0.0133
vn 0.0077 -0.9994 0.0336
vn -0.0102 -0.9999 0.0112
vn 0.8702 0.4851 0.0864
vn 0.8971 0.4349 0.0782
vn 0.8821 0.4678 0.0555
vn 0.9092 0.4126 0.0559
vn -0.1981 0.9771 0.0783
vn -0.2291 0.9734 0.0064
vn 0.8316 0.5535 0.0464
vn 0.8169 0.5728 0.0683
vn 0.7073 0.7064 0.0259
vn 0.6345 0.7727 0.0183
vn 0.7740 0.6323 0.0350
vn 0.7562 0.6517 0.0587
vn 0.9993 0.0126 -0.0346
vn 0.9906 -0.1314 0.0383
vn 0.9971 -0.0569 0.0507
vn 0.9974 -0.0182 0.0691
vn -0.9982 -0.0213 0.0555
vn -0.9939 -0.0951 0.0561
vn -0.9823 -0.1736 0.0702
vn -0.9846 -0.1693 0.0430
vn 0.7215 -0.6921 0.0195
vn 0.0589 -0.9981 0.0177
vn 0.0160 -0.9997 0.0179
vn 0.0586 -0.9981 0.0181
vn -0.0414 -0.9972 0.0619
vn -0.0416 -0.9990 0.0179
vn 0.9502 0.3078 0.0490
vn 0.9987 0.0308 0.0402
vn 0.0203 -0.9997 0.0133
vn 0.0179 -0.9997 0.0165
vn 0.0575 -0.9977 0.0346
vn 0.1073 -0.9942 0.0116
vn -0.4540 -0.8904 0.0342
vn -0.1907 -0.9808 0.0407
vn 0.0192 -0.9996 0.0182
vn 0.0193 -0.9987 0.0479
vn -0.0617 -0.9948 0.0814
vn -0.0202 -0.9996 0.0189
vn -0.7223 -0.6809 0.1212
vn -0.6941 -0.7195 0.0235
vn -0.9923 -0.1051 0.0662
vn -0.9982 -0.0568 0.0207
vn -0.9989 -0.0076 0.0455
vn 0.7818 -0.6133 0.1129
vn 0.5248 -0.8507 0.0304
vn 0.0240 -0.9976 0.0649
vn -0.0062 -0.9994 0.0342
vn 0.0211 -0.9997 0.0146
vn -0.0676 -0.9976 0.0121
vn 0.9991 -0.0255 0.0335
vn 0.7037 -0.7097 0.0343
vn 0.9967 -0.0807 0.0103
vn 0.7040 -0.7100 0.0183
vn -0.6616 -0.7484 0.0457
vn -0.6701 -0.7419 0.0222
vn 0.9998 0.0145 0.0116
vn 0.9997 -0.0185 0.0151
vn 0.9989 0.0173 0.0435
vn 0.9965 -0.0649 0.0534
vn 0.2239 -0.9733 0.0513
vn 0.4880 -0.8723 0.0316
vn -0.7852 -0.6118 0.0957
vn -0.4917 -0.8702 0.0313
vn -0.5494 -0.8347 0.0378
vn 0.5812 -0.8130 0.0348
vn 0.2016 -0.2049 0.9578
vn 0.0261 -0.0014 0.9997
vn 0.0037 -0.0315 0.9995
vn -0.1840 -0.2151 0.9591
vn 0.0015 -0.0055 1.0000
vn 0.0074 -0.3562 0.9344
vn 0.0119 -0.3082 0.9512
vn 0.0016 -0.0015 1.0000
vn 0.2837 0.1331 0.9497
vn 0.2202 0.1243 0.9675
vn 0.0029 0.0003 1.0000
vn 0.0067 0.0038 1.0000
vn 0.0020 -0.0000 1.0000
vn 0.0031 0.0052 1.0000
vn 0.0015 0.0012 1.0000
vn -0.0619 0.1084 0.9922
vn -0.0041 -0.3325 0.9431
vn 0.0034 -0.2700 0.9628
vn 0.0020 -0.0042 1.0000
vn 0.0020 -0.0006 1.0000
vn 0.0004 -0.0014 1.0000
vn 0.0017 -0.0010 1.0000
vn 0.0021 -0.0006 1.0000
vn 0.0018 -0.0004 1.0000
vn 0.0018 -0.0013 1.0000
vn 0.0015 -0.0007 1.0000
vn 0.0012 -0.0007 1.0000
vn 0.0013 -0.0068 1.0000
vn 0.0019 -0.0066 1.0000
vn 0.0017 -0.0233 0.9997
vn 0.0155 -0.0017 0.9999
vn 0.0147 -0.0011 0.9999
vn -0.0048 -0.8031 0.5958
vn 0.0193 -0.7745 0.6323
vn -0.4101 -0.6841 0.6032
vn 0.6937 -0.0122 0.7202
vn 0.5269 -0.5321 0.6628
vn 0.0208 -0.5630 0.8262
vn -0.3341 0.6223 0.7080
vn -0.1262 0.5900 0.7975
vn 0.2713 0.7129 0.6466
vn 0.1889 0.6813 0.7073
vn -0.0327 -0.7069 0.7065
vn 0.0056 -0.5628 0.8266
vn 0.6134 0.2882 0.7353
vn 0.5600 0.3061 0.7698
vn 0.0243 -0.7787 0.6270
vn 0.1991 -0.7940 0.5744
vn 0.0065 -0.6833 0.7301
vn 0.4955 0.3334 0.8021
vn 0.4608 0.3827 0.8007
vn -0.6138 -0.0695 0.7864
vn 0.6576 -0.0599 0.7510
vn -0.6734 -0.0666 0.7363
vn -0.2189 -0.7342 0.6426
vn 0.0163 -0.7913 0.6112
vn 0.5619 -0.0288 0.8267
vn 0.2707 -0.4427 0.8548
vn -0.0259 -0.6168 0.7867
vn -0.3523 -0.3051 0.8847
vn 0.6052 0.0115 0.7960
vn 0.0232 -0.6988 0.7149
vn -0.0245 -0.6188 0.7851
vn -0.2569 -0.3885 0.8849
vn -0.0018 0.0004 -1.0000
vn -0.0019 0.0004 -1.0000
vt 0.960317 0.314465
vt 0.960306 0.313861
vt 0.962672 0.314362
vt 0.962630 0.313761
vt 0.967043 0.267873
vt 0.966977 0.268440
vt 0.964696 0.267888
vt 0.964697 0.268455
vt 0.967388 0.309729
vt 0.967959 0.309771
vt 0.966898 0.312730
vt 0.967408 0.313118
vt 0.975771 0.299653
vt 0.975169 0.299627
vt 0.975872 0.296306
vt 0.975278 0.296133
vt 0.971264 0.269604
vt 0.970662 0.269594
vt 0.971341 0.265696
vt 0.970739 0.265707
vt 0.940017 0.260412
vt 0.938705 0.264041
vt 0.939494 0.260202
vt 0.938166 0.263875
vt 0.943165 0.253354
vt 0.945492 0.250276
vt 0.943632 0.253670
vt 0.945923 0.250640
vt 0.970294 0.277347
vt 0.970892 0.277408
vt 0.969997 0.281118
vt 0.970593 0.281206
vt 0.943163 0.297494
vt 0.941163 0.294193
vt 0.943627 0.297173
vt 0.941656 0.293919
vt 0.968743 0.237194
vt 0.969289 0.239351
vt 0.968158 0.237379
vt 0.968700 0.239522
vt 0.948515 0.247838
vt 0.948123 0.247431
vt 0.951375 0.245301
vt 0.951028 0.244855
vt 0.969632 0.284806
vt 0.970225 0.284919
vt 0.969201 0.288367
vt 0.969790 0.288504
vt 0.937228 0.283199
vt 0.936668 0.279336
vt 0.937778 0.283078
vt 0.937228 0.279272
vt 0.970580 0.247690
vt 0.970877 0.250971
vt 0.969983 0.247813
vt 0.970277 0.251074
vt 0.954191 0.242586
vt 0.957544 0.240652
vt 0.954505 0.243056
vt 0.957816 0.241148
vt 0.968706 0.291759
vt 0.969291 0.291912
vt 0.968158 0.294928
vt 0.968740 0.295100
vt 0.936480 0.275424
vt 0.936669 0.271507
vt 0.937043 0.275423
vt 0.937230 0.271557
vt 0.971103 0.254457
vt 0.971258 0.258103
vt 0.970502 0.254536
vt 0.970656 0.258163
vt 0.960907 0.239032
vt 0.964036 0.237840
vt 0.961135 0.239549
vt 0.964235 0.238370
vt 0.979099 0.281548
vt 0.979159 0.284521
vt 0.978498 0.281618
vt 0.978557 0.284580
vt 0.978933 0.288147
vt 0.978361 0.287903
vt 0.979163 0.286768
vt 0.978557 0.286735
vt 0.967407 0.237733
vt 0.966891 0.238125
vt 0.966287 0.237194
vt 0.966260 0.237793
vt 0.986315 0.258471
vt 0.986463 0.260716
vt 0.985715 0.258474
vt 0.985868 0.260824
vt 0.964187 0.312464
vt 0.966184 0.313064
vt 0.964021 0.313006
vt 0.966264 0.313658
vt 0.948121 0.303418
vt 0.945490 0.300572
vt 0.948511 0.303010
vt 0.945919 0.300205
vt 0.985583 0.242321
vt 0.985804 0.239610
vt 0.986186 0.242409
vt 0.986407 0.239714
vt 0.950305 0.316370
vt 0.952615 0.316428
vt 0.950293 0.316967
vt 0.952671 0.317029
vt 0.964710 0.258728
vt 0.966862 0.258822
vt 0.964706 0.259295
vt 0.967015 0.259392
vt 0.962103 0.292096
vt 0.962180 0.291528
vt 0.964714 0.292122
vt 0.964706 0.291554
vt 0.957806 0.313658
vt 0.957812 0.314258
vt 0.955298 0.313738
vt 0.955340 0.314337
vt 0.944762 0.315045
vt 0.944160 0.315022
vt 0.944810 0.313863
vt 0.944215 0.313658
vt 0.960555 0.284589
vt 0.959983 0.284537
vt 0.960819 0.283225
vt 0.960332 0.282738
vt 0.959982 0.261107
vt 0.960555 0.261151
vt 0.959959 0.263736
vt 0.960531 0.263731
vt 0.936485 0.315133
vt 0.937087 0.315155
vt 0.936480 0.317713
vt 0.937082 0.317711
vt 0.968119 0.275472
vt 0.968135 0.279181
vt 0.967547 0.275476
vt 0.967563 0.279188
vt 0.978392 0.270779
vt 0.978994 0.270777
vt 0.978396 0.274489
vt 0.978998 0.274486
vt 0.960336 0.321474
vt 0.962774 0.321380
vt 0.978287 0.269930
vt 0.978361 0.266005
vt 0.977914 0.277793
vt 0.977619 0.281656
vt 0.971116 0.273548
vt 0.978138 0.273872
vt 0.976304 0.239557
vt 0.975754 0.237350
vt 0.977255 0.285423
vt 0.976825 0.289057
vt 0.976799 0.242073
vt 0.969782 0.241874
vt 0.977600 0.247934
vt 0.977900 0.251222
vt 0.976334 0.292524
vt 0.975791 0.295772
vt 0.977232 0.244874
vt 0.970217 0.244653
vt 0.978127 0.254708
vt 0.978281 0.258357
vt 0.986174 0.282127
vt 0.986223 0.285098
vt 0.978962 0.278388
vt 0.986036 0.278974
vt 0.976569 0.307038
vt 0.976576 0.299639
vt 0.983585 0.307069
vt 0.983586 0.299366
vt 0.976539 0.314332
vt 0.983546 0.314666
vt 0.975175 0.307027
vt 0.968159 0.307069
vt 0.968158 0.299367
vt 0.975205 0.314321
vt 0.968198 0.314666
vt 0.985451 0.251919
vt 0.985557 0.255322
vt 0.978389 0.252775
vt 0.978494 0.256169
vt 0.971338 0.261862
vt 0.978359 0.262135
vt 0.978361 0.249385
vt 0.985405 0.248518
vt 0.978569 0.243194
vt 0.978804 0.240479
vt 0.978421 0.246172
vt 0.985448 0.245299
vt 0.950171 0.324068
vt 0.952629 0.324101
vt 0.947713 0.324036
vt 0.947802 0.316934
vt 0.955443 0.321423
vt 0.957882 0.321345
vt 0.952996 0.314446
vt 0.953003 0.321500
vt 0.951831 0.313968
vt 0.951789 0.315081
vt 0.944110 0.317714
vt 0.944114 0.315255
vt 0.937086 0.320221
vt 0.944114 0.320172
vt 0.978661 0.259313
vt 0.978853 0.261738
vt 0.986020 0.274475
vt 0.986020 0.270772
vt 0.979006 0.277143
vt 0.986015 0.277220
vt 0.951831 0.321429
vt 0.951831 0.314349
vt 0.951786 0.317540
vt 0.944757 0.317554
vt 0.944761 0.320110
vt 0.951789 0.319998
vt 0.966339 0.314261
vt 0.966343 0.321283
vt 0.965136 0.314261
vt 0.965213 0.321286
vt 0.986189 0.287434
vt 0.937131 0.313857
vt 0.944155 0.314142
vt 0.978998 0.267043
vt 0.979006 0.264345
vt 0.986020 0.267042
vt 0.986015 0.264255
vt 0.960005 0.317010
vt 0.961094 0.316976
vt 0.959982 0.324037
vt 0.961094 0.324011
vt 0.986111 0.237194
vt 0.979124 0.238054
vt 0.978956 0.263182
vt 0.985974 0.263068
vt 0.957524 0.324008
vt 0.955066 0.323980
vt 0.957626 0.316971
vt 0.955140 0.316937
vt 0.953761 0.316922
vt 0.953741 0.324016
vt 0.983487 0.318019
vt 0.976468 0.317601
vt 0.975275 0.317590
vt 0.968257 0.318019
vt 0.959030 0.314287
vt 0.959011 0.321350
vt 0.944155 0.321285
vt 0.937135 0.321404
vt 0.946601 0.324058
vt 0.946615 0.316981
vt 0.953954 0.324004
vt 0.953956 0.316965
vt 0.951831 0.321111
vt 0.944807 0.321408
vt 0.959205 0.321475
vt 0.959205 0.314456
vt 0.985974 0.278388
vt 0.978956 0.278287
vt 0.983486 0.295772
vt 0.976467 0.296145
vt 0.985984 0.288834
vt 0.986157 0.262118
vt 0.979123 0.263068
vt 0.968258 0.295772
vt 0.967469 0.282304
vt 0.966975 0.282411
vt 0.967579 0.281758
vt 0.967467 0.268549
vt 0.967580 0.269143
vt 0.967588 0.295171
vt 0.967557 0.302406
vt 0.967391 0.292342
vt 0.961108 0.311289
vt 0.957791 0.309688
vt 0.954483 0.307779
vt 0.951374 0.305548
vt 0.940009 0.290418
vt 0.938700 0.286796
vt 0.937783 0.267752
vt 0.941659 0.256924
vt 0.967393 0.241175
vt 0.967558 0.248465
vt 0.967587 0.255713
vt 0.967400 0.258513
vt 0.966890 0.292038
vt 0.960320 0.291631
vt 0.962084 0.258759
vt 0.960320 0.259219
vt 0.959985 0.266331
vt 0.960332 0.268113
vt 0.962144 0.268452
vt 0.959984 0.289758
vt 0.959959 0.287128
vt 0.967563 0.271742
vt 0.962118 0.282401
vt 0.964683 0.282397
vt 0.968151 0.269071
vt 0.968135 0.271738
vt 0.978403 0.264378
vt 0.978396 0.267045
vt 0.978361 0.263382
vt 0.967957 0.268075
vt 0.959984 0.316408
vt 0.960898 0.316380
vt 0.967043 0.282979
vt 0.967957 0.282779
vt 0.959374 0.313855
vt 0.975777 0.307022
vt 0.968129 0.302403
vt 0.941164 0.256655
vt 0.970516 0.273512
vt 0.970736 0.261898
vt 0.937230 0.267644
vt 0.939491 0.290642
vt 0.969190 0.242031
vt 0.969622 0.244794
vt 0.938164 0.286970
vt 0.978361 0.278474
vt 0.967961 0.241095
vt 0.968130 0.248453
vt 0.975973 0.299680
vt 0.975967 0.307039
vt 0.975872 0.296319
vt 0.960898 0.311815
vt 0.957536 0.310193
vt 0.986158 0.255336
vt 0.986052 0.251952
vt 0.968158 0.255726
vt 0.975936 0.314312
vt 0.967944 0.258856
vt 0.975872 0.317442
vt 0.975807 0.314291
vt 0.968158 0.295134
vt 0.954184 0.308259
vt 0.986007 0.248568
vt 0.986051 0.245369
vt 0.951027 0.305994
vt 0.986712 0.237314
vt 0.965114 0.313659
vt 0.962189 0.267884
vt 0.947774 0.316336
vt 0.962174 0.259323
vt 0.967023 0.291461
vt 0.953015 0.313841
vt 0.967942 0.291995
vt 0.952033 0.313759
vt 0.960531 0.287123
vt 0.944155 0.317556
vt 0.953761 0.316368
vt 0.955122 0.316336
vt 0.962181 0.282968
vt 0.936538 0.313658
vt 0.960817 0.259676
vt 0.960556 0.266267
vt 0.936485 0.320249
vt 0.960820 0.267626
vt 0.936540 0.321609
vt 0.957632 0.316371
vt 0.964691 0.282964
vt 0.953543 0.316336
vt 0.966506 0.313658
vt 0.986712 0.261835
vt 0.968151 0.281811
vt 0.978403 0.277118
vt 0.978361 0.278086
vt 0.975872 0.317429
vt 0.960555 0.289703
vt 0.960817 0.291174
vt 0.944160 0.320137
vt 0.944213 0.321607
vt 0.946417 0.316387
vt 0.959205 0.313688
vt 0.976604 0.316336
vt 0.972482 0.293002
vt 0.977959 0.315812
vt 0.955522 0.252056
vt 0.972457 0.262085
vt 0.971345 0.262286
vt 0.946608 0.273624
vt 0.971150 0.268315
vt 0.971350 0.269428
vt 0.946614 0.281504
vt 0.972476 0.285460
vt 0.971363 0.285661
vt 0.958214 0.305979
vt 0.971168 0.291690
vt 0.971369 0.292803
vt 0.961139 0.308626
vt 0.964309 0.310973
vt 0.967667 0.312990
vt 0.971041 0.314615
vt 0.974177 0.315771
vt 0.974940 0.293024
vt 0.977399 0.293046
vt 0.978512 0.293564
vt 0.978714 0.296917
vt 0.978714 0.304515
vt 0.978529 0.312217
vt 0.958169 0.249131
vt 0.961089 0.246479
vt 0.964256 0.244127
vt 0.967610 0.242104
vt 0.970982 0.240474
vt 0.974116 0.239313
vt 0.976542 0.238744
vt 0.977898 0.239266
vt 0.978474 0.242860
vt 0.978671 0.250562
vt 0.978684 0.258160
vt 0.978487 0.261513
vt 0.977374 0.262034
vt 0.974916 0.262059
vt 0.953174 0.255226
vt 0.951149 0.258611
vt 0.949465 0.262179
vt 0.948139 0.265894
vt 0.947184 0.269721
vt 0.971146 0.263398
vt 0.971130 0.265857
vt 0.946417 0.277564
vt 0.972463 0.269627
vt 0.974922 0.269649
vt 0.977380 0.269671
vt 0.978493 0.269877
vt 0.978694 0.271045
vt 0.978717 0.273789
vt 0.978723 0.277493
vt 0.978723 0.281222
vt 0.978704 0.284009
vt 0.978505 0.285197
vt 0.977393 0.285409
vt 0.974934 0.285434
vt 0.947196 0.285406
vt 0.948158 0.289232
vt 0.949490 0.292945
vt 0.951179 0.296510
vt 0.953210 0.299892
vt 0.955562 0.303058
vt 0.971164 0.286774
vt 0.971148 0.289232
s 1
f 15/1/1 14/2/2 16/3/3
f 16/3/3 14/2/2 17/4/4
f 14/5/2 13/6/5 17/7/4
f 17/7/4 13/6/5 18/8/6
f 21/9/7 20/10/8 22/11/9
f 22/11/9 20/10/8 23/12/10
f 20/13/8 19/14/11 23/15/10
f 23/15/10 19/14/11 24/16/12
f 27/17/13 26/18/14 28/19/15
f 28/19/15 26/18/14 29/20/16
f 25/21/17 30/22/18 26/23/14
f 26/23/14 30/22/18 29/24/16
f 32/25/19 35/26/20 33/27/21
f 33/27/21 35/26/20 34/28/22
f 32/29/19 31/30/23 35/31/20
f 35/31/20 31/30/23 36/32/24
f 41/33/25 44/34/26 42/35/27
f 42/35/27 44/34/26 43/36/28
f 40/37/29 45/38/30 41/39/25
f 41/39/25 45/38/30 44/40/26
f 48/41/31 47/42/32 49/43/33
f 49/43/33 47/42/32 50/44/34
f 47/45/32 46/46/35 50/47/34
f 50/47/34 46/46/35 51/48/36
f 56/49/37 59/50/38 57/51/39
f 57/51/39 59/50/38 58/52/40
f 55/53/41 60/54/42 56/55/37
f 56/55/37 60/54/42 59/56/38
f 62/57/43 65/58/44 63/59/45
f 63/59/45 65/58/44 64/60/46
f 62/61/43 61/62/47 65/63/44
f 65/63/44 61/62/47 66/64/48
f 71/65/49 74/66/50 72/67/51
f 72/67/51 74/66/50 73/68/52
f 70/69/53 75/70/54 71/71/49
f 71/71/49 75/70/54 74/72/50
f 77/73/55 80/74/56 78/75/57
f 78/75/57 80/74/56 79/76/58
f 76/77/59 81/78/60 77/79/55
f 77/79/55 81/78/60 80/80/56
f 87/81/61 86/82/62 193/83/63
f 193/83/63 86/82/62 194/84/64
f 86/85/62 85/86/65 194/87/64
f 194/87/64 85/86/65 195/88/66
f 92/89/67 170/90/68 93/91/69
f 93/91/69 170/90/68 169/92/70
f 91/93/71 171/94/72 92/95/67
f 92/95/67 171/94/72 170/96/68
f 116/97/73 119/98/74 117/99/75
f 117/99/75 119/98/74 118/100/76
f 115/101/77 120/102/78 116/103/73
f 116/103/73 120/102/78 119/104/74
f 131/105/79 134/106/80 132/107/81
f 132/107/81 134/106/80 133/108/82
f 130/109/83 135/110/84 131/111/79
f 131/111/79 135/110/84 134/112/80
f 138/113/85 137/114/86 139/115/87
f 139/115/87 137/114/86 140/116/88
f 137/117/86 136/118/89 140/119/88
f 140/119/88 136/118/89 141/120/90
f 147/121/91 146/122/92 148/123/93
f 148/123/93 146/122/92 149/124/94
f 146/125/92 145/126/95 149/127/94
f 149/127/94 145/126/95 150/128/96
f 153/129/97 152/130/98 154/131/99
f 154/131/99 152/130/98 155/132/100
f 152/133/98 151/134/101 155/135/100
f 155/135/100 151/134/101 156/136/102
f 173/137/103 176/138/104 174/139/105
f 174/139/105 176/138/104 175/140/106
f 173/141/103 172/142/107 176/143/104
f 176/143/104 172/142/107 177/144/108
f 232/145/109 15/1/1 259/146/110
f 259/146/110 15/1/1 16/3/3
f 216/147/111 27/17/13 240/148/112
f 240/148/112 27/17/13 28/19/15
f 31/30/23 205/149/113 36/32/24
f 36/32/24 205/149/113 248/150/114
f 27/17/13 216/147/111 39/151/115
f 39/151/115 216/147/111 250/152/116
f 39/151/115 250/152/116 31/30/23
f 31/30/23 250/152/116 205/149/113
f 45/38/30 40/37/29 249/153/117
f 249/153/117 40/37/29 217/154/118
f 46/46/35 207/155/119 51/48/36
f 51/48/36 207/155/119 246/156/120
f 249/153/117 206/157/121 45/38/30
f 45/38/30 206/157/121 54/158/122
f 55/53/41 208/159/123 60/54/42
f 60/54/42 208/159/123 245/160/124
f 36/32/24 248/150/114 46/46/35
f 46/46/35 248/150/114 207/155/119
f 61/62/47 209/161/125 66/64/48
f 66/64/48 209/161/125 244/162/126
f 247/163/127 208/159/123 67/164/128
f 67/164/128 208/159/123 55/53/41
f 70/69/53 210/165/129 75/70/54
f 75/70/54 210/165/129 242/166/130
f 51/48/36 246/156/120 61/62/47
f 61/62/47 246/156/120 209/161/125
f 76/77/59 211/167/131 81/78/60
f 81/78/60 211/167/131 269/168/132
f 60/54/42 245/160/124 70/69/53
f 70/69/53 245/160/124 210/165/129
f 66/169/48 244/170/126 76/77/59
f 76/77/59 244/170/126 211/167/131
f 96/171/133 84/172/134 270/173/135
f 270/173/135 84/172/134 236/174/136
f 96/171/133 270/173/135 99/175/137
f 99/175/137 270/173/135 219/176/138
f 100/177/139 272/178/140 19/14/11
f 19/14/11 272/178/140 237/179/141
f 100/177/139 103/180/142 272/178/140
f 272/178/140 103/180/142 221/181/143
f 108/182/144 90/183/145 243/184/146
f 243/184/146 90/183/145 212/185/147
f 109/186/148 214/187/149 28/19/15
f 28/19/15 214/187/149 240/148/112
f 243/184/146 213/188/150 108/182/144
f 108/182/144 213/188/150 114/189/151
f 215/190/152 239/191/153 115/101/77
f 115/101/77 239/191/153 120/102/78
f 75/70/54 242/166/130 109/186/148
f 109/186/148 242/166/130 214/187/149
f 241/192/154 215/190/152 121/193/155
f 121/193/155 215/190/152 115/101/77
f 132/107/81 133/108/82 264/194/156
f 264/194/156 133/108/82 220/195/157
f 224/196/158 129/197/159 264/194/156
f 264/194/156 129/197/159 132/107/81
f 141/120/90 136/118/89 263/198/160
f 263/198/160 136/118/89 229/199/161
f 141/120/90 263/198/160 144/200/162
f 144/200/162 263/198/160 222/201/163
f 148/123/93 255/202/164 147/121/91
f 147/121/91 255/202/164 227/203/165
f 266/204/166 156/136/102 223/205/167
f 223/205/167 156/136/102 151/134/101
f 156/136/102 266/204/166 159/206/168
f 159/206/168 266/204/166 226/207/169
f 93/91/69 169/92/70 271/208/170
f 271/208/170 169/92/70 238/209/171
f 262/210/172 177/144/108 218/211/173
f 218/211/173 177/144/108 172/142/107
f 177/144/108 262/210/172 180/212/174
f 180/212/174 262/210/172 234/213/175
f 222/201/163 252/214/176 144/200/162
f 144/200/162 252/214/176 183/215/177
f 90/183/145 93/91/69 212/185/147
f 212/185/147 93/91/69 271/208/170
f 265/216/178 189/217/179 227/203/165
f 227/203/165 189/217/179 147/121/91
f 186/218/180 189/217/179 230/219/181
f 230/219/181 189/217/179 265/216/178
f 168/220/182 254/221/183 126/222/184
f 126/222/184 254/221/183 225/223/185
f 81/78/60 269/168/132 193/83/63
f 193/83/63 269/168/132 235/224/186
f 196/225/187 253/226/188 151/134/101
f 151/134/101 253/226/188 223/205/167
f 192/227/189 3/228/190 260/229/191
f 260/229/191 3/228/190 231/230/192
f 9/231/193 12/232/194 233/233/195
f 233/233/195 12/232/194 258/234/196
f 40/235/29 120/102/78 217/236/118
f 217/236/118 120/102/78 239/191/153
f 3/228/190 6/237/197 231/230/192
f 231/230/192 6/237/197 257/238/198
f 261/239/199 228/240/200 202/241/201
f 202/241/201 228/240/200 160/242/202
f 202/241/201 9/231/193 261/239/199
f 261/239/199 9/231/193 233/233/195
f 218/211/173 172/142/107 260/229/191
f 260/229/191 172/142/107 192/227/189
f 206/157/121 247/163/127 54/158/122
f 54/158/122 247/163/127 67/164/128
f 165/243/203 251/244/204 133/108/82
f 133/108/82 251/244/204 220/195/157
f 251/245/204 165/246/203 219/176/138
f 219/176/138 165/246/203 99/175/137
f 103/180/142 183/247/177 221/181/143
f 221/181/143 183/247/177 252/248/176
f 136/118/89 201/249/205 229/199/161
f 229/199/161 201/249/205 256/250/206
f 226/207/169 254/251/183 159/206/168
f 159/206/168 254/251/183 168/252/182
f 253/253/188 196/254/187 224/196/158
f 224/196/158 196/254/187 129/197/159
f 228/240/200 255/255/164 160/242/202
f 160/242/202 255/255/164 148/256/93
f 230/219/181 256/257/206 186/218/180
f 186/218/180 256/257/206 201/258/205
f 257/259/198 6/260/197 232/145/109
f 232/145/109 6/260/197 15/1/1
f 258/261/196 12/262/194 234/213/175
f 234/213/175 12/262/194 180/212/174
f 126/222/184 225/223/185 16/3/3
f 16/3/3 225/223/185 259/146/110
f 213/188/150 241/192/154 114/189/151
f 114/189/151 241/192/154 121/193/155
f 267/263/207 236/174/136 87/264/61
f 87/264/61 236/174/136 84/172/134
f 235/224/186 267/265/207 193/83/63
f 193/83/63 267/265/207 87/81/61
f 24/266/12 268/267/208 169/92/70
f 169/92/70 268/267/208 238/209/171
f 268/268/208 24/16/12 237/179/141
f 237/179/141 24/16/12 19/14/11
f 10/269/209 7/270/210 178/271/211
f 4/272/212 1/273/213 13/6/5
f 105/274/214 102/275/215 181/276/216
f 102/275/215 21/9/7 181/276/216
f 91/93/71 88/277/217 171/94/72
f 88/277/217 106/278/218 171/94/72
f 106/278/218 112/279/219 171/94/72
f 123/280/220 117/99/75 112/279/219
f 117/99/75 118/100/76 112/279/219
f 118/100/76 42/35/27 112/279/219
f 42/35/27 43/36/28 112/279/219
f 43/36/28 52/281/221 112/279/219
f 69/282/222 57/51/39 52/281/221
f 57/51/39 58/52/40 52/281/221
f 58/52/40 72/67/51 52/281/221
f 72/67/51 73/68/52 52/281/221
f 73/68/52 111/283/223 52/281/221
f 111/283/223 30/22/18 52/281/221
f 25/21/17 37/284/224 30/22/18
f 37/284/224 33/27/21 30/22/18
f 33/27/21 34/28/22 30/22/18
f 34/28/22 48/41/31 30/22/18
f 48/41/31 49/43/33 30/22/18
f 63/59/45 64/60/46 49/43/33
f 64/60/46 78/75/57 49/43/33
f 78/75/57 79/76/58 49/43/33
f 82/285/225 94/286/226 85/86/65
f 94/286/226 97/287/227 85/86/65
f 49/43/33 79/76/58 30/22/18
f 112/279/219 52/281/221 171/94/72
f 21/9/7 22/11/9 181/276/216
f 97/287/227 163/288/228 85/86/65
f 79/76/58 195/88/66 30/22/18
f 181/276/216 22/11/9 142/289/229
f 171/94/72 52/281/221 22/11/9
f 85/86/65 163/288/228 195/88/66
f 30/22/18 195/88/66 52/281/221
f 142/289/229 22/11/9 139/115/87
f 139/115/87 22/11/9 138/113/85
f 138/113/85 22/11/9 199/290/230
f 22/11/9 52/281/221 199/290/230
f 163/288/228 135/110/84 195/88/66
f 135/110/84 130/109/83 195/88/66
f 130/109/83 127/291/231 195/88/66
f 127/291/231 198/292/232 195/88/66
f 195/88/66 198/292/232 52/281/221
f 198/292/232 153/129/97 52/281/221
f 153/129/97 154/131/99 52/281/221
f 154/131/99 157/293/233 52/281/221
f 157/293/233 166/294/234 52/281/221
f 166/294/234 124/295/235 52/281/221
f 124/295/235 18/8/6 52/281/221
f 18/8/6 13/6/5 52/281/221
f 199/290/230 52/281/221 184/296/236
f 184/296/236 52/281/221 187/297/237
f 187/297/237 52/281/221 145/126/95
f 145/126/95 52/281/221 150/128/96
f 52/281/221 13/6/5 150/128/96
f 13/6/5 1/273/213 150/128/96
f 1/273/213 190/298/238 150/128/96
f 190/298/238 174/139/105 150/128/96
f 174/139/105 175/140/106 150/128/96
f 150/128/96 175/140/106 162/299/239
f 162/299/239 175/140/106 204/300/240
f 175/140/106 178/271/211 204/300/240
f 178/271/211 7/270/210 204/300/240
f 2/301/241 191/302/242 1/273/213
f 1/273/213 191/302/242 190/298/238
f 3/228/190 192/227/189 2/303/241
f 2/303/241 192/227/189 191/304/242
f 2/303/241 5/305/243 3/228/190
f 3/228/190 5/305/243 6/237/197
f 1/273/213 4/272/212 2/301/241
f 2/301/241 4/272/212 5/306/243
f 8/307/244 11/308/245 9/231/193
f 9/231/193 11/308/245 12/232/194
f 7/270/210 10/269/209 8/309/244
f 8/309/244 10/269/209 11/310/245
f 6/260/197 5/311/243 15/1/1
f 15/1/1 5/311/243 14/2/2
f 5/306/243 4/272/212 14/5/2
f 14/5/2 4/272/212 13/6/5
f 19/14/11 20/13/8 100/177/139
f 100/177/139 20/13/8 101/312/246
f 20/10/8 21/9/7 101/313/246
f 101/313/246 21/9/7 102/275/215
f 26/23/14 38/314/247 25/21/17
f 25/21/17 38/314/247 37/284/224
f 26/18/14 27/17/13 38/315/247
f 38/315/247 27/17/13 39/151/115
f 28/19/15 29/20/16 109/186/148
f 109/186/148 29/20/16 110/316/248
f 29/24/16 30/22/18 110/317/248
f 110/317/248 30/22/18 111/283/223
f 31/30/23 32/29/19 39/151/115
f 39/151/115 32/29/19 38/315/247
f 33/27/21 37/284/224 32/25/19
f 32/25/19 37/284/224 38/314/247
f 44/34/26 53/318/249 43/36/28
f 43/36/28 53/318/249 52/281/221
f 45/38/30 54/158/122 44/40/26
f 44/40/26 54/158/122 53/319/249
f 34/28/22 35/26/20 48/41/31
f 48/41/31 35/26/20 47/42/32
f 35/31/20 36/32/24 47/45/32
f 47/45/32 36/32/24 46/46/35
f 56/55/37 68/320/250 55/53/41
f 55/53/41 68/320/250 67/164/128
f 57/51/39 69/282/222 56/49/37
f 56/49/37 69/282/222 68/321/250
f 50/44/34 62/57/43 49/43/33
f 49/43/33 62/57/43 63/59/45
f 50/47/34 51/48/36 62/61/43
f 62/61/43 51/48/36 61/62/47
f 53/318/249 68/321/250 52/281/221
f 52/281/221 68/321/250 69/282/222
f 54/158/122 67/164/128 53/319/249
f 53/319/249 67/164/128 68/320/250
f 59/50/38 71/65/49 58/52/40
f 58/52/40 71/65/49 72/67/51
f 60/54/42 70/69/53 59/56/38
f 59/56/38 70/69/53 71/71/49
f 65/58/44 77/73/55 64/60/46
f 64/60/46 77/73/55 78/75/57
f 65/322/44 66/169/48 77/79/55
f 77/79/55 66/169/48 76/77/59
f 83/323/251 95/324/252 82/285/225
f 82/285/225 95/324/252 94/286/226
f 84/172/134 96/171/133 83/325/251
f 83/325/251 96/171/133 95/326/252
f 83/325/251 86/327/62 84/172/134
f 84/172/134 86/327/62 87/264/61
f 82/285/225 85/86/65 83/323/251
f 83/323/251 85/86/65 86/85/62
f 89/328/253 107/329/254 88/277/217
f 88/277/217 107/329/254 106/278/218
f 90/183/145 108/182/144 89/330/253
f 89/330/253 108/182/144 107/331/254
f 89/330/253 92/89/67 90/183/145
f 90/183/145 92/89/67 93/91/69
f 88/277/217 91/93/71 89/328/253
f 89/328/253 91/93/71 92/95/67
f 94/286/226 95/324/252 97/287/227
f 97/287/227 95/324/252 98/332/255
f 95/326/252 96/171/133 98/333/255
f 98/333/255 96/171/133 99/175/137
f 97/287/227 98/332/255 163/288/228
f 163/288/228 98/332/255 164/334/256
f 98/333/255 99/175/137 164/335/256
f 164/335/256 99/175/137 165/246/203
f 101/312/246 104/336/257 100/177/139
f 100/177/139 104/336/257 103/180/142
f 102/275/215 105/274/214 101/313/246
f 101/313/246 105/274/214 104/337/257
f 107/329/254 113/338/258 106/278/218
f 106/278/218 113/338/258 112/279/219
f 108/182/144 114/189/151 107/331/254
f 107/331/254 114/189/151 113/339/258
f 74/66/50 110/317/248 73/68/52
f 73/68/52 110/317/248 111/283/223
f 75/70/54 109/186/148 74/72/50
f 74/72/50 109/186/148 110/316/248
f 116/103/73 122/340/259 115/101/77
f 115/101/77 122/340/259 121/193/155
f 117/99/75 123/280/220 116/97/73
f 116/97/73 123/280/220 122/341/259
f 41/342/25 119/104/74 40/235/29
f 40/235/29 119/104/74 120/102/78
f 42/35/27 118/100/76 41/33/25
f 41/33/25 118/100/76 119/98/74
f 113/338/258 122/341/259 112/279/219
f 112/279/219 122/341/259 123/280/220
f 114/189/151 121/193/155 113/339/258
f 113/339/258 121/193/155 122/340/259
f 16/3/3 17/4/4 126/222/184
f 126/222/184 17/4/4 125/343/260
f 17/7/4 18/8/6 125/344/260
f 125/344/260 18/8/6 124/295/235
f 128/345/261 131/105/79 129/197/159
f 129/197/159 131/105/79 132/107/81
f 127/291/231 130/109/83 128/346/261
f 128/346/261 130/109/83 131/111/79
f 139/115/87 140/116/88 142/289/229
f 142/289/229 140/116/88 143/347/262
f 140/119/88 141/120/90 143/348/262
f 143/348/262 141/120/90 144/200/162
f 142/289/229 143/347/262 181/276/216
f 181/276/216 143/347/262 182/349/263
f 143/348/262 144/200/162 182/350/263
f 182/350/263 144/200/162 183/215/177
f 145/126/95 146/125/92 187/297/237
f 187/297/237 146/125/92 188/351/264
f 146/122/92 147/121/91 188/352/264
f 188/352/264 147/121/91 189/217/179
f 149/353/94 161/354/265 148/256/93
f 148/256/93 161/354/265 160/242/202
f 150/128/96 162/299/239 149/127/94
f 149/127/94 162/299/239 161/355/265
f 151/134/101 152/133/98 196/225/187
f 196/225/187 152/133/98 197/356/266
f 152/130/98 153/129/97 197/357/266
f 197/357/266 153/129/97 198/292/232
f 155/132/100 158/358/267 154/131/99
f 154/131/99 158/358/267 157/293/233
f 156/136/102 159/206/168 155/135/100
f 155/135/100 159/206/168 158/359/267
f 158/358/267 167/360/268 157/293/233
f 157/293/233 167/360/268 166/294/234
f 159/206/168 168/252/182 158/359/267
f 158/359/267 168/252/182 167/361/268
f 161/354/265 203/362/269 160/242/202
f 160/242/202 203/362/269 202/241/201
f 162/299/239 204/300/240 161/355/265
f 161/355/265 204/300/240 203/363/269
f 134/106/80 164/364/256 133/108/82
f 133/108/82 164/364/256 165/243/203
f 135/110/84 163/288/228 134/112/80
f 134/112/80 163/288/228 164/334/256
f 126/222/184 125/343/260 168/220/182
f 168/220/182 125/343/260 167/365/268
f 125/344/260 124/295/235 167/360/268
f 167/360/268 124/295/235 166/294/234
f 23/12/10 170/96/68 22/11/9
f 22/11/9 170/96/68 171/94/72
f 24/266/12 169/92/70 23/366/10
f 23/366/10 169/92/70 170/90/68
f 175/140/106 176/138/104 178/271/211
f 178/271/211 176/138/104 179/367/270
f 176/143/104 177/144/108 179/368/270
f 179/368/270 177/144/108 180/212/174
f 12/262/194 11/369/245 180/212/174
f 180/212/174 11/369/245 179/368/270
f 11/310/245 10/269/209 179/367/270
f 179/367/270 10/269/209 178/271/211
f 104/336/257 182/370/263 103/180/142
f 103/180/142 182/370/263 183/247/177
f 105/274/214 181/276/216 104/337/257
f 104/337/257 181/276/216 182/349/263
f 185/371/271 200/372/272 184/296/236
f 184/296/236 200/372/272 199/290/230
f 186/218/180 201/258/205 185/373/271
f 185/373/271 201/258/205 200/374/272
f 185/373/271 188/352/264 186/218/180
f 186/218/180 188/352/264 189/217/179
f 184/296/236 187/297/237 185/371/271
f 185/371/271 187/297/237 188/351/264
f 173/141/103 191/304/242 172/142/107
f 172/142/107 191/304/242 192/227/189
f 174/139/105 190/298/238 173/137/103
f 173/137/103 190/298/238 191/302/242
f 79/76/58 80/74/56 195/88/66
f 195/88/66 80/74/56 194/87/64
f 80/80/56 81/78/60 194/84/64
f 194/84/64 81/78/60 193/83/63
f 128/346/261 197/357/266 127/291/231
f 127/291/231 197/357/266 198/292/232
f 129/197/159 196/254/187 128/345/261
f 128/345/261 196/254/187 197/375/266
f 136/118/89 137/117/86 201/249/205
f 201/249/205 137/117/86 200/376/272
f 137/114/86 138/113/85 200/372/272
f 200/372/272 138/113/85 199/290/230
f 8/309/244 203/363/269 7/270/210
f 7/270/210 203/363/269 204/300/240
f 9/231/193 202/241/201 8/307/244
f 8/307/244 202/241/201 203/362/269
f 235/377/273 224/378/273 267/379/273
f 239/380/273 229/381/273 256/382/273
f 245/383/273 227/384/273 255/385/273
f 242/386/273 225/387/274 254/388/273
f 207/389/273 223/390/273 253/391/273
f 246/392/273 253/391/273 224/378/273
f 209/393/273 246/392/273 224/378/273
f 244/394/273 209/393/273 224/378/273
f 211/395/273 244/394/273 224/378/273
f 269/396/273 211/395/273 224/378/273
f 235/377/273 269/396/273 224/378/273
f 224/378/158 264/397/156 220/398/157
f 224/378/273 220/398/274 251/399/273
f 224/378/273 251/399/273 219/400/273
f 224/378/273 219/400/273 270/401/273
f 224/378/273 270/401/273 236/402/273
f 224/378/273 236/402/273 267/379/273
f 239/380/273 215/403/273 241/404/273
f 239/380/273 241/404/273 213/405/274
f 239/380/273 213/405/274 243/406/273
f 239/380/273 243/406/273 212/407/273
f 239/380/273 212/407/273 271/408/273
f 239/380/273 271/408/273 238/409/273
f 239/380/273 238/409/273 268/410/273
f 239/380/273 268/410/273 237/411/273
f 239/380/273 237/411/273 272/412/273
f 239/380/273 272/412/273 221/413/273
f 239/380/273 221/413/273 252/414/273
f 239/380/273 252/414/273 222/415/273
f 239/380/273 222/415/273 263/416/273
f 239/380/273 263/416/273 229/381/273
f 217/417/273 239/380/273 256/382/273
f 249/418/273 217/417/273 256/382/273
f 206/419/273 249/418/273 256/382/273
f 247/420/273 206/419/273 256/382/273
f 208/421/273 247/420/273 256/382/273
f 245/383/273 208/421/273 256/382/273
f 245/383/273 256/382/273 230/422/273
f 245/383/273 230/422/273 265/423/273
f 245/383/273 265/423/273 227/384/273
f 210/424/273 245/383/273 255/385/273
f 242/386/273 210/424/273 255/385/273
f 242/386/273 255/385/273 228/425/273
f 242/386/273 228/425/273 261/426/273
f 242/386/273 261/426/273 233/427/273
f 242/386/273 233/427/273 258/428/273
f 242/386/273 258/428/273 234/429/273
f 242/386/273 234/429/273 262/430/273
f 242/386/273 262/430/273 218/431/273
f 242/386/273 218/431/273 260/432/273
f 242/386/273 260/432/273 231/433/273
f 242/386/273 231/433/273 257/434/273
f 242/386/273 257/434/273 232/435/273
f 242/386/273 232/435/273 259/436/273
f 242/386/273 259/436/273 225/387/274
f 214/437/273 242/386/273 254/388/273
f 240/438/273 214/437/273 254/388/273
f 216/439/273 240/438/273 254/388/273
f 250/440/273 216/439/273 254/388/273
f 205/441/273 250/440/273 254/388/273
f 248/442/273 205/441/273 254/388/273
f 207/389/273 248/442/273 254/388/273
f 207/389/273 254/388/273 226/443/273
f 207/389/273 226/443/273 266/444/273
f 207/389/273 266/444/273 223/390/273
f 246/392/273 207/389/273 253/391/273
