# Blender 4.0.0
# www.blender.org
o CoffeeMachine046_Lid002
v 0.00268500 -0.10332700 -0.18303700
v 0.03611900 -0.10101600 -0.18309800
v 0.06826300 -0.09545600 -0.18315500
v 0.09797000 -0.08685900 -0.18320600
v 0.12422000 -0.07555400 -0.18325000
v 0.14644600 -0.06196500 -0.18328600
v -0.03081900 -0.10230100 -0.18297500
v -0.06317700 -0.09798000 -0.18291400
v -0.09323500 -0.09053000 -0.18285600
v -0.11997300 -0.08024200 -0.18280300
v -0.14291100 -0.06752100 -0.18275500
v 0.15614400 -0.05459900 -0.18330000
v -0.01413500 -0.10323100 -0.18300600
v 0.01948800 -0.10258500 -0.18306800
v 0.05242600 -0.09863100 -0.18312700
v 0.08348900 -0.09151900 -0.18318100
v 0.11158300 -0.08152000 -0.18322900
v 0.13581600 -0.06901500 -0.18326900
v -0.04721500 -0.10054400 -0.18294400
v -0.07856000 -0.09463000 -0.18288400
v -0.10707400 -0.08571800 -0.18282800
v -0.13187600 -0.07415500 -0.18277800
v -0.15314300 -0.06053800 -0.18273400
v 0.14644000 -0.06196400 -0.18658600
v 0.13581000 -0.06901400 -0.18656900
v 0.15613800 -0.05459800 -0.18660000
v -0.03082500 -0.10230000 -0.18627500
v -0.04722100 -0.10054300 -0.18624400
v 0.00267900 -0.10332500 -0.18633700
v 0.01948200 -0.10258400 -0.18636800
v 0.03611200 -0.10101400 -0.18639800
v 0.05242000 -0.09863000 -0.18642700
v -0.01414100 -0.10323000 -0.18630600
v 0.09796400 -0.08685800 -0.18650600
v 0.11157700 -0.08151900 -0.18652900
v 0.06825700 -0.09545500 -0.18645500
v 0.08348300 -0.09151800 -0.18648100
v 0.12421400 -0.07555200 -0.18655000
v -0.06318300 -0.09797800 -0.18621400
v -0.07856600 -0.09462900 -0.18618400
v -0.09324100 -0.09052900 -0.18615600
v -0.10708000 -0.08571700 -0.18612800
v -0.11997900 -0.08024100 -0.18610300
v -0.13188200 -0.07415400 -0.18607800
v -0.14291700 -0.06751900 -0.18605500
v -0.15314900 -0.06053600 -0.18603400
v 0.14656400 -0.03796800 -0.18327600
v 0.14656300 -0.03717800 -0.18406500
v 0.13521000 -0.03818600 -0.18325600
v 0.13519300 -0.03739600 -0.18404500
v 0.16328500 -0.04068200 -0.18330800
v 0.16401000 -0.04011800 -0.18409900
v 0.16409300 -0.04735800 -0.18331200
v 0.16489600 -0.04743800 -0.18410300
v 0.15688400 -0.03817900 -0.18329500
v 0.15703900 -0.03739300 -0.18408500
v -0.03111900 -0.04137900 -0.18295100
v -0.03112400 -0.04058900 -0.18374000
v -0.04730500 -0.04169000 -0.18292100
v -0.04730700 -0.04090000 -0.18371000
v 0.00341100 -0.16590800 -0.18306300
v 0.00342500 -0.16669800 -0.18385300
v 0.02033800 -0.16475000 -0.18309400
v 0.02042900 -0.16553400 -0.18388300
v 0.16048200 -0.05825100 -0.18331000
v 0.16121400 -0.05854500 -0.18410100
v 0.15403100 -0.07186800 -0.18330300
v 0.15472900 -0.07223500 -0.18409400
v 0.00195400 -0.04074400 -0.18301100
v 0.00194300 -0.03995400 -0.18380100
v 0.01855700 -0.04042500 -0.18304200
v 0.01854400 -0.03963600 -0.18383100
v 0.14566200 -0.08632400 -0.18329400
v 0.14632600 -0.08675200 -0.18408400
v 0.03501200 -0.04010900 -0.18307200
v 0.03499700 -0.03932000 -0.18386100
v 0.05117900 -0.03979900 -0.18310200
v 0.05116100 -0.03901000 -0.18389100
v 0.13581700 -0.10014400 -0.18328100
v 0.13643600 -0.10063400 -0.18407100
v -0.03037600 -0.16323400 -0.18300000
v -0.03051600 -0.16401200 -0.18378900
v -0.04691000 -0.15942800 -0.18296800
v -0.04712600 -0.16018800 -0.18375700
v -0.01465300 -0.04106300 -0.18298100
v -0.01466100 -0.04027300 -0.18377000
v -0.01354800 -0.16540000 -0.18303100
v -0.01361200 -0.16618800 -0.18382100
v 0.09888600 -0.13493300 -0.18322600
v 0.09933600 -0.13558100 -0.18401700
v 0.11231700 -0.12456500 -0.18324700
v 0.11282800 -0.12516600 -0.18403800
v 0.06692100 -0.03949700 -0.18313000
v 0.06690100 -0.03870700 -0.18392000
v 0.08210900 -0.03920500 -0.18315800
v 0.08208700 -0.03841600 -0.18394700
v 0.12466700 -0.11293300 -0.18326500
v 0.12523500 -0.11348000 -0.18405600
v 0.03707000 -0.16193900 -0.18312300
v 0.03723700 -0.16271100 -0.18391300
v 0.09662500 -0.03892600 -0.18318500
v 0.09660100 -0.03813700 -0.18397400
v 0.11035900 -0.03866300 -0.18321000
v 0.11033500 -0.03787300 -0.18399900
v 0.06930800 -0.15148000 -0.18317800
v 0.06962300 -0.15220400 -0.18396900
v 0.05344600 -0.15750100 -0.18315200
v 0.05368800 -0.15825200 -0.18394200
v 0.12322500 -0.03841600 -0.18323400
v 0.12320200 -0.03762600 -0.18402300
v 0.08450300 -0.14393200 -0.18320300
v 0.08488700 -0.14462200 -0.18399400
v -0.06299100 -0.15402000 -0.18293600
v -0.06328100 -0.15475600 -0.18372500
v -0.07846500 -0.14706100 -0.18290500
v -0.07882500 -0.14776500 -0.18369400
v -0.06307500 -0.04199300 -0.18289200
v -0.06307500 -0.04120300 -0.18368200
v -0.07830100 -0.04228500 -0.18286400
v -0.07829800 -0.04149500 -0.18365400
v -0.09318300 -0.13862000 -0.18287500
v -0.09361000 -0.13928500 -0.18366300
v -0.10700100 -0.12877600 -0.18284500
v -0.10749200 -0.12939600 -0.18363400
v -0.09286600 -0.04256500 -0.18283800
v -0.09286200 -0.04177500 -0.18362700
v -0.10666600 -0.04282900 -0.18281200
v -0.10665900 -0.04204000 -0.18360200
v -0.11978900 -0.11762600 -0.18281700
v -0.12033900 -0.11819500 -0.18360600
v -0.13142200 -0.10527500 -0.18279100
v -0.13202500 -0.10578800 -0.18358000
v -0.11961700 -0.04307800 -0.18278900
v -0.11961000 -0.04228800 -0.18357800
v -0.13173200 -0.04331100 -0.18276700
v -0.13173000 -0.04252100 -0.18355600
v -0.14179000 -0.09184300 -0.18276700
v -0.14243900 -0.09229600 -0.18355500
v -0.15070800 -0.07771900 -0.18274500
v -0.15139400 -0.07811300 -0.18353300
v -0.14335300 -0.04353400 -0.18274500
v -0.14338500 -0.04274500 -0.18353400
v -0.15372200 -0.04404900 -0.18272600
v -0.15434100 -0.04337100 -0.18355000
v -0.15767600 -0.06436100 -0.18272700
v -0.15840000 -0.06468200 -0.18351500
v -0.16165300 -0.05390900 -0.18271600
v -0.16247700 -0.05372400 -0.18353600
v -0.16112200 -0.04696000 -0.18271100
v -0.16167400 -0.04637100 -0.18350200
v 0.14656000 -0.03717700 -0.18578700
v 0.14655800 -0.03796600 -0.18657600
v 0.13520400 -0.03818400 -0.18655600
v 0.13519000 -0.03739500 -0.18576600
v 0.16489300 -0.04743800 -0.18582400
v 0.16408700 -0.04735700 -0.18661200
v 0.16327900 -0.04068100 -0.18660800
v 0.16400700 -0.04011800 -0.18582000
v 0.15687700 -0.03817800 -0.18659500
v 0.15703600 -0.03739200 -0.18580600
v -0.03112800 -0.04058900 -0.18546100
v -0.03112500 -0.04137800 -0.18625100
v -0.04731100 -0.04168900 -0.18622100
v -0.04731000 -0.04089900 -0.18543100
v 0.00342200 -0.16669700 -0.18557400
v 0.00340500 -0.16590700 -0.18636300
v 0.02033200 -0.16474800 -0.18639400
v 0.02042600 -0.16553400 -0.18560500
v 0.15472600 -0.07223500 -0.18581500
v 0.15402500 -0.07186700 -0.18660300
v 0.16047500 -0.05825000 -0.18661000
v 0.16121100 -0.05854500 -0.18582200
v 0.01854000 -0.03963500 -0.18555200
v 0.01855100 -0.04042400 -0.18634200
v 0.00194800 -0.04074300 -0.18631100
v 0.00194000 -0.03995400 -0.18552200
v 0.14632200 -0.08675100 -0.18580600
v 0.14565600 -0.08632300 -0.18659400
v 0.05115700 -0.03900900 -0.18561200
v 0.05117300 -0.03979800 -0.18640200
v 0.03500600 -0.04010800 -0.18637200
v 0.03499300 -0.03931900 -0.18558200
v 0.13643300 -0.10063300 -0.18579300
v 0.13581100 -0.10014300 -0.18658100
v -0.03038200 -0.16323300 -0.18630000
v -0.03052000 -0.16401100 -0.18551000
v -0.04712900 -0.16018700 -0.18547800
v -0.04691600 -0.15942600 -0.18626800
v -0.01466400 -0.04027300 -0.18549100
v -0.01465900 -0.04106200 -0.18628100
v -0.01355400 -0.16539900 -0.18633100
v -0.01361500 -0.16618700 -0.18554200
v 0.09933300 -0.13558000 -0.18573800
v 0.09888000 -0.13493100 -0.18652600
v 0.11231000 -0.12456400 -0.18654700
v 0.11282500 -0.12516600 -0.18575900
v 0.08208400 -0.03841500 -0.18566900
v 0.08210300 -0.03920400 -0.18645800
v 0.06691500 -0.03949600 -0.18643000
v 0.06689800 -0.03870700 -0.18564100
v 0.12523200 -0.11348000 -0.18577700
v 0.12466100 -0.11293100 -0.18656500
v 0.03706400 -0.16193800 -0.18642300
v 0.03723400 -0.16271000 -0.18563400
v 0.11033200 -0.03787300 -0.18572000
v 0.11035300 -0.03866200 -0.18651000
v 0.09661900 -0.03892500 -0.18648500
v 0.09659800 -0.03813600 -0.18569500
v 0.05368500 -0.15825200 -0.18566300
v 0.05344000 -0.15750000 -0.18645200
v 0.06930200 -0.15147900 -0.18647800
v 0.06962000 -0.15220300 -0.18569000
v 0.12321900 -0.03841400 -0.18653400
v 0.12319900 -0.03762600 -0.18574400
v 0.08488400 -0.14462100 -0.18571500
v 0.08449700 -0.14393100 -0.18650300
v -0.06299700 -0.15401900 -0.18623600
v -0.06328400 -0.15475500 -0.18544600
v -0.07882900 -0.14776400 -0.18541500
v -0.07847100 -0.14706000 -0.18620500
v -0.06307800 -0.04120200 -0.18540300
v -0.06308100 -0.04199100 -0.18619200
v -0.07830700 -0.04228400 -0.18616400
v -0.07830100 -0.04149400 -0.18537500
v -0.09318900 -0.13861900 -0.18617500
v -0.09361400 -0.13928500 -0.18538500
v -0.10749600 -0.12939600 -0.18535500
v -0.10700700 -0.12877500 -0.18614500
v -0.09286500 -0.04177400 -0.18534800
v -0.09287200 -0.04256300 -0.18613800
v -0.10667200 -0.04282800 -0.18611200
v -0.10666300 -0.04203900 -0.18532300
v -0.11979600 -0.11762500 -0.18611700
v -0.12034200 -0.11819500 -0.18532700
v -0.13202800 -0.10578700 -0.18530100
v -0.13142800 -0.10527400 -0.18609100
v -0.11961400 -0.04228800 -0.18529900
v -0.11962300 -0.04307700 -0.18608900
v -0.13173800 -0.04330900 -0.18606700
v -0.13173300 -0.04252000 -0.18527700
v -0.14179600 -0.09184200 -0.18606700
v -0.14244300 -0.09229500 -0.18527700
v -0.15139700 -0.07811200 -0.18525500
v -0.15071400 -0.07771800 -0.18604500
v -0.14338800 -0.04274400 -0.18525600
v -0.14335900 -0.04353300 -0.18604500
v -0.15377900 -0.04399100 -0.18602600
v -0.15434400 -0.04337000 -0.18520000
v -0.16248000 -0.05372300 -0.18519300
v -0.16165900 -0.05390800 -0.18601600
v -0.15768200 -0.06435900 -0.18602700
v -0.15840300 -0.06468100 -0.18523600
v -0.16112800 -0.04695900 -0.18601100
v -0.16167700 -0.04637100 -0.18522300
vn 0.0018 0.0360 0.9994
vn 0.0110 0.0565 0.9983
vn 0.0004 0.9547 0.2975
vn 0.1581 0.9460 0.2829
vn -0.0178 0.9537 0.3002
vn 0.0013 0.0268 0.9996
vn -0.0178 0.9537 0.3004
vn 0.0014 0.0218 0.9998
vn 0.0869 -0.0141 0.9961
vn 0.9491 -0.1464 0.2790
vn 0.1445 0.1112 0.9832
vn 0.7556 0.5905 0.2834
vn 0.1227 -0.0500 0.9912
vn 0.8849 -0.3629 0.2920
vn 0.0016 0.0125 0.9999
vn 0.0016 0.0122 0.9999
vn 0.0016 0.0131 0.9999
vn 0.0015 0.0139 0.9999
vn 0.0021 -0.0135 0.9999
vn 0.0008 -0.0136 0.9999
vn 0.0189 -0.9552 0.2953
vn -0.0748 -0.9524 0.2955
vn 0.1124 -0.9488 0.2951
vn 0.0034 -0.0136 0.9999
vn 0.2049 -0.9333 0.2950
vn 0.0047 -0.0137 0.9999
vn 0.0648 -0.0335 0.9973
vn 0.8453 -0.4460 0.2941
vn 0.0421 -0.0263 0.9988
vn 0.8036 -0.5174 0.2941
vn 0.0016 0.0121 0.9999
vn -0.0178 0.9537 0.3003
vn 0.0016 0.0126 0.9999
vn 0.0293 -0.0221 0.9993
vn 0.7505 -0.5918 0.2941
vn 0.0016 0.0139 0.9999
vn 0.0216 -0.0193 0.9996
vn 0.6889 -0.6625 0.2941
vn -0.0006 -0.0138 0.9999
vn -0.0020 -0.0141 0.9999
vn -0.1678 -0.9405 0.2956
vn -0.2591 -0.9194 0.2958
vn -0.0038 -0.0146 0.9999
vn -0.3480 -0.8896 0.2960
vn 0.0128 -0.0161 0.9998
vn 0.0101 -0.0152 0.9998
vn 0.5464 -0.7841 0.2944
vn 0.4670 -0.8338 0.2945
vn 0.6207 -0.7268 0.2943
vn 0.0164 -0.0174 0.9997
vn 0.0015 0.0150 0.9999
vn 0.0015 0.0165 0.9999
vn 0.2954 -0.9088 0.2948
vn 0.0062 -0.0140 0.9999
vn 0.0015 0.0186 0.9998
vn 0.0080 -0.0145 0.9999
vn 0.3831 -0.8755 0.2947
vn -0.0058 -0.0153 0.9999
vn -0.4335 -0.8511 0.2961
vn -0.0084 -0.0164 0.9998
vn -0.5148 -0.8045 0.2963
vn 0.0015 0.0149 0.9999
vn 0.0015 0.0164 0.9999
vn -0.0119 -0.0178 0.9998
vn -0.5912 -0.7501 0.2965
vn -0.0168 -0.0198 0.9997
vn -0.6618 -0.6885 0.2966
vn -0.0178 0.9536 0.3004
vn -0.0242 -0.0226 0.9995
vn -0.7261 -0.6202 0.2968
vn -0.0363 -0.0270 0.9990
vn -0.7820 -0.5479 0.2971
vn -0.0343 0.9554 0.2933
vn 0.0007 0.0354 0.9994
vn -0.0577 -0.0348 0.9977
vn -0.8264 -0.4781 0.2975
vn -0.1112 -0.0524 0.9924
vn -0.8698 -0.3970 0.2929
vn -0.1966 0.9382 0.2849
vn -0.0082 0.0625 0.9980
vn -0.7511 0.6072 0.2591
vn -0.1312 0.0967 0.9866
vn -0.0843 -0.0200 0.9962
vn -0.9493 -0.1634 0.2685
vn 0.1571 0.9462 -0.2827
vn 0.0073 0.0573 -0.9983
vn -0.0007 0.9550 -0.2967
vn -0.0021 0.0368 -0.9993
vn -0.0023 0.0276 -0.9996
vn -0.0189 0.9539 -0.2994
vn -0.0022 0.0226 -0.9997
vn -0.0189 0.9539 -0.2995
vn 0.9480 -0.1462 -0.2826
vn 0.8838 -0.3627 -0.2956
vn 0.0832 -0.0134 -0.9964
vn 0.1190 -0.0493 -0.9917
vn 0.1408 0.1120 -0.9837
vn 0.7546 0.5907 -0.2857
vn -0.0189 0.9539 -0.2996
vn -0.0021 0.0130 -0.9999
vn -0.0021 0.0134 -0.9999
vn -0.0021 0.0139 -0.9999
vn -0.0021 0.0147 -0.9999
vn 0.0178 -0.9550 -0.2961
vn -0.0759 -0.9522 -0.2959
vn -0.0018 -0.0128 -0.9999
vn -0.0029 -0.0129 -0.9999
vn -0.0003 -0.0128 -0.9999
vn 0.1113 -0.9486 -0.2963
vn 0.0010 -0.0130 -0.9999
vn 0.2037 -0.9331 -0.2964
vn 0.8441 -0.4458 -0.2979
vn 0.8025 -0.5172 -0.2976
vn 0.0613 -0.0327 -0.9976
vn 0.0384 -0.0255 -0.9989
vn -0.0021 0.0133 -0.9999
vn -0.0021 0.0129 -0.9999
vn 0.7494 -0.5917 -0.2973
vn 0.0256 -0.0213 -0.9994
vn -0.0021 0.0146 -0.9999
vn 0.6878 -0.6623 -0.2972
vn 0.0178 -0.0185 -0.9997
vn -0.0042 -0.0130 -0.9999
vn -0.1689 -0.9402 -0.2957
vn -0.2603 -0.9192 -0.2956
vn -0.0057 -0.0134 -0.9999
vn -0.3491 -0.8893 -0.2954
vn -0.0074 -0.0138 -0.9999
vn 0.5453 -0.7839 -0.2970
vn 0.4658 -0.8336 -0.2969
vn 0.0091 -0.0153 -0.9998
vn 0.0064 -0.0144 -0.9999
vn 0.0127 -0.0167 -0.9998
vn 0.6195 -0.7266 -0.2971
vn -0.0021 0.0157 -0.9999
vn -0.0021 0.0173 -0.9998
vn 0.0026 -0.0132 -0.9999
vn 0.2942 -0.9086 -0.2966
vn -0.0022 0.0194 -0.9998
vn 0.0043 -0.0137 -0.9999
vn 0.3819 -0.8753 -0.2967
vn -0.4346 -0.8508 -0.2952
vn -0.0094 -0.0146 -0.9998
vn -0.5160 -0.8042 -0.2951
vn -0.0121 -0.0156 -0.9998
vn -0.5923 -0.7498 -0.2949
vn -0.0155 -0.0170 -0.9997
vn -0.6630 -0.6882 -0.2947
vn -0.0205 -0.0190 -0.9996
vn -0.0023 0.0226 -0.9997
vn -0.7272 -0.6199 -0.2946
vn -0.0279 -0.0218 -0.9994
vn -0.7832 -0.5476 -0.2946
vn -0.0400 -0.0262 -0.9989
vn -0.0189 0.9540 -0.2993
vn -0.0029 0.0361 -0.9993
vn -0.0346 0.9555 -0.2929
vn -0.8276 -0.4779 -0.2945
vn -0.0613 -0.0339 -0.9975
vn -0.8710 -0.3968 -0.2898
vn -0.1149 -0.0516 -0.9920
vn -0.0122 0.0634 -0.9979
vn -0.2001 0.9437 -0.2635
vn -0.1354 0.0976 -0.9860
vn -0.7506 0.6091 -0.2561
vn -0.9502 -0.1639 -0.2651
vn -0.0880 -0.0191 -0.9959
vn -0.0018 0.0004 -1.0000
vn 0.0018 -0.0004 1.0000
vt 0.979139 0.785740
vt 0.979100 0.784744
vt 0.979216 0.785739
vt 0.979175 0.784727
vt 0.979216 0.786837
vt 0.979139 0.786837
vt 0.979216 0.787996
vt 0.979139 0.787995
vt 0.978200 0.784065
vt 0.978191 0.783987
vt 0.978846 0.784130
vt 0.978899 0.784059
vt 0.977154 0.784434
vt 0.977125 0.784363
vt 0.979139 0.802908
vt 0.979139 0.801317
vt 0.979216 0.802907
vt 0.979216 0.801316
vt 0.979216 0.804470
vt 0.979139 0.804471
vt 0.979216 0.805994
vt 0.954409 0.804568
vt 0.954485 0.806091
vt 0.954409 0.806092
vt 0.967048 0.799804
vt 0.967128 0.801441
vt 0.966972 0.799804
vt 0.967052 0.801448
vt 0.967052 0.798159
vt 0.967128 0.798167
vt 0.967294 0.796530
vt 0.967369 0.796545
vt 0.975851 0.785082
vt 0.975814 0.785015
vt 0.974471 0.785917
vt 0.974428 0.785854
vt 0.979139 0.799712
vt 0.979139 0.798108
vt 0.979216 0.799712
vt 0.979216 0.798108
vt 0.979139 0.796518
vt 0.979216 0.796518
vt 0.973154 0.786893
vt 0.973106 0.786834
vt 0.979139 0.794956
vt 0.979216 0.794956
vt 0.979139 0.793435
vt 0.979216 0.793436
vt 0.971940 0.787994
vt 0.971886 0.787940
vt 0.967369 0.803062
vt 0.967767 0.804652
vt 0.967294 0.803077
vt 0.967694 0.804674
vt 0.968319 0.806195
vt 0.968249 0.806224
vt 0.969863 0.790525
vt 0.969020 0.791931
vt 0.969799 0.790482
vt 0.968953 0.791895
vt 0.970780 0.789160
vt 0.970839 0.789209
vt 0.954333 0.804000
vt 0.954342 0.802353
vt 0.954409 0.803997
vt 0.979139 0.791968
vt 0.979216 0.791968
vt 0.979139 0.790565
vt 0.979216 0.790566
vt 0.967694 0.794933
vt 0.967767 0.794955
vt 0.979139 0.789238
vt 0.979216 0.789239
vt 0.968319 0.793412
vt 0.968249 0.793383
vt 0.969020 0.807676
vt 0.968953 0.807712
vt 0.969863 0.809082
vt 0.969799 0.809125
vt 0.954485 0.807562
vt 0.954409 0.807563
vt 0.954485 0.808969
vt 0.954409 0.808970
vt 0.970839 0.810399
vt 0.970780 0.810447
vt 0.971940 0.811613
vt 0.971886 0.811667
vt 0.954485 0.810302
vt 0.954409 0.810303
vt 0.954485 0.811553
vt 0.954409 0.811554
vt 0.973154 0.812714
vt 0.973106 0.812773
vt 0.974471 0.813690
vt 0.974428 0.813754
vt 0.954485 0.812724
vt 0.954409 0.812724
vt 0.954485 0.813850
vt 0.979139 0.812629
vt 0.979216 0.813753
vt 0.979139 0.813752
vt 0.975851 0.814525
vt 0.975814 0.814592
vt 0.977154 0.815174
vt 0.977125 0.815244
vt 0.954489 0.814908
vt 0.954409 0.814849
vt 0.979109 0.814754
vt 0.978899 0.815526
vt 0.978841 0.815474
vt 0.979175 0.814812
vt 0.978171 0.815538
vt 0.953857 0.799070
vt 0.953781 0.798075
vt 0.953860 0.798010
vt 0.978191 0.815617
vt 0.954768 0.784727
vt 0.954843 0.784744
vt 0.954728 0.785739
vt 0.954804 0.785740
vt 0.954804 0.786837
vt 0.954728 0.786837
vt 0.954804 0.787995
vt 0.954728 0.787996
vt 0.955753 0.783987
vt 0.956819 0.784363
vt 0.955743 0.784065
vt 0.956789 0.784434
vt 0.955097 0.784130
vt 0.955044 0.784059
vt 0.954728 0.801316
vt 0.954804 0.801317
vt 0.954728 0.802907
vt 0.954804 0.802908
vt 0.954728 0.804568
vt 0.954651 0.804568
vt 0.954728 0.803005
vt 0.954728 0.804470
vt 0.954728 0.806092
vt 0.954651 0.806091
vt 0.966891 0.801448
vt 0.966895 0.799804
vt 0.966815 0.801441
vt 0.966815 0.798167
vt 0.966891 0.798159
vt 0.966574 0.796545
vt 0.966649 0.796530
vt 0.958129 0.785015
vt 0.959515 0.785854
vt 0.958092 0.785082
vt 0.959473 0.785917
vt 0.954728 0.798108
vt 0.954728 0.796518
vt 0.954804 0.798108
vt 0.954804 0.796518
vt 0.954804 0.799712
vt 0.954728 0.799712
vt 0.960838 0.786834
vt 0.960789 0.786893
vt 0.954728 0.794956
vt 0.954728 0.793436
vt 0.954804 0.794956
vt 0.954804 0.793435
vt 0.962058 0.787940
vt 0.962004 0.787994
vt 0.966574 0.803062
vt 0.966649 0.803077
vt 0.966249 0.804674
vt 0.966176 0.804652
vt 0.965694 0.806224
vt 0.965624 0.806195
vt 0.964144 0.790482
vt 0.964990 0.791895
vt 0.964081 0.790525
vt 0.964923 0.791931
vt 0.963104 0.789209
vt 0.963163 0.789160
vt 0.954166 0.803999
vt 0.954099 0.802356
vt 0.954176 0.802352
vt 0.954728 0.791968
vt 0.954728 0.790566
vt 0.954804 0.791968
vt 0.954804 0.790565
vt 0.966176 0.794955
vt 0.966249 0.794933
vt 0.954728 0.789239
vt 0.954804 0.789238
vt 0.965624 0.793412
vt 0.965694 0.793383
vt 0.964990 0.807712
vt 0.964923 0.807676
vt 0.964144 0.809125
vt 0.964081 0.809082
vt 0.954728 0.807563
vt 0.954651 0.807562
vt 0.954728 0.808970
vt 0.954651 0.808969
vt 0.963163 0.810447
vt 0.963104 0.810399
vt 0.962058 0.811667
vt 0.962004 0.811613
vt 0.954728 0.810303
vt 0.954651 0.810302
vt 0.954728 0.811554
vt 0.954651 0.811553
vt 0.960838 0.812773
vt 0.960789 0.812714
vt 0.959515 0.813754
vt 0.959473 0.813690
vt 0.954728 0.812724
vt 0.954651 0.812724
vt 0.954728 0.813847
vt 0.954728 0.812627
vt 0.954804 0.813752
vt 0.954728 0.813753
vt 0.958129 0.814592
vt 0.958092 0.814525
vt 0.956819 0.815244
vt 0.956789 0.815174
vt 0.954829 0.814759
vt 0.954651 0.813850
vt 0.954728 0.814854
vt 0.954648 0.814908
vt 0.955102 0.815474
vt 0.954768 0.814812
vt 0.955044 0.815526
vt 0.955753 0.815617
vt 0.955772 0.815538
vt 0.954099 0.798075
vt 0.954024 0.799070
vt 0.954020 0.798010
vt 0.957783 0.786836
vt 0.957121 0.785796
vt 0.956428 0.784846
vt 0.960688 0.802992
vt 0.960488 0.804572
vt 0.954804 0.804471
vt 0.960809 0.798133
vt 0.960850 0.799758
vt 0.960488 0.794945
vt 0.960688 0.796524
vt 0.960809 0.801382
vt 0.958945 0.789200
vt 0.959436 0.790524
vt 0.959859 0.791932
vt 0.960211 0.793409
vt 0.958393 0.787968
vt 0.960211 0.806109
vt 0.959859 0.807588
vt 0.954804 0.805995
vt 0.954804 0.807466
vt 0.959436 0.808998
vt 0.958945 0.810326
vt 0.954804 0.808874
vt 0.954804 0.810207
vt 0.958393 0.811561
vt 0.957783 0.812700
vt 0.954804 0.811458
vt 0.954804 0.812629
vt 0.957121 0.813753
vt 0.956428 0.814729
vt 0.976822 0.785796
vt 0.976161 0.786836
vt 0.977515 0.784846
vt 0.973255 0.802992
vt 0.973455 0.804572
vt 0.973094 0.799758
vt 0.973134 0.798133
vt 0.973455 0.794945
vt 0.973255 0.796524
vt 0.973134 0.801382
vt 0.974507 0.790524
vt 0.974998 0.789200
vt 0.974084 0.791932
vt 0.973732 0.793409
vt 0.975551 0.787968
vt 0.973732 0.806109
vt 0.974084 0.807588
vt 0.979139 0.805995
vt 0.979139 0.807466
vt 0.974507 0.808998
vt 0.974998 0.810326
vt 0.979139 0.808874
vt 0.979139 0.810207
vt 0.975551 0.811561
vt 0.976161 0.812700
vt 0.979139 0.811458
vt 0.976822 0.813753
vt 0.977515 0.814729
vt 0.954485 0.785839
vt 0.954651 0.785839
vt 0.954485 0.786938
vt 0.954651 0.786938
vt 0.954383 0.795194
vt 0.954217 0.795193
vt 0.954386 0.794772
vt 0.954219 0.794771
vt 0.954485 0.784155
vt 0.954651 0.784155
vt 0.954485 0.784827
vt 0.954651 0.784827
vt 0.954485 0.803005
vt 0.954651 0.803005
vt 0.954485 0.804568
vt 0.954272 0.814451
vt 0.954106 0.814450
vt 0.954280 0.813177
vt 0.954114 0.813176
vt 0.954370 0.797549
vt 0.954203 0.797548
vt 0.954377 0.796188
vt 0.954211 0.796187
vt 0.954485 0.798207
vt 0.954651 0.798207
vt 0.954485 0.799810
vt 0.954651 0.799810
vt 0.954361 0.799101
vt 0.954194 0.799100
vt 0.954485 0.795056
vt 0.954651 0.795056
vt 0.954485 0.796617
vt 0.954651 0.796617
vt 0.954351 0.800715
vt 0.954185 0.800714
vt 0.953865 0.813070
vt 0.954031 0.813070
vt 0.953865 0.814395
vt 0.954032 0.814395
vt 0.954485 0.801414
vt 0.954651 0.801414
vt 0.953866 0.815617
vt 0.954032 0.815617
vt 0.954323 0.805639
vt 0.954157 0.805638
vt 0.954266 0.815617
vt 0.954099 0.815616
vt 0.954485 0.792068
vt 0.954651 0.792068
vt 0.954485 0.793535
vt 0.954651 0.793535
vt 0.954288 0.811806
vt 0.954121 0.811805
vt 0.954485 0.789339
vt 0.954651 0.789339
vt 0.954485 0.790666
vt 0.954651 0.790666
vt 0.954296 0.810353
vt 0.954130 0.810352
vt 0.954305 0.808830
vt 0.954139 0.808829
vt 0.954485 0.788096
vt 0.954651 0.788096
vt 0.954314 0.807254
vt 0.954148 0.807253
vt 0.953863 0.810166
vt 0.954029 0.810166
vt 0.953864 0.811656
vt 0.954030 0.811656
vt 0.953862 0.807017
vt 0.954028 0.807017
vt 0.953862 0.808615
vt 0.954029 0.808615
vt 0.953860 0.803743
vt 0.954026 0.803743
vt 0.953861 0.805388
vt 0.954027 0.805388
vt 0.953858 0.800496
vt 0.954024 0.800496
vt 0.953859 0.802099
vt 0.954025 0.802099
vt 0.954485 0.815617
vt 0.954651 0.815617
vt 0.953857 0.797521
vt 0.954023 0.797521
s 1
f 47/1/1 55/2/2 48/3/3
f 48/3/3 55/2/2 56/4/4
f 48/3/3 50/5/5 47/1/1
f 47/1/1 50/5/5 49/6/6
f 110/7/7 109/8/8 50/5/5
f 50/5/5 109/8/8 49/6/6
f 53/9/9 54/10/10 51/11/11
f 51/11/11 54/10/10 52/12/12
f 52/12/12 56/4/4 51/11/11
f 51/11/11 56/4/4 55/2/2
f 65/13/13 66/14/14 53/9/9
f 53/9/9 66/14/14 54/10/10
f 57/15/15 85/16/16 58/17/7
f 58/17/7 85/16/16 86/18/7
f 58/17/7 60/19/7 57/15/15
f 57/15/15 60/19/7 59/20/17
f 60/19/7 118/21/7 59/20/17
f 59/22/17 118/23/7 117/24/18
f 61/25/19 87/26/20 62/27/21
f 62/27/21 87/26/20 88/28/22
f 62/27/21 64/29/23 61/25/19
f 61/25/19 64/29/23 63/30/24
f 64/29/23 100/31/25 63/30/24
f 63/30/24 100/31/25 99/32/26
f 67/33/27 68/34/28 65/13/13
f 65/13/13 68/34/28 66/14/14
f 67/33/27 73/35/29 68/34/28
f 68/34/28 73/35/29 74/36/30
f 69/37/31 71/38/16 70/39/32
f 70/39/32 71/38/16 72/40/32
f 70/39/32 86/18/7 69/37/31
f 69/37/31 86/18/7 85/16/16
f 71/38/16 75/41/33 72/40/32
f 72/40/32 75/41/33 76/42/32
f 73/35/29 79/43/34 74/36/30
f 74/36/30 79/43/34 80/44/35
f 75/41/33 77/45/17 76/42/32
f 76/42/32 77/45/17 78/46/7
f 77/45/17 93/47/36 78/46/7
f 78/46/7 93/47/36 94/48/7
f 79/43/34 97/49/37 80/44/35
f 80/44/35 97/49/37 98/50/38
f 81/51/39 83/52/40 82/53/41
f 82/53/41 83/52/40 84/54/42
f 82/53/41 88/28/22 81/51/39
f 81/51/39 88/28/22 87/26/20
f 83/52/40 113/55/43 84/54/42
f 84/54/42 113/55/43 114/56/44
f 89/57/45 111/58/46 90/59/47
f 90/59/47 111/58/46 112/60/48
f 90/59/47 92/61/49 89/57/45
f 89/57/45 92/61/49 91/62/50
f 92/63/49 98/64/38 91/65/50
f 91/62/50 98/50/38 97/49/37
f 95/66/51 96/67/7 93/47/36
f 93/47/36 96/67/7 94/48/7
f 101/68/52 102/69/7 95/66/51
f 95/66/51 102/69/7 96/67/7
f 100/31/25 108/70/53 99/32/26
f 99/32/26 108/70/53 107/71/54
f 103/72/55 104/73/7 101/68/52
f 101/68/52 104/73/7 102/69/7
f 109/8/8 110/7/7 103/72/55
f 103/72/55 110/7/7 104/73/7
f 105/74/56 107/71/54 106/75/57
f 106/75/57 107/71/54 108/70/53
f 106/75/57 112/60/48 105/74/56
f 105/74/56 112/60/48 111/58/46
f 113/55/43 115/76/58 114/56/44
f 114/56/44 115/76/58 116/77/59
f 115/76/58 121/78/60 116/77/59
f 116/77/59 121/78/60 122/79/61
f 118/23/7 120/80/7 117/24/18
f 117/24/18 120/80/7 119/81/62
f 120/80/7 126/82/7 119/81/62
f 119/81/62 126/82/7 125/83/63
f 121/78/60 123/84/64 122/79/61
f 122/79/61 123/84/64 124/85/65
f 123/84/64 129/86/66 124/85/65
f 124/85/65 129/86/66 130/87/67
f 126/82/7 128/88/68 125/83/63
f 125/83/63 128/88/68 127/89/55
f 128/88/68 134/90/68 127/89/55
f 127/89/55 134/90/68 133/91/8
f 129/86/66 131/92/69 130/87/67
f 130/87/67 131/92/69 132/93/70
f 131/92/69 137/94/71 132/93/70
f 132/93/70 137/94/71 138/95/72
f 134/90/68 136/96/32 133/91/8
f 133/91/8 136/96/32 135/97/6
f 136/96/32 142/98/73 135/97/6
f 135/99/6 142/100/73 141/101/74
f 137/94/71 139/102/75 138/95/72
f 138/95/72 139/102/75 140/103/76
f 139/102/75 145/104/77 140/103/76
f 140/103/76 145/104/77 146/105/78
f 144/106/79 143/107/80 142/98/73
f 142/100/73 143/108/80 141/101/74
f 150/109/81 149/110/82 144/111/79
f 144/111/79 149/110/82 143/108/80
f 145/104/77 147/112/83 146/105/78
f 146/113/78 147/114/83 148/115/84
f 147/112/83 149/110/82 148/116/84
f 148/116/84 149/110/82 150/109/81
f 160/117/85 159/118/86 151/119/87
f 151/119/87 159/118/86 152/120/88
f 153/121/89 154/122/90 152/120/88
f 152/120/88 154/122/90 151/119/87
f 153/121/89 213/123/91 154/122/90
f 154/122/90 213/123/91 214/124/92
f 155/125/93 172/126/94 156/127/95
f 156/127/95 172/126/94 171/128/96
f 156/127/95 157/129/97 155/125/93
f 155/125/93 157/129/97 158/130/98
f 159/118/86 160/117/85 157/129/97
f 157/129/97 160/117/85 158/130/98
f 189/131/99 190/132/100 161/133/99
f 161/133/99 190/132/100 162/134/101
f 163/135/102 164/136/99 162/137/101
f 162/134/101 164/138/99 161/133/99
f 222/139/103 221/140/99 163/135/102
f 163/135/102 221/140/99 164/136/99
f 165/27/104 192/141/105 166/142/106
f 166/142/106 192/141/105 191/143/107
f 166/142/106 167/144/108 165/27/104
f 165/27/104 167/144/108 168/145/109
f 167/144/108 203/146/110 168/145/109
f 168/145/109 203/146/110 204/147/111
f 169/148/112 177/149/113 170/150/114
f 170/150/114 177/149/113 178/151/115
f 170/150/114 171/128/96 169/148/112
f 169/148/112 171/128/96 172/126/94
f 173/152/99 182/153/92 174/154/100
f 174/154/100 182/153/92 181/155/116
f 175/156/117 176/157/92 174/154/100
f 174/154/100 176/157/92 173/152/99
f 190/132/100 189/131/99 175/156/117
f 175/156/117 189/131/99 176/157/92
f 177/149/113 183/158/118 178/151/115
f 178/151/115 183/158/118 184/159/119
f 179/160/92 200/161/99 180/162/102
f 180/162/102 200/161/99 199/163/120
f 180/162/102 181/155/116 179/160/92
f 179/160/92 181/155/116 182/153/92
f 183/158/118 201/164/121 184/159/119
f 184/159/119 201/164/121 202/165/122
f 185/166/123 191/143/107 186/167/124
f 186/167/124 191/143/107 192/141/105
f 186/167/124 187/168/125 185/166/123
f 185/166/123 187/168/125 188/169/126
f 187/168/125 218/170/127 188/169/126
f 188/169/126 218/170/127 217/171/128
f 193/172/129 215/173/130 194/174/131
f 194/174/131 215/173/130 216/175/132
f 194/174/131 195/176/133 193/172/129
f 193/172/129 195/176/133 196/177/134
f 195/176/133 202/165/122 196/177/134
f 196/178/134 202/179/122 201/180/121
f 197/181/92 208/182/99 198/183/135
f 198/183/135 208/182/99 207/184/136
f 198/183/135 199/163/120 197/181/92
f 197/181/92 199/163/120 200/161/99
f 203/146/110 210/185/137 204/147/111
f 204/147/111 210/185/137 209/186/138
f 205/187/99 214/124/92 206/188/139
f 206/188/139 214/124/92 213/123/91
f 206/188/139 207/184/136 205/187/99
f 205/187/99 207/184/136 208/182/99
f 210/185/137 211/189/140 209/186/138
f 209/186/138 211/189/140 212/190/141
f 211/189/140 216/175/132 212/190/141
f 212/190/141 216/175/132 215/173/130
f 218/170/127 219/191/142 217/171/128
f 217/171/128 219/191/142 220/192/143
f 219/191/142 226/193/144 220/192/143
f 220/192/143 226/193/144 225/194/145
f 223/195/135 224/196/99 222/139/103
f 222/139/103 224/196/99 221/140/99
f 230/197/136 229/198/99 223/195/135
f 223/195/135 229/198/99 224/196/99
f 226/193/144 227/199/146 225/194/145
f 225/194/145 227/199/146 228/200/147
f 227/199/146 234/201/148 228/200/147
f 228/200/147 234/201/148 233/202/149
f 231/203/139 232/204/99 230/197/136
f 230/197/136 232/204/99 229/198/99
f 238/205/150 237/206/99 231/203/139
f 231/203/139 237/206/99 232/204/99
f 234/201/148 235/207/151 233/202/149
f 233/202/149 235/207/151 236/208/152
f 235/207/151 242/209/153 236/208/152
f 236/208/152 242/209/153 241/210/154
f 239/211/89 240/212/155 238/205/150
f 238/205/150 240/212/155 237/206/99
f 239/211/89 246/213/156 240/212/155
f 240/214/155 246/215/156 245/216/157
f 242/209/153 243/217/158 241/210/154
f 241/210/154 243/217/158 244/218/159
f 252/219/160 251/220/161 243/217/158
f 243/217/158 251/220/161 244/218/159
f 246/215/156 247/221/162 245/216/157
f 245/222/157 247/223/162 248/224/163
f 247/221/162 253/225/164 248/226/163
f 248/226/163 253/225/164 254/227/165
f 254/227/165 253/225/164 249/228/166
f 249/228/166 253/225/164 250/229/167
f 251/220/161 252/219/160 250/229/167
f 250/230/167 252/231/160 249/232/166
f 25/233/168 153/121/89 24/234/168
f 24/234/168 153/121/89 152/120/88
f 157/129/97 156/127/95 159/118/86
f 159/118/86 156/127/95 26/235/168
f 27/236/168 28/237/168 162/134/101
f 162/134/101 28/237/168 163/238/102
f 30/239/168 167/144/108 29/240/168
f 29/240/168 167/144/108 166/142/106
f 156/127/95 171/128/96 26/235/168
f 26/235/168 171/128/96 170/150/114
f 174/154/100 30/239/168 175/156/117
f 175/156/117 30/239/168 29/240/168
f 24/234/168 152/120/88 26/235/168
f 26/235/168 152/120/88 159/118/86
f 178/151/115 24/234/168 170/150/114
f 170/150/114 24/234/168 26/235/168
f 180/162/102 32/241/168 181/155/116
f 181/155/116 32/241/168 31/242/168
f 184/159/119 25/233/168 178/151/115
f 178/151/115 25/233/168 24/234/168
f 185/166/123 188/169/126 27/236/168
f 27/236/168 188/169/126 28/237/168
f 33/243/168 27/236/168 190/132/100
f 190/132/100 27/236/168 162/134/101
f 191/143/107 185/166/123 33/243/168
f 33/243/168 185/166/123 27/236/168
f 35/244/168 195/176/133 34/245/168
f 34/245/168 195/176/133 194/174/131
f 33/243/168 29/240/168 191/143/107
f 191/143/107 29/240/168 166/142/106
f 190/132/100 175/156/117 33/243/168
f 33/243/168 175/156/117 29/240/168
f 198/183/135 37/246/168 199/163/120
f 199/163/120 37/246/168 36/247/168
f 25/233/168 184/159/119 38/248/168
f 38/248/168 184/159/119 202/165/122
f 31/242/168 203/146/110 30/239/168
f 30/239/168 203/146/110 167/144/108
f 181/155/116 31/242/168 174/154/100
f 174/154/100 31/242/168 30/239/168
f 206/188/139 35/244/168 207/184/136
f 207/184/136 35/244/168 34/245/168
f 36/247/168 211/189/140 32/241/168
f 32/241/168 211/189/140 210/185/137
f 199/163/120 36/247/168 180/162/102
f 180/162/102 36/247/168 32/241/168
f 153/121/89 25/233/168 213/123/91
f 213/123/91 25/233/168 38/248/168
f 34/245/168 194/174/131 37/246/168
f 37/246/168 194/174/131 216/175/132
f 207/184/136 34/245/168 198/183/135
f 198/183/135 34/245/168 37/246/168
f 38/248/168 202/165/122 35/244/168
f 35/244/168 202/165/122 195/176/133
f 213/123/91 38/248/168 206/188/139
f 206/188/139 38/248/168 35/244/168
f 32/241/168 210/185/137 31/242/168
f 31/242/168 210/185/137 203/146/110
f 217/171/128 220/192/143 39/249/168
f 39/249/168 220/192/143 40/250/168
f 39/249/168 40/250/168 222/251/103
f 222/251/103 40/250/168 223/252/135
f 28/237/168 39/249/168 163/238/102
f 163/238/102 39/249/168 222/251/103
f 188/169/126 217/171/128 28/237/168
f 28/237/168 217/171/128 39/249/168
f 37/246/168 216/175/132 36/247/168
f 36/247/168 216/175/132 211/189/140
f 225/194/145 228/200/147 41/253/168
f 41/253/168 228/200/147 42/254/168
f 41/253/168 42/254/168 230/255/136
f 230/255/136 42/254/168 231/256/139
f 40/250/168 41/253/168 223/252/135
f 223/252/135 41/253/168 230/255/136
f 220/192/143 225/194/145 40/250/168
f 40/250/168 225/194/145 41/253/168
f 233/202/149 236/208/152 43/257/168
f 43/257/168 236/208/152 44/258/168
f 43/257/168 44/258/168 238/259/150
f 238/259/150 44/258/168 239/260/89
f 42/254/168 43/257/168 231/256/139
f 231/256/139 43/257/168 238/259/150
f 228/200/147 233/202/149 42/254/168
f 42/254/168 233/202/149 43/257/168
f 241/210/154 244/218/159 45/261/168
f 45/261/168 244/218/159 46/262/168
f 45/261/168 46/262/168 246/215/156
f 246/215/156 46/262/168 247/221/162
f 44/258/168 45/261/168 239/260/89
f 239/260/89 45/261/168 246/215/156
f 244/218/159 251/220/161 46/262/168
f 46/262/168 251/220/161 250/229/167
f 236/208/152 241/210/154 44/258/168
f 44/258/168 241/210/154 45/261/168
f 46/262/168 250/229/167 247/221/162
f 247/221/162 250/229/167 253/225/164
f 47/1/1 49/6/6 6/263/169
f 6/263/169 49/6/6 18/264/169
f 12/265/169 53/9/9 55/2/2
f 55/2/2 53/9/9 51/11/11
f 7/266/169 57/15/15 19/267/169
f 19/267/169 57/15/15 59/20/17
f 61/25/19 63/30/24 1/268/169
f 1/268/169 63/30/24 14/269/169
f 53/9/9 12/265/169 65/13/13
f 65/13/13 12/265/169 67/33/27
f 71/38/16 69/37/31 14/269/169
f 14/269/169 69/37/31 1/268/169
f 55/2/2 47/1/1 12/265/169
f 12/265/169 47/1/1 6/263/169
f 12/265/169 6/263/169 67/33/27
f 67/33/27 6/263/169 73/35/29
f 77/45/17 75/41/33 15/270/169
f 15/270/169 75/41/33 2/271/169
f 6/263/169 18/264/169 73/35/29
f 73/35/29 18/264/169 79/43/34
f 81/51/39 7/266/169 83/52/40
f 83/52/40 7/266/169 19/267/169
f 13/272/169 85/16/16 7/266/169
f 7/266/169 85/16/16 57/15/15
f 87/26/20 13/272/169 81/51/39
f 81/51/39 13/272/169 7/266/169
f 89/57/45 91/62/50 4/273/169
f 4/273/169 91/62/50 17/274/169
f 13/272/169 87/26/20 1/268/169
f 1/268/169 87/26/20 61/25/19
f 85/16/16 13/272/169 69/37/31
f 69/37/31 13/272/169 1/268/169
f 95/66/51 93/47/36 16/275/169
f 16/275/169 93/47/36 3/276/169
f 97/49/37 79/43/34 5/277/169
f 5/277/169 79/43/34 18/264/169
f 63/30/24 99/32/26 14/269/169
f 14/269/169 99/32/26 2/271/169
f 14/269/169 2/271/169 71/38/16
f 71/38/16 2/271/169 75/41/33
f 103/72/55 101/68/52 17/274/169
f 17/274/169 101/68/52 4/273/169
f 107/71/54 105/74/56 15/270/169
f 15/270/169 105/74/56 3/276/169
f 15/270/169 3/276/169 77/45/17
f 77/45/17 3/276/169 93/47/36
f 49/6/6 109/8/8 18/264/169
f 18/264/169 109/8/8 5/277/169
f 111/58/46 89/57/45 16/275/169
f 16/275/169 89/57/45 4/273/169
f 16/275/169 4/273/169 95/66/51
f 95/66/51 4/273/169 101/68/52
f 91/62/50 97/49/37 17/274/169
f 17/274/169 97/49/37 5/277/169
f 17/274/169 5/277/169 103/72/55
f 103/72/55 5/277/169 109/8/8
f 99/32/26 107/71/54 2/271/169
f 2/271/169 107/71/54 15/270/169
f 113/55/43 8/278/169 115/76/58
f 115/76/58 8/278/169 20/279/169
f 8/278/169 117/280/18 20/279/169
f 20/279/169 117/280/18 119/281/62
f 19/267/169 59/20/17 8/278/169
f 8/278/169 59/20/17 117/280/18
f 83/52/40 19/267/169 113/55/43
f 113/55/43 19/267/169 8/278/169
f 105/74/56 111/58/46 3/276/169
f 3/276/169 111/58/46 16/275/169
f 121/78/60 9/282/169 123/84/64
f 123/84/64 9/282/169 21/283/169
f 9/282/169 125/284/63 21/283/169
f 21/283/169 125/284/63 127/285/55
f 20/279/169 119/281/62 9/282/169
f 9/282/169 119/281/62 125/284/63
f 115/76/58 20/279/169 121/78/60
f 121/78/60 20/279/169 9/282/169
f 129/86/66 10/286/169 131/92/69
f 131/92/69 10/286/169 22/287/169
f 10/286/169 133/288/8 22/287/169
f 22/287/169 133/288/8 135/99/6
f 21/283/169 127/285/55 10/286/169
f 10/286/169 127/285/55 133/288/8
f 123/84/64 21/283/169 129/86/66
f 129/86/66 21/283/169 10/286/169
f 137/94/71 11/289/169 139/102/75
f 139/102/75 11/289/169 23/290/169
f 11/289/169 141/101/74 23/290/169
f 23/290/169 141/101/74 143/108/80
f 22/287/169 135/99/6 11/289/169
f 11/289/169 135/99/6 141/101/74
f 139/102/75 23/290/169 145/104/77
f 145/104/77 23/290/169 147/112/83
f 131/92/69 22/287/169 137/94/71
f 137/94/71 22/287/169 11/289/169
f 23/290/169 143/108/80 147/112/83
f 147/112/83 143/108/80 149/110/82
f 48/291/3 151/292/87 50/293/5
f 50/293/5 151/292/87 154/294/90
f 54/295/10 155/296/93 52/297/12
f 52/297/12 155/296/93 158/298/98
f 52/299/12 158/300/98 56/301/4
f 56/301/4 158/300/98 160/302/85
f 58/303/7 161/304/99 60/305/7
f 60/305/7 161/304/99 164/136/99
f 62/306/21 165/307/104 64/308/23
f 64/308/23 165/307/104 168/309/109
f 68/310/28 169/311/112 66/312/14
f 66/312/14 169/311/112 172/313/94
f 66/312/14 172/313/94 54/295/10
f 54/295/10 172/313/94 155/296/93
f 72/314/32 173/315/99 70/316/32
f 70/316/32 173/315/99 176/317/92
f 56/301/4 160/302/85 48/291/3
f 48/291/3 160/302/85 151/292/87
f 74/318/30 177/319/113 68/310/28
f 68/310/28 177/319/113 169/311/112
f 78/320/7 179/321/92 76/322/32
f 76/322/32 179/321/92 182/323/92
f 80/324/35 183/325/118 74/318/30
f 74/318/30 183/325/118 177/319/113
f 84/326/42 187/327/125 82/328/41
f 82/328/41 187/327/125 186/329/124
f 86/330/7 189/331/99 58/303/7
f 58/303/7 189/331/99 161/304/99
f 82/328/41 186/329/124 88/332/22
f 88/332/22 186/329/124 192/333/105
f 90/334/47 193/335/129 92/63/49
f 92/63/49 193/335/129 196/178/134
f 88/336/22 192/337/105 62/306/21
f 62/306/21 192/337/105 165/307/104
f 70/316/32 176/317/92 86/330/7
f 86/330/7 176/317/92 189/331/99
f 96/338/7 197/339/92 94/340/7
f 94/340/7 197/339/92 200/341/99
f 98/64/38 201/180/121 80/324/35
f 80/324/35 201/180/121 183/325/118
f 64/308/23 168/309/109 100/342/25
f 100/342/25 168/309/109 204/343/111
f 76/322/32 182/323/92 72/314/32
f 72/314/32 182/323/92 173/315/99
f 104/344/7 205/345/99 102/346/7
f 102/346/7 205/345/99 208/347/99
f 108/348/53 209/349/138 106/350/57
f 106/350/57 209/349/138 212/351/141
f 94/340/7 200/341/99 78/320/7
f 78/320/7 200/341/99 179/321/92
f 50/293/5 154/294/90 110/352/7
f 110/352/7 154/294/90 214/353/92
f 112/354/48 215/355/130 90/334/47
f 90/334/47 215/355/130 193/335/129
f 102/346/7 208/347/99 96/338/7
f 96/338/7 208/347/99 197/339/92
f 92/63/49 196/178/134 98/64/38
f 98/64/38 196/178/134 201/180/121
f 110/352/7 214/353/92 104/344/7
f 104/344/7 214/353/92 205/345/99
f 100/342/25 204/343/111 108/348/53
f 108/348/53 204/343/111 209/349/138
f 116/356/59 219/357/142 114/358/44
f 114/358/44 219/357/142 218/359/127
f 118/23/7 221/140/99 120/80/7
f 120/80/7 221/140/99 224/196/99
f 60/305/7 164/136/99 118/23/7
f 118/23/7 164/136/99 221/140/99
f 114/358/44 218/359/127 84/326/42
f 84/326/42 218/359/127 187/327/125
f 106/350/57 212/351/141 112/354/48
f 112/354/48 212/351/141 215/355/130
f 124/360/65 227/361/146 122/362/61
f 122/362/61 227/361/146 226/363/144
f 126/82/7 229/198/99 128/88/68
f 128/88/68 229/198/99 232/204/99
f 120/80/7 224/196/99 126/82/7
f 126/82/7 224/196/99 229/198/99
f 122/362/61 226/363/144 116/356/59
f 116/356/59 226/363/144 219/357/142
f 132/364/70 235/365/151 130/366/67
f 130/366/67 235/365/151 234/367/148
f 134/90/68 237/206/99 136/96/32
f 136/96/32 237/206/99 240/212/155
f 128/88/68 232/204/99 134/90/68
f 134/90/68 232/204/99 237/206/99
f 130/366/67 234/367/148 124/360/65
f 124/360/65 234/367/148 227/361/146
f 140/368/76 243/369/158 138/370/72
f 138/370/72 243/369/158 242/371/153
f 142/98/73 245/222/157 144/106/79
f 144/106/79 245/222/157 248/224/163
f 136/96/32 240/212/155 142/98/73
f 142/98/73 240/212/155 245/222/157
f 148/115/84 249/232/166 146/113/78
f 146/113/78 249/232/166 252/231/160
f 146/113/78 252/231/160 140/368/76
f 140/368/76 252/231/160 243/369/158
f 138/370/72 242/371/153 132/364/70
f 132/364/70 242/371/153 235/365/151
f 144/106/79 248/224/163 150/372/81
f 150/372/81 248/224/163 254/373/165
f 150/374/81 254/375/165 148/115/84
f 148/115/84 254/375/165 249/232/166
