# https://github.com/mikedh/trimesh
v 0.09702444 0.27083287 0.26107895
v 0.09702444 0.25842723 0.26107895
v 0.09702444 0.27172801 0.15526867
v 0.09491843 0.27216926 0.26107895
v -0.09507367 0.25992751 0.26107895
v -0.09507367 0.25883067 0.25351575
v -0.09507367 0.25816250 0.24879807
v -0.09507367 0.15976211 -0.47405180
v 0.09702444 0.25117803 0.20731264
v 0.09702444 0.26998818 0.14193940
v 0.09038675 0.27017730 0.11842601
v 0.09582101 0.27219447 0.15451983
v 0.08499010 0.27591363 0.15489423
v 0.08841237 0.27417383 0.26107895
v -0.09507367 0.27234575 0.26107895
v -0.09507367 0.15976211 -0.49314708
v 0.09702444 0.15976211 -0.47075692
v 0.09702444 0.26904264 0.13490036
v 0.09422269 0.26778191 0.11498137
v 0.08884485 0.26973605 0.11176138
v 0.09392184 0.27186668 0.14493474
v 0.08068407 0.22036564 -0.28497112
v 0.08025159 0.24010876 -0.14089535
v 0.08040202 0.25014421 -0.06136914
v 0.08011997 0.27001339 0.09970514
v 0.07498656 0.27760303 0.15489423
v 0.06124109 0.28018752 0.15826401
v 0.06124109 0.28018752 0.16081002
v 0.08499010 0.27520764 0.26107895
v 0.07842763 0.24974078 -0.06803376
v -0.09227192 0.27320305 0.26107895
v -0.08499491 0.27545977 0.15496913
v -0.09507367 0.27190450 0.15586773
v -0.09507367 0.16007730 -0.49292243
v -0.07865807 0.15976211 -0.49928752
v 0.09702444 0.15976211 -0.49239823
v 0.09702444 0.26759279 0.12411715
v 0.09702444 0.26594123 0.11191115
v 0.08579867 0.21229695 -0.32525837
v 0.08384308 0.21196915 -0.33499324
v 0.08000714 0.22001265 -0.28998828
v 0.07498656 0.21612959 -0.33499324
v 0.07017283 0.22007568 -0.32054073
v 0.02367140 0.28573477 0.15489423
v 0.07498656 0.25677568 -0.01509117
v 0.06470096 0.22052954 -0.32428491
v 0.05516751 0.22074386 -0.33491835
v 0.01498411 0.28709635 0.15496913
v 0.03499120 0.28335199 0.26107895
v 0.04862384 0.28119612 0.26107895
v 0.05328715 0.28045228 0.26107895
v 0.06785998 0.21965964 -0.32720536
v -0.08499491 0.27534631 0.26107895
v -0.06066298 0.28008667 0.16051051
v -0.06066298 0.28008667 0.15908772
v -0.07499136 0.27733827 0.15496913
v -0.07957946 0.26992515 0.10045399
v -0.07999314 0.25997794 0.01995428
v -0.08012477 0.25005597 -0.06054542
v -0.08965822 0.26989993 0.12059763
v -0.09069242 0.27034119 0.12726225
v -0.09306167 0.27151367 0.14493474
v -0.09507367 0.27172801 0.15399563
v -0.09507367 0.16196840 -0.49142474
v -0.06115188 0.18056424 -0.49045128
v -0.06468697 0.17534479 -0.49314708
v -0.05887663 0.16945717 -0.49966192
v -0.07228364 0.16090938 -0.50033587
v -0.07294177 0.15976211 -0.50056052
v 0.09506886 0.15976211 -0.49314708
v 0.09702444 0.16056898 -0.49179918
v 0.09702444 0.23511624 -0.11513545
v 0.09702444 0.20526204 -0.33499324
v 0.09702444 0.20474514 -0.33791369
v 0.08209434 0.21106142 -0.34495273
v 0.06470096 0.21921839 -0.33491835
v 0.07498656 0.21413761 -0.34495273
v 0.00983191 0.27997321 0.09012006
v 0.01498411 0.28587344 0.14493474
v 0.02500646 0.25367427 -0.10510106
v 0.05860858 0.21979833 -0.33813834
v 0.04499474 0.22234501 -0.33499324
v 0.00498057 0.28855881 0.15496913
v 0.02500646 0.28477660 0.26107895
v -0.05483385 0.28083050 0.26107895
v -0.04106958 0.28302419 0.26107895
v -0.03499600 0.28394452 0.26107895
v -0.00500417 0.28842014 0.15496913
v -0.01498891 0.28316286 0.12494087
v -0.06284420 0.22047912 -0.32495886
v -0.06985797 0.21998742 -0.31971702
v -0.08055724 0.24026005 -0.13205911
v -0.08031280 0.22017653 -0.28115204
v -0.09012830 0.26006621 0.04938348
v -0.09507367 0.25705305 0.04563931
v -0.09507367 0.27051771 0.14493474
v -0.09507367 0.16242227 -0.49097544
v -0.08770263 0.16883941 -0.48880383
v -0.08102734 0.17055401 -0.49030149
v -0.05498428 0.18132068 -0.49112523
v -0.05222014 0.17054141 -0.50026101
v -0.06782718 0.17891268 -0.48895359
v -0.06468697 0.18322439 -0.48535919
v -0.05913989 0.18975499 -0.47951829
v -0.05547317 0.18690574 -0.48431084
v -0.06498782 0.16278788 -0.50093496
v -0.07087336 0.15976211 -0.50093496
v 0.07865328 0.15976211 -0.49936238
v 0.08461404 0.16532196 -0.49299729
v 0.09702444 0.16146410 -0.49112523
v 0.09702444 0.20328268 -0.34495273
v 0.07105660 0.19068795 -0.46244484
v 0.06565996 0.19204953 -0.46544018
v 0.01195672 0.23030025 -0.31245333
v 0.00924900 0.22989681 -0.31919283
v 0.02367140 0.22931688 -0.30548918
v 0.05195209 0.22032782 -0.34173274
v 0.01498411 0.22706015 -0.33499324
v 0.02367140 0.22569856 -0.33499324
v 0.00007281 0.27999842 0.07986103
v -0.00005881 0.27999842 0.07986103
v -0.00479733 0.28742415 0.26107895
v -0.00079215 0.28738633 0.26107895
v 0.00467971 0.28729808 0.26107895
v 0.00868489 0.28691986 0.26107895
v -0.03106603 0.28452447 0.26107895
v -0.00402638 0.27888897 0.07589221
v -0.01498891 0.22680801 -0.33499324
v -0.04498073 0.22206764 -0.33499324
v -0.05803047 0.21969746 -0.33746439
v -0.06434850 0.21899144 -0.33439416
v -0.07499136 0.21548660 -0.33499324
v -0.07999314 0.22998506 -0.20993789
v -0.08296411 0.21154051 -0.33499324
v -0.09507367 0.24796315 -0.02130649
v -0.09507367 0.16769214 -0.48565874
v -0.09507367 0.16890244 -0.48431084
v -0.09324971 0.17166345 -0.48221409
v -0.04498073 0.18221581 -0.49187404
v -0.04498073 0.18720832 -0.48655733
v -0.03499600 0.18800259 -0.48768058
v -0.02499245 0.18879685 -0.48872894
v -0.04498073 0.17102048 -0.50056052
v -0.04498073 0.16500677 -0.50235772
v -0.05513471 0.15976211 -0.50280702
v -0.05532274 0.16567495 -0.50123447
v -0.00019044 0.18003473 -0.49988657
v -0.07499136 0.18132068 -0.48161501
v -0.05246459 0.19041058 -0.48071641
v -0.08003074 0.18003473 -0.48004246
v -0.06566475 0.18864556 -0.47562435
v -0.06278780 0.19099052 -0.47285366
v -0.01284530 0.20047125 -0.47113132
v -0.06498782 0.15976211 -0.50168377
v 0.07713018 0.15976211 -0.49981171
v 0.05889064 0.16945717 -0.49958706
v 0.06468216 0.17535740 -0.49307218
v 0.07498656 0.17209211 -0.49157453
v 0.08104134 0.17054141 -0.49037638
v 0.08769783 0.16883941 -0.48880383
v 0.09702444 0.16602796 -0.48633268
v 0.09702444 0.17211732 -0.47689736
v 0.08412513 0.18253098 -0.46491602
v 0.08181229 0.18110636 -0.47495040
v 0.06945829 0.18960372 -0.46910948
v 0.06278299 0.19100313 -0.47285366
v 0.00498057 0.20334573 -0.46491602
v 0.00498057 0.22850999 -0.33499324
v 0.00259250 0.23033807 -0.32263747
v 0.00106941 0.26012924 -0.08121325
v 0.04476909 0.22080691 -0.34502763
v 0.03499120 0.22225675 -0.34495273
v -0.00088617 0.26012924 -0.08121325
v -0.00500417 0.22838393 -0.33499324
v -0.05137398 0.22023958 -0.34113368
v -0.06498782 0.19444494 -0.45488164
v -0.06498782 0.21678516 -0.34487784
v -0.07499136 0.21351986 -0.34487784
v -0.08127178 0.21065798 -0.34487784
v -0.09507367 0.20536290 -0.33499324
v -0.09507367 0.17250815 -0.47787085
v -0.03499600 0.18301007 -0.49254799
v -0.01498891 0.18957850 -0.48955268
v -0.04498073 0.19101574 -0.48161501
v -0.03499600 0.19182260 -0.48273826
v -0.02499245 0.19260426 -0.48363686
v -0.00500417 0.16500677 -0.50393027
v -0.04498073 0.15976211 -0.50325632
v -0.00318022 0.19049883 -0.49030149
v 0.00018564 0.18003473 -0.49988657
v -0.00500417 0.20107640 -0.47270387
v -0.00500417 0.19880708 -0.47779596
v -0.09507367 0.17340326 -0.47577411
v -0.08181709 0.18109375 -0.47495040
v -0.07499136 0.18457338 -0.47495040
v -0.06946309 0.18960372 -0.46910948
v -0.06566475 0.19209997 -0.46551508
v -0.01952059 0.19971481 -0.46933413
v -0.00500417 0.20334573 -0.46491602
v 0.07295577 0.15976211 -0.50063539
v 0.07227884 0.16090938 -0.50041080
v 0.05221534 0.17054141 -0.50026101
v 0.05533675 0.17433621 -0.49666658
v 0.06116588 0.18057685 -0.49037638
v 0.06782237 0.17891268 -0.48887870
v 0.09324491 0.17166345 -0.48213920
v 0.09702444 0.16701134 -0.48528430
v 0.09702444 0.17069268 -0.48079130
v 0.08004475 0.18003473 -0.47996759
v 0.07498656 0.18458599 -0.47495040
v 0.06565996 0.18864556 -0.47569922
v 0.01284049 0.20047125 -0.47113132
v 0.01949699 0.19971481 -0.46933413
v 0.05915389 0.18975499 -0.47951829
v 0.00498057 0.20107640 -0.47270387
v -0.00214602 0.23033807 -0.32263747
v -0.03499600 0.22201721 -0.34487784
v -0.04443543 0.22065562 -0.34465319
v -0.07106140 0.19067533 -0.46244484
v -0.09507367 0.20338355 -0.34487784
v -0.01498891 0.19323462 -0.48453549
v 0.00498057 0.16500677 -0.50385541
v 0.04023742 0.15976211 -0.50355589
v 0.02023033 0.15976211 -0.50370562
v 0.01022679 0.15976211 -0.50370562
v -0.02499245 0.15976211 -0.50348097
v -0.03499600 0.15976211 -0.50340611
v -0.00590675 0.19333549 -0.48588338
v 0.00317542 0.19049883 -0.49030149
v 0.02500646 0.18379173 -0.49329683
v 0.04499474 0.18221581 -0.49187404
v 0.04499474 0.17603821 -0.49689123
v 0.04499474 0.17102048 -0.50056052
v 0.04499474 0.16500677 -0.50235772
v 0.02367140 0.16607839 -0.50288188
v 0.02367140 0.16500677 -0.50318146
v 0.00409680 0.17545827 -0.50100982
v 0.01498411 0.18957850 -0.48955268
v 0.00498057 0.19880708 -0.47779596
v -0.08412994 0.18253098 -0.46491602
v 0.06498303 0.15976211 -0.50168377
v 0.06498303 0.16277528 -0.50086010
v 0.05499828 0.18133329 -0.49105033
v 0.05533675 0.16567495 -0.50130939
v 0.05548717 0.18691835 -0.48438570
v 0.06468216 0.18323700 -0.48528430
v 0.07498656 0.18132068 -0.48168990
v 0.05247859 0.19041058 -0.48064154
v 0.05022215 0.15976211 -0.50318146
v 0.00590195 0.19333549 -0.48588338
v 0.01498411 0.19323462 -0.48453549
v 0.02367140 0.18889770 -0.48880383
v 0.02367140 0.19269252 -0.48378664
v 0.04499474 0.19102834 -0.48161501
v 0.03499120 0.19183521 -0.48273826
v 0.06067698 0.15976211 -0.50220799
v 0.03499120 0.18798998 -0.48768058
v 0.04499474 0.18720832 -0.48663220
v 0.05514871 0.15976211 -0.50273216
f 1 2 9
f 1 9 17
f 1 17 36
f 1 36 71
f 1 71 110
f 1 110 161
f 1 161 207
f 1 207 208
f 1 208 162
f 1 162 111
f 1 111 74
f 1 74 73
f 1 73 72
f 1 72 38
f 1 38 37
f 1 37 18
f 1 18 10
f 1 10 3
f 1 3 4
f 1 4 14
f 1 14 29
f 1 29 51
f 1 51 50
f 1 50 49
f 1 49 84
f 1 84 125
f 1 125 124
f 1 124 123
f 1 123 122
f 1 122 126
f 1 126 87
f 1 87 86
f 1 86 85
f 1 85 53
f 1 53 31
f 1 31 15
f 1 15 5
f 1 5 2
f 2 5 6
f 2 6 7
f 2 7 8
f 2 8 9
f 3 10 11
f 3 11 12
f 3 12 4
f 4 12 13
f 4 13 14
f 5 15 33
f 5 33 63
f 5 63 96
f 5 96 95
f 5 95 135
f 5 135 180
f 5 180 220
f 5 220 193
f 5 193 181
f 5 181 137
f 5 137 136
f 5 136 97
f 5 97 64
f 5 64 34
f 5 34 16
f 5 16 8
f 5 8 7
f 5 7 6
f 8 16 35
f 8 35 69
f 8 69 107
f 8 107 154
f 8 154 145
f 8 145 188
f 8 188 227
f 8 227 226
f 8 226 225
f 8 225 224
f 8 224 223
f 8 223 249
f 8 249 259
f 8 259 256
f 8 256 241
f 8 241 200
f 8 200 155
f 8 155 108
f 8 108 70
f 8 70 36
f 8 36 17
f 8 17 9
f 10 18 19
f 10 19 11
f 11 20 13
f 11 13 21
f 11 21 12
f 11 19 22
f 11 22 23
f 11 23 24
f 11 24 20
f 12 21 13
f 13 25 26
f 13 26 27
f 13 27 28
f 13 28 29
f 13 29 14
f 13 20 24
f 13 24 30
f 13 30 25
f 15 31 32
f 15 32 33
f 16 34 35
f 18 37 19
f 19 37 38
f 19 38 22
f 22 39 40
f 22 40 41
f 22 41 23
f 22 38 39
f 23 41 42
f 23 42 43
f 23 43 24
f 24 43 30
f 25 30 26
f 26 44 27
f 26 30 45
f 26 45 46
f 26 46 47
f 26 47 44
f 27 48 28
f 27 44 48
f 28 48 49
f 28 49 50
f 28 50 51
f 28 51 29
f 30 43 52
f 30 52 46
f 30 46 45
f 31 53 32
f 32 53 54
f 32 54 55
f 32 55 56
f 32 56 57
f 32 57 58
f 32 58 59
f 32 59 60
f 32 60 61
f 32 61 62
f 32 62 63
f 32 63 33
f 34 64 65
f 34 65 66
f 34 66 67
f 34 67 35
f 35 67 68
f 35 68 69
f 36 70 71
f 38 72 39
f 39 72 73
f 39 73 40
f 40 73 74
f 40 74 75
f 40 75 42
f 40 42 41
f 42 76 52
f 42 52 43
f 42 75 77
f 42 77 76
f 44 78 79
f 44 79 48
f 44 47 80
f 44 80 78
f 46 52 76
f 46 76 81
f 46 81 47
f 47 81 82
f 47 82 80
f 48 83 49
f 48 79 78
f 48 78 83
f 49 83 84
f 53 85 54
f 54 85 86
f 54 86 87
f 54 87 55
f 55 88 56
f 55 87 88
f 56 88 89
f 56 89 90
f 56 90 57
f 57 90 91
f 57 91 58
f 58 91 59
f 59 91 92
f 59 92 61
f 59 61 60
f 61 92 93
f 61 93 94
f 61 94 95
f 61 95 96
f 61 96 63
f 61 63 62
f 64 97 98
f 64 98 99
f 64 99 65
f 65 100 101
f 65 101 67
f 65 67 66
f 65 99 102
f 65 102 103
f 65 103 104
f 65 104 105
f 65 105 100
f 67 101 106
f 67 106 68
f 68 106 107
f 68 107 69
f 70 108 109
f 70 109 71
f 71 109 110
f 74 111 75
f 75 111 112
f 75 112 77
f 76 77 113
f 76 113 81
f 77 112 113
f 78 80 114
f 78 114 115
f 78 115 83
f 80 82 116
f 80 116 114
f 81 117 118
f 81 118 119
f 81 119 82
f 81 113 117
f 82 119 116
f 83 115 120
f 83 120 121
f 83 121 88
f 83 88 122
f 83 122 123
f 83 123 124
f 83 124 125
f 83 125 84
f 87 126 88
f 88 121 127
f 88 127 89
f 88 126 122
f 89 127 90
f 90 128 129
f 90 129 130
f 90 130 91
f 90 127 128
f 91 130 131
f 91 131 132
f 91 132 92
f 92 132 133
f 92 133 93
f 93 133 132
f 93 132 134
f 93 134 94
f 94 134 95
f 95 134 135
f 97 136 98
f 98 136 137
f 98 137 138
f 98 138 102
f 98 102 99
f 100 139 101
f 100 105 140
f 100 140 141
f 100 141 142
f 100 142 139
f 101 143 144
f 101 144 145
f 101 145 146
f 101 146 106
f 101 139 147
f 101 147 143
f 102 138 148
f 102 148 103
f 103 148 104
f 104 149 105
f 104 148 150
f 104 150 151
f 104 151 152
f 104 152 153
f 104 153 149
f 105 149 140
f 106 146 145
f 106 145 154
f 106 154 107
f 108 155 156
f 108 156 157
f 108 157 109
f 109 158 110
f 109 157 158
f 110 158 159
f 110 159 160
f 110 160 161
f 111 162 163
f 111 163 112
f 112 163 162
f 112 162 164
f 112 164 165
f 112 165 113
f 113 165 166
f 113 166 167
f 113 167 117
f 114 116 119
f 114 119 118
f 114 118 115
f 115 118 168
f 115 168 169
f 115 169 170
f 115 170 120
f 117 171 118
f 117 167 171
f 118 171 172
f 118 172 168
f 120 170 173
f 120 173 121
f 121 173 174
f 121 174 127
f 127 174 128
f 128 174 130
f 128 130 129
f 130 174 175
f 130 175 176
f 130 176 177
f 130 177 131
f 131 177 132
f 132 177 178
f 132 178 179
f 132 179 134
f 134 179 180
f 134 180 135
f 137 181 138
f 138 181 150
f 138 150 148
f 139 182 147
f 139 142 183
f 139 183 182
f 140 149 184
f 140 184 185
f 140 185 141
f 141 185 142
f 142 185 186
f 142 186 183
f 143 147 144
f 144 187 188
f 144 188 145
f 144 147 187
f 147 182 183
f 147 183 189
f 147 189 229
f 147 229 190
f 147 190 187
f 149 153 191
f 149 191 192
f 149 192 184
f 150 181 193
f 150 193 194
f 150 194 195
f 150 195 151
f 151 195 196
f 151 196 152
f 152 196 197
f 152 197 198
f 152 198 153
f 153 198 199
f 153 199 191
f 155 200 201
f 155 201 156
f 156 201 202
f 156 202 203
f 156 203 204
f 156 204 157
f 157 204 158
f 158 204 159
f 159 204 205
f 159 205 160
f 160 205 206
f 160 206 207
f 160 207 161
f 162 208 164
f 164 208 209
f 164 209 210
f 164 210 165
f 165 210 211
f 165 211 166
f 166 212 213
f 166 213 167
f 166 211 214
f 166 214 212
f 167 213 212
f 167 212 215
f 167 215 191
f 167 191 199
f 167 199 168
f 167 168 172
f 167 172 171
f 168 174 216
f 168 216 169
f 168 199 174
f 169 216 173
f 169 173 170
f 173 216 174
f 174 217 218
f 174 218 175
f 174 199 217
f 175 218 199
f 175 199 176
f 176 199 197
f 176 197 177
f 177 197 178
f 178 219 179
f 178 197 219
f 179 219 220
f 179 220 180
f 183 186 221
f 183 221 189
f 184 192 185
f 185 192 186
f 186 192 221
f 187 222 223
f 187 223 224
f 187 224 225
f 187 225 226
f 187 226 227
f 187 227 188
f 187 190 222
f 189 221 228
f 189 228 192
f 189 192 239
f 189 239 229
f 190 230 231
f 190 231 232
f 190 232 202
f 190 202 233
f 190 233 234
f 190 234 235
f 190 235 236
f 190 236 237
f 190 237 222
f 190 229 238
f 190 238 230
f 191 215 239
f 191 239 192
f 192 228 221
f 193 220 240
f 193 240 219
f 193 219 194
f 194 196 195
f 194 219 196
f 196 219 197
f 197 199 198
f 199 218 217
f 200 241 242
f 200 242 201
f 201 242 202
f 202 232 231
f 202 231 243
f 202 243 203
f 202 242 244
f 202 244 234
f 202 234 233
f 203 243 204
f 204 243 245
f 204 245 214
f 204 214 246
f 204 246 205
f 205 246 247
f 205 247 206
f 206 247 209
f 206 209 208
f 206 208 207
f 209 214 211
f 209 211 210
f 209 247 214
f 212 214 248
f 212 248 215
f 214 247 246
f 214 245 248
f 215 248 239
f 219 240 220
f 222 236 223
f 222 237 236
f 223 236 249
f 229 239 250
f 229 250 251
f 229 251 238
f 230 238 231
f 231 238 252
f 231 252 243
f 234 244 249
f 234 249 236
f 234 236 235
f 238 251 253
f 238 253 252
f 239 248 254
f 239 254 255
f 239 255 253
f 239 253 251
f 239 251 250
f 241 244 242
f 241 256 244
f 243 252 257
f 243 257 258
f 243 258 245
f 244 256 259
f 244 259 249
f 245 258 248
f 248 258 254
f 252 253 255
f 252 255 257
f 254 258 255
f 255 258 257

