# https://github.com/mikedh/trimesh
v 0.16484907 -0.06455567 -0.48674288
v 0.13175267 0.14506839 -0.43067595
v 0.16815561 0.05484836 -0.48674288
v 0.18265469 -0.06455567 -0.48674288
v 0.26873329 -0.06455567 0.26101127
v 0.14743155 0.14506839 -0.43067595
v 0.23531090 0.14506839 0.26101127
v 0.18569733 0.05484836 -0.48674288
v 0.18344641 -0.06344742 -0.48674288
v 0.18443991 -0.06455567 -0.48491302
v 0.27949119 -0.06455567 0.26101127
v 0.17420983 0.14506839 -0.34357461
v 0.18015540 0.14012229 -0.34057364
v 0.16127864 0.13123575 -0.43067595
v 0.24715543 0.14506839 0.26101127
v 0.18653561 0.05484836 -0.48579136
v 0.18723418 0.04725477 -0.48674288
v 0.18597676 -0.05499186 -0.48674288
v 0.18669084 -0.05499186 -0.48593774
v 0.19012158 -0.06026632 -0.48015538
v 0.18476591 -0.06430940 -0.48469344
v 0.18470383 -0.06455567 -0.48462024
v 0.28028288 -0.06248283 0.26101127
v 0.28046918 -0.06455567 0.16132048
v 0.17610371 0.14506839 -0.33552322
v 0.17621239 0.14506839 -0.33493766
v 0.18065214 0.14063537 -0.33493766
v 0.19021471 0.14022490 -0.28128618
v 0.18967138 0.13952713 -0.28794685
v 0.18513848 0.13499150 -0.33493766
v 0.18950063 0.12899873 -0.33493766
v 0.18276337 0.13538143 -0.34430653
v 0.17059283 0.12078943 -0.43067595
v 0.16930437 0.12230815 -0.43067595
v 0.16672744 0.12528402 -0.43067595
v 0.16338986 0.12895767 -0.43067595
v 0.25230929 0.13531986 0.26101127
v 0.25035331 0.14071748 0.16139367
v 0.24776086 0.14506839 0.15429381
v 0.19047861 0.05484836 -0.48074093
v 0.18765330 0.04497670 -0.48674288
v 0.18724969 -0.04836286 -0.48674288
v 0.18785512 -0.04497653 -0.48674288
v 0.19057176 -0.05499186 -0.48088732
v 0.19917186 -0.00497680 -0.47861829
v 0.20137621 -0.00497680 -0.47356790
v 0.20064659 -0.01499212 -0.47159165
v 0.19302449 -0.05499186 -0.47495860
v 0.19218621 -0.06455567 -0.46961540
v 0.19094433 -0.06414521 -0.47408026
v 0.19061832 -0.06455567 -0.47451943
v 0.18512295 -0.06455567 -0.48396149
v 0.28306162 -0.04497653 0.26101127
v 0.28040707 -0.06455567 0.15583089
v 0.29034221 -0.00230878 0.15707520
v 0.29034221 -0.00230878 0.16139367
v 0.18482801 0.14506839 -0.28465310
v 0.18647352 0.14506839 -0.27499145
v 0.18771541 0.14506839 -0.26759881
v 0.18911253 0.14506839 -0.25903505
v 0.19047861 0.14506839 -0.25054449
v 0.19873719 0.14506839 -0.19835688
v 0.20002565 0.14506839 -0.19008592
v 0.21034887 0.14506839 -0.12062442
v 0.20030507 0.14043015 -0.21204424
v 0.19983937 0.13967079 -0.21877813
v 0.18990424 0.12975807 -0.32915533
v 0.19206202 0.12399106 -0.33493766
v 0.20957269 0.08914265 -0.33669433
v 0.19114614 0.12224659 -0.34489208
v 0.18833636 0.12725425 -0.34489208
v 0.18068320 0.10131291 -0.43067595
v 0.19286926 0.05484836 -0.47495860
v 0.25555372 0.12897819 0.26101127
v 0.27016148 0.10032779 0.26101127
v 0.27048746 0.10098454 0.16175964
v 0.26042816 0.12085100 0.15670922
v 0.25035331 0.14071748 0.15714839
v 0.25243348 0.13589451 0.15422061
v 0.23822933 0.14506839 0.08410037
v 0.20132963 0.00499748 -0.47349471
v 0.19914080 0.00499748 -0.47847190
v 0.19127032 0.04497670 -0.48198524
v 0.18777750 0.04425839 -0.48674288
v 0.18906596 -0.03738295 -0.48674288
v 0.19136345 -0.04497653 -0.48213163
v 0.19215517 -0.03498173 -0.48315635
v 0.19482523 -0.00497680 -0.48498622
v 0.19473210 0.00499748 -0.48498622
v 0.20404628 -0.00497680 -0.46493095
v 0.20271124 -0.01499212 -0.46493095
v 0.20016536 -0.02094385 -0.47034734
v 0.20007223 -0.04035881 -0.46017331
v 0.19344363 -0.06455567 -0.46537012
v 0.19088224 -0.06455567 -0.47378749
v 0.28368258 -0.04105660 0.26101127
v 0.28040707 -0.06451463 0.15575770
v 0.22040820 -0.06455567 -0.33391294
v 0.29034221 0.00222685 0.15707520
v 0.28656995 -0.02496640 0.15487936
v 0.28813785 -0.01497160 0.15487936
v 0.28951946 -0.00538726 0.15414742
v 0.27991033 -0.00943033 0.08058704
v 0.22983105 -0.00891725 -0.32864296
v 0.23032780 -0.00224721 -0.33266863
v 0.27997243 0.00003087 0.06990065
v 0.29034221 0.00222685 0.16139367
v 0.28815338 -0.00530517 0.26101127
v 0.28503311 -0.03106180 0.26101127
v 0.28452083 -0.03496121 0.26101127
v 0.21137343 0.14506839 -0.11337817
v 0.20480694 0.11498137 -0.27499145
v 0.21252219 0.14506839 -0.10503400
v 0.21821937 0.14506839 -0.06316680
v 0.20215240 0.10418615 -0.33493766
v 0.26115775 0.09230322 0.05489580
v 0.23037438 0.08074865 -0.21497202
v 0.22017534 0.08037923 -0.29131380
v 0.21972516 0.07945569 -0.29804766
v 0.21326733 0.08499695 -0.32491004
v 0.21177705 0.08548951 -0.33398613
v 0.21686880 0.07498163 -0.33493766
v 0.21129581 0.08261627 -0.34489208
v 0.20123650 0.10244168 -0.34489208
v 0.19078909 0.08148749 -0.43067595
v 0.19553933 0.05484836 -0.46485776
v 0.20010327 0.02059512 -0.47020096
v 0.20001014 0.04001008 -0.45995373
v 0.27267629 0.09523804 0.26101127
v 0.27331278 0.09499176 0.15495256
v 0.27040985 0.10082035 0.15495256
v 0.24046475 0.14090219 0.08490551
v 0.20252496 0.01499229 -0.46493095
v 0.20395313 0.00499748 -0.46493095
v 0.19206202 0.03500242 -0.48300996
v 0.18926777 0.03500242 -0.48674288
v 0.18943852 -0.03498173 -0.48674288
v 0.19030786 -0.02892739 -0.48674288
v 0.19352125 -0.00497680 -0.48674288
v 0.19344363 0.00499748 -0.48674288
v 0.19317973 0.00698823 -0.48674288
v 0.22950505 -0.00532569 -0.33559641
v 0.23032780 0.00214476 -0.33266863
v 0.20049137 -0.03498173 -0.46171039
v 0.20112783 -0.02455594 -0.46522373
v 0.19353677 -0.06455567 -0.46493095
v 0.22002010 -0.05016890 -0.34994251
v 0.22050133 -0.05410936 -0.34430653
v 0.22012877 -0.06079993 -0.34072003
v 0.21859193 -0.06455567 -0.34408695
v 0.27955329 -0.04542805 0.12406452
v 0.22812346 -0.01497160 -0.33493766
v 0.27939802 0.01513595 0.08439314
v 0.27914965 0.06484316 0.14653522
v 0.28017423 0.06484316 0.15495256
v 0.27855977 0.07498163 0.15495256
v 0.28050023 0.06326288 0.16190603
v 0.22947401 0.00530533 -0.33559641
v 0.22803031 0.01499229 -0.33493766
v 0.22487901 0.03500242 -0.33493766
v 0.28023630 0.06160050 0.26101127
v 0.28222334 0.04906081 0.26101127
v 0.28285980 0.04497670 0.26101127
v 0.28435010 0.03500242 0.26101127
v 0.28768766 0.00860957 0.26101127
v 0.28804472 0.00522324 0.26101127
v 0.28815338 -0.00189831 0.26101127
v 0.27036327 0.09076398 0.11703786
v 0.24029398 0.08062551 -0.14228997
v 0.23001733 0.08005086 -0.22016883
v 0.21485074 0.07498163 -0.34489208
v 0.21995801 0.06987135 -0.32974088
v 0.21961649 0.06788060 -0.33493766
v 0.21983382 0.06484316 -0.33727989
v 0.20053793 0.03334004 -0.46185678
v 0.20101917 0.02435087 -0.46507734
v 0.22011325 0.06061538 -0.34050044
v 0.22000459 0.05000488 -0.34986931
v 0.27561027 0.08499695 0.26101127
v 0.27679008 0.08499695 0.15495256
v 0.19066490 0.02500761 -0.48674288
v 0.22140171 0.06484316 -0.32483685
v 0.27733338 0.07498163 0.14492494
v 0.26958710 0.07748546 0.08490551
v 0.26992863 0.07961988 0.09046829
v 0.22043924 0.05398639 -0.34423333
v 0.22047029 0.06287294 -0.33493766
v 0.26992863 0.08977886 0.11037716
v 0.25004283 0.08015348 -0.07063263
v 0.25999349 0.08000982 0.00988123
v 0.22033058 0.06484316 -0.33347377
f 1 2 3
f 1 3 8
f 1 8 17
f 1 17 41
f 1 41 84
f 1 84 136
f 1 136 181
f 1 181 141
f 1 141 140
f 1 140 139
f 1 139 138
f 1 138 137
f 1 137 85
f 1 85 43
f 1 43 42
f 1 42 18
f 1 18 9
f 1 9 4
f 1 4 10
f 1 10 22
f 1 22 52
f 1 52 51
f 1 51 95
f 1 95 49
f 1 49 94
f 1 94 146
f 1 146 150
f 1 150 98
f 1 98 54
f 1 54 24
f 1 24 11
f 1 11 5
f 1 5 2
f 2 6 8
f 2 8 3
f 2 5 7
f 2 7 15
f 2 15 39
f 2 39 80
f 2 80 114
f 2 114 113
f 2 113 111
f 2 111 64
f 2 64 63
f 2 63 62
f 2 62 61
f 2 61 60
f 2 60 59
f 2 59 58
f 2 58 57
f 2 57 26
f 2 26 25
f 2 25 12
f 2 12 6
f 4 9 10
f 5 11 23
f 5 23 53
f 5 53 96
f 5 96 110
f 5 110 109
f 5 109 108
f 5 108 167
f 5 167 166
f 5 166 165
f 5 165 164
f 5 164 163
f 5 163 162
f 5 162 161
f 5 161 179
f 5 179 129
f 5 129 75
f 5 75 74
f 5 74 37
f 5 37 15
f 5 15 7
f 6 12 13
f 6 13 14
f 6 14 8
f 8 14 16
f 8 16 17
f 9 18 19
f 9 19 20
f 9 20 21
f 9 21 22
f 9 22 10
f 11 24 23
f 12 25 13
f 13 25 26
f 13 26 27
f 13 27 28
f 13 28 29
f 13 29 30
f 13 30 31
f 13 31 32
f 13 32 33
f 13 33 34
f 13 34 35
f 13 35 36
f 13 36 14
f 14 36 16
f 15 37 38
f 15 38 39
f 16 36 35
f 16 35 40
f 16 40 17
f 17 40 41
f 18 42 19
f 19 42 43
f 19 43 44
f 19 44 20
f 20 44 45
f 20 45 46
f 20 46 47
f 20 47 48
f 20 48 49
f 20 49 50
f 20 50 51
f 20 51 52
f 20 52 22
f 20 22 21
f 23 24 53
f 24 54 55
f 24 55 56
f 24 56 53
f 26 57 27
f 27 57 28
f 28 57 58
f 28 58 59
f 28 59 60
f 28 60 61
f 28 61 62
f 28 62 63
f 28 63 64
f 28 64 65
f 28 65 66
f 28 66 67
f 28 67 29
f 29 67 31
f 29 31 30
f 31 67 68
f 31 68 69
f 31 69 70
f 31 70 71
f 31 71 32
f 32 71 33
f 33 71 70
f 33 70 72
f 33 72 73
f 33 73 40
f 33 40 34
f 34 40 35
f 37 74 38
f 38 74 75
f 38 75 76
f 38 76 77
f 38 77 78
f 38 78 39
f 39 78 79
f 39 79 80
f 40 73 81
f 40 81 82
f 40 82 83
f 40 83 41
f 41 83 84
f 43 85 86
f 43 86 44
f 44 86 45
f 45 82 81
f 45 81 46
f 45 86 87
f 45 87 88
f 45 88 89
f 45 89 82
f 46 81 90
f 46 90 91
f 46 91 47
f 47 91 92
f 47 92 48
f 48 92 93
f 48 93 94
f 48 94 49
f 49 95 50
f 50 95 51
f 53 56 96
f 54 97 55
f 54 98 97
f 55 99 107
f 55 107 56
f 55 97 100
f 55 100 101
f 55 101 102
f 55 102 103
f 55 103 104
f 55 104 105
f 55 105 106
f 55 106 99
f 56 107 167
f 56 167 108
f 56 108 109
f 56 109 110
f 56 110 96
f 64 111 66
f 64 66 65
f 66 112 67
f 66 111 113
f 66 113 114
f 66 114 80
f 66 80 112
f 67 112 68
f 68 112 115
f 68 115 69
f 69 115 112
f 69 112 116
f 69 116 117
f 69 117 118
f 69 118 119
f 69 119 120
f 69 120 121
f 69 121 122
f 69 122 123
f 69 123 124
f 69 124 70
f 70 124 125
f 70 125 72
f 72 125 126
f 72 126 73
f 73 127 81
f 73 126 128
f 73 128 127
f 75 129 76
f 76 129 130
f 76 130 131
f 76 131 77
f 77 131 79
f 77 79 78
f 79 131 112
f 79 112 132
f 79 132 80
f 80 132 112
f 81 127 133
f 81 133 134
f 81 134 90
f 82 89 135
f 82 135 83
f 83 135 136
f 83 136 84
f 85 137 87
f 85 87 86
f 87 137 138
f 87 138 88
f 88 138 139
f 88 139 140
f 88 140 89
f 89 140 141
f 89 141 135
f 90 142 91
f 90 134 143
f 90 143 105
f 90 105 142
f 91 142 93
f 91 93 144
f 91 144 145
f 91 145 92
f 92 145 144
f 92 144 93
f 93 146 94
f 93 142 147
f 93 147 148
f 93 148 149
f 93 149 150
f 93 150 146
f 97 98 151
f 97 151 100
f 98 100 151
f 98 150 149
f 98 149 152
f 98 152 100
f 99 153 154
f 99 154 155
f 99 155 156
f 99 156 157
f 99 157 107
f 99 106 143
f 99 143 158
f 99 158 159
f 99 159 160
f 99 160 153
f 100 103 101
f 100 152 103
f 101 103 102
f 103 152 104
f 104 152 142
f 104 142 105
f 105 143 106
f 107 157 161
f 107 161 162
f 107 162 163
f 107 163 164
f 107 164 165
f 107 165 166
f 107 166 167
f 112 131 116
f 116 168 117
f 116 131 168
f 117 168 169
f 117 169 170
f 117 170 119
f 117 119 118
f 119 121 120
f 119 170 122
f 119 122 121
f 122 171 123
f 122 170 169
f 122 169 172
f 122 172 171
f 123 125 124
f 123 171 126
f 123 126 125
f 126 171 173
f 126 173 174
f 126 174 128
f 127 175 176
f 127 176 133
f 127 128 175
f 128 174 177
f 128 177 178
f 128 178 158
f 128 158 134
f 128 134 133
f 128 133 175
f 129 179 180
f 129 180 130
f 130 180 168
f 130 168 131
f 133 176 175
f 134 158 143
f 135 141 181
f 135 181 136
f 142 152 149
f 142 149 148
f 142 148 147
f 153 182 154
f 153 160 182
f 154 183 156
f 154 156 155
f 154 182 184
f 154 184 185
f 154 185 183
f 156 183 185
f 156 185 180
f 156 180 161
f 156 161 157
f 158 178 186
f 158 186 177
f 158 177 160
f 158 160 159
f 160 187 182
f 160 177 187
f 161 180 179
f 168 188 169
f 168 180 188
f 169 188 189
f 169 189 172
f 171 172 173
f 172 189 190
f 172 190 182
f 172 182 191
f 172 191 174
f 172 174 173
f 174 191 187
f 174 187 177
f 177 186 178
f 180 185 190
f 180 190 189
f 180 189 188
f 182 190 184
f 182 187 191
f 184 190 185

