# https://github.com/mikedh/trimesh
v -0.24167678 -0.15734041 0.26109797
v -0.26065779 -0.16135964 0.35760584
v -0.26202077 -0.15734041 0.35550123
v -0.22925839 -0.15734041 0.26109797
v -0.24016234 -0.16035852 0.26109797
v -0.26065779 -0.16135964 0.36208045
v -0.25061199 -0.18085220 0.35779545
v -0.26197028 -0.15734041 0.36424193
v -0.21272574 -0.15734041 0.45475835
v -0.00416213 -0.26690507 0.44698462
v -0.00416213 -0.27830026 0.26109797
v -0.23937988 -0.16181605 0.26109797
v -0.25245455 -0.17541961 0.36513308
v -0.25076342 -0.16155104 0.39133617
v -0.25061199 -0.18085220 0.36189085
v -0.24097005 -0.19099599 0.35734040
v -0.23748684 -0.16511388 0.26109797
v -0.23546758 -0.16842644 0.26109797
v -0.23243871 -0.17291680 0.26109797
v -0.22968748 -0.17594962 0.26109797
v -0.22787014 -0.17792243 0.26109797
v -0.26103640 -0.15734041 0.36699116
v -0.22625473 -0.15734041 0.45475835
v -0.13134985 -0.22839108 0.45475835
v -0.00416213 -0.27724025 0.44698462
v -0.00416213 -0.28969547 0.26109797
v -0.24937519 -0.17901190 0.36854592
v -0.25167209 -0.15734041 0.39345974
v -0.24018759 -0.18024859 0.39031231
v -0.24097005 -0.19099599 0.36234590
v -0.24518524 -0.18521005 0.36545539
v -0.19288659 -0.21291776 0.26109797
v -0.17789362 -0.22790523 0.26109797
v -0.22095421 -0.21100384 0.35734040
v -0.22264533 -0.16343552 0.45475835
v -0.13134985 -0.24083157 0.45475835
v -0.00441454 -0.27724025 0.44698462
v -0.00416213 -0.29891172 0.39272028
v -0.00416213 -0.29040214 0.26475731
v -0.00502032 -0.30773050 0.35500827
v -0.04502677 -0.28354147 0.26109797
v -0.23021752 -0.19024515 0.39031231
v -0.17872657 -0.20895740 0.45475835
v -0.18379995 -0.20384870 0.45475835
v -0.18887332 -0.19868112 0.45475835
v -0.21840489 -0.16842644 0.45475835
v -0.22095421 -0.21100384 0.36234590
v -0.19023632 -0.23024611 0.39031231
v -0.17595010 -0.22974554 0.26109797
v -0.19096829 -0.24096407 0.35734040
v -0.13150129 -0.24077268 0.45475835
v -0.09336264 -0.26169330 0.44698462
v -0.09197441 -0.26219389 0.44698462
v -0.08500798 -0.26453474 0.44698462
v -0.08298873 -0.26493225 0.44698462
v -0.05348239 -0.27051207 0.44698462
v -0.04492581 -0.27188125 0.44698462
v -0.03301222 -0.27375102 0.44698462
v -0.02301691 -0.27506131 0.44698462
v -0.00416213 -0.30063426 0.38780957
v -0.00923551 -0.29966259 0.38900405
v -0.00416213 -0.30771577 0.35500827
v -0.00416213 -0.30755383 0.36498138
v -0.00502032 -0.30755383 0.36498138
v -0.06097887 -0.30013371 0.36048779
v -0.06097887 -0.30013371 0.35931227
v -0.06383107 -0.28056753 0.26109797
v -0.16885747 -0.21885091 0.45475835
v -0.19096829 -0.24096407 0.36234590
v -0.18024102 -0.24021322 0.39031231
v -0.17289598 -0.23252809 0.26109797
v -0.18084678 -0.25062200 0.35779545
v -0.15131521 -0.23067306 0.45475835
v -0.16153768 -0.25076923 0.39133617
v -0.12180887 -0.27089486 0.39156371
v -0.10191923 -0.28095031 0.39167747
v -0.09480137 -0.28224587 0.39499551
v -0.08500798 -0.28479287 0.39497656
v -0.07029267 -0.29003409 0.39006585
v -0.05502208 -0.30061954 0.36208045
v -0.08500798 -0.29490721 0.36498138
v -0.08500798 -0.29492193 0.35500827
v -0.08500798 -0.27609190 0.26109797
v -0.16388506 -0.22301736 0.45475835
v -0.18084678 -0.25062200 0.36189085
v -0.18518817 -0.24518941 0.36545539
v -0.17900422 -0.24938533 0.36856487
v -0.15631285 -0.22802301 0.45475835
v -0.16857982 -0.23557565 0.26109797
v -0.16532378 -0.23759262 0.26109797
v -0.16249682 -0.23927099 0.26109797
v -0.16060378 -0.24030155 0.26109797
v -0.16136099 -0.26067746 0.35760584
v -0.15621190 -0.22808190 0.45475835
v -0.17539480 -0.25246233 0.36513308
v -0.16136099 -0.26067746 0.36208045
v -0.14147136 -0.27074763 0.36227006
v -0.10174254 -0.29085854 0.36263031
v -0.09931944 -0.28973964 0.36928537
v -0.09560906 -0.29216883 0.36556914
v -0.09265590 -0.29084381 0.37182605
v -0.10174254 -0.29085854 0.35703704
v -0.09573527 -0.29215410 0.35421193
v -0.09535666 -0.27338296 0.26109797
v -0.12100117 -0.26050079 0.26109797
v -0.14147136 -0.27074763 0.35741624
v -0.10118725 -0.27058569 0.26109797
f 1 2 3
f 1 3 8
f 1 8 22
f 1 22 28
f 1 28 23
f 1 23 9
f 1 9 4
f 1 4 11
f 1 11 26
f 1 26 41
f 1 41 67
f 1 67 83
f 1 83 104
f 1 104 107
f 1 107 105
f 1 105 92
f 1 92 91
f 1 91 90
f 1 90 89
f 1 89 71
f 1 71 49
f 1 49 33
f 1 33 32
f 1 32 21
f 1 21 20
f 1 20 19
f 1 19 18
f 1 18 17
f 1 17 12
f 1 12 5
f 1 5 2
f 2 6 3
f 2 5 7
f 2 7 15
f 2 15 6
f 3 6 8
f 4 9 10
f 4 10 11
f 5 12 7
f 6 13 14
f 6 14 8
f 6 15 13
f 7 16 30
f 7 30 15
f 7 12 17
f 7 17 18
f 7 18 19
f 7 19 20
f 7 20 21
f 7 21 16
f 8 14 22
f 9 23 35
f 9 35 46
f 9 46 45
f 9 45 44
f 9 44 43
f 9 43 68
f 9 68 84
f 9 84 88
f 9 88 94
f 9 94 73
f 9 73 51
f 9 51 36
f 9 36 24
f 9 24 10
f 10 24 36
f 10 36 25
f 10 25 38
f 10 38 60
f 10 60 63
f 10 63 62
f 10 62 39
f 10 39 26
f 10 26 11
f 13 15 27
f 13 27 14
f 14 28 22
f 14 27 29
f 14 29 23
f 14 23 28
f 15 30 31
f 15 31 29
f 15 29 27
f 16 21 32
f 16 32 33
f 16 33 34
f 16 34 47
f 16 47 30
f 23 29 35
f 25 36 37
f 25 37 38
f 26 39 40
f 26 40 41
f 29 31 30
f 29 30 42
f 29 42 43
f 29 43 44
f 29 44 45
f 29 45 46
f 29 46 35
f 30 47 48
f 30 48 42
f 33 49 50
f 33 50 34
f 34 50 69
f 34 69 47
f 36 51 52
f 36 52 53
f 36 53 54
f 36 54 55
f 36 55 56
f 36 56 57
f 36 57 58
f 36 58 59
f 36 59 37
f 37 59 38
f 38 59 58
f 38 58 61
f 38 61 60
f 39 62 40
f 40 62 63
f 40 63 64
f 40 64 65
f 40 65 66
f 40 66 41
f 41 66 67
f 42 48 68
f 42 68 43
f 47 69 48
f 48 69 70
f 48 70 68
f 49 71 72
f 49 72 50
f 50 72 85
f 50 85 69
f 51 73 74
f 51 74 75
f 51 75 76
f 51 76 52
f 52 76 77
f 52 77 53
f 53 77 54
f 54 78 79
f 54 79 55
f 54 77 78
f 55 79 56
f 56 79 57
f 57 79 58
f 58 79 61
f 60 61 64
f 60 64 63
f 61 79 64
f 64 79 80
f 64 80 65
f 65 80 79
f 65 79 81
f 65 81 82
f 65 82 66
f 66 82 67
f 67 82 83
f 68 70 84
f 69 85 86
f 69 86 70
f 70 86 85
f 70 85 87
f 70 87 74
f 70 74 88
f 70 88 84
f 71 89 72
f 72 89 90
f 72 90 91
f 72 91 92
f 72 92 93
f 72 93 96
f 72 96 85
f 73 94 74
f 74 94 88
f 74 87 95
f 74 95 96
f 74 96 97
f 74 97 98
f 74 98 75
f 75 98 76
f 76 98 99
f 76 99 77
f 77 100 101
f 77 101 78
f 77 99 100
f 78 101 79
f 79 101 81
f 81 101 100
f 81 100 98
f 81 98 82
f 82 98 102
f 82 102 103
f 82 103 83
f 83 103 104
f 85 96 95
f 85 95 87
f 92 105 93
f 93 106 97
f 93 97 96
f 93 105 107
f 93 107 106
f 97 106 102
f 97 102 98
f 98 100 99
f 102 107 104
f 102 104 103
f 102 106 107

