# https://github.com/mikedh/trimesh
v 0.25754699 0.16548163 0.35446525
v 0.25060704 0.18085524 0.35771108
v 0.25060704 0.18085524 0.36189649
v 0.25748390 0.16548163 0.36522773
v 0.24715285 0.14508891 0.26093408
v 0.24775220 0.14508891 0.15433420
v 0.24096999 0.19099408 0.35728398
v 0.24029177 0.16062073 0.15766545
v 0.23772083 0.16437426 0.15459044
v 0.23226352 0.17258599 0.15493211
v 0.22756329 0.17759070 0.15493211
v 0.24096999 0.19099408 0.36232355
v 0.24019712 0.18025124 0.39025480
v 0.24939255 0.17901444 0.36855897
v 0.25246823 0.17541911 0.36505690
v 0.24664813 0.16548163 0.39469644
v 0.22098611 0.16548163 0.44193181
v 0.23532340 0.14508891 0.26093408
v 0.23822555 0.14508891 0.08412177
v 0.23328874 0.15501201 0.08489052
v 0.23944005 0.15893812 0.14493838
v 0.23985013 0.15974347 0.15100296
v 0.23098594 0.20100348 0.35728398
v 0.23000804 0.16004547 0.07976553
v 0.23024462 0.17029937 0.12819672
v 0.22007130 0.16011739 0.00921143
v 0.21899876 0.16903381 0.05490930
v 0.21010302 0.17012678 0.00921143
v 0.19756381 0.20759012 0.15493211
v 0.23098594 0.20100348 0.36232355
v 0.23022886 0.19026063 0.39025480
v 0.21844673 0.16848731 0.44193181
v 0.24185325 0.17445555 0.39418393
v 0.20540279 0.16548163 0.44193181
v 0.20533970 0.16548163 0.44184640
v 0.13174477 0.14508891 -0.43068394
v 0.22100188 0.14508891 -0.04263643
v 0.21218500 0.14576483 -0.10499053
v 0.19097087 0.24096917 0.35728398
v 0.20974025 0.14959025 -0.10832178
v 0.19983506 0.14982036 -0.16896755
v 0.18631795 0.14508891 -0.27573827
v 0.18480378 0.14508891 -0.28462160
v 0.17611308 0.14508891 -0.33552986
v 0.17065576 0.15066886 -0.33493197
v 0.15567179 0.16566858 -0.33493197
v 0.15324281 0.17323315 -0.30495074
v 0.16376314 0.20376469 -0.06501557
v 0.17075039 0.22072026 0.07498220
v 0.17671244 0.22670290 0.14493838
v 0.17754838 0.22755139 0.15493211
v 0.19097087 0.24096917 0.36232355
v 0.21022920 0.21026504 0.39025480
v 0.20022938 0.22024567 0.39025480
v 0.18021396 0.24022134 0.39025480
v 0.16961476 0.21682292 0.44193181
v 0.09642993 0.24444944 0.44193181
v 0.09702928 0.16620068 -0.43068394
v 0.10638243 0.16041940 -0.43068394
v 0.10851173 0.15911070 -0.43068394
v 0.14742273 0.14508891 -0.43068394
v 0.21821013 0.14508891 -0.06313641
v 0.21136484 0.14508891 -0.11336136
v 0.18081331 0.25061902 0.35771108
v 0.21033961 0.14508891 -0.12062177
v 0.19999279 0.14508891 -0.19006544
v 0.19869943 0.14508891 -0.19835085
v 0.19045037 0.14508891 -0.25054038
v 0.18907815 0.14508891 -0.25899661
v 0.18769017 0.14508891 -0.26753828
v 0.17418882 0.14508891 -0.34355903
v 0.17016681 0.15015113 -0.34056944
v 0.14567196 0.17566359 -0.33493197
v 0.14016733 0.18016495 -0.34056944
v 0.16004080 0.21002056 -0.05015309
v 0.17030877 0.23022631 0.12819672
v 0.17258002 0.23213904 0.15493211
v 0.17174406 0.23141997 0.14493838
v 0.18081331 0.25061902 0.36189649
v 0.18519810 0.24518289 0.36539856
v 0.17899947 0.24938223 0.36855897
v 0.16157074 0.25076285 0.39127979
v 0.17445695 0.24184643 0.39418393
v 0.16344768 0.22230221 0.44193181
v 0.16819523 0.21820353 0.44193181
v 0.09642993 0.25704747 0.44193181
v 0.09642993 0.25877324 0.26101950
v 0.09702928 0.17895691 -0.43068394
v 0.13127159 0.16125351 -0.43068394
v 0.16417322 0.23751764 0.15535919
v 0.16026162 0.24012066 0.15894669
v 0.16138147 0.26067156 0.35754025
v 0.14065628 0.18066829 -0.33493197
v 0.12868488 0.16338195 -0.43068394
v 0.12471019 0.16657460 -0.43068394
v 0.12018345 0.17006926 -0.43068394
v 0.13538824 0.18255225 -0.34432778
v 0.13500969 0.18489639 -0.33493197
v 0.13952066 0.18967099 -0.28795284
v 0.14024620 0.19020310 -0.28129035
v 0.16500917 0.23560493 0.14493838
v 0.16002503 0.22000121 0.00989477
v 0.16138147 0.26067156 0.36206731
v 0.17541908 0.25245982 0.36505690
v 0.14168149 0.26082975 0.39145061
v 0.14704418 0.23165007 0.44193181
v 0.14887381 0.23071527 0.44193181
v 0.15163401 0.22926277 0.44193181
v 0.15373176 0.22814102 0.44193181
v 0.15505666 0.22740757 0.44193181
v 0.10721838 0.25175515 0.44193181
v 0.10193456 0.28094923 0.39162144
v 0.09642993 0.28194153 0.39418393
v 0.09642993 0.27121308 0.26101950
v 0.09702928 0.20280114 -0.34680486
v 0.12012036 0.17009802 -0.43068394
v 0.15622383 0.22805473 0.05490930
v 0.14423665 0.24775714 0.15501752
v 0.14038815 0.25018758 0.15851961
v 0.12160298 0.28080541 0.35719857
v 0.10062543 0.27030706 0.15766545
v 0.10059389 0.20029879 -0.35022151
v 0.10195033 0.20097472 -0.34492570
v 0.12177649 0.19090779 -0.34492570
v 0.12677640 0.18808906 -0.34492570
v 0.12849560 0.18923956 -0.33493197
v 0.12945774 0.18972853 -0.32775697
v 0.13032523 0.19017434 -0.32117990
v 0.12160298 0.28080541 0.36240897
v 0.10172952 0.29085797 0.36257982
v 0.09933208 0.28973621 0.36924231
v 0.09642993 0.29164892 0.36633813
v 0.09642993 0.29193655 0.35455066
v 0.09702928 0.20329010 -0.34492570
v 0.11502582 0.19611382 -0.33493197
v 0.09919013 0.25956422 0.07301762
v 0.11578290 0.26221037 0.15476128
v 0.10172952 0.29085797 0.35702774
v 0.09702928 0.27173081 0.15535919
v 0.09761287 0.26876825 0.13494463
v 0.09702928 0.26997629 0.14194879
v 0.09702928 0.20474263 -0.33783612
v 0.09702928 0.20526035 -0.33493197
v 0.09642993 0.29200846 0.36514232
v 0.09642993 0.29200846 0.36437356
v 0.09702928 0.26892644 0.13400505
v 0.09702928 0.26770404 0.12495089
v 0.09702928 0.26226789 0.08489052
v 0.10956850 0.19979544 -0.32826945
f 1 2 3
f 1 3 4
f 1 4 5
f 1 5 6
f 1 6 2
f 2 7 12
f 2 12 3
f 2 6 8
f 2 8 9
f 2 9 10
f 2 10 11
f 2 11 7
f 3 12 13
f 3 13 14
f 3 14 15
f 3 15 4
f 4 15 14
f 4 14 16
f 4 16 5
f 5 16 17
f 5 17 34
f 5 34 18
f 5 18 36
f 5 36 61
f 5 61 71
f 5 71 44
f 5 44 43
f 5 43 42
f 5 42 70
f 5 70 69
f 5 69 68
f 5 68 67
f 5 67 66
f 5 66 65
f 5 65 63
f 5 63 62
f 5 62 37
f 5 37 19
f 5 19 6
f 6 19 20
f 6 20 21
f 6 21 22
f 6 22 8
f 7 23 30
f 7 30 12
f 7 11 23
f 8 22 24
f 8 24 9
f 9 24 25
f 9 25 10
f 10 25 11
f 11 25 26
f 11 26 27
f 11 27 28
f 11 28 29
f 11 29 23
f 12 30 31
f 12 31 13
f 13 31 32
f 13 32 17
f 13 17 33
f 13 33 16
f 13 16 14
f 16 33 17
f 17 32 56
f 17 56 85
f 17 85 84
f 17 84 110
f 17 110 109
f 17 109 108
f 17 108 107
f 17 107 106
f 17 106 111
f 17 111 86
f 17 86 57
f 17 57 34
f 18 34 35
f 18 35 36
f 19 37 20
f 20 37 38
f 20 38 24
f 20 24 21
f 21 24 22
f 23 39 52
f 23 52 30
f 23 29 39
f 24 38 40
f 24 40 26
f 24 26 25
f 26 28 27
f 26 40 41
f 26 41 42
f 26 42 43
f 26 43 44
f 26 44 28
f 28 44 45
f 28 45 46
f 28 46 47
f 28 47 48
f 28 48 29
f 29 48 49
f 29 49 50
f 29 50 51
f 29 51 39
f 30 52 53
f 30 53 31
f 31 53 32
f 32 53 54
f 32 54 55
f 32 55 56
f 34 57 35
f 35 57 58
f 35 58 59
f 35 59 60
f 35 60 36
f 36 60 59
f 36 59 58
f 36 58 88
f 36 88 116
f 36 116 96
f 36 96 95
f 36 95 94
f 36 94 89
f 36 89 61
f 37 62 38
f 38 62 63
f 38 63 40
f 39 64 79
f 39 79 52
f 39 51 64
f 40 63 65
f 40 65 66
f 40 66 67
f 40 67 68
f 40 68 41
f 41 68 69
f 41 69 70
f 41 70 42
f 44 71 72
f 44 72 45
f 45 72 46
f 46 73 47
f 46 72 74
f 46 74 73
f 47 73 48
f 48 75 49
f 48 73 75
f 49 75 76
f 49 76 50
f 50 76 51
f 51 77 64
f 51 76 78
f 51 78 77
f 52 79 80
f 52 80 55
f 52 55 54
f 52 54 53
f 55 80 79
f 55 79 81
f 55 81 82
f 55 82 83
f 55 83 84
f 55 84 85
f 55 85 56
f 57 86 113
f 57 113 132
f 57 132 144
f 57 144 145
f 57 145 133
f 57 133 114
f 57 114 87
f 57 87 58
f 58 87 114
f 58 114 88
f 61 89 72
f 61 72 71
f 64 90 91
f 64 91 92
f 64 92 103
f 64 103 79
f 64 77 90
f 72 89 74
f 73 93 75
f 73 74 93
f 74 89 94
f 74 94 95
f 74 95 96
f 74 96 97
f 74 97 98
f 74 98 99
f 74 99 100
f 74 100 93
f 75 93 100
f 75 100 76
f 76 101 90
f 76 90 78
f 76 100 102
f 76 102 101
f 77 78 90
f 79 103 104
f 79 104 81
f 81 104 82
f 82 105 106
f 82 106 107
f 82 107 108
f 82 108 109
f 82 109 110
f 82 110 83
f 82 104 103
f 82 103 129
f 82 129 105
f 83 110 84
f 86 111 112
f 86 112 113
f 88 115 116
f 88 114 115
f 90 101 102
f 90 102 91
f 91 102 117
f 91 117 118
f 91 118 119
f 91 119 92
f 92 120 129
f 92 129 103
f 92 119 121
f 92 121 120
f 96 116 122
f 96 122 123
f 96 123 124
f 96 124 125
f 96 125 97
f 97 125 126
f 97 126 98
f 98 126 99
f 99 126 127
f 99 127 128
f 99 128 100
f 100 128 102
f 102 128 127
f 102 127 117
f 105 129 130
f 105 130 112
f 105 112 106
f 106 112 111
f 112 130 131
f 112 131 113
f 113 131 132
f 114 133 134
f 114 134 115
f 115 134 122
f 115 122 116
f 117 127 135
f 117 135 118
f 118 135 136
f 118 136 137
f 118 137 119
f 119 137 121
f 120 138 130
f 120 130 129
f 120 121 138
f 121 139 138
f 121 137 140
f 121 140 141
f 121 141 139
f 122 134 123
f 123 134 142
f 123 142 124
f 124 142 143
f 124 143 135
f 124 135 126
f 124 126 125
f 126 135 127
f 130 144 131
f 130 138 145
f 130 145 144
f 131 144 132
f 133 145 138
f 133 138 139
f 133 139 141
f 133 141 146
f 133 146 147
f 133 147 148
f 133 148 143
f 133 143 142
f 133 142 134
f 135 143 149
f 135 149 136
f 136 148 140
f 136 140 137
f 136 149 143
f 136 143 148
f 140 148 147
f 140 147 146
f 140 146 141

