# https://github.com/mikedh/trimesh
v -0.13133314 -0.25512913 0.26107901
v -0.13133314 -0.24298325 0.26107901
v -0.14081642 -0.25040403 0.26107901
v -0.14014004 -0.25006318 0.15945055
v -0.13133314 -0.25401372 0.15555616
v -0.26009598 -0.09687641 0.26107901
v -0.13133314 -0.09687641 -0.49128616
v -0.16062504 -0.24030311 0.26107901
v -0.16001767 -0.23999327 0.15989991
v -0.15548998 -0.24177487 0.15593062
v -0.13555714 -0.25189126 0.15563105
v -0.13133314 -0.25288278 0.14709337
v -0.27235386 -0.09687641 0.26107901
v -0.13133314 -0.09687641 -0.50379312
v -0.16251618 -0.23928063 0.26107901
v -0.17197184 -0.23175143 0.15495704
v -0.16402079 -0.23714271 0.15593062
v -0.16027993 -0.23017122 0.08867760
v -0.15946551 -0.22970645 0.08201221
v -0.15913421 -0.23954400 0.15323453
v -0.16535977 -0.23760748 0.26107901
v -0.16858989 -0.23557800 0.26107901
v -0.15568323 -0.23207676 0.08515768
v -0.14270756 -0.24137208 0.10492916
v -0.13500498 -0.24529159 0.10492916
v -0.13133314 -0.24442405 0.08478321
v -0.27119434 -0.09687641 0.15705399
v -0.27000719 -0.10003681 0.15982501
v -0.27046272 -0.10091987 0.26107901
v -0.13133314 -0.09867350 -0.50401777
v -0.13312766 -0.09687641 -0.50394291
v -0.17698267 -0.22696434 0.15495704
v -0.17046723 -0.23040360 0.13728251
v -0.17291051 -0.23252603 0.26107901
v -0.17594737 -0.22973743 0.26107901
v -0.17790753 -0.22789386 0.26107901
v -0.16985986 -0.22987688 0.13061713
v -0.16029374 -0.22022523 0.01835400
v -0.14988559 -0.20992292 -0.09960093
v -0.14501281 -0.21440017 -0.08507188
v -0.13334852 -0.22169699 -0.07503635
v -0.13200954 -0.22101533 -0.08507188
v -0.13133314 -0.21858306 -0.10551739
v -0.26934460 -0.09687641 0.14312409
v -0.26840594 -0.09687641 0.13615914
v -0.26743966 -0.10403380 0.15585573
v -0.24194385 -0.15382570 0.15495704
v -0.23939013 -0.15882967 0.15495704
v -0.24016315 -0.16034791 0.26107901
v -0.25026760 -0.14054890 0.26107901
v -0.13133314 -0.10868146 -0.50266975
v -0.13500498 -0.10500981 -0.50266975
v -0.13500498 -0.09687641 -0.50371826
v -0.19291237 -0.21289742 0.26107901
v -0.19197370 -0.21196789 0.15495704
v -0.22439909 -0.17441483 0.12492533
v -0.19270532 -0.20268807 0.10492916
v -0.17270344 -0.22268850 0.10492916
v -0.16414502 -0.21413681 0.00494833
v -0.16019711 -0.21018629 -0.04118516
v -0.15002364 -0.20000792 -0.16003878
v -0.13979495 -0.18982956 -0.27904218
v -0.13998820 -0.19997694 -0.20991686
v -0.13599887 -0.20256414 -0.20594758
v -0.13298962 -0.20151067 -0.22497016
v -0.13133314 -0.20499641 -0.20549823
v -0.26063433 -0.09687641 0.07886675
v -0.26028925 -0.11058700 0.12777123
v -0.23854809 -0.14716406 0.10492916
v -0.23255719 -0.15599461 0.09399493
v -0.23604958 -0.16501106 0.15495704
v -0.23937632 -0.16181967 0.26107901
v -0.22827798 -0.15664528 0.06493683
v -0.22963077 -0.15930994 0.08493300
v -0.22997586 -0.15997609 0.09002565
v -0.13133314 -0.11463046 -0.50147146
v -0.13445282 -0.11446004 -0.50087231
v -0.14074741 -0.11075741 -0.50027323
v -0.14288701 -0.10500981 -0.50087231
v -0.14455728 -0.09687641 -0.50162125
v -0.21789744 -0.18789303 0.26107901
v -0.22196960 -0.18195952 0.15495704
v -0.21597870 -0.17599502 0.08493300
v -0.22696660 -0.17695554 0.15495704
v -0.22987923 -0.16984463 0.13061713
v -0.20002139 -0.15001462 -0.16003878
v -0.20144318 -0.16144785 -0.08507188
v -0.16011429 -0.20010087 -0.10064942
v -0.14176890 -0.18175812 -0.31499034
v -0.13975352 -0.17974414 -0.33850646
v -0.13586083 -0.18341579 -0.33506143
v -0.13133314 -0.18759868 -0.32959431
v -0.13133314 -0.18930282 -0.31910944
v -0.13133314 -0.19010842 -0.31386697
v -0.13133314 -0.19079007 -0.30922365
v -0.13133314 -0.20234725 -0.22497016
v -0.13133314 -0.20067409 -0.23725244
v -0.23564927 -0.09687641 -0.10506804
v -0.19904131 -0.11810071 -0.29499418
v -0.24830745 -0.10669846 0.02494450
v -0.19552131 -0.12501022 -0.29499418
v -0.23083171 -0.15164131 0.06493683
v -0.23037617 -0.17046432 0.13728251
v -0.23164614 -0.17198256 0.15495704
v -0.23549743 -0.16841935 0.26107901
v -0.23748519 -0.16510402 0.26107901
v -0.22014748 -0.16020848 0.01887824
v -0.22203861 -0.15565377 0.01528342
v -0.13133314 -0.11755848 -0.50087231
v -0.13133314 -0.12045552 -0.50012344
v -0.13742067 -0.11741905 -0.49847579
v -0.14519227 -0.11518818 -0.49518055
v -0.14788403 -0.10500981 -0.49877536
v -0.14976136 -0.09961852 -0.49982387
v -0.13133314 -0.11974289 -0.50034809
v -0.14698678 -0.09687641 -0.50102210
v -0.14549595 -0.09687641 -0.50139660
v -0.22593132 -0.17985258 0.26107901
v -0.22789147 -0.17788507 0.26107901
v -0.18983410 -0.13975880 -0.27896729
v -0.19033104 -0.14040947 -0.27230191
v -0.18032321 -0.14031652 -0.33176619
v -0.18347050 -0.14347692 -0.29499418
v -0.16676778 -0.15676922 -0.31499034
v -0.15975539 -0.15975921 -0.33850646
v -0.15347461 -0.17348529 -0.29499418
v -0.14591007 -0.17591757 -0.32495099
v -0.13372122 -0.18288906 -0.34494716
v -0.15032732 -0.17032489 -0.33184105
v -0.15954833 -0.12959592 -0.45773453
v -0.13954647 -0.14953436 -0.45773453
v -0.13133314 -0.15797761 -0.45661116
v -0.13133314 -0.18670014 -0.33498651
v -0.21255533 -0.09687641 -0.27499801
v -0.20964271 -0.09930868 -0.28735518
v -0.20141558 -0.10276344 -0.33498651
v -0.19132492 -0.12257795 -0.33498651
v -0.18877120 -0.12758192 -0.33498651
v -0.22971359 -0.17594855 0.26107901
v -0.23246056 -0.17291208 0.26107901
v -0.19980052 -0.13961937 -0.20849392
v -0.18986171 -0.12971985 -0.31888473
v -0.13133314 -0.12629607 -0.49682814
v -0.13519824 -0.12519613 -0.49518055
v -0.13133314 -0.13343798 -0.49255931
v -0.14296985 -0.12296526 -0.49181038
v -0.14963713 -0.11963443 -0.48963851
v -0.15238410 -0.11297280 -0.49181038
v -0.15543476 -0.10490137 -0.49338311
v -0.15322614 -0.09687641 -0.49810135
v -0.15029971 -0.09687641 -0.50004852
v -0.16109437 -0.09687641 -0.49218488
v -0.18320823 -0.13583927 -0.33506143
v -0.17974344 -0.13972780 -0.33843154
v -0.17503631 -0.14504163 -0.33513629
v -0.16974941 -0.14975126 -0.33843154
v -0.13133314 -0.18451573 -0.34494716
v -0.13133314 -0.18550724 -0.34067833
v -0.16294409 -0.12341453 -0.46499908
v -0.15837499 -0.12841851 -0.46499908
v -0.13133314 -0.15542139 -0.46499908
v -0.13133314 -0.15667626 -0.46102977
v -0.20848317 -0.09687641 -0.30495483
v -0.20576382 -0.09687641 -0.32495099
v -0.20439722 -0.09687641 -0.33498651
v -0.19064853 -0.12127661 -0.34314975
v -0.16904542 -0.11865842 -0.45496351
v -0.18265606 -0.13367036 -0.34494716
v -0.13133314 -0.12905368 -0.49518055
v -0.13133314 -0.13622656 -0.49076194
v -0.13297582 -0.13297321 -0.49181038
v -0.13964310 -0.12964240 -0.48963851
v -0.14640701 -0.12640452 -0.48634326
v -0.15317093 -0.12316666 -0.48297316
v -0.15983821 -0.11982034 -0.47967792
v -0.15611115 -0.11639657 -0.48604369
v -0.15905139 -0.10815472 -0.48911428
v -0.16076307 -0.10149308 -0.49053723
v -0.16193640 -0.09687641 -0.49151081
v -0.16828620 -0.11521916 -0.46589774
v -0.16142567 -0.12163293 -0.47301251
v -0.15163869 -0.13162538 -0.47301251
v -0.13133314 -0.15223001 -0.47233850
v -0.20387268 -0.09687641 -0.33805710
v -0.20055974 -0.10107479 -0.34494716
v -0.17103317 -0.11201228 -0.46320164
v -0.17186141 -0.11365445 -0.45496351
v -0.13133314 -0.13882926 -0.48881471
v -0.13133314 -0.14146294 -0.48634326
v -0.13316905 -0.14316708 -0.48297316
v -0.14316308 -0.13317461 -0.48297316
v -0.14983037 -0.12984379 -0.47967792
v -0.17026016 -0.10050158 -0.48035192
v -0.16189499 -0.11315870 -0.48244888
v -0.15573844 -0.12573835 -0.47638267
v -0.16392417 -0.11590081 -0.47578353
v -0.16883835 -0.10781389 -0.47495967
v -0.16549781 -0.09687641 -0.48814070
v -0.17118502 -0.09687641 -0.48155022
v -0.17024636 -0.09687641 -0.48267359
v -0.16686440 -0.09687641 -0.48664284
v -0.16988745 -0.10992083 -0.46986705
v -0.14163086 -0.14163335 -0.47301251
v -0.13162303 -0.15162581 -0.47301251
v -0.13133314 -0.15182722 -0.47316229
v -0.20254751 -0.09687641 -0.34494716
v -0.18007474 -0.09687641 -0.45496351
v -0.17786612 -0.09687641 -0.46499908
v -0.13133314 -0.14405012 -0.48387188
v -0.13133314 -0.14682323 -0.48117572
v -0.13983636 -0.13983625 -0.47967792
v -0.13133314 -0.14879075 -0.47885406
v -0.17143349 -0.10280992 -0.47495967
v -0.17364211 -0.09687641 -0.47683197
v -0.13573658 -0.14573878 -0.47638267
v -0.17473263 -0.09687641 -0.47428566
v -0.17774189 -0.09687641 -0.46537352
v -0.13133314 -0.15012307 -0.47638267
f 1 2 6
f 1 6 13
f 1 13 29
f 1 29 50
f 1 50 49
f 1 49 72
f 1 72 106
f 1 106 105
f 1 105 140
f 1 140 139
f 1 139 119
f 1 119 118
f 1 118 81
f 1 81 54
f 1 54 36
f 1 36 35
f 1 35 34
f 1 34 22
f 1 22 21
f 1 21 15
f 1 15 8
f 1 8 3
f 1 3 4
f 1 4 5
f 1 5 12
f 1 12 26
f 1 26 43
f 1 43 66
f 1 66 96
f 1 96 97
f 1 97 95
f 1 95 94
f 1 94 93
f 1 93 92
f 1 92 133
f 1 133 158
f 1 158 157
f 1 157 132
f 1 132 162
f 1 162 161
f 1 161 183
f 1 183 205
f 1 205 218
f 1 218 212
f 1 212 210
f 1 210 209
f 1 209 189
f 1 189 188
f 1 188 170
f 1 170 145
f 1 145 169
f 1 169 143
f 1 143 110
f 1 110 115
f 1 115 109
f 1 109 76
f 1 76 51
f 1 51 30
f 1 30 14
f 1 14 7
f 1 7 2
f 2 7 6
f 3 8 9
f 3 9 4
f 4 9 10
f 4 10 11
f 4 11 5
f 5 11 12
f 6 7 14
f 6 14 31
f 6 31 53
f 6 53 80
f 6 80 117
f 6 117 116
f 6 116 151
f 6 151 150
f 6 150 152
f 6 152 179
f 6 179 198
f 6 198 201
f 6 201 200
f 6 200 199
f 6 199 214
f 6 214 216
f 6 216 217
f 6 217 208
f 6 208 207
f 6 207 206
f 6 206 184
f 6 184 165
f 6 165 164
f 6 164 163
f 6 163 134
f 6 134 98
f 6 98 67
f 6 67 45
f 6 45 44
f 6 44 27
f 6 27 13
f 8 15 9
f 9 16 17
f 9 17 18
f 9 18 19
f 9 19 20
f 9 20 10
f 9 15 21
f 9 21 22
f 9 22 16
f 10 20 23
f 10 23 24
f 10 24 11
f 11 24 12
f 12 24 25
f 12 25 26
f 13 27 28
f 13 28 29
f 14 30 31
f 16 32 33
f 16 33 17
f 16 22 34
f 16 34 35
f 16 35 36
f 16 36 32
f 17 33 37
f 17 37 18
f 18 37 38
f 18 38 39
f 18 39 19
f 19 23 20
f 19 39 23
f 23 39 40
f 23 40 24
f 24 40 25
f 25 40 26
f 26 40 41
f 26 41 42
f 26 42 43
f 27 44 28
f 28 44 45
f 28 45 46
f 28 46 47
f 28 47 48
f 28 48 49
f 28 49 50
f 28 50 29
f 30 51 52
f 30 52 53
f 30 53 31
f 32 36 54
f 32 54 55
f 32 55 56
f 32 56 57
f 32 57 58
f 32 58 37
f 32 37 33
f 37 58 59
f 37 59 38
f 38 59 60
f 38 60 61
f 38 61 62
f 38 62 39
f 39 62 63
f 39 63 64
f 39 64 40
f 40 64 43
f 40 43 41
f 41 43 42
f 43 64 65
f 43 65 66
f 45 67 46
f 46 67 68
f 46 68 47
f 47 68 69
f 47 69 70
f 47 70 48
f 48 71 72
f 48 72 49
f 48 70 73
f 48 73 74
f 48 74 75
f 48 75 71
f 51 76 52
f 52 76 77
f 52 77 78
f 52 78 79
f 52 79 80
f 52 80 53
f 54 81 82
f 54 82 55
f 55 82 56
f 56 83 57
f 56 82 84
f 56 84 85
f 56 85 86
f 56 86 87
f 56 87 83
f 57 83 87
f 57 87 58
f 58 87 88
f 58 88 59
f 59 88 89
f 59 89 60
f 60 89 61
f 61 89 90
f 61 90 62
f 62 90 91
f 62 91 92
f 62 92 93
f 62 93 94
f 62 94 63
f 63 65 64
f 63 94 95
f 63 95 65
f 65 96 66
f 65 95 97
f 65 97 96
f 67 98 99
f 67 99 100
f 67 100 68
f 68 100 69
f 69 100 101
f 69 101 102
f 69 102 70
f 70 102 73
f 71 103 104
f 71 104 105
f 71 105 106
f 71 106 72
f 71 75 107
f 71 107 85
f 71 85 103
f 73 102 108
f 73 108 74
f 74 108 107
f 74 107 75
f 76 109 77
f 77 109 78
f 78 110 111
f 78 111 112
f 78 112 113
f 78 113 114
f 78 114 79
f 78 109 115
f 78 115 110
f 79 116 117
f 79 117 80
f 79 114 116
f 81 118 82
f 82 118 84
f 84 118 119
f 84 119 104
f 84 104 103
f 84 103 85
f 85 107 120
f 85 120 86
f 86 120 121
f 86 121 122
f 86 122 123
f 86 123 87
f 87 123 124
f 87 124 125
f 87 125 126
f 87 126 88
f 88 126 127
f 88 127 89
f 89 127 90
f 90 128 91
f 90 127 129
f 90 129 125
f 90 125 130
f 90 130 131
f 90 131 132
f 90 132 128
f 91 128 133
f 91 133 92
f 98 134 135
f 98 135 136
f 98 136 99
f 99 136 137
f 99 137 101
f 99 101 100
f 101 137 138
f 101 138 108
f 101 108 102
f 104 119 139
f 104 139 140
f 104 140 105
f 107 108 141
f 107 141 120
f 108 138 142
f 108 142 141
f 110 143 111
f 111 143 112
f 112 143 144
f 112 144 145
f 112 145 146
f 112 146 147
f 112 147 148
f 112 148 113
f 113 148 149
f 113 149 114
f 114 150 151
f 114 151 116
f 114 149 152
f 114 152 150
f 120 141 142
f 120 142 138
f 120 138 153
f 120 153 154
f 120 154 122
f 120 122 121
f 122 154 155
f 122 155 123
f 123 155 124
f 124 155 125
f 125 129 126
f 125 155 156
f 125 156 154
f 125 154 130
f 126 129 127
f 128 157 158
f 128 158 133
f 128 132 157
f 130 159 160
f 130 160 161
f 130 161 131
f 130 154 159
f 131 161 162
f 131 162 132
f 134 163 135
f 135 163 136
f 136 163 164
f 136 164 165
f 136 165 166
f 136 166 137
f 137 166 138
f 138 166 167
f 138 167 168
f 138 168 153
f 143 169 144
f 144 169 145
f 145 170 171
f 145 171 146
f 146 171 172
f 146 172 147
f 147 172 173
f 147 173 174
f 147 174 175
f 147 175 176
f 147 176 148
f 148 176 177
f 148 177 149
f 149 177 178
f 149 178 152
f 152 178 179
f 153 168 154
f 154 156 155
f 154 168 167
f 154 167 159
f 159 180 181
f 159 181 160
f 159 167 180
f 160 181 182
f 160 182 183
f 160 183 161
f 165 184 166
f 166 184 185
f 166 185 186
f 166 186 187
f 166 187 167
f 167 187 186
f 167 186 180
f 170 188 172
f 170 172 171
f 172 188 173
f 173 189 190
f 173 190 191
f 173 191 174
f 173 188 189
f 174 191 192
f 174 192 175
f 175 193 194
f 175 194 177
f 175 177 176
f 175 192 195
f 175 195 181
f 175 181 196
f 175 196 197
f 175 197 193
f 177 198 178
f 177 194 199
f 177 199 200
f 177 200 201
f 177 201 198
f 178 198 179
f 180 186 202
f 180 202 196
f 180 196 181
f 181 195 182
f 182 203 183
f 182 195 203
f 183 203 204
f 183 204 205
f 184 206 185
f 185 206 207
f 185 207 186
f 186 207 208
f 186 208 202
f 189 209 190
f 190 209 210
f 190 210 191
f 191 210 192
f 192 211 212
f 192 212 195
f 192 210 211
f 193 199 194
f 193 197 213
f 193 213 214
f 193 214 199
f 195 215 203
f 195 212 215
f 196 202 197
f 197 202 213
f 202 216 213
f 202 208 217
f 202 217 216
f 203 215 204
f 204 215 218
f 204 218 205
f 210 212 211
f 212 218 215
f 213 216 214

