# https://github.com/mikedh/trimesh
v 0.15466475 -0.21716139 0.44699323
v -0.00416212 -0.26690480 0.44699323
v 0.15466475 -0.23036188 0.44699323
v 0.15466475 -0.23046826 0.26107901
v -0.00416212 -0.27830562 0.26107901
v -0.00416212 -0.27725065 0.44699323
v 0.15278359 -0.23142572 0.44699323
v 0.15464921 -0.25225040 0.39481348
v 0.15466475 -0.25224152 0.39481348
v 0.15466475 -0.24266697 0.26107901
v -0.00416212 -0.28970647 0.26107901
v -0.00030649 -0.28004324 0.44025919
v 0.00440421 -0.27725065 0.44699323
v -0.00416212 -0.29891753 0.39273867
v -0.00252970 -0.30036259 0.39071846
v 0.13297686 -0.24152334 0.44699323
v 0.14166757 -0.26084092 0.39146465
v 0.15466475 -0.26299518 0.36525649
v 0.09526014 -0.27306622 0.26107901
v 0.15466475 -0.26306611 0.35453662
v 0.14148101 -0.27075237 0.35739404
v -0.00234313 -0.29026496 0.26107901
v -0.00416212 -0.28983057 0.26171601
v 0.00031538 -0.28004324 0.44025919
v 0.00703163 -0.27703789 0.44699323
v 0.00255413 -0.30036259 0.39071846
v -0.00416212 -0.30063742 0.38782462
v -0.00416212 -0.30755240 0.36498350
v 0.11315461 -0.25162095 0.44699323
v 0.09334788 -0.26170972 0.44699323
v 0.10191421 -0.28095636 0.39168307
v 0.10171210 -0.29087669 0.36263567
v 0.14148101 -0.27075237 0.36227167
v 0.15466475 -0.26300406 0.36441928
v 0.09107804 -0.27440488 0.26107901
v 0.10171210 -0.29087669 0.35703003
v -0.00416212 -0.29041567 0.26475543
v 0.00034647 -0.29030931 0.26107901
v -0.00416212 -0.30772969 0.35499161
v 0.02500382 -0.27480382 0.44699323
v 0.01500718 -0.30600095 0.36498350
v 0.07027632 -0.29003447 0.39008147
v 0.03699046 -0.27313715 0.44699323
v 0.03500046 -0.27344742 0.44699323
v 0.00501054 -0.30755240 0.36498350
v 0.08499921 -0.26452890 0.44699323
v 0.09479374 -0.28225958 0.39501369
v 0.09931788 -0.28975078 0.36929691
v 0.09558663 -0.29217988 0.36558408
v 0.08499921 -0.29491928 0.36498350
v 0.08499921 -0.27595630 0.26107901
v 0.09571101 -0.29216215 0.35420901
v 0.08499921 -0.29491040 0.35499161
v 0.00149694 -0.29030931 0.26107901
v 0.00501054 -0.30771196 0.35499161
v 0.06096374 -0.30014983 0.36050627
v 0.05500929 -0.30061969 0.36208966
v 0.09264827 -0.29085007 0.37184492
v 0.08499921 -0.28479505 0.39499548
v 0.05348569 -0.27052185 0.44699323
v 0.06096374 -0.30014983 0.35932323
v 0.06205202 -0.28022942 0.26107901
f 1 2 6
f 1 6 13
f 1 13 25
f 1 25 40
f 1 40 44
f 1 44 43
f 1 43 60
f 1 60 46
f 1 46 30
f 1 30 29
f 1 29 16
f 1 16 7
f 1 7 3
f 1 3 9
f 1 9 18
f 1 18 34
f 1 34 20
f 1 20 10
f 1 10 4
f 1 4 5
f 1 5 2
f 2 5 11
f 2 11 23
f 2 23 37
f 2 37 39
f 2 39 28
f 2 28 27
f 2 27 14
f 2 14 6
f 3 7 8
f 3 8 9
f 4 10 19
f 4 19 35
f 4 35 51
f 4 51 62
f 4 62 54
f 4 54 38
f 4 38 22
f 4 22 11
f 4 11 5
f 6 12 24
f 6 24 13
f 6 14 15
f 6 15 12
f 7 16 17
f 7 17 8
f 8 17 18
f 8 18 9
f 10 20 21
f 10 21 19
f 11 22 23
f 12 15 26
f 12 26 24
f 13 24 26
f 13 26 25
f 14 27 15
f 15 27 28
f 15 28 45
f 15 45 26
f 16 29 17
f 17 29 30
f 17 30 31
f 17 31 32
f 17 32 33
f 17 33 18
f 18 33 34
f 19 21 36
f 19 36 35
f 20 34 33
f 20 33 21
f 21 33 32
f 21 32 36
f 22 37 23
f 22 38 39
f 22 39 37
f 25 26 40
f 26 41 42
f 26 42 43
f 26 43 44
f 26 44 40
f 26 45 41
f 28 39 45
f 30 46 47
f 30 47 31
f 31 47 48
f 31 48 32
f 32 48 49
f 32 49 50
f 32 50 36
f 35 36 52
f 35 52 51
f 36 50 53
f 36 53 52
f 38 54 39
f 39 55 45
f 39 54 55
f 41 45 56
f 41 56 57
f 41 57 42
f 42 50 58
f 42 58 59
f 42 59 46
f 42 46 60
f 42 60 43
f 42 57 56
f 42 56 50
f 45 55 56
f 46 59 47
f 47 59 58
f 47 58 49
f 47 49 48
f 49 58 50
f 50 56 61
f 50 61 53
f 51 52 53
f 51 53 62
f 53 61 62
f 54 62 61
f 54 61 55
f 55 61 56

